<?xml version="1.0" encoding="utf-8" ?>
<svg baseProfile="tiny" height="100%" version="1.2" width="100%" xmlns="http://www.w3.org/2000/svg" xmlns:ev="http://www.w3.org/2001/xml-events" xmlns:xlink="http://www.w3.org/1999/xlink"><defs /><line stroke="rgb(10%,10%,16%)" x1="206.743" x2="206.743" y1="0" y2="10.0" /><line stroke="rgb(10%,10%,16%)" x1="206.743" x2="206.743" y1="10.0" y2="20.0" /><line stroke="rgb(10%,10%,16%)" x1="206.743" x2="206.743" y1="20.0" y2="30.0" /><line stroke="rgb(10%,10%,16%)" x1="206.743" x2="206.743" y1="30.0" y2="40.0" /><line stroke="rgb(10%,10%,16%)" x1="206.743" x2="206.743" y1="40.0" y2="50.0" /><line stroke="rgb(10%,10%,16%)" x1="206.743" x2="206.743" y1="50.0" y2="60.0" /><line stroke="rgb(10%,10%,16%)" x1="206.743" x2="206.743" y1="60.0" y2="70.0" /><line stroke="rgb(10%,10%,16%)" x1="206.743" x2="206.743" y1="70.0" y2="80.0" /><line stroke="rgb(10%,10%,16%)" x1="206.743" x2="206.743" y1="80.0" y2="90.0" /><line stroke="rgb(10%,10%,16%)" x1="206.743" x2="206.743" y1="90.0" y2="100.0" /><line stroke="rgb(10%,10%,16%)" x1="206.743" x2="206.743" y1="100.0" y2="110.0" /><line stroke="rgb(10%,10%,16%)" x1="206.743" x2="206.743" y1="110.0" y2="120.0" /><line stroke="rgb(10%,10%,16%)" x1="206.743" x2="206.743" y1="120.0" y2="130.0" /><line stroke="rgb(10%,10%,16%)" x1="206.743" x2="206.743" y1="130.0" y2="140.0" /><line stroke="rgb(10%,10%,16%)" x1="206.743" x2="206.743" y1="140.0" y2="150.0" /><line stroke="rgb(10%,10%,16%)" x1="206.743" x2="206.743" y1="150.0" y2="160.0" /><line stroke="rgb(10%,10%,16%)" x1="206.743" x2="206.743" y1="160.0" y2="170.0" /><line stroke="rgb(10%,10%,16%)" x1="206.743" x2="206.743" y1="170.0" y2="180.0" /><line stroke="rgb(10%,10%,16%)" x1="206.743" x2="206.743" y1="180.0" y2="190.0" /><line stroke="rgb(10%,10%,16%)" x1="206.743" x2="206.743" y1="190.0" y2="200.0" /><line stroke="rgb(10%,10%,16%)" x1="206.743" x2="206.743" y1="200.0" y2="210.0" /><line stroke="rgb(10%,10%,16%)" x1="206.743" x2="206.743" y1="210.0" y2="220.0" /><line stroke="rgb(10%,10%,16%)" x1="206.743" x2="206.743" y1="220.0" y2="230.0" /><line stroke="rgb(10%,10%,16%)" x1="206.743" x2="206.743" y1="230.0" y2="240.0" /><line stroke="rgb(10%,10%,16%)" x1="206.743" x2="206.743" y1="240.0" y2="250.0" /><line stroke="rgb(10%,10%,16%)" x1="206.743" x2="206.743" y1="250.0" y2="260.0" /><line stroke="rgb(10%,10%,16%)" x1="206.743" x2="206.743" y1="260.0" y2="270.0" /><line stroke="rgb(10%,10%,16%)" x1="206.743" x2="206.743" y1="270.0" y2="280.0" /><line stroke="rgb(10%,10%,16%)" x1="206.743" x2="206.743" y1="280.0" y2="290.0" /><line stroke="rgb(10%,10%,16%)" x1="206.743" x2="206.743" y1="290.0" y2="300.0" /><line stroke="rgb(10%,10%,16%)" x1="206.743" x2="206.743" y1="300.0" y2="310.0" /><line stroke="rgb(10%,10%,16%)" x1="206.743" x2="206.743" y1="310.0" y2="320.0" /><line stroke="rgb(10%,10%,16%)" x1="206.743" x2="202.5168" y1="320.0" y2="329.0631" /><line stroke="rgb(10%,10%,16%)" x1="202.5168" x2="198.2906" y1="329.0631" y2="338.1262" /><line stroke="rgb(10%,10%,16%)" x1="198.2906" x2="194.0645" y1="338.1262" y2="347.1892" /><line stroke="rgb(10%,10%,16%)" x1="194.0645" x2="189.8383" y1="347.1892" y2="356.2523" /><line stroke="rgb(10%,10%,16%)" x1="189.8383" x2="185.6121" y1="356.2523" y2="365.3154" /><line stroke="rgb(10%,10%,16%)" x1="185.6121" x2="181.3859" y1="365.3154" y2="374.3785" /><line stroke="rgb(10%,10%,16%)" x1="181.3859" x2="177.1597" y1="374.3785" y2="383.4415" /><line stroke="rgb(10%,10%,16%)" x1="177.1597" x2="172.9335" y1="383.4415" y2="392.5046" /><line stroke="rgb(10%,10%,16%)" x1="172.9335" x2="168.7074" y1="392.5046" y2="401.5677" /><line stroke="rgb(10%,10%,16%)" x1="168.7074" x2="164.4812" y1="401.5677" y2="410.6308" /><line stroke="rgb(10%,10%,16%)" x1="164.4812" x2="160.255" y1="410.6308" y2="419.6939" /><line stroke="rgb(10%,10%,16%)" x1="160.255" x2="156.0288" y1="419.6939" y2="428.7569" /><line stroke="rgb(10%,10%,16%)" x1="156.0288" x2="151.8026" y1="428.7569" y2="437.82" /><line stroke="rgb(10%,10%,16%)" x1="151.8026" x2="147.5764" y1="437.82" y2="446.8831" /><line stroke="rgb(10%,10%,16%)" x1="147.5764" x2="143.3503" y1="446.8831" y2="455.9462" /><line stroke="rgb(10%,10%,16%)" x1="143.3503" x2="139.1241" y1="455.9462" y2="465.0092" /><line stroke="rgb(10%,10%,16%)" x1="139.1241" x2="131.4636" y1="465.0092" y2="471.4371" /><line stroke="rgb(10%,10%,16%)" x1="131.4636" x2="123.8032" y1="471.4371" y2="477.865" /><line stroke="rgb(10%,10%,16%)" x1="123.8032" x2="116.1427" y1="477.865" y2="484.2929" /><line stroke="rgb(10%,10%,16%)" x1="116.1427" x2="108.4823" y1="484.2929" y2="490.7208" /><line stroke="rgb(10%,10%,16%)" x1="108.4823" x2="100.8219" y1="490.7208" y2="497.1486" /><line stroke="rgb(10%,10%,16%)" x1="100.8219" x2="93.1614" y1="497.1486" y2="503.5765" /><line stroke="rgb(10%,10%,16%)" x1="93.1614" x2="85.501" y1="503.5765" y2="510.0044" /><line stroke="rgb(10%,10%,16%)" x1="85.501" x2="77.8405" y1="510.0044" y2="516.4323" /><line stroke="rgb(10%,10%,16%)" x1="77.8405" x2="68.1813" y1="516.4323" y2="519.0204" /><line stroke="rgb(10%,10%,16%)" x1="68.1813" x2="58.522" y1="519.0204" y2="521.6086" /><line stroke="rgb(10%,10%,16%)" x1="58.522" x2="48.8627" y1="521.6086" y2="524.1968" /><line stroke="rgb(10%,10%,16%)" x1="48.8627" x2="39.2035" y1="524.1968" y2="526.785" /><line stroke="rgb(10%,10%,16%)" x1="39.2035" x2="29.3554" y1="526.785" y2="525.0485" /><line stroke="rgb(10%,10%,16%)" x1="29.3554" x2="19.5073" y1="525.0485" y2="523.3121" /><line stroke="rgb(10%,10%,16%)" x1="19.5073" x2="11.3158" y1="523.3121" y2="517.5763" /><line stroke="rgb(10%,10%,16%)" x1="11.3158" x2="6.3158" y1="517.5763" y2="508.916" /><line stroke="rgb(10%,10%,16%)" x1="11.3158" x2="1.4677" y1="517.5763" y2="515.8398" /><line stroke="rgb(10%,10%,16%)" x1="19.5073" x2="9.8481" y1="523.3121" y2="525.9002" /><line stroke="rgb(10%,10%,16%)" x1="9.8481" x2="0.0" y1="525.9002" y2="524.1638" /><line stroke="rgb(10%,10%,16%)" x1="9.8481" x2="2.1876" y1="525.9002" y2="532.3281" /><line stroke="rgb(10%,10%,16%)" x1="39.2035" x2="31.543" y1="526.785" y2="533.2129" /><line stroke="rgb(10%,10%,16%)" x1="31.543" x2="23.8826" y1="533.2129" y2="539.6408" /><line stroke="rgb(10%,10%,16%)" x1="23.8826" x2="14.2233" y1="539.6408" y2="542.229" /><line stroke="rgb(10%,10%,16%)" x1="14.2233" x2="4.3753" y1="542.229" y2="540.4925" /><line stroke="rgb(10%,10%,16%)" x1="14.2233" x2="6.5629" y1="542.229" y2="548.6568" /><line stroke="rgb(10%,10%,16%)" x1="23.8826" x2="19.6564" y1="539.6408" y2="548.7038" /><line stroke="rgb(10%,10%,16%)" x1="19.6564" x2="11.996" y1="548.7038" y2="555.1317" /><line stroke="rgb(10%,10%,16%)" x1="19.6564" x2="19.6564" y1="548.7038" y2="558.7038" /><line stroke="rgb(10%,10%,16%)" x1="77.8405" x2="73.6143" y1="516.4323" y2="525.4953" /><line stroke="rgb(10%,10%,16%)" x1="73.6143" x2="69.3882" y1="525.4953" y2="534.5584" /><line stroke="rgb(10%,10%,16%)" x1="69.3882" x2="65.162" y1="534.5584" y2="543.6215" /><line stroke="rgb(10%,10%,16%)" x1="65.162" x2="60.9358" y1="543.6215" y2="552.6846" /><line stroke="rgb(10%,10%,16%)" x1="60.9358" x2="53.2753" y1="552.6846" y2="559.1124" /><line stroke="rgb(10%,10%,16%)" x1="53.2753" x2="45.6149" y1="559.1124" y2="565.5403" /><line stroke="rgb(10%,10%,16%)" x1="45.6149" x2="35.9556" y1="565.5403" y2="568.1285" /><line stroke="rgb(10%,10%,16%)" x1="35.9556" x2="26.1076" y1="568.1285" y2="566.392" /><line stroke="rgb(10%,10%,16%)" x1="35.9556" x2="28.2952" y1="568.1285" y2="574.5564" /><line stroke="rgb(10%,10%,16%)" x1="45.6149" x2="41.3887" y1="565.5403" y2="574.6034" /><line stroke="rgb(10%,10%,16%)" x1="41.3887" x2="33.7283" y1="574.6034" y2="581.0313" /><line stroke="rgb(10%,10%,16%)" x1="41.3887" x2="41.3887" y1="574.6034" y2="584.6034" /><line stroke="rgb(10%,10%,16%)" x1="60.9358" x2="60.9358" y1="552.6846" y2="562.6846" /><line stroke="rgb(10%,10%,16%)" x1="60.9358" x2="60.9358" y1="562.6846" y2="572.6846" /><line stroke="rgb(10%,10%,16%)" x1="60.9358" x2="56.7096" y1="572.6846" y2="581.7476" /><line stroke="rgb(10%,10%,16%)" x1="56.7096" x2="49.0492" y1="581.7476" y2="588.1755" /><line stroke="rgb(10%,10%,16%)" x1="56.7096" x2="56.7096" y1="581.7476" y2="591.7476" /><line stroke="rgb(10%,10%,16%)" x1="60.9358" x2="65.162" y1="572.6846" y2="581.7476" /><line stroke="rgb(10%,10%,16%)" x1="65.162" x2="65.162" y1="581.7476" y2="591.7476" /><line stroke="rgb(10%,10%,16%)" x1="65.162" x2="72.8224" y1="581.7476" y2="588.1755" /><line stroke="rgb(10%,10%,16%)" x1="139.1241" x2="139.1241" y1="465.0092" y2="475.0092" /><line stroke="rgb(10%,10%,16%)" x1="139.1241" x2="139.1241" y1="475.0092" y2="485.0092" /><line stroke="rgb(10%,10%,16%)" x1="139.1241" x2="139.1241" y1="485.0092" y2="495.0092" /><line stroke="rgb(10%,10%,16%)" x1="139.1241" x2="139.1241" y1="495.0092" y2="505.0092" /><line stroke="rgb(10%,10%,16%)" x1="139.1241" x2="139.1241" y1="505.0092" y2="515.0092" /><line stroke="rgb(10%,10%,16%)" x1="139.1241" x2="139.1241" y1="515.0092" y2="525.0092" /><line stroke="rgb(10%,10%,16%)" x1="139.1241" x2="139.1241" y1="525.0092" y2="535.0092" /><line stroke="rgb(10%,10%,16%)" x1="139.1241" x2="139.1241" y1="535.0092" y2="545.0092" /><line stroke="rgb(10%,10%,16%)" x1="139.1241" x2="134.8979" y1="545.0092" y2="554.0723" /><line stroke="rgb(10%,10%,16%)" x1="134.8979" x2="130.6717" y1="554.0723" y2="563.1354" /><line stroke="rgb(10%,10%,16%)" x1="130.6717" x2="126.4455" y1="563.1354" y2="572.1985" /><line stroke="rgb(10%,10%,16%)" x1="126.4455" x2="122.2193" y1="572.1985" y2="581.2616" /><line stroke="rgb(10%,10%,16%)" x1="122.2193" x2="114.5589" y1="581.2616" y2="587.6894" /><line stroke="rgb(10%,10%,16%)" x1="114.5589" x2="106.8985" y1="587.6894" y2="594.1173" /><line stroke="rgb(10%,10%,16%)" x1="106.8985" x2="97.2392" y1="594.1173" y2="596.7055" /><line stroke="rgb(10%,10%,16%)" x1="97.2392" x2="87.3911" y1="596.7055" y2="594.969" /><line stroke="rgb(10%,10%,16%)" x1="97.2392" x2="89.5788" y1="596.7055" y2="603.1334" /><line stroke="rgb(10%,10%,16%)" x1="106.8985" x2="102.6723" y1="594.1173" y2="603.1804" /><line stroke="rgb(10%,10%,16%)" x1="102.6723" x2="95.0118" y1="603.1804" y2="609.6083" /><line stroke="rgb(10%,10%,16%)" x1="102.6723" x2="102.6723" y1="603.1804" y2="613.1804" /><line stroke="rgb(10%,10%,16%)" x1="122.2193" x2="122.2193" y1="581.2616" y2="591.2616" /><line stroke="rgb(10%,10%,16%)" x1="122.2193" x2="122.2193" y1="591.2616" y2="601.2616" /><line stroke="rgb(10%,10%,16%)" x1="122.2193" x2="117.9932" y1="601.2616" y2="610.3246" /><line stroke="rgb(10%,10%,16%)" x1="117.9932" x2="110.3327" y1="610.3246" y2="616.7525" /><line stroke="rgb(10%,10%,16%)" x1="117.9932" x2="117.9932" y1="610.3246" y2="620.3246" /><line stroke="rgb(10%,10%,16%)" x1="122.2193" x2="126.4455" y1="601.2616" y2="610.3246" /><line stroke="rgb(10%,10%,16%)" x1="126.4455" x2="126.4455" y1="610.3246" y2="620.3246" /><line stroke="rgb(10%,10%,16%)" x1="126.4455" x2="134.106" y1="610.3246" y2="616.7525" /><line stroke="rgb(10%,10%,16%)" x1="139.1241" x2="143.3503" y1="545.0092" y2="554.0723" /><line stroke="rgb(10%,10%,16%)" x1="143.3503" x2="147.5764" y1="554.0723" y2="563.1354" /><line stroke="rgb(10%,10%,16%)" x1="147.5764" x2="151.8026" y1="563.1354" y2="572.1985" /><line stroke="rgb(10%,10%,16%)" x1="151.8026" x2="156.0288" y1="572.1985" y2="581.2616" /><line stroke="rgb(10%,10%,16%)" x1="156.0288" x2="156.0288" y1="581.2616" y2="591.2616" /><line stroke="rgb(10%,10%,16%)" x1="156.0288" x2="156.0288" y1="591.2616" y2="601.2616" /><line stroke="rgb(10%,10%,16%)" x1="156.0288" x2="151.8026" y1="601.2616" y2="610.3246" /><line stroke="rgb(10%,10%,16%)" x1="151.8026" x2="144.1422" y1="610.3246" y2="616.7525" /><line stroke="rgb(10%,10%,16%)" x1="151.8026" x2="151.8026" y1="610.3246" y2="620.3246" /><line stroke="rgb(10%,10%,16%)" x1="156.0288" x2="160.255" y1="601.2616" y2="610.3246" /><line stroke="rgb(10%,10%,16%)" x1="160.255" x2="160.255" y1="610.3246" y2="620.3246" /><line stroke="rgb(10%,10%,16%)" x1="160.255" x2="167.9154" y1="610.3246" y2="616.7525" /><line stroke="rgb(10%,10%,16%)" x1="156.0288" x2="163.6893" y1="581.2616" y2="587.6894" /><line stroke="rgb(10%,10%,16%)" x1="163.6893" x2="171.3497" y1="587.6894" y2="594.1173" /><line stroke="rgb(10%,10%,16%)" x1="171.3497" x2="175.5759" y1="594.1173" y2="603.1804" /><line stroke="rgb(10%,10%,16%)" x1="175.5759" x2="175.5759" y1="603.1804" y2="613.1804" /><line stroke="rgb(10%,10%,16%)" x1="175.5759" x2="183.2363" y1="603.1804" y2="609.6083" /><line stroke="rgb(10%,10%,16%)" x1="171.3497" x2="181.009" y1="594.1173" y2="596.7055" /><line stroke="rgb(10%,10%,16%)" x1="181.009" x2="188.6694" y1="596.7055" y2="603.1334" /><line stroke="rgb(10%,10%,16%)" x1="181.009" x2="190.857" y1="596.7055" y2="594.969" /><line stroke="rgb(10%,10%,16%)" x1="206.743" x2="210.9692" y1="320.0" y2="329.0631" /><line stroke="rgb(10%,10%,16%)" x1="210.9692" x2="215.1954" y1="329.0631" y2="338.1262" /><line stroke="rgb(10%,10%,16%)" x1="215.1954" x2="219.4215" y1="338.1262" y2="347.1892" /><line stroke="rgb(10%,10%,16%)" x1="219.4215" x2="223.6477" y1="347.1892" y2="356.2523" /><line stroke="rgb(10%,10%,16%)" x1="223.6477" x2="227.8739" y1="356.2523" y2="365.3154" /><line stroke="rgb(10%,10%,16%)" x1="227.8739" x2="232.1001" y1="365.3154" y2="374.3785" /><line stroke="rgb(10%,10%,16%)" x1="232.1001" x2="236.3263" y1="374.3785" y2="383.4415" /><line stroke="rgb(10%,10%,16%)" x1="236.3263" x2="240.5525" y1="383.4415" y2="392.5046" /><line stroke="rgb(10%,10%,16%)" x1="240.5525" x2="244.7786" y1="392.5046" y2="401.5677" /><line stroke="rgb(10%,10%,16%)" x1="244.7786" x2="249.0048" y1="401.5677" y2="410.6308" /><line stroke="rgb(10%,10%,16%)" x1="249.0048" x2="253.231" y1="410.6308" y2="419.6939" /><line stroke="rgb(10%,10%,16%)" x1="253.231" x2="257.4572" y1="419.6939" y2="428.7569" /><line stroke="rgb(10%,10%,16%)" x1="257.4572" x2="261.6834" y1="428.7569" y2="437.82" /><line stroke="rgb(10%,10%,16%)" x1="261.6834" x2="265.9096" y1="437.82" y2="446.8831" /><line stroke="rgb(10%,10%,16%)" x1="265.9096" x2="270.1357" y1="446.8831" y2="455.9462" /><line stroke="rgb(10%,10%,16%)" x1="270.1357" x2="274.3619" y1="455.9462" y2="465.0092" /><line stroke="rgb(10%,10%,16%)" x1="274.3619" x2="274.3619" y1="465.0092" y2="475.0092" /><line stroke="rgb(10%,10%,16%)" x1="274.3619" x2="274.3619" y1="475.0092" y2="485.0092" /><line stroke="rgb(10%,10%,16%)" x1="274.3619" x2="274.3619" y1="485.0092" y2="495.0092" /><line stroke="rgb(10%,10%,16%)" x1="274.3619" x2="274.3619" y1="495.0092" y2="505.0092" /><line stroke="rgb(10%,10%,16%)" x1="274.3619" x2="274.3619" y1="505.0092" y2="515.0092" /><line stroke="rgb(10%,10%,16%)" x1="274.3619" x2="274.3619" y1="515.0092" y2="525.0092" /><line stroke="rgb(10%,10%,16%)" x1="274.3619" x2="274.3619" y1="525.0092" y2="535.0092" /><line stroke="rgb(10%,10%,16%)" x1="274.3619" x2="274.3619" y1="535.0092" y2="545.0092" /><line stroke="rgb(10%,10%,16%)" x1="274.3619" x2="270.1357" y1="545.0092" y2="554.0723" /><line stroke="rgb(10%,10%,16%)" x1="270.1357" x2="265.9096" y1="554.0723" y2="563.1354" /><line stroke="rgb(10%,10%,16%)" x1="265.9096" x2="261.6834" y1="563.1354" y2="572.1985" /><line stroke="rgb(10%,10%,16%)" x1="261.6834" x2="257.4572" y1="572.1985" y2="581.2616" /><line stroke="rgb(10%,10%,16%)" x1="257.4572" x2="249.7967" y1="581.2616" y2="587.6894" /><line stroke="rgb(10%,10%,16%)" x1="249.7967" x2="242.1363" y1="587.6894" y2="594.1173" /><line stroke="rgb(10%,10%,16%)" x1="242.1363" x2="232.477" y1="594.1173" y2="596.7055" /><line stroke="rgb(10%,10%,16%)" x1="232.477" x2="222.629" y1="596.7055" y2="594.969" /><line stroke="rgb(10%,10%,16%)" x1="232.477" x2="224.8166" y1="596.7055" y2="603.1334" /><line stroke="rgb(10%,10%,16%)" x1="242.1363" x2="237.9101" y1="594.1173" y2="603.1804" /><line stroke="rgb(10%,10%,16%)" x1="237.9101" x2="230.2497" y1="603.1804" y2="609.6083" /><line stroke="rgb(10%,10%,16%)" x1="237.9101" x2="237.9101" y1="603.1804" y2="613.1804" /><line stroke="rgb(10%,10%,16%)" x1="257.4572" x2="257.4572" y1="581.2616" y2="591.2616" /><line stroke="rgb(10%,10%,16%)" x1="257.4572" x2="257.4572" y1="591.2616" y2="601.2616" /><line stroke="rgb(10%,10%,16%)" x1="257.4572" x2="253.231" y1="601.2616" y2="610.3246" /><line stroke="rgb(10%,10%,16%)" x1="253.231" x2="245.5706" y1="610.3246" y2="616.7525" /><line stroke="rgb(10%,10%,16%)" x1="253.231" x2="253.231" y1="610.3246" y2="620.3246" /><line stroke="rgb(10%,10%,16%)" x1="257.4572" x2="261.6834" y1="601.2616" y2="610.3246" /><line stroke="rgb(10%,10%,16%)" x1="261.6834" x2="261.6834" y1="610.3246" y2="620.3246" /><line stroke="rgb(10%,10%,16%)" x1="261.6834" x2="269.3438" y1="610.3246" y2="616.7525" /><line stroke="rgb(10%,10%,16%)" x1="274.3619" x2="278.5881" y1="545.0092" y2="554.0723" /><line stroke="rgb(10%,10%,16%)" x1="278.5881" x2="282.8143" y1="554.0723" y2="563.1354" /><line stroke="rgb(10%,10%,16%)" x1="282.8143" x2="287.0405" y1="563.1354" y2="572.1985" /><line stroke="rgb(10%,10%,16%)" x1="287.0405" x2="291.2667" y1="572.1985" y2="581.2616" /><line stroke="rgb(10%,10%,16%)" x1="291.2667" x2="291.2667" y1="581.2616" y2="591.2616" /><line stroke="rgb(10%,10%,16%)" x1="291.2667" x2="291.2667" y1="591.2616" y2="601.2616" /><line stroke="rgb(10%,10%,16%)" x1="291.2667" x2="287.0405" y1="601.2616" y2="610.3246" /><line stroke="rgb(10%,10%,16%)" x1="287.0405" x2="279.38" y1="610.3246" y2="616.7525" /><line stroke="rgb(10%,10%,16%)" x1="287.0405" x2="287.0405" y1="610.3246" y2="620.3246" /><line stroke="rgb(10%,10%,16%)" x1="291.2667" x2="295.4928" y1="601.2616" y2="610.3246" /><line stroke="rgb(10%,10%,16%)" x1="295.4928" x2="295.4928" y1="610.3246" y2="620.3246" /><line stroke="rgb(10%,10%,16%)" x1="295.4928" x2="303.1533" y1="610.3246" y2="616.7525" /><line stroke="rgb(10%,10%,16%)" x1="291.2667" x2="298.9271" y1="581.2616" y2="587.6894" /><line stroke="rgb(10%,10%,16%)" x1="298.9271" x2="306.5875" y1="587.6894" y2="594.1173" /><line stroke="rgb(10%,10%,16%)" x1="306.5875" x2="310.8137" y1="594.1173" y2="603.1804" /><line stroke="rgb(10%,10%,16%)" x1="310.8137" x2="310.8137" y1="603.1804" y2="613.1804" /><line stroke="rgb(10%,10%,16%)" x1="310.8137" x2="318.4742" y1="603.1804" y2="609.6083" /><line stroke="rgb(10%,10%,16%)" x1="306.5875" x2="316.2468" y1="594.1173" y2="596.7055" /><line stroke="rgb(10%,10%,16%)" x1="316.2468" x2="323.9072" y1="596.7055" y2="603.1334" /><line stroke="rgb(10%,10%,16%)" x1="316.2468" x2="326.0949" y1="596.7055" y2="594.969" /><line stroke="rgb(10%,10%,16%)" x1="274.3619" x2="282.0224" y1="465.0092" y2="471.4371" /><line stroke="rgb(10%,10%,16%)" x1="282.0224" x2="289.6828" y1="471.4371" y2="477.865" /><line stroke="rgb(10%,10%,16%)" x1="289.6828" x2="297.3433" y1="477.865" y2="484.2929" /><line stroke="rgb(10%,10%,16%)" x1="297.3433" x2="305.0037" y1="484.2929" y2="490.7208" /><line stroke="rgb(10%,10%,16%)" x1="305.0037" x2="312.6641" y1="490.7208" y2="497.1486" /><line stroke="rgb(10%,10%,16%)" x1="312.6641" x2="320.3246" y1="497.1486" y2="503.5765" /><line stroke="rgb(10%,10%,16%)" x1="320.3246" x2="327.985" y1="503.5765" y2="510.0044" /><line stroke="rgb(10%,10%,16%)" x1="327.985" x2="335.6455" y1="510.0044" y2="516.4323" /><line stroke="rgb(10%,10%,16%)" x1="335.6455" x2="339.8717" y1="516.4323" y2="525.4953" /><line stroke="rgb(10%,10%,16%)" x1="339.8717" x2="344.0978" y1="525.4953" y2="534.5584" /><line stroke="rgb(10%,10%,16%)" x1="344.0978" x2="348.324" y1="534.5584" y2="543.6215" /><line stroke="rgb(10%,10%,16%)" x1="348.324" x2="352.5502" y1="543.6215" y2="552.6846" /><line stroke="rgb(10%,10%,16%)" x1="352.5502" x2="352.5502" y1="552.6846" y2="562.6846" /><line stroke="rgb(10%,10%,16%)" x1="352.5502" x2="352.5502" y1="562.6846" y2="572.6846" /><line stroke="rgb(10%,10%,16%)" x1="352.5502" x2="348.324" y1="572.6846" y2="581.7476" /><line stroke="rgb(10%,10%,16%)" x1="348.324" x2="340.6636" y1="581.7476" y2="588.1755" /><line stroke="rgb(10%,10%,16%)" x1="348.324" x2="348.324" y1="581.7476" y2="591.7476" /><line stroke="rgb(10%,10%,16%)" x1="352.5502" x2="356.7764" y1="572.6846" y2="581.7476" /><line stroke="rgb(10%,10%,16%)" x1="356.7764" x2="356.7764" y1="581.7476" y2="591.7476" /><line stroke="rgb(10%,10%,16%)" x1="356.7764" x2="364.4368" y1="581.7476" y2="588.1755" /><line stroke="rgb(10%,10%,16%)" x1="352.5502" x2="360.2107" y1="552.6846" y2="559.1124" /><line stroke="rgb(10%,10%,16%)" x1="360.2107" x2="367.8711" y1="559.1124" y2="565.5403" /><line stroke="rgb(10%,10%,16%)" x1="367.8711" x2="372.0973" y1="565.5403" y2="574.6034" /><line stroke="rgb(10%,10%,16%)" x1="372.0973" x2="372.0973" y1="574.6034" y2="584.6034" /><line stroke="rgb(10%,10%,16%)" x1="372.0973" x2="379.7577" y1="574.6034" y2="581.0313" /><line stroke="rgb(10%,10%,16%)" x1="367.8711" x2="377.5304" y1="565.5403" y2="568.1285" /><line stroke="rgb(10%,10%,16%)" x1="377.5304" x2="385.1908" y1="568.1285" y2="574.5564" /><line stroke="rgb(10%,10%,16%)" x1="377.5304" x2="387.3784" y1="568.1285" y2="566.392" /><line stroke="rgb(10%,10%,16%)" x1="335.6455" x2="345.3047" y1="516.4323" y2="519.0204" /><line stroke="rgb(10%,10%,16%)" x1="345.3047" x2="354.964" y1="519.0204" y2="521.6086" /><line stroke="rgb(10%,10%,16%)" x1="354.964" x2="364.6233" y1="521.6086" y2="524.1968" /><line stroke="rgb(10%,10%,16%)" x1="364.6233" x2="374.2825" y1="524.1968" y2="526.785" /><line stroke="rgb(10%,10%,16%)" x1="374.2825" x2="381.943" y1="526.785" y2="533.2129" /><line stroke="rgb(10%,10%,16%)" x1="381.943" x2="389.6034" y1="533.2129" y2="539.6408" /><line stroke="rgb(10%,10%,16%)" x1="389.6034" x2="393.8296" y1="539.6408" y2="548.7038" /><line stroke="rgb(10%,10%,16%)" x1="393.8296" x2="393.8296" y1="548.7038" y2="558.7038" /><line stroke="rgb(10%,10%,16%)" x1="393.8296" x2="401.49" y1="548.7038" y2="555.1317" /><line stroke="rgb(10%,10%,16%)" x1="389.6034" x2="399.2627" y1="539.6408" y2="542.229" /><line stroke="rgb(10%,10%,16%)" x1="399.2627" x2="406.9231" y1="542.229" y2="548.6568" /><line stroke="rgb(10%,10%,16%)" x1="399.2627" x2="409.1107" y1="542.229" y2="540.4925" /><line stroke="rgb(10%,10%,16%)" x1="374.2825" x2="384.1306" y1="526.785" y2="525.0485" /><line stroke="rgb(10%,10%,16%)" x1="384.1306" x2="393.9787" y1="525.0485" y2="523.3121" /><line stroke="rgb(10%,10%,16%)" x1="393.9787" x2="403.6379" y1="523.3121" y2="525.9002" /><line stroke="rgb(10%,10%,16%)" x1="403.6379" x2="411.2984" y1="525.9002" y2="532.3281" /><line stroke="rgb(10%,10%,16%)" x1="403.6379" x2="413.486" y1="525.9002" y2="524.1638" /><line stroke="rgb(10%,10%,16%)" x1="393.9787" x2="402.1702" y1="523.3121" y2="517.5763" /><line stroke="rgb(10%,10%,16%)" x1="402.1702" x2="412.0183" y1="517.5763" y2="515.8398" /><line stroke="rgb(10%,10%,16%)" x1="402.1702" x2="407.1702" y1="517.5763" y2="508.916" /></svg>