<?xml version="1.0" encoding="utf-8" ?>
<svg baseProfile="tiny" height="100%" version="1.2" width="100%" xmlns="http://www.w3.org/2000/svg" xmlns:ev="http://www.w3.org/2001/xml-events" xmlns:xlink="http://www.w3.org/1999/xlink"><defs /><line stroke="rgb(10%,10%,16%)" x1="208" x2="484" y1="18" y2="24" /><line stroke="rgb(10%,10%,16%)" x1="484" x2="600" y1="24" y2="233" /><line stroke="rgb(10%,10%,16%)" x1="600" x2="572" y1="233" y2="403" /><line stroke="rgb(10%,10%,16%)" x1="572" x2="481" y1="403" y2="513" /><line stroke="rgb(10%,10%,16%)" x1="481" x2="428" y1="513" y2="549" /><line stroke="rgb(10%,10%,16%)" x1="428" x2="314" y1="549" y2="557" /><line stroke="rgb(10%,10%,16%)" x1="314" x2="314" y1="557" y2="557" /><line stroke="rgb(10%,10%,16%)" x1="314" x2="165" y1="557" y2="523" /><line stroke="rgb(10%,10%,16%)" x1="165" x2="-59" y1="523" y2="336" /><line stroke="rgb(10%,10%,16%)" x1="-59" x2="1" y1="336" y2="175" /><line stroke="rgb(10%,10%,16%)" x1="1" x2="37" y1="175" y2="124" /><line stroke="rgb(10%,10%,16%)" x1="37" x2="208" y1="124" y2="18" /><circle cx="208" cy="18" r="3" /><circle cx="484" cy="24" r="3" /><circle cx="249" cy="41" r="3" /><circle cx="435" cy="56" r="3" /><circle cx="338" cy="65" r="3" /><circle cx="325" cy="76" r="3" /><circle cx="281" cy="77" r="3" /><circle cx="194" cy="83" r="3" /><circle cx="187" cy="84" r="3" /><circle cx="385" cy="92" r="3" /><circle cx="295" cy="93" r="3" /><circle cx="349" cy="101" r="3" /><circle cx="168" cy="114" r="3" /><circle cx="294" cy="115" r="3" /><circle cx="208" cy="115" r="3" /><circle cx="364" cy="115" r="3" /><circle cx="334" cy="118" r="3" /><circle cx="289" cy="123" r="3" /><circle cx="37" cy="124" r="3" /><circle cx="227" cy="127" r="3" /><circle cx="354" cy="127" r="3" /><circle cx="126" cy="128" r="3" /><circle cx="241" cy="131" r="3" /><circle cx="236" cy="134" r="3" /><circle cx="394" cy="134" r="3" /><circle cx="516" cy="136" r="3" /><circle cx="220" cy="141" r="3" /><circle cx="303" cy="143" r="3" /><circle cx="281" cy="143" r="3" /><circle cx="143" cy="145" r="3" /><circle cx="177" cy="145" r="3" /><circle cx="371" cy="150" r="3" /><circle cx="269" cy="150" r="3" /><circle cx="269" cy="151" r="3" /><circle cx="366" cy="153" r="3" /><circle cx="445" cy="156" r="3" /><circle cx="177" cy="156" r="3" /><circle cx="350" cy="157" r="3" /><circle cx="119" cy="157" r="3" /><circle cx="244" cy="158" r="3" /><circle cx="436" cy="158" r="3" /><circle cx="235" cy="160" r="3" /><circle cx="393" cy="161" r="3" /><circle cx="180" cy="167" r="3" /><circle cx="213" cy="167" r="3" /><circle cx="290" cy="168" r="3" /><circle cx="529" cy="170" r="3" /><circle cx="531" cy="172" r="3" /><circle cx="419" cy="172" r="3" /><circle cx="200" cy="173" r="3" /><circle cx="305" cy="173" r="3" /><circle cx="1" cy="175" r="3" /><circle cx="382" cy="175" r="3" /><circle cx="451" cy="176" r="3" /><circle cx="444" cy="176" r="3" /><circle cx="337" cy="176" r="3" /><circle cx="435" cy="176" r="3" /><circle cx="104" cy="177" r="3" /><circle cx="193" cy="178" r="3" /><circle cx="244" cy="181" r="3" /><circle cx="188" cy="182" r="3" /><circle cx="504" cy="184" r="3" /><circle cx="209" cy="185" r="3" /><circle cx="370" cy="186" r="3" /><circle cx="207" cy="187" r="3" /><circle cx="337" cy="187" r="3" /><circle cx="489" cy="187" r="3" /><circle cx="143" cy="189" r="3" /><circle cx="246" cy="190" r="3" /><circle cx="314" cy="190" r="3" /><circle cx="425" cy="191" r="3" /><circle cx="376" cy="191" r="3" /><circle cx="427" cy="192" r="3" /><circle cx="318" cy="192" r="3" /><circle cx="326" cy="193" r="3" /><circle cx="297" cy="193" r="3" /><circle cx="102" cy="194" r="3" /><circle cx="262" cy="196" r="3" /><circle cx="129" cy="196" r="3" /><circle cx="219" cy="196" r="3" /><circle cx="155" cy="197" r="3" /><circle cx="182" cy="197" r="3" /><circle cx="243" cy="198" r="3" /><circle cx="194" cy="199" r="3" /><circle cx="264" cy="199" r="3" /><circle cx="249" cy="201" r="3" /><circle cx="183" cy="201" r="3" /><circle cx="280" cy="202" r="3" /><circle cx="193" cy="202" r="3" /><circle cx="144" cy="203" r="3" /><circle cx="295" cy="204" r="3" /><circle cx="331" cy="204" r="3" /><circle cx="213" cy="204" r="3" /><circle cx="413" cy="204" r="3" /><circle cx="198" cy="205" r="3" /><circle cx="261" cy="206" r="3" /><circle cx="395" cy="208" r="3" /><circle cx="256" cy="209" r="3" /><circle cx="362" cy="209" r="3" /><circle cx="220" cy="212" r="3" /><circle cx="222" cy="212" r="3" /><circle cx="326" cy="215" r="3" /><circle cx="295" cy="215" r="3" /><circle cx="240" cy="216" r="3" /><circle cx="191" cy="216" r="3" /><circle cx="104" cy="217" r="3" /><circle cx="225" cy="217" r="3" /><circle cx="379" cy="218" r="3" /><circle cx="346" cy="219" r="3" /><circle cx="368" cy="219" r="3" /><circle cx="470" cy="220" r="3" /><circle cx="154" cy="220" r="3" /><circle cx="416" cy="222" r="3" /><circle cx="423" cy="222" r="3" /><circle cx="392" cy="222" r="3" /><circle cx="415" cy="223" r="3" /><circle cx="261" cy="223" r="3" /><circle cx="454" cy="224" r="3" /><circle cx="231" cy="225" r="3" /><circle cx="225" cy="226" r="3" /><circle cx="396" cy="227" r="3" /><circle cx="435" cy="228" r="3" /><circle cx="271" cy="228" r="3" /><circle cx="547" cy="229" r="3" /><circle cx="251" cy="231" r="3" /><circle cx="254" cy="231" r="3" /><circle cx="329" cy="231" r="3" /><circle cx="523" cy="232" r="3" /><circle cx="437" cy="232" r="3" /><circle cx="118" cy="232" r="3" /><circle cx="600" cy="233" r="3" /><circle cx="230" cy="233" r="3" /><circle cx="325" cy="234" r="3" /><circle cx="441" cy="236" r="3" /><circle cx="444" cy="236" r="3" /><circle cx="251" cy="237" r="3" /><circle cx="210" cy="239" r="3" /><circle cx="155" cy="240" r="3" /><circle cx="345" cy="240" r="3" /><circle cx="236" cy="242" r="3" /><circle cx="273" cy="242" r="3" /><circle cx="319" cy="242" r="3" /><circle cx="389" cy="245" r="3" /><circle cx="374" cy="245" r="3" /><circle cx="361" cy="245" r="3" /><circle cx="392" cy="245" r="3" /><circle cx="156" cy="245" r="3" /><circle cx="322" cy="246" r="3" /><circle cx="114" cy="246" r="3" /><circle cx="396" cy="247" r="3" /><circle cx="336" cy="247" r="3" /><circle cx="315" cy="247" r="3" /><circle cx="335" cy="248" r="3" /><circle cx="374" cy="248" r="3" /><circle cx="406" cy="249" r="3" /><circle cx="263" cy="249" r="3" /><circle cx="299" cy="249" r="3" /><circle cx="448" cy="250" r="3" /><circle cx="350" cy="252" r="3" /><circle cx="334" cy="253" r="3" /><circle cx="192" cy="253" r="3" /><circle cx="314" cy="254" r="3" /><circle cx="294" cy="254" r="3" /><circle cx="469" cy="255" r="3" /><circle cx="160" cy="255" r="3" /><circle cx="219" cy="255" r="3" /><circle cx="206" cy="255" r="3" /><circle cx="316" cy="255" r="3" /><circle cx="223" cy="259" r="3" /><circle cx="176" cy="260" r="3" /><circle cx="375" cy="261" r="3" /><circle cx="359" cy="262" r="3" /><circle cx="498" cy="263" r="3" /><circle cx="227" cy="264" r="3" /><circle cx="341" cy="264" r="3" /><circle cx="268" cy="265" r="3" /><circle cx="379" cy="265" r="3" /><circle cx="346" cy="265" r="3" /><circle cx="219" cy="266" r="3" /><circle cx="152" cy="267" r="3" /><circle cx="335" cy="268" r="3" /><circle cx="240" cy="269" r="3" /><circle cx="163" cy="269" r="3" /><circle cx="224" cy="271" r="3" /><circle cx="256" cy="271" r="3" /><circle cx="269" cy="272" r="3" /><circle cx="229" cy="274" r="3" /><circle cx="405" cy="274" r="3" /><circle cx="304" cy="275" r="3" /><circle cx="278" cy="276" r="3" /><circle cx="287" cy="276" r="3" /><circle cx="240" cy="276" r="3" /><circle cx="276" cy="278" r="3" /><circle cx="261" cy="279" r="3" /><circle cx="311" cy="279" r="3" /><circle cx="281" cy="279" r="3" /><circle cx="244" cy="280" r="3" /><circle cx="366" cy="281" r="3" /><circle cx="355" cy="281" r="3" /><circle cx="302" cy="282" r="3" /><circle cx="325" cy="283" r="3" /><circle cx="247" cy="283" r="3" /><circle cx="90" cy="283" r="3" /><circle cx="355" cy="283" r="3" /><circle cx="439" cy="284" r="3" /><circle cx="324" cy="284" r="3" /><circle cx="361" cy="284" r="3" /><circle cx="407" cy="285" r="3" /><circle cx="576" cy="285" r="3" /><circle cx="328" cy="285" r="3" /><circle cx="486" cy="287" r="3" /><circle cx="148" cy="287" r="3" /><circle cx="267" cy="287" r="3" /><circle cx="330" cy="288" r="3" /><circle cx="226" cy="288" r="3" /><circle cx="264" cy="289" r="3" /><circle cx="266" cy="292" r="3" /><circle cx="325" cy="292" r="3" /><circle cx="499" cy="292" r="3" /><circle cx="428" cy="292" r="3" /><circle cx="386" cy="294" r="3" /><circle cx="451" cy="296" r="3" /><circle cx="212" cy="297" r="3" /><circle cx="290" cy="299" r="3" /><circle cx="371" cy="299" r="3" /><circle cx="269" cy="300" r="3" /><circle cx="343" cy="300" r="3" /><circle cx="308" cy="301" r="3" /><circle cx="418" cy="302" r="3" /><circle cx="423" cy="302" r="3" /><circle cx="417" cy="302" r="3" /><circle cx="272" cy="302" r="3" /><circle cx="316" cy="303" r="3" /><circle cx="346" cy="304" r="3" /><circle cx="44" cy="304" r="3" /><circle cx="296" cy="305" r="3" /><circle cx="480" cy="306" r="3" /><circle cx="299" cy="306" r="3" /><circle cx="386" cy="307" r="3" /><circle cx="228" cy="308" r="3" /><circle cx="327" cy="308" r="3" /><circle cx="342" cy="309" r="3" /><circle cx="295" cy="309" r="3" /><circle cx="362" cy="310" r="3" /><circle cx="394" cy="311" r="3" /><circle cx="390" cy="311" r="3" /><circle cx="227" cy="311" r="3" /><circle cx="269" cy="313" r="3" /><circle cx="302" cy="313" r="3" /><circle cx="296" cy="313" r="3" /><circle cx="286" cy="314" r="3" /><circle cx="402" cy="314" r="3" /><circle cx="93" cy="315" r="3" /><circle cx="400" cy="315" r="3" /><circle cx="426" cy="316" r="3" /><circle cx="413" cy="316" r="3" /><circle cx="339" cy="317" r="3" /><circle cx="262" cy="317" r="3" /><circle cx="295" cy="317" r="3" /><circle cx="280" cy="317" r="3" /><circle cx="441" cy="318" r="3" /><circle cx="191" cy="319" r="3" /><circle cx="311" cy="321" r="3" /><circle cx="282" cy="322" r="3" /><circle cx="307" cy="322" r="3" /><circle cx="352" cy="323" r="3" /><circle cx="305" cy="324" r="3" /><circle cx="402" cy="324" r="3" /><circle cx="232" cy="325" r="3" /><circle cx="177" cy="325" r="3" /><circle cx="178" cy="326" r="3" /><circle cx="325" cy="326" r="3" /><circle cx="445" cy="327" r="3" /><circle cx="185" cy="327" r="3" /><circle cx="183" cy="328" r="3" /><circle cx="117" cy="328" r="3" /><circle cx="90" cy="329" r="3" /><circle cx="343" cy="329" r="3" /><circle cx="329" cy="329" r="3" /><circle cx="118" cy="330" r="3" /><circle cx="269" cy="330" r="3" /><circle cx="239" cy="331" r="3" /><circle cx="202" cy="331" r="3" /><circle cx="45" cy="331" r="3" /><circle cx="224" cy="331" r="3" /><circle cx="340" cy="332" r="3" /><circle cx="323" cy="332" r="3" /><circle cx="405" cy="332" r="3" /><circle cx="266" cy="333" r="3" /><circle cx="459" cy="334" r="3" /><circle cx="214" cy="334" r="3" /><circle cx="304" cy="334" r="3" /><circle cx="409" cy="336" r="3" /><circle cx="294" cy="336" r="3" /><circle cx="-59" cy="336" r="3" /><circle cx="302" cy="337" r="3" /><circle cx="168" cy="337" r="3" /><circle cx="235" cy="338" r="3" /><circle cx="233" cy="338" r="3" /><circle cx="162" cy="338" r="3" /><circle cx="372" cy="340" r="3" /><circle cx="376" cy="340" r="3" /><circle cx="71" cy="341" r="3" /><circle cx="255" cy="341" r="3" /><circle cx="356" cy="342" r="3" /><circle cx="196" cy="342" r="3" /><circle cx="243" cy="342" r="3" /><circle cx="-8" cy="343" r="3" /><circle cx="307" cy="344" r="3" /><circle cx="250" cy="344" r="3" /><circle cx="415" cy="344" r="3" /><circle cx="102" cy="345" r="3" /><circle cx="219" cy="345" r="3" /><circle cx="476" cy="345" r="3" /><circle cx="355" cy="345" r="3" /><circle cx="237" cy="346" r="3" /><circle cx="413" cy="346" r="3" /><circle cx="270" cy="346" r="3" /><circle cx="345" cy="347" r="3" /><circle cx="153" cy="347" r="3" /><circle cx="329" cy="348" r="3" /><circle cx="285" cy="348" r="3" /><circle cx="277" cy="350" r="3" /><circle cx="145" cy="350" r="3" /><circle cx="213" cy="350" r="3" /><circle cx="358" cy="351" r="3" /><circle cx="326" cy="352" r="3" /><circle cx="143" cy="352" r="3" /><circle cx="38" cy="352" r="3" /><circle cx="267" cy="353" r="3" /><circle cx="392" cy="353" r="3" /><circle cx="289" cy="355" r="3" /><circle cx="461" cy="356" r="3" /><circle cx="325" cy="357" r="3" /><circle cx="403" cy="357" r="3" /><circle cx="421" cy="357" r="3" /><circle cx="204" cy="358" r="3" /><circle cx="418" cy="358" r="3" /><circle cx="408" cy="359" r="3" /><circle cx="199" cy="360" r="3" /><circle cx="388" cy="360" r="3" /><circle cx="231" cy="361" r="3" /><circle cx="274" cy="361" r="3" /><circle cx="218" cy="361" r="3" /><circle cx="432" cy="361" r="3" /><circle cx="431" cy="361" r="3" /><circle cx="316" cy="361" r="3" /><circle cx="245" cy="361" r="3" /><circle cx="300" cy="362" r="3" /><circle cx="282" cy="363" r="3" /><circle cx="269" cy="363" r="3" /><circle cx="385" cy="363" r="3" /><circle cx="214" cy="364" r="3" /><circle cx="285" cy="364" r="3" /><circle cx="340" cy="365" r="3" /><circle cx="329" cy="367" r="3" /><circle cx="140" cy="368" r="3" /><circle cx="264" cy="368" r="3" /><circle cx="193" cy="370" r="3" /><circle cx="317" cy="370" r="3" /><circle cx="413" cy="371" r="3" /><circle cx="182" cy="371" r="3" /><circle cx="297" cy="371" r="3" /><circle cx="315" cy="373" r="3" /><circle cx="435" cy="373" r="3" /><circle cx="214" cy="375" r="3" /><circle cx="303" cy="377" r="3" /><circle cx="106" cy="377" r="3" /><circle cx="304" cy="377" r="3" /><circle cx="336" cy="377" r="3" /><circle cx="248" cy="378" r="3" /><circle cx="417" cy="378" r="3" /><circle cx="74" cy="379" r="3" /><circle cx="300" cy="382" r="3" /><circle cx="74" cy="384" r="3" /><circle cx="304" cy="384" r="3" /><circle cx="146" cy="384" r="3" /><circle cx="320" cy="384" r="3" /><circle cx="395" cy="386" r="3" /><circle cx="168" cy="388" r="3" /><circle cx="281" cy="389" r="3" /><circle cx="358" cy="390" r="3" /><circle cx="310" cy="390" r="3" /><circle cx="495" cy="390" r="3" /><circle cx="393" cy="390" r="3" /><circle cx="379" cy="391" r="3" /><circle cx="509" cy="392" r="3" /><circle cx="249" cy="392" r="3" /><circle cx="232" cy="392" r="3" /><circle cx="162" cy="393" r="3" /><circle cx="411" cy="393" r="3" /><circle cx="303" cy="394" r="3" /><circle cx="251" cy="394" r="3" /><circle cx="368" cy="395" r="3" /><circle cx="236" cy="397" r="3" /><circle cx="82" cy="397" r="3" /><circle cx="225" cy="398" r="3" /><circle cx="316" cy="398" r="3" /><circle cx="329" cy="399" r="3" /><circle cx="308" cy="399" r="3" /><circle cx="139" cy="399" r="3" /><circle cx="175" cy="400" r="3" /><circle cx="158" cy="400" r="3" /><circle cx="236" cy="400" r="3" /><circle cx="307" cy="402" r="3" /><circle cx="307" cy="403" r="3" /><circle cx="317" cy="403" r="3" /><circle cx="572" cy="403" r="3" /><circle cx="454" cy="404" r="3" /><circle cx="319" cy="406" r="3" /><circle cx="342" cy="406" r="3" /><circle cx="218" cy="407" r="3" /><circle cx="355" cy="409" r="3" /><circle cx="281" cy="410" r="3" /><circle cx="269" cy="415" r="3" /><circle cx="322" cy="415" r="3" /><circle cx="281" cy="416" r="3" /><circle cx="411" cy="417" r="3" /><circle cx="224" cy="417" r="3" /><circle cx="437" cy="419" r="3" /><circle cx="343" cy="419" r="3" /><circle cx="266" cy="420" r="3" /><circle cx="298" cy="421" r="3" /><circle cx="153" cy="421" r="3" /><circle cx="250" cy="421" r="3" /><circle cx="113" cy="421" r="3" /><circle cx="213" cy="423" r="3" /><circle cx="249" cy="423" r="3" /><circle cx="105" cy="423" r="3" /><circle cx="352" cy="425" r="3" /><circle cx="359" cy="425" r="3" /><circle cx="294" cy="427" r="3" /><circle cx="359" cy="427" r="3" /><circle cx="377" cy="429" r="3" /><circle cx="266" cy="429" r="3" /><circle cx="386" cy="429" r="3" /><circle cx="380" cy="430" r="3" /><circle cx="144" cy="430" r="3" /><circle cx="431" cy="433" r="3" /><circle cx="75" cy="434" r="3" /><circle cx="249" cy="435" r="3" /><circle cx="465" cy="437" r="3" /><circle cx="303" cy="437" r="3" /><circle cx="336" cy="439" r="3" /><circle cx="354" cy="440" r="3" /><circle cx="424" cy="440" r="3" /><circle cx="288" cy="440" r="3" /><circle cx="161" cy="440" r="3" /><circle cx="332" cy="442" r="3" /><circle cx="419" cy="446" r="3" /><circle cx="475" cy="448" r="3" /><circle cx="139" cy="449" r="3" /><circle cx="360" cy="450" r="3" /><circle cx="352" cy="451" r="3" /><circle cx="272" cy="452" r="3" /><circle cx="371" cy="452" r="3" /><circle cx="409" cy="453" r="3" /><circle cx="295" cy="454" r="3" /><circle cx="265" cy="454" r="3" /><circle cx="325" cy="458" r="3" /><circle cx="380" cy="459" r="3" /><circle cx="262" cy="462" r="3" /><circle cx="148" cy="464" r="3" /><circle cx="343" cy="465" r="3" /><circle cx="361" cy="466" r="3" /><circle cx="231" cy="466" r="3" /><circle cx="371" cy="467" r="3" /><circle cx="270" cy="469" r="3" /><circle cx="103" cy="471" r="3" /><circle cx="235" cy="474" r="3" /><circle cx="259" cy="475" r="3" /><circle cx="275" cy="475" r="3" /><circle cx="471" cy="476" r="3" /><circle cx="251" cy="477" r="3" /><circle cx="299" cy="479" r="3" /><circle cx="265" cy="480" r="3" /><circle cx="200" cy="482" r="3" /><circle cx="472" cy="483" r="3" /><circle cx="285" cy="483" r="3" /><circle cx="247" cy="488" r="3" /><circle cx="409" cy="489" r="3" /><circle cx="248" cy="490" r="3" /><circle cx="182" cy="493" r="3" /><circle cx="189" cy="498" r="3" /><circle cx="163" cy="500" r="3" /><circle cx="335" cy="504" r="3" /><circle cx="284" cy="507" r="3" /><circle cx="392" cy="509" r="3" /><circle cx="481" cy="513" r="3" /><circle cx="292" cy="515" r="3" /><circle cx="431" cy="516" r="3" /><circle cx="234" cy="520" r="3" /><circle cx="212" cy="521" r="3" /><circle cx="292" cy="522" r="3" /><circle cx="165" cy="523" r="3" /><circle cx="346" cy="525" r="3" /><circle cx="376" cy="527" r="3" /><circle cx="327" cy="534" r="3" /><circle cx="428" cy="549" r="3" /><circle cx="314" cy="557" r="3" /></svg>