<?xml version="1.0" encoding="utf-8" ?>
<svg baseProfile="tiny" height="100%" version="1.2" width="100%" xmlns="http://www.w3.org/2000/svg" xmlns:ev="http://www.w3.org/2001/xml-events" xmlns:xlink="http://www.w3.org/1999/xlink"><defs /><line stroke="rgb(10%,10%,16%)" x1="280" x2="322" y1="266" y2="278" /><line stroke="rgb(10%,10%,16%)" x1="322" x2="331" y1="278" y2="293" /><line stroke="rgb(10%,10%,16%)" x1="331" x2="326" y1="293" y2="309" /><line stroke="rgb(10%,10%,16%)" x1="326" x2="309" y1="309" y2="330" /><line stroke="rgb(10%,10%,16%)" x1="309" x2="309" y1="330" y2="330" /><line stroke="rgb(10%,10%,16%)" x1="309" x2="291" y1="330" y2="328" /><line stroke="rgb(10%,10%,16%)" x1="291" x2="281" y1="328" y2="316" /><line stroke="rgb(10%,10%,16%)" x1="281" x2="277" y1="316" y2="310" /><line stroke="rgb(10%,10%,16%)" x1="277" x2="272" y1="310" y2="291" /><line stroke="rgb(10%,10%,16%)" x1="272" x2="280" y1="291" y2="266" /><circle cx="280" cy="266" r="3" /><circle cx="285" cy="273" r="3" /><circle cx="283" cy="275" r="3" /><circle cx="294" cy="276" r="3" /><circle cx="290" cy="276" r="3" /><circle cx="302" cy="277" r="3" /><circle cx="310" cy="278" r="3" /><circle cx="322" cy="278" r="3" /><circle cx="288" cy="280" r="3" /><circle cx="308" cy="280" r="3" /><circle cx="284" cy="280" r="3" /><circle cx="306" cy="280" r="3" /><circle cx="292" cy="280" r="3" /><circle cx="309" cy="281" r="3" /><circle cx="294" cy="281" r="3" /><circle cx="302" cy="281" r="3" /><circle cx="304" cy="281" r="3" /><circle cx="305" cy="282" r="3" /><circle cx="283" cy="282" r="3" /><circle cx="305" cy="282" r="3" /><circle cx="291" cy="282" r="3" /><circle cx="312" cy="283" r="3" /><circle cx="290" cy="283" r="3" /><circle cx="312" cy="283" r="3" /><circle cx="306" cy="284" r="3" /><circle cx="296" cy="284" r="3" /><circle cx="287" cy="284" r="3" /><circle cx="306" cy="285" r="3" /><circle cx="289" cy="285" r="3" /><circle cx="300" cy="285" r="3" /><circle cx="305" cy="286" r="3" /><circle cx="315" cy="286" r="3" /><circle cx="303" cy="286" r="3" /><circle cx="288" cy="286" r="3" /><circle cx="305" cy="286" r="3" /><circle cx="307" cy="286" r="3" /><circle cx="295" cy="286" r="3" /><circle cx="286" cy="286" r="3" /><circle cx="290" cy="286" r="3" /><circle cx="293" cy="287" r="3" /><circle cx="288" cy="287" r="3" /><circle cx="297" cy="287" r="3" /><circle cx="308" cy="287" r="3" /><circle cx="306" cy="287" r="3" /><circle cx="303" cy="287" r="3" /><circle cx="296" cy="287" r="3" /><circle cx="286" cy="287" r="3" /><circle cx="290" cy="287" r="3" /><circle cx="303" cy="287" r="3" /><circle cx="311" cy="287" r="3" /><circle cx="306" cy="287" r="3" /><circle cx="318" cy="287" r="3" /><circle cx="306" cy="287" r="3" /><circle cx="284" cy="288" r="3" /><circle cx="309" cy="288" r="3" /><circle cx="307" cy="288" r="3" /><circle cx="319" cy="288" r="3" /><circle cx="309" cy="288" r="3" /><circle cx="298" cy="288" r="3" /><circle cx="310" cy="288" r="3" /><circle cx="302" cy="288" r="3" /><circle cx="302" cy="288" r="3" /><circle cx="306" cy="288" r="3" /><circle cx="306" cy="289" r="3" /><circle cx="301" cy="289" r="3" /><circle cx="300" cy="289" r="3" /><circle cx="307" cy="289" r="3" /><circle cx="306" cy="289" r="3" /><circle cx="303" cy="289" r="3" /><circle cx="297" cy="289" r="3" /><circle cx="294" cy="289" r="3" /><circle cx="304" cy="289" r="3" /><circle cx="295" cy="289" r="3" /><circle cx="297" cy="289" r="3" /><circle cx="299" cy="289" r="3" /><circle cx="310" cy="289" r="3" /><circle cx="313" cy="289" r="3" /><circle cx="294" cy="290" r="3" /><circle cx="308" cy="290" r="3" /><circle cx="301" cy="290" r="3" /><circle cx="314" cy="290" r="3" /><circle cx="296" cy="290" r="3" /><circle cx="303" cy="290" r="3" /><circle cx="309" cy="290" r="3" /><circle cx="298" cy="290" r="3" /><circle cx="313" cy="290" r="3" /><circle cx="293" cy="290" r="3" /><circle cx="300" cy="290" r="3" /><circle cx="310" cy="290" r="3" /><circle cx="294" cy="290" r="3" /><circle cx="279" cy="290" r="3" /><circle cx="292" cy="290" r="3" /><circle cx="301" cy="291" r="3" /><circle cx="300" cy="291" r="3" /><circle cx="290" cy="291" r="3" /><circle cx="272" cy="291" r="3" /><circle cx="300" cy="291" r="3" /><circle cx="297" cy="291" r="3" /><circle cx="300" cy="291" r="3" /><circle cx="291" cy="291" r="3" /><circle cx="299" cy="291" r="3" /><circle cx="311" cy="291" r="3" /><circle cx="293" cy="292" r="3" /><circle cx="302" cy="292" r="3" /><circle cx="299" cy="292" r="3" /><circle cx="312" cy="292" r="3" /><circle cx="296" cy="292" r="3" /><circle cx="291" cy="292" r="3" /><circle cx="293" cy="292" r="3" /><circle cx="289" cy="292" r="3" /><circle cx="317" cy="292" r="3" /><circle cx="317" cy="292" r="3" /><circle cx="307" cy="293" r="3" /><circle cx="318" cy="293" r="3" /><circle cx="293" cy="293" r="3" /><circle cx="331" cy="293" r="3" /><circle cx="294" cy="293" r="3" /><circle cx="298" cy="293" r="3" /><circle cx="284" cy="293" r="3" /><circle cx="294" cy="293" r="3" /><circle cx="309" cy="293" r="3" /><circle cx="297" cy="293" r="3" /><circle cx="293" cy="293" r="3" /><circle cx="309" cy="293" r="3" /><circle cx="309" cy="293" r="3" /><circle cx="310" cy="293" r="3" /><circle cx="303" cy="293" r="3" /><circle cx="302" cy="293" r="3" /><circle cx="294" cy="293" r="3" /><circle cx="289" cy="293" r="3" /><circle cx="296" cy="293" r="3" /><circle cx="302" cy="293" r="3" /><circle cx="290" cy="293" r="3" /><circle cx="304" cy="293" r="3" /><circle cx="299" cy="294" r="3" /><circle cx="295" cy="294" r="3" /><circle cx="300" cy="294" r="3" /><circle cx="286" cy="294" r="3" /><circle cx="302" cy="294" r="3" /><circle cx="303" cy="294" r="3" /><circle cx="289" cy="294" r="3" /><circle cx="286" cy="294" r="3" /><circle cx="280" cy="294" r="3" /><circle cx="305" cy="294" r="3" /><circle cx="295" cy="294" r="3" /><circle cx="289" cy="294" r="3" /><circle cx="288" cy="294" r="3" /><circle cx="284" cy="294" r="3" /><circle cx="298" cy="294" r="3" /><circle cx="292" cy="294" r="3" /><circle cx="303" cy="294" r="3" /><circle cx="291" cy="294" r="3" /><circle cx="294" cy="294" r="3" /><circle cx="319" cy="295" r="3" /><circle cx="303" cy="295" r="3" /><circle cx="304" cy="295" r="3" /><circle cx="296" cy="295" r="3" /><circle cx="295" cy="295" r="3" /><circle cx="292" cy="295" r="3" /><circle cx="319" cy="295" r="3" /><circle cx="298" cy="295" r="3" /><circle cx="310" cy="295" r="3" /><circle cx="288" cy="295" r="3" /><circle cx="303" cy="295" r="3" /><circle cx="311" cy="295" r="3" /><circle cx="301" cy="295" r="3" /><circle cx="299" cy="295" r="3" /><circle cx="285" cy="295" r="3" /><circle cx="317" cy="295" r="3" /><circle cx="306" cy="295" r="3" /><circle cx="287" cy="295" r="3" /><circle cx="309" cy="295" r="3" /><circle cx="311" cy="295" r="3" /><circle cx="308" cy="295" r="3" /><circle cx="295" cy="296" r="3" /><circle cx="290" cy="296" r="3" /><circle cx="304" cy="296" r="3" /><circle cx="301" cy="296" r="3" /><circle cx="303" cy="296" r="3" /><circle cx="301" cy="296" r="3" /><circle cx="284" cy="296" r="3" /><circle cx="299" cy="296" r="3" /><circle cx="312" cy="296" r="3" /><circle cx="326" cy="296" r="3" /><circle cx="304" cy="296" r="3" /><circle cx="291" cy="296" r="3" /><circle cx="299" cy="297" r="3" /><circle cx="315" cy="297" r="3" /><circle cx="299" cy="297" r="3" /><circle cx="309" cy="297" r="3" /><circle cx="314" cy="297" r="3" /><circle cx="289" cy="297" r="3" /><circle cx="311" cy="297" r="3" /><circle cx="288" cy="297" r="3" /><circle cx="288" cy="297" r="3" /><circle cx="299" cy="297" r="3" /><circle cx="296" cy="297" r="3" /><circle cx="306" cy="297" r="3" /><circle cx="325" cy="297" r="3" /><circle cx="304" cy="297" r="3" /><circle cx="303" cy="297" r="3" /><circle cx="290" cy="297" r="3" /><circle cx="283" cy="297" r="3" /><circle cx="296" cy="297" r="3" /><circle cx="292" cy="297" r="3" /><circle cx="298" cy="297" r="3" /><circle cx="291" cy="297" r="3" /><circle cx="305" cy="297" r="3" /><circle cx="305" cy="298" r="3" /><circle cx="289" cy="298" r="3" /><circle cx="292" cy="298" r="3" /><circle cx="292" cy="298" r="3" /><circle cx="287" cy="298" r="3" /><circle cx="301" cy="298" r="3" /><circle cx="304" cy="298" r="3" /><circle cx="299" cy="298" r="3" /><circle cx="300" cy="298" r="3" /><circle cx="277" cy="298" r="3" /><circle cx="306" cy="298" r="3" /><circle cx="303" cy="298" r="3" /><circle cx="288" cy="298" r="3" /><circle cx="296" cy="298" r="3" /><circle cx="298" cy="298" r="3" /><circle cx="310" cy="298" r="3" /><circle cx="293" cy="298" r="3" /><circle cx="304" cy="298" r="3" /><circle cx="286" cy="298" r="3" /><circle cx="297" cy="298" r="3" /><circle cx="297" cy="298" r="3" /><circle cx="308" cy="298" r="3" /><circle cx="307" cy="298" r="3" /><circle cx="287" cy="299" r="3" /><circle cx="290" cy="299" r="3" /><circle cx="305" cy="299" r="3" /><circle cx="307" cy="299" r="3" /><circle cx="285" cy="299" r="3" /><circle cx="310" cy="299" r="3" /><circle cx="302" cy="299" r="3" /><circle cx="292" cy="299" r="3" /><circle cx="303" cy="299" r="3" /><circle cx="287" cy="299" r="3" /><circle cx="309" cy="299" r="3" /><circle cx="291" cy="299" r="3" /><circle cx="308" cy="300" r="3" /><circle cx="312" cy="300" r="3" /><circle cx="313" cy="300" r="3" /><circle cx="293" cy="300" r="3" /><circle cx="308" cy="300" r="3" /><circle cx="316" cy="300" r="3" /><circle cx="296" cy="300" r="3" /><circle cx="307" cy="300" r="3" /><circle cx="314" cy="300" r="3" /><circle cx="308" cy="300" r="3" /><circle cx="306" cy="300" r="3" /><circle cx="314" cy="300" r="3" /><circle cx="318" cy="300" r="3" /><circle cx="297" cy="300" r="3" /><circle cx="309" cy="300" r="3" /><circle cx="299" cy="300" r="3" /><circle cx="295" cy="300" r="3" /><circle cx="287" cy="300" r="3" /><circle cx="297" cy="300" r="3" /><circle cx="283" cy="300" r="3" /><circle cx="297" cy="301" r="3" /><circle cx="294" cy="301" r="3" /><circle cx="309" cy="301" r="3" /><circle cx="291" cy="301" r="3" /><circle cx="316" cy="301" r="3" /><circle cx="295" cy="301" r="3" /><circle cx="294" cy="301" r="3" /><circle cx="319" cy="301" r="3" /><circle cx="310" cy="301" r="3" /><circle cx="294" cy="301" r="3" /><circle cx="314" cy="301" r="3" /><circle cx="307" cy="301" r="3" /><circle cx="292" cy="301" r="3" /><circle cx="281" cy="301" r="3" /><circle cx="297" cy="301" r="3" /><circle cx="301" cy="301" r="3" /><circle cx="318" cy="301" r="3" /><circle cx="298" cy="301" r="3" /><circle cx="306" cy="301" r="3" /><circle cx="304" cy="301" r="3" /><circle cx="311" cy="301" r="3" /><circle cx="292" cy="301" r="3" /><circle cx="299" cy="302" r="3" /><circle cx="310" cy="302" r="3" /><circle cx="306" cy="302" r="3" /><circle cx="306" cy="302" r="3" /><circle cx="305" cy="302" r="3" /><circle cx="313" cy="302" r="3" /><circle cx="317" cy="302" r="3" /><circle cx="289" cy="302" r="3" /><circle cx="313" cy="302" r="3" /><circle cx="301" cy="302" r="3" /><circle cx="290" cy="302" r="3" /><circle cx="289" cy="302" r="3" /><circle cx="288" cy="302" r="3" /><circle cx="282" cy="303" r="3" /><circle cx="299" cy="303" r="3" /><circle cx="305" cy="303" r="3" /><circle cx="299" cy="303" r="3" /><circle cx="306" cy="303" r="3" /><circle cx="303" cy="303" r="3" /><circle cx="291" cy="303" r="3" /><circle cx="298" cy="303" r="3" /><circle cx="292" cy="303" r="3" /><circle cx="316" cy="303" r="3" /><circle cx="303" cy="303" r="3" /><circle cx="294" cy="303" r="3" /><circle cx="314" cy="303" r="3" /><circle cx="311" cy="303" r="3" /><circle cx="288" cy="303" r="3" /><circle cx="322" cy="303" r="3" /><circle cx="311" cy="303" r="3" /><circle cx="309" cy="304" r="3" /><circle cx="288" cy="304" r="3" /><circle cx="315" cy="304" r="3" /><circle cx="306" cy="304" r="3" /><circle cx="298" cy="304" r="3" /><circle cx="296" cy="304" r="3" /><circle cx="294" cy="304" r="3" /><circle cx="285" cy="304" r="3" /><circle cx="288" cy="304" r="3" /><circle cx="301" cy="304" r="3" /><circle cx="311" cy="304" r="3" /><circle cx="308" cy="304" r="3" /><circle cx="306" cy="304" r="3" /><circle cx="323" cy="304" r="3" /><circle cx="306" cy="304" r="3" /><circle cx="290" cy="304" r="3" /><circle cx="297" cy="304" r="3" /><circle cx="296" cy="304" r="3" /><circle cx="295" cy="304" r="3" /><circle cx="291" cy="304" r="3" /><circle cx="317" cy="304" r="3" /><circle cx="299" cy="305" r="3" /><circle cx="291" cy="305" r="3" /><circle cx="285" cy="305" r="3" /><circle cx="288" cy="305" r="3" /><circle cx="313" cy="305" r="3" /><circle cx="303" cy="305" r="3" /><circle cx="303" cy="305" r="3" /><circle cx="286" cy="305" r="3" /><circle cx="297" cy="305" r="3" /><circle cx="301" cy="305" r="3" /><circle cx="288" cy="305" r="3" /><circle cx="307" cy="305" r="3" /><circle cx="306" cy="305" r="3" /><circle cx="279" cy="305" r="3" /><circle cx="308" cy="305" r="3" /><circle cx="288" cy="305" r="3" /><circle cx="306" cy="306" r="3" /><circle cx="305" cy="306" r="3" /><circle cx="301" cy="306" r="3" /><circle cx="299" cy="306" r="3" /><circle cx="307" cy="306" r="3" /><circle cx="294" cy="306" r="3" /><circle cx="289" cy="306" r="3" /><circle cx="297" cy="306" r="3" /><circle cx="292" cy="306" r="3" /><circle cx="306" cy="306" r="3" /><circle cx="297" cy="306" r="3" /><circle cx="317" cy="306" r="3" /><circle cx="300" cy="306" r="3" /><circle cx="298" cy="306" r="3" /><circle cx="308" cy="306" r="3" /><circle cx="289" cy="306" r="3" /><circle cx="293" cy="307" r="3" /><circle cx="296" cy="307" r="3" /><circle cx="293" cy="307" r="3" /><circle cx="296" cy="307" r="3" /><circle cx="306" cy="307" r="3" /><circle cx="295" cy="307" r="3" /><circle cx="299" cy="307" r="3" /><circle cx="296" cy="307" r="3" /><circle cx="311" cy="307" r="3" /><circle cx="285" cy="307" r="3" /><circle cx="302" cy="307" r="3" /><circle cx="288" cy="308" r="3" /><circle cx="309" cy="308" r="3" /><circle cx="298" cy="308" r="3" /><circle cx="312" cy="308" r="3" /><circle cx="300" cy="308" r="3" /><circle cx="284" cy="308" r="3" /><circle cx="290" cy="308" r="3" /><circle cx="285" cy="308" r="3" /><circle cx="308" cy="308" r="3" /><circle cx="297" cy="308" r="3" /><circle cx="318" cy="308" r="3" /><circle cx="309" cy="308" r="3" /><circle cx="309" cy="308" r="3" /><circle cx="304" cy="308" r="3" /><circle cx="303" cy="308" r="3" /><circle cx="313" cy="308" r="3" /><circle cx="295" cy="309" r="3" /><circle cx="326" cy="309" r="3" /><circle cx="310" cy="309" r="3" /><circle cx="285" cy="309" r="3" /><circle cx="306" cy="309" r="3" /><circle cx="287" cy="309" r="3" /><circle cx="302" cy="309" r="3" /><circle cx="307" cy="309" r="3" /><circle cx="310" cy="309" r="3" /><circle cx="301" cy="309" r="3" /><circle cx="302" cy="309" r="3" /><circle cx="286" cy="310" r="3" /><circle cx="292" cy="310" r="3" /><circle cx="308" cy="310" r="3" /><circle cx="299" cy="310" r="3" /><circle cx="301" cy="310" r="3" /><circle cx="306" cy="310" r="3" /><circle cx="309" cy="310" r="3" /><circle cx="294" cy="310" r="3" /><circle cx="279" cy="310" r="3" /><circle cx="306" cy="310" r="3" /><circle cx="315" cy="310" r="3" /><circle cx="298" cy="310" r="3" /><circle cx="297" cy="310" r="3" /><circle cx="297" cy="310" r="3" /><circle cx="305" cy="310" r="3" /><circle cx="277" cy="310" r="3" /><circle cx="284" cy="310" r="3" /><circle cx="306" cy="310" r="3" /><circle cx="293" cy="310" r="3" /><circle cx="286" cy="311" r="3" /><circle cx="316" cy="311" r="3" /><circle cx="301" cy="311" r="3" /><circle cx="286" cy="311" r="3" /><circle cx="309" cy="311" r="3" /><circle cx="290" cy="311" r="3" /><circle cx="286" cy="311" r="3" /><circle cx="306" cy="311" r="3" /><circle cx="305" cy="311" r="3" /><circle cx="292" cy="311" r="3" /><circle cx="309" cy="311" r="3" /><circle cx="296" cy="311" r="3" /><circle cx="304" cy="312" r="3" /><circle cx="300" cy="312" r="3" /><circle cx="298" cy="312" r="3" /><circle cx="313" cy="312" r="3" /><circle cx="292" cy="312" r="3" /><circle cx="301" cy="312" r="3" /><circle cx="301" cy="312" r="3" /><circle cx="293" cy="312" r="3" /><circle cx="301" cy="312" r="3" /><circle cx="289" cy="312" r="3" /><circle cx="319" cy="312" r="3" /><circle cx="305" cy="313" r="3" /><circle cx="298" cy="313" r="3" /><circle cx="297" cy="313" r="3" /><circle cx="301" cy="313" r="3" /><circle cx="296" cy="313" r="3" /><circle cx="304" cy="313" r="3" /><circle cx="301" cy="313" r="3" /><circle cx="310" cy="313" r="3" /><circle cx="296" cy="313" r="3" /><circle cx="306" cy="313" r="3" /><circle cx="298" cy="314" r="3" /><circle cx="292" cy="314" r="3" /><circle cx="310" cy="314" r="3" /><circle cx="292" cy="314" r="3" /><circle cx="308" cy="314" r="3" /><circle cx="298" cy="315" r="3" /><circle cx="295" cy="315" r="3" /><circle cx="306" cy="315" r="3" /><circle cx="299" cy="315" r="3" /><circle cx="302" cy="315" r="3" /><circle cx="290" cy="315" r="3" /><circle cx="281" cy="316" r="3" /><circle cx="290" cy="316" r="3" /><circle cx="303" cy="316" r="3" /><circle cx="316" cy="316" r="3" /><circle cx="300" cy="316" r="3" /><circle cx="283" cy="317" r="3" /><circle cx="308" cy="317" r="3" /><circle cx="298" cy="317" r="3" /><circle cx="301" cy="317" r="3" /><circle cx="300" cy="318" r="3" /><circle cx="309" cy="318" r="3" /><circle cx="297" cy="318" r="3" /><circle cx="302" cy="319" r="3" /><circle cx="317" cy="319" r="3" /><circle cx="295" cy="319" r="3" /><circle cx="307" cy="321" r="3" /><circle cx="302" cy="321" r="3" /><circle cx="293" cy="321" r="3" /><circle cx="296" cy="321" r="3" /><circle cx="315" cy="321" r="3" /><circle cx="314" cy="321" r="3" /><circle cx="286" cy="322" r="3" /><circle cx="300" cy="322" r="3" /><circle cx="292" cy="322" r="3" /><circle cx="299" cy="322" r="3" /><circle cx="314" cy="322" r="3" /><circle cx="296" cy="322" r="3" /><circle cx="301" cy="324" r="3" /><circle cx="300" cy="327" r="3" /><circle cx="291" cy="328" r="3" /><circle cx="309" cy="330" r="3" /></svg>