<?xml version="1.0" encoding="utf-8" ?>
<svg baseProfile="tiny" height="100%" version="1.2" width="100%" xmlns="http://www.w3.org/2000/svg" xmlns:ev="http://www.w3.org/2001/xml-events" xmlns:xlink="http://www.w3.org/1999/xlink"><defs /><line stroke="rgb(10%,10%,16%)" x1="274" x2="333" y1="131" y2="155" /><line stroke="rgb(10%,10%,16%)" x1="333" x2="432" y1="155" y2="219" /><line stroke="rgb(10%,10%,16%)" x1="432" x2="452" y1="219" y2="288" /><line stroke="rgb(10%,10%,16%)" x1="452" x2="447" y1="288" y2="346" /><line stroke="rgb(10%,10%,16%)" x1="447" x2="373" y1="346" y2="410" /><line stroke="rgb(10%,10%,16%)" x1="373" x2="351" y1="410" y2="416" /><line stroke="rgb(10%,10%,16%)" x1="351" x2="280" y1="416" y2="423" /><line stroke="rgb(10%,10%,16%)" x1="280" x2="280" y1="423" y2="423" /><line stroke="rgb(10%,10%,16%)" x1="280" x2="249" y1="423" y2="422" /><line stroke="rgb(10%,10%,16%)" x1="249" x2="105" y1="422" y2="340" /><line stroke="rgb(10%,10%,16%)" x1="105" x2="239" y1="340" y2="160" /><line stroke="rgb(10%,10%,16%)" x1="239" x2="274" y1="160" y2="131" /><circle cx="274" cy="131" r="3" /><circle cx="333" cy="155" r="3" /><circle cx="269" cy="156" r="3" /><circle cx="239" cy="160" r="3" /><circle cx="266" cy="166" r="3" /><circle cx="286" cy="177" r="3" /><circle cx="319" cy="186" r="3" /><circle cx="269" cy="194" r="3" /><circle cx="259" cy="202" r="3" /><circle cx="282" cy="205" r="3" /><circle cx="255" cy="205" r="3" /><circle cx="291" cy="209" r="3" /><circle cx="247" cy="210" r="3" /><circle cx="223" cy="211" r="3" /><circle cx="355" cy="211" r="3" /><circle cx="317" cy="214" r="3" /><circle cx="308" cy="217" r="3" /><circle cx="249" cy="218" r="3" /><circle cx="432" cy="219" r="3" /><circle cx="227" cy="220" r="3" /><circle cx="254" cy="220" r="3" /><circle cx="274" cy="225" r="3" /><circle cx="325" cy="225" r="3" /><circle cx="323" cy="226" r="3" /><circle cx="323" cy="226" r="3" /><circle cx="340" cy="226" r="3" /><circle cx="341" cy="227" r="3" /><circle cx="299" cy="228" r="3" /><circle cx="332" cy="228" r="3" /><circle cx="278" cy="228" r="3" /><circle cx="239" cy="230" r="3" /><circle cx="253" cy="230" r="3" /><circle cx="328" cy="230" r="3" /><circle cx="340" cy="231" r="3" /><circle cx="340" cy="232" r="3" /><circle cx="287" cy="232" r="3" /><circle cx="411" cy="232" r="3" /><circle cx="324" cy="233" r="3" /><circle cx="358" cy="233" r="3" /><circle cx="333" cy="234" r="3" /><circle cx="277" cy="234" r="3" /><circle cx="304" cy="235" r="3" /><circle cx="252" cy="236" r="3" /><circle cx="314" cy="236" r="3" /><circle cx="244" cy="236" r="3" /><circle cx="369" cy="237" r="3" /><circle cx="233" cy="237" r="3" /><circle cx="226" cy="237" r="3" /><circle cx="333" cy="238" r="3" /><circle cx="366" cy="238" r="3" /><circle cx="368" cy="239" r="3" /><circle cx="281" cy="239" r="3" /><circle cx="256" cy="240" r="3" /><circle cx="338" cy="241" r="3" /><circle cx="269" cy="241" r="3" /><circle cx="401" cy="242" r="3" /><circle cx="216" cy="242" r="3" /><circle cx="335" cy="243" r="3" /><circle cx="292" cy="243" r="3" /><circle cx="244" cy="243" r="3" /><circle cx="278" cy="244" r="3" /><circle cx="332" cy="244" r="3" /><circle cx="355" cy="246" r="3" /><circle cx="344" cy="246" r="3" /><circle cx="238" cy="246" r="3" /><circle cx="353" cy="246" r="3" /><circle cx="336" cy="246" r="3" /><circle cx="287" cy="246" r="3" /><circle cx="195" cy="247" r="3" /><circle cx="263" cy="248" r="3" /><circle cx="300" cy="250" r="3" /><circle cx="296" cy="250" r="3" /><circle cx="290" cy="251" r="3" /><circle cx="229" cy="251" r="3" /><circle cx="330" cy="251" r="3" /><circle cx="234" cy="252" r="3" /><circle cx="349" cy="253" r="3" /><circle cx="239" cy="253" r="3" /><circle cx="291" cy="254" r="3" /><circle cx="309" cy="254" r="3" /><circle cx="245" cy="255" r="3" /><circle cx="263" cy="255" r="3" /><circle cx="372" cy="255" r="3" /><circle cx="378" cy="255" r="3" /><circle cx="344" cy="256" r="3" /><circle cx="310" cy="256" r="3" /><circle cx="289" cy="256" r="3" /><circle cx="273" cy="256" r="3" /><circle cx="278" cy="257" r="3" /><circle cx="301" cy="257" r="3" /><circle cx="225" cy="257" r="3" /><circle cx="205" cy="257" r="3" /><circle cx="359" cy="258" r="3" /><circle cx="309" cy="258" r="3" /><circle cx="328" cy="259" r="3" /><circle cx="194" cy="259" r="3" /><circle cx="256" cy="260" r="3" /><circle cx="328" cy="260" r="3" /><circle cx="381" cy="260" r="3" /><circle cx="319" cy="260" r="3" /><circle cx="365" cy="260" r="3" /><circle cx="287" cy="260" r="3" /><circle cx="213" cy="260" r="3" /><circle cx="284" cy="261" r="3" /><circle cx="336" cy="262" r="3" /><circle cx="260" cy="262" r="3" /><circle cx="338" cy="262" r="3" /><circle cx="257" cy="263" r="3" /><circle cx="312" cy="263" r="3" /><circle cx="305" cy="263" r="3" /><circle cx="284" cy="264" r="3" /><circle cx="364" cy="266" r="3" /><circle cx="335" cy="266" r="3" /><circle cx="256" cy="266" r="3" /><circle cx="340" cy="267" r="3" /><circle cx="242" cy="267" r="3" /><circle cx="315" cy="267" r="3" /><circle cx="214" cy="267" r="3" /><circle cx="338" cy="267" r="3" /><circle cx="228" cy="268" r="3" /><circle cx="287" cy="268" r="3" /><circle cx="391" cy="268" r="3" /><circle cx="374" cy="268" r="3" /><circle cx="291" cy="268" r="3" /><circle cx="378" cy="268" r="3" /><circle cx="224" cy="269" r="3" /><circle cx="233" cy="269" r="3" /><circle cx="264" cy="270" r="3" /><circle cx="314" cy="271" r="3" /><circle cx="212" cy="271" r="3" /><circle cx="311" cy="271" r="3" /><circle cx="339" cy="271" r="3" /><circle cx="190" cy="272" r="3" /><circle cx="308" cy="272" r="3" /><circle cx="367" cy="272" r="3" /><circle cx="310" cy="273" r="3" /><circle cx="310" cy="273" r="3" /><circle cx="308" cy="274" r="3" /><circle cx="215" cy="274" r="3" /><circle cx="383" cy="274" r="3" /><circle cx="363" cy="274" r="3" /><circle cx="316" cy="275" r="3" /><circle cx="224" cy="275" r="3" /><circle cx="283" cy="275" r="3" /><circle cx="288" cy="275" r="3" /><circle cx="356" cy="275" r="3" /><circle cx="247" cy="275" r="3" /><circle cx="302" cy="276" r="3" /><circle cx="315" cy="276" r="3" /><circle cx="266" cy="276" r="3" /><circle cx="252" cy="277" r="3" /><circle cx="274" cy="277" r="3" /><circle cx="354" cy="277" r="3" /><circle cx="221" cy="278" r="3" /><circle cx="302" cy="278" r="3" /><circle cx="376" cy="278" r="3" /><circle cx="252" cy="279" r="3" /><circle cx="215" cy="279" r="3" /><circle cx="249" cy="279" r="3" /><circle cx="399" cy="279" r="3" /><circle cx="275" cy="279" r="3" /><circle cx="332" cy="279" r="3" /><circle cx="230" cy="279" r="3" /><circle cx="247" cy="279" r="3" /><circle cx="278" cy="280" r="3" /><circle cx="275" cy="280" r="3" /><circle cx="334" cy="281" r="3" /><circle cx="320" cy="281" r="3" /><circle cx="331" cy="282" r="3" /><circle cx="261" cy="282" r="3" /><circle cx="335" cy="282" r="3" /><circle cx="332" cy="282" r="3" /><circle cx="350" cy="282" r="3" /><circle cx="234" cy="283" r="3" /><circle cx="295" cy="283" r="3" /><circle cx="253" cy="283" r="3" /><circle cx="267" cy="284" r="3" /><circle cx="319" cy="284" r="3" /><circle cx="251" cy="284" r="3" /><circle cx="273" cy="284" r="3" /><circle cx="182" cy="285" r="3" /><circle cx="322" cy="285" r="3" /><circle cx="279" cy="285" r="3" /><circle cx="247" cy="285" r="3" /><circle cx="315" cy="285" r="3" /><circle cx="216" cy="285" r="3" /><circle cx="301" cy="285" r="3" /><circle cx="298" cy="285" r="3" /><circle cx="290" cy="286" r="3" /><circle cx="250" cy="286" r="3" /><circle cx="369" cy="286" r="3" /><circle cx="317" cy="287" r="3" /><circle cx="271" cy="287" r="3" /><circle cx="262" cy="287" r="3" /><circle cx="361" cy="287" r="3" /><circle cx="452" cy="288" r="3" /><circle cx="360" cy="288" r="3" /><circle cx="288" cy="288" r="3" /><circle cx="257" cy="289" r="3" /><circle cx="283" cy="289" r="3" /><circle cx="340" cy="289" r="3" /><circle cx="326" cy="289" r="3" /><circle cx="331" cy="290" r="3" /><circle cx="346" cy="290" r="3" /><circle cx="344" cy="290" r="3" /><circle cx="387" cy="290" r="3" /><circle cx="286" cy="290" r="3" /><circle cx="259" cy="291" r="3" /><circle cx="258" cy="291" r="3" /><circle cx="256" cy="291" r="3" /><circle cx="301" cy="291" r="3" /><circle cx="354" cy="291" r="3" /><circle cx="269" cy="292" r="3" /><circle cx="363" cy="292" r="3" /><circle cx="236" cy="293" r="3" /><circle cx="293" cy="293" r="3" /><circle cx="344" cy="293" r="3" /><circle cx="302" cy="293" r="3" /><circle cx="311" cy="293" r="3" /><circle cx="306" cy="294" r="3" /><circle cx="220" cy="294" r="3" /><circle cx="314" cy="294" r="3" /><circle cx="230" cy="295" r="3" /><circle cx="338" cy="295" r="3" /><circle cx="252" cy="295" r="3" /><circle cx="329" cy="295" r="3" /><circle cx="286" cy="295" r="3" /><circle cx="253" cy="295" r="3" /><circle cx="322" cy="295" r="3" /><circle cx="318" cy="296" r="3" /><circle cx="333" cy="296" r="3" /><circle cx="330" cy="296" r="3" /><circle cx="271" cy="296" r="3" /><circle cx="372" cy="296" r="3" /><circle cx="307" cy="297" r="3" /><circle cx="321" cy="297" r="3" /><circle cx="270" cy="297" r="3" /><circle cx="307" cy="297" r="3" /><circle cx="391" cy="297" r="3" /><circle cx="214" cy="297" r="3" /><circle cx="291" cy="297" r="3" /><circle cx="359" cy="298" r="3" /><circle cx="264" cy="298" r="3" /><circle cx="329" cy="298" r="3" /><circle cx="333" cy="298" r="3" /><circle cx="355" cy="298" r="3" /><circle cx="245" cy="299" r="3" /><circle cx="264" cy="299" r="3" /><circle cx="353" cy="299" r="3" /><circle cx="252" cy="300" r="3" /><circle cx="290" cy="301" r="3" /><circle cx="320" cy="301" r="3" /><circle cx="350" cy="301" r="3" /><circle cx="206" cy="301" r="3" /><circle cx="213" cy="301" r="3" /><circle cx="239" cy="302" r="3" /><circle cx="272" cy="302" r="3" /><circle cx="246" cy="302" r="3" /><circle cx="242" cy="302" r="3" /><circle cx="253" cy="302" r="3" /><circle cx="242" cy="302" r="3" /><circle cx="326" cy="302" r="3" /><circle cx="258" cy="302" r="3" /><circle cx="239" cy="302" r="3" /><circle cx="326" cy="303" r="3" /><circle cx="228" cy="303" r="3" /><circle cx="342" cy="303" r="3" /><circle cx="362" cy="303" r="3" /><circle cx="250" cy="303" r="3" /><circle cx="287" cy="303" r="3" /><circle cx="293" cy="304" r="3" /><circle cx="307" cy="305" r="3" /><circle cx="183" cy="305" r="3" /><circle cx="246" cy="305" r="3" /><circle cx="291" cy="305" r="3" /><circle cx="317" cy="306" r="3" /><circle cx="350" cy="307" r="3" /><circle cx="311" cy="307" r="3" /><circle cx="314" cy="307" r="3" /><circle cx="357" cy="307" r="3" /><circle cx="267" cy="307" r="3" /><circle cx="212" cy="308" r="3" /><circle cx="331" cy="308" r="3" /><circle cx="345" cy="308" r="3" /><circle cx="227" cy="308" r="3" /><circle cx="315" cy="310" r="3" /><circle cx="342" cy="310" r="3" /><circle cx="376" cy="310" r="3" /><circle cx="288" cy="310" r="3" /><circle cx="322" cy="310" r="3" /><circle cx="140" cy="310" r="3" /><circle cx="266" cy="310" r="3" /><circle cx="341" cy="310" r="3" /><circle cx="387" cy="310" r="3" /><circle cx="336" cy="310" r="3" /><circle cx="351" cy="310" r="3" /><circle cx="302" cy="310" r="3" /><circle cx="413" cy="311" r="3" /><circle cx="341" cy="311" r="3" /><circle cx="285" cy="311" r="3" /><circle cx="333" cy="312" r="3" /><circle cx="317" cy="312" r="3" /><circle cx="207" cy="312" r="3" /><circle cx="292" cy="312" r="3" /><circle cx="308" cy="313" r="3" /><circle cx="214" cy="313" r="3" /><circle cx="362" cy="313" r="3" /><circle cx="326" cy="313" r="3" /><circle cx="283" cy="313" r="3" /><circle cx="342" cy="313" r="3" /><circle cx="241" cy="313" r="3" /><circle cx="309" cy="313" r="3" /><circle cx="310" cy="314" r="3" /><circle cx="383" cy="314" r="3" /><circle cx="323" cy="314" r="3" /><circle cx="302" cy="314" r="3" /><circle cx="428" cy="314" r="3" /><circle cx="352" cy="315" r="3" /><circle cx="361" cy="315" r="3" /><circle cx="319" cy="315" r="3" /><circle cx="215" cy="315" r="3" /><circle cx="252" cy="316" r="3" /><circle cx="292" cy="316" r="3" /><circle cx="358" cy="316" r="3" /><circle cx="218" cy="316" r="3" /><circle cx="248" cy="316" r="3" /><circle cx="282" cy="317" r="3" /><circle cx="280" cy="318" r="3" /><circle cx="213" cy="318" r="3" /><circle cx="241" cy="319" r="3" /><circle cx="340" cy="319" r="3" /><circle cx="220" cy="319" r="3" /><circle cx="329" cy="319" r="3" /><circle cx="285" cy="319" r="3" /><circle cx="396" cy="320" r="3" /><circle cx="271" cy="320" r="3" /><circle cx="308" cy="320" r="3" /><circle cx="322" cy="320" r="3" /><circle cx="254" cy="320" r="3" /><circle cx="236" cy="320" r="3" /><circle cx="372" cy="320" r="3" /><circle cx="290" cy="320" r="3" /><circle cx="290" cy="321" r="3" /><circle cx="277" cy="321" r="3" /><circle cx="261" cy="322" r="3" /><circle cx="388" cy="322" r="3" /><circle cx="197" cy="322" r="3" /><circle cx="231" cy="323" r="3" /><circle cx="258" cy="324" r="3" /><circle cx="280" cy="324" r="3" /><circle cx="251" cy="325" r="3" /><circle cx="307" cy="325" r="3" /><circle cx="263" cy="325" r="3" /><circle cx="221" cy="326" r="3" /><circle cx="286" cy="326" r="3" /><circle cx="285" cy="326" r="3" /><circle cx="320" cy="327" r="3" /><circle cx="295" cy="327" r="3" /><circle cx="236" cy="327" r="3" /><circle cx="330" cy="328" r="3" /><circle cx="310" cy="328" r="3" /><circle cx="307" cy="328" r="3" /><circle cx="266" cy="329" r="3" /><circle cx="395" cy="329" r="3" /><circle cx="332" cy="329" r="3" /><circle cx="203" cy="329" r="3" /><circle cx="313" cy="329" r="3" /><circle cx="310" cy="330" r="3" /><circle cx="371" cy="330" r="3" /><circle cx="296" cy="330" r="3" /><circle cx="230" cy="330" r="3" /><circle cx="350" cy="330" r="3" /><circle cx="310" cy="331" r="3" /><circle cx="310" cy="331" r="3" /><circle cx="293" cy="331" r="3" /><circle cx="356" cy="331" r="3" /><circle cx="383" cy="332" r="3" /><circle cx="264" cy="332" r="3" /><circle cx="366" cy="332" r="3" /><circle cx="255" cy="333" r="3" /><circle cx="337" cy="333" r="3" /><circle cx="319" cy="333" r="3" /><circle cx="237" cy="333" r="3" /><circle cx="317" cy="334" r="3" /><circle cx="318" cy="334" r="3" /><circle cx="215" cy="334" r="3" /><circle cx="300" cy="334" r="3" /><circle cx="321" cy="334" r="3" /><circle cx="312" cy="334" r="3" /><circle cx="284" cy="335" r="3" /><circle cx="241" cy="335" r="3" /><circle cx="275" cy="336" r="3" /><circle cx="268" cy="336" r="3" /><circle cx="342" cy="337" r="3" /><circle cx="290" cy="337" r="3" /><circle cx="340" cy="338" r="3" /><circle cx="362" cy="338" r="3" /><circle cx="314" cy="338" r="3" /><circle cx="386" cy="338" r="3" /><circle cx="204" cy="339" r="3" /><circle cx="335" cy="339" r="3" /><circle cx="105" cy="340" r="3" /><circle cx="287" cy="340" r="3" /><circle cx="307" cy="340" r="3" /><circle cx="297" cy="341" r="3" /><circle cx="324" cy="342" r="3" /><circle cx="351" cy="342" r="3" /><circle cx="320" cy="342" r="3" /><circle cx="262" cy="342" r="3" /><circle cx="307" cy="343" r="3" /><circle cx="286" cy="343" r="3" /><circle cx="274" cy="343" r="3" /><circle cx="270" cy="343" r="3" /><circle cx="275" cy="345" r="3" /><circle cx="229" cy="345" r="3" /><circle cx="317" cy="345" r="3" /><circle cx="223" cy="345" r="3" /><circle cx="214" cy="345" r="3" /><circle cx="294" cy="345" r="3" /><circle cx="384" cy="345" r="3" /><circle cx="351" cy="345" r="3" /><circle cx="447" cy="346" r="3" /><circle cx="294" cy="346" r="3" /><circle cx="334" cy="346" r="3" /><circle cx="347" cy="346" r="3" /><circle cx="289" cy="347" r="3" /><circle cx="292" cy="348" r="3" /><circle cx="304" cy="348" r="3" /><circle cx="238" cy="348" r="3" /><circle cx="294" cy="348" r="3" /><circle cx="275" cy="350" r="3" /><circle cx="319" cy="350" r="3" /><circle cx="324" cy="350" r="3" /><circle cx="273" cy="351" r="3" /><circle cx="295" cy="352" r="3" /><circle cx="390" cy="352" r="3" /><circle cx="279" cy="352" r="3" /><circle cx="383" cy="352" r="3" /><circle cx="313" cy="352" r="3" /><circle cx="172" cy="352" r="3" /><circle cx="271" cy="353" r="3" /><circle cx="338" cy="354" r="3" /><circle cx="354" cy="355" r="3" /><circle cx="305" cy="355" r="3" /><circle cx="279" cy="355" r="3" /><circle cx="288" cy="356" r="3" /><circle cx="260" cy="356" r="3" /><circle cx="321" cy="358" r="3" /><circle cx="297" cy="359" r="3" /><circle cx="249" cy="360" r="3" /><circle cx="346" cy="360" r="3" /><circle cx="311" cy="361" r="3" /><circle cx="305" cy="361" r="3" /><circle cx="267" cy="365" r="3" /><circle cx="223" cy="365" r="3" /><circle cx="306" cy="366" r="3" /><circle cx="276" cy="366" r="3" /><circle cx="245" cy="366" r="3" /><circle cx="358" cy="367" r="3" /><circle cx="289" cy="367" r="3" /><circle cx="254" cy="368" r="3" /><circle cx="251" cy="368" r="3" /><circle cx="230" cy="369" r="3" /><circle cx="308" cy="369" r="3" /><circle cx="330" cy="372" r="3" /><circle cx="321" cy="372" r="3" /><circle cx="353" cy="374" r="3" /><circle cx="343" cy="374" r="3" /><circle cx="288" cy="374" r="3" /><circle cx="321" cy="375" r="3" /><circle cx="252" cy="375" r="3" /><circle cx="320" cy="376" r="3" /><circle cx="368" cy="377" r="3" /><circle cx="210" cy="377" r="3" /><circle cx="234" cy="377" r="3" /><circle cx="309" cy="378" r="3" /><circle cx="317" cy="378" r="3" /><circle cx="376" cy="379" r="3" /><circle cx="356" cy="380" r="3" /><circle cx="256" cy="381" r="3" /><circle cx="311" cy="381" r="3" /><circle cx="255" cy="381" r="3" /><circle cx="324" cy="382" r="3" /><circle cx="253" cy="382" r="3" /><circle cx="294" cy="383" r="3" /><circle cx="346" cy="384" r="3" /><circle cx="368" cy="386" r="3" /><circle cx="274" cy="391" r="3" /><circle cx="310" cy="393" r="3" /><circle cx="345" cy="393" r="3" /><circle cx="308" cy="397" r="3" /><circle cx="266" cy="400" r="3" /><circle cx="325" cy="401" r="3" /><circle cx="235" cy="403" r="3" /><circle cx="251" cy="404" r="3" /><circle cx="278" cy="410" r="3" /><circle cx="373" cy="410" r="3" /><circle cx="351" cy="416" r="3" /><circle cx="249" cy="422" r="3" /><circle cx="280" cy="423" r="3" /></svg>