<?xml version="1.0" encoding="utf-8" ?>
<svg baseProfile="tiny" height="100%" version="1.2" width="100%" xmlns="http://www.w3.org/2000/svg" xmlns:ev="http://www.w3.org/2001/xml-events" xmlns:xlink="http://www.w3.org/1999/xlink"><defs /><line stroke="rgb(10%,10%,16%)" x1="276" x2="327" y1="245" y2="247" /><line stroke="rgb(10%,10%,16%)" x1="327" x2="342" y1="247" y2="262" /><line stroke="rgb(10%,10%,16%)" x1="342" x2="352" y1="262" y2="281" /><line stroke="rgb(10%,10%,16%)" x1="352" x2="354" y1="281" y2="288" /><line stroke="rgb(10%,10%,16%)" x1="354" x2="355" y1="288" y2="300" /><line stroke="rgb(10%,10%,16%)" x1="355" x2="354" y1="300" y2="325" /><line stroke="rgb(10%,10%,16%)" x1="354" x2="319" y1="325" y2="359" /><line stroke="rgb(10%,10%,16%)" x1="319" x2="319" y1="359" y2="359" /><line stroke="rgb(10%,10%,16%)" x1="319" x2="268" y1="359" y2="349" /><line stroke="rgb(10%,10%,16%)" x1="268" x2="260" y1="349" y2="337" /><line stroke="rgb(10%,10%,16%)" x1="260" x2="242" y1="337" y2="290" /><line stroke="rgb(10%,10%,16%)" x1="242" x2="244" y1="290" y2="285" /><line stroke="rgb(10%,10%,16%)" x1="244" x2="264" y1="285" y2="255" /><line stroke="rgb(10%,10%,16%)" x1="264" x2="276" y1="255" y2="245" /><circle cx="276" cy="245" r="3" /><circle cx="314" cy="247" r="3" /><circle cx="327" cy="247" r="3" /><circle cx="303" cy="250" r="3" /><circle cx="298" cy="251" r="3" /><circle cx="321" cy="253" r="3" /><circle cx="325" cy="254" r="3" /><circle cx="264" cy="255" r="3" /><circle cx="303" cy="256" r="3" /><circle cx="318" cy="257" r="3" /><circle cx="308" cy="260" r="3" /><circle cx="289" cy="260" r="3" /><circle cx="323" cy="260" r="3" /><circle cx="301" cy="261" r="3" /><circle cx="312" cy="262" r="3" /><circle cx="294" cy="262" r="3" /><circle cx="342" cy="262" r="3" /><circle cx="300" cy="262" r="3" /><circle cx="278" cy="263" r="3" /><circle cx="274" cy="263" r="3" /><circle cx="300" cy="263" r="3" /><circle cx="293" cy="264" r="3" /><circle cx="303" cy="264" r="3" /><circle cx="333" cy="264" r="3" /><circle cx="292" cy="265" r="3" /><circle cx="304" cy="265" r="3" /><circle cx="266" cy="266" r="3" /><circle cx="290" cy="268" r="3" /><circle cx="319" cy="268" r="3" /><circle cx="304" cy="268" r="3" /><circle cx="293" cy="269" r="3" /><circle cx="268" cy="269" r="3" /><circle cx="296" cy="269" r="3" /><circle cx="300" cy="270" r="3" /><circle cx="272" cy="270" r="3" /><circle cx="293" cy="270" r="3" /><circle cx="315" cy="271" r="3" /><circle cx="278" cy="271" r="3" /><circle cx="292" cy="271" r="3" /><circle cx="313" cy="271" r="3" /><circle cx="287" cy="271" r="3" /><circle cx="304" cy="271" r="3" /><circle cx="270" cy="272" r="3" /><circle cx="308" cy="272" r="3" /><circle cx="310" cy="272" r="3" /><circle cx="302" cy="273" r="3" /><circle cx="285" cy="274" r="3" /><circle cx="327" cy="274" r="3" /><circle cx="288" cy="274" r="3" /><circle cx="298" cy="274" r="3" /><circle cx="316" cy="274" r="3" /><circle cx="268" cy="274" r="3" /><circle cx="292" cy="275" r="3" /><circle cx="305" cy="275" r="3" /><circle cx="305" cy="276" r="3" /><circle cx="294" cy="276" r="3" /><circle cx="317" cy="276" r="3" /><circle cx="286" cy="276" r="3" /><circle cx="307" cy="276" r="3" /><circle cx="268" cy="277" r="3" /><circle cx="289" cy="277" r="3" /><circle cx="261" cy="277" r="3" /><circle cx="283" cy="277" r="3" /><circle cx="308" cy="277" r="3" /><circle cx="321" cy="277" r="3" /><circle cx="284" cy="278" r="3" /><circle cx="289" cy="278" r="3" /><circle cx="289" cy="278" r="3" /><circle cx="322" cy="279" r="3" /><circle cx="281" cy="279" r="3" /><circle cx="310" cy="279" r="3" /><circle cx="321" cy="279" r="3" /><circle cx="286" cy="279" r="3" /><circle cx="307" cy="279" r="3" /><circle cx="309" cy="279" r="3" /><circle cx="298" cy="280" r="3" /><circle cx="330" cy="280" r="3" /><circle cx="324" cy="280" r="3" /><circle cx="271" cy="280" r="3" /><circle cx="318" cy="280" r="3" /><circle cx="296" cy="280" r="3" /><circle cx="313" cy="281" r="3" /><circle cx="352" cy="281" r="3" /><circle cx="291" cy="282" r="3" /><circle cx="300" cy="282" r="3" /><circle cx="285" cy="282" r="3" /><circle cx="299" cy="282" r="3" /><circle cx="286" cy="282" r="3" /><circle cx="284" cy="282" r="3" /><circle cx="292" cy="282" r="3" /><circle cx="305" cy="282" r="3" /><circle cx="283" cy="282" r="3" /><circle cx="287" cy="283" r="3" /><circle cx="310" cy="283" r="3" /><circle cx="308" cy="283" r="3" /><circle cx="314" cy="283" r="3" /><circle cx="315" cy="283" r="3" /><circle cx="297" cy="284" r="3" /><circle cx="339" cy="284" r="3" /><circle cx="313" cy="284" r="3" /><circle cx="284" cy="284" r="3" /><circle cx="278" cy="284" r="3" /><circle cx="320" cy="284" r="3" /><circle cx="339" cy="284" r="3" /><circle cx="307" cy="284" r="3" /><circle cx="276" cy="284" r="3" /><circle cx="317" cy="284" r="3" /><circle cx="302" cy="285" r="3" /><circle cx="268" cy="285" r="3" /><circle cx="312" cy="285" r="3" /><circle cx="308" cy="285" r="3" /><circle cx="244" cy="285" r="3" /><circle cx="303" cy="285" r="3" /><circle cx="296" cy="285" r="3" /><circle cx="291" cy="285" r="3" /><circle cx="329" cy="285" r="3" /><circle cx="303" cy="285" r="3" /><circle cx="308" cy="285" r="3" /><circle cx="292" cy="286" r="3" /><circle cx="313" cy="286" r="3" /><circle cx="315" cy="286" r="3" /><circle cx="284" cy="286" r="3" /><circle cx="268" cy="286" r="3" /><circle cx="291" cy="286" r="3" /><circle cx="307" cy="286" r="3" /><circle cx="313" cy="286" r="3" /><circle cx="277" cy="286" r="3" /><circle cx="321" cy="286" r="3" /><circle cx="310" cy="286" r="3" /><circle cx="340" cy="286" r="3" /><circle cx="274" cy="287" r="3" /><circle cx="276" cy="287" r="3" /><circle cx="309" cy="287" r="3" /><circle cx="324" cy="287" r="3" /><circle cx="273" cy="287" r="3" /><circle cx="298" cy="287" r="3" /><circle cx="323" cy="287" r="3" /><circle cx="313" cy="287" r="3" /><circle cx="320" cy="288" r="3" /><circle cx="300" cy="288" r="3" /><circle cx="354" cy="288" r="3" /><circle cx="279" cy="288" r="3" /><circle cx="317" cy="288" r="3" /><circle cx="305" cy="288" r="3" /><circle cx="333" cy="288" r="3" /><circle cx="313" cy="288" r="3" /><circle cx="291" cy="288" r="3" /><circle cx="295" cy="289" r="3" /><circle cx="281" cy="289" r="3" /><circle cx="312" cy="289" r="3" /><circle cx="295" cy="289" r="3" /><circle cx="330" cy="289" r="3" /><circle cx="296" cy="289" r="3" /><circle cx="310" cy="289" r="3" /><circle cx="316" cy="289" r="3" /><circle cx="281" cy="289" r="3" /><circle cx="295" cy="289" r="3" /><circle cx="268" cy="290" r="3" /><circle cx="242" cy="290" r="3" /><circle cx="247" cy="290" r="3" /><circle cx="299" cy="290" r="3" /><circle cx="296" cy="290" r="3" /><circle cx="335" cy="290" r="3" /><circle cx="290" cy="290" r="3" /><circle cx="281" cy="290" r="3" /><circle cx="297" cy="290" r="3" /><circle cx="294" cy="291" r="3" /><circle cx="308" cy="291" r="3" /><circle cx="288" cy="291" r="3" /><circle cx="311" cy="291" r="3" /><circle cx="297" cy="291" r="3" /><circle cx="268" cy="291" r="3" /><circle cx="303" cy="291" r="3" /><circle cx="275" cy="291" r="3" /><circle cx="288" cy="291" r="3" /><circle cx="299" cy="291" r="3" /><circle cx="280" cy="291" r="3" /><circle cx="342" cy="292" r="3" /><circle cx="289" cy="292" r="3" /><circle cx="302" cy="292" r="3" /><circle cx="267" cy="292" r="3" /><circle cx="288" cy="292" r="3" /><circle cx="300" cy="292" r="3" /><circle cx="303" cy="292" r="3" /><circle cx="308" cy="292" r="3" /><circle cx="292" cy="292" r="3" /><circle cx="250" cy="292" r="3" /><circle cx="306" cy="292" r="3" /><circle cx="269" cy="292" r="3" /><circle cx="310" cy="292" r="3" /><circle cx="327" cy="292" r="3" /><circle cx="295" cy="293" r="3" /><circle cx="323" cy="293" r="3" /><circle cx="325" cy="293" r="3" /><circle cx="294" cy="293" r="3" /><circle cx="289" cy="293" r="3" /><circle cx="276" cy="293" r="3" /><circle cx="292" cy="293" r="3" /><circle cx="301" cy="293" r="3" /><circle cx="319" cy="293" r="3" /><circle cx="272" cy="293" r="3" /><circle cx="269" cy="293" r="3" /><circle cx="341" cy="293" r="3" /><circle cx="299" cy="294" r="3" /><circle cx="280" cy="294" r="3" /><circle cx="292" cy="294" r="3" /><circle cx="305" cy="294" r="3" /><circle cx="290" cy="294" r="3" /><circle cx="294" cy="294" r="3" /><circle cx="292" cy="294" r="3" /><circle cx="297" cy="295" r="3" /><circle cx="315" cy="295" r="3" /><circle cx="279" cy="295" r="3" /><circle cx="285" cy="295" r="3" /><circle cx="302" cy="295" r="3" /><circle cx="309" cy="295" r="3" /><circle cx="316" cy="295" r="3" /><circle cx="301" cy="295" r="3" /><circle cx="277" cy="295" r="3" /><circle cx="317" cy="295" r="3" /><circle cx="312" cy="295" r="3" /><circle cx="293" cy="296" r="3" /><circle cx="272" cy="296" r="3" /><circle cx="306" cy="296" r="3" /><circle cx="323" cy="296" r="3" /><circle cx="304" cy="296" r="3" /><circle cx="299" cy="296" r="3" /><circle cx="302" cy="297" r="3" /><circle cx="272" cy="297" r="3" /><circle cx="296" cy="297" r="3" /><circle cx="270" cy="297" r="3" /><circle cx="293" cy="297" r="3" /><circle cx="319" cy="297" r="3" /><circle cx="298" cy="297" r="3" /><circle cx="302" cy="297" r="3" /><circle cx="304" cy="297" r="3" /><circle cx="312" cy="297" r="3" /><circle cx="331" cy="297" r="3" /><circle cx="313" cy="297" r="3" /><circle cx="256" cy="298" r="3" /><circle cx="288" cy="298" r="3" /><circle cx="326" cy="298" r="3" /><circle cx="291" cy="298" r="3" /><circle cx="292" cy="299" r="3" /><circle cx="291" cy="299" r="3" /><circle cx="328" cy="299" r="3" /><circle cx="305" cy="299" r="3" /><circle cx="314" cy="299" r="3" /><circle cx="275" cy="299" r="3" /><circle cx="325" cy="299" r="3" /><circle cx="355" cy="300" r="3" /><circle cx="277" cy="300" r="3" /><circle cx="307" cy="300" r="3" /><circle cx="307" cy="300" r="3" /><circle cx="315" cy="300" r="3" /><circle cx="288" cy="300" r="3" /><circle cx="316" cy="300" r="3" /><circle cx="338" cy="300" r="3" /><circle cx="312" cy="300" r="3" /><circle cx="340" cy="300" r="3" /><circle cx="284" cy="300" r="3" /><circle cx="307" cy="300" r="3" /><circle cx="281" cy="300" r="3" /><circle cx="292" cy="300" r="3" /><circle cx="287" cy="300" r="3" /><circle cx="286" cy="301" r="3" /><circle cx="287" cy="301" r="3" /><circle cx="316" cy="301" r="3" /><circle cx="279" cy="301" r="3" /><circle cx="324" cy="301" r="3" /><circle cx="317" cy="301" r="3" /><circle cx="340" cy="301" r="3" /><circle cx="311" cy="302" r="3" /><circle cx="308" cy="302" r="3" /><circle cx="304" cy="302" r="3" /><circle cx="305" cy="302" r="3" /><circle cx="278" cy="302" r="3" /><circle cx="312" cy="303" r="3" /><circle cx="304" cy="303" r="3" /><circle cx="315" cy="303" r="3" /><circle cx="311" cy="303" r="3" /><circle cx="313" cy="303" r="3" /><circle cx="290" cy="303" r="3" /><circle cx="264" cy="303" r="3" /><circle cx="286" cy="303" r="3" /><circle cx="264" cy="303" r="3" /><circle cx="291" cy="303" r="3" /><circle cx="322" cy="303" r="3" /><circle cx="285" cy="303" r="3" /><circle cx="313" cy="303" r="3" /><circle cx="295" cy="303" r="3" /><circle cx="285" cy="303" r="3" /><circle cx="284" cy="303" r="3" /><circle cx="328" cy="304" r="3" /><circle cx="317" cy="304" r="3" /><circle cx="286" cy="304" r="3" /><circle cx="335" cy="304" r="3" /><circle cx="293" cy="304" r="3" /><circle cx="286" cy="304" r="3" /><circle cx="300" cy="304" r="3" /><circle cx="289" cy="304" r="3" /><circle cx="314" cy="304" r="3" /><circle cx="303" cy="304" r="3" /><circle cx="304" cy="304" r="3" /><circle cx="303" cy="304" r="3" /><circle cx="275" cy="304" r="3" /><circle cx="252" cy="304" r="3" /><circle cx="292" cy="305" r="3" /><circle cx="308" cy="305" r="3" /><circle cx="295" cy="305" r="3" /><circle cx="289" cy="305" r="3" /><circle cx="289" cy="305" r="3" /><circle cx="309" cy="305" r="3" /><circle cx="293" cy="305" r="3" /><circle cx="305" cy="305" r="3" /><circle cx="299" cy="305" r="3" /><circle cx="333" cy="305" r="3" /><circle cx="313" cy="306" r="3" /><circle cx="329" cy="306" r="3" /><circle cx="289" cy="306" r="3" /><circle cx="303" cy="306" r="3" /><circle cx="297" cy="306" r="3" /><circle cx="296" cy="306" r="3" /><circle cx="302" cy="306" r="3" /><circle cx="291" cy="306" r="3" /><circle cx="266" cy="306" r="3" /><circle cx="299" cy="306" r="3" /><circle cx="308" cy="306" r="3" /><circle cx="304" cy="306" r="3" /><circle cx="340" cy="306" r="3" /><circle cx="338" cy="306" r="3" /><circle cx="327" cy="306" r="3" /><circle cx="293" cy="306" r="3" /><circle cx="300" cy="307" r="3" /><circle cx="311" cy="307" r="3" /><circle cx="311" cy="307" r="3" /><circle cx="281" cy="307" r="3" /><circle cx="310" cy="307" r="3" /><circle cx="330" cy="307" r="3" /><circle cx="271" cy="307" r="3" /><circle cx="296" cy="307" r="3" /><circle cx="301" cy="307" r="3" /><circle cx="300" cy="308" r="3" /><circle cx="306" cy="308" r="3" /><circle cx="350" cy="308" r="3" /><circle cx="308" cy="309" r="3" /><circle cx="275" cy="309" r="3" /><circle cx="310" cy="309" r="3" /><circle cx="279" cy="309" r="3" /><circle cx="285" cy="309" r="3" /><circle cx="291" cy="310" r="3" /><circle cx="299" cy="310" r="3" /><circle cx="291" cy="310" r="3" /><circle cx="309" cy="310" r="3" /><circle cx="288" cy="310" r="3" /><circle cx="315" cy="310" r="3" /><circle cx="326" cy="310" r="3" /><circle cx="273" cy="310" r="3" /><circle cx="261" cy="311" r="3" /><circle cx="280" cy="311" r="3" /><circle cx="257" cy="311" r="3" /><circle cx="313" cy="311" r="3" /><circle cx="294" cy="311" r="3" /><circle cx="314" cy="312" r="3" /><circle cx="295" cy="312" r="3" /><circle cx="308" cy="312" r="3" /><circle cx="301" cy="312" r="3" /><circle cx="311" cy="312" r="3" /><circle cx="312" cy="313" r="3" /><circle cx="306" cy="313" r="3" /><circle cx="284" cy="313" r="3" /><circle cx="317" cy="313" r="3" /><circle cx="330" cy="313" r="3" /><circle cx="295" cy="313" r="3" /><circle cx="310" cy="313" r="3" /><circle cx="291" cy="313" r="3" /><circle cx="305" cy="314" r="3" /><circle cx="337" cy="314" r="3" /><circle cx="298" cy="314" r="3" /><circle cx="284" cy="315" r="3" /><circle cx="305" cy="315" r="3" /><circle cx="278" cy="315" r="3" /><circle cx="302" cy="315" r="3" /><circle cx="305" cy="316" r="3" /><circle cx="295" cy="316" r="3" /><circle cx="296" cy="316" r="3" /><circle cx="287" cy="316" r="3" /><circle cx="297" cy="316" r="3" /><circle cx="287" cy="316" r="3" /><circle cx="314" cy="316" r="3" /><circle cx="263" cy="317" r="3" /><circle cx="279" cy="317" r="3" /><circle cx="323" cy="317" r="3" /><circle cx="301" cy="317" r="3" /><circle cx="321" cy="317" r="3" /><circle cx="304" cy="317" r="3" /><circle cx="310" cy="317" r="3" /><circle cx="289" cy="317" r="3" /><circle cx="290" cy="317" r="3" /><circle cx="319" cy="318" r="3" /><circle cx="283" cy="318" r="3" /><circle cx="296" cy="318" r="3" /><circle cx="308" cy="318" r="3" /><circle cx="278" cy="318" r="3" /><circle cx="309" cy="318" r="3" /><circle cx="287" cy="318" r="3" /><circle cx="341" cy="318" r="3" /><circle cx="295" cy="318" r="3" /><circle cx="309" cy="318" r="3" /><circle cx="293" cy="318" r="3" /><circle cx="272" cy="318" r="3" /><circle cx="277" cy="318" r="3" /><circle cx="325" cy="319" r="3" /><circle cx="311" cy="319" r="3" /><circle cx="305" cy="319" r="3" /><circle cx="296" cy="320" r="3" /><circle cx="263" cy="320" r="3" /><circle cx="331" cy="320" r="3" /><circle cx="278" cy="320" r="3" /><circle cx="293" cy="320" r="3" /><circle cx="294" cy="320" r="3" /><circle cx="321" cy="320" r="3" /><circle cx="285" cy="320" r="3" /><circle cx="272" cy="321" r="3" /><circle cx="268" cy="321" r="3" /><circle cx="307" cy="321" r="3" /><circle cx="315" cy="321" r="3" /><circle cx="309" cy="321" r="3" /><circle cx="299" cy="321" r="3" /><circle cx="310" cy="322" r="3" /><circle cx="314" cy="322" r="3" /><circle cx="316" cy="322" r="3" /><circle cx="272" cy="322" r="3" /><circle cx="305" cy="322" r="3" /><circle cx="270" cy="323" r="3" /><circle cx="287" cy="323" r="3" /><circle cx="284" cy="323" r="3" /><circle cx="287" cy="323" r="3" /><circle cx="348" cy="323" r="3" /><circle cx="284" cy="323" r="3" /><circle cx="316" cy="323" r="3" /><circle cx="283" cy="323" r="3" /><circle cx="307" cy="324" r="3" /><circle cx="316" cy="324" r="3" /><circle cx="313" cy="324" r="3" /><circle cx="319" cy="324" r="3" /><circle cx="304" cy="324" r="3" /><circle cx="299" cy="325" r="3" /><circle cx="354" cy="325" r="3" /><circle cx="319" cy="325" r="3" /><circle cx="300" cy="325" r="3" /><circle cx="285" cy="325" r="3" /><circle cx="335" cy="326" r="3" /><circle cx="300" cy="326" r="3" /><circle cx="292" cy="326" r="3" /><circle cx="289" cy="326" r="3" /><circle cx="351" cy="327" r="3" /><circle cx="292" cy="327" r="3" /><circle cx="310" cy="327" r="3" /><circle cx="285" cy="327" r="3" /><circle cx="270" cy="328" r="3" /><circle cx="324" cy="328" r="3" /><circle cx="321" cy="328" r="3" /><circle cx="264" cy="328" r="3" /><circle cx="291" cy="328" r="3" /><circle cx="301" cy="328" r="3" /><circle cx="297" cy="329" r="3" /><circle cx="286" cy="329" r="3" /><circle cx="347" cy="329" r="3" /><circle cx="277" cy="330" r="3" /><circle cx="296" cy="330" r="3" /><circle cx="272" cy="330" r="3" /><circle cx="301" cy="330" r="3" /><circle cx="302" cy="331" r="3" /><circle cx="316" cy="331" r="3" /><circle cx="318" cy="331" r="3" /><circle cx="290" cy="332" r="3" /><circle cx="264" cy="332" r="3" /><circle cx="285" cy="332" r="3" /><circle cx="281" cy="333" r="3" /><circle cx="296" cy="333" r="3" /><circle cx="312" cy="333" r="3" /><circle cx="290" cy="333" r="3" /><circle cx="294" cy="334" r="3" /><circle cx="300" cy="336" r="3" /><circle cx="279" cy="336" r="3" /><circle cx="260" cy="337" r="3" /><circle cx="294" cy="337" r="3" /><circle cx="288" cy="337" r="3" /><circle cx="322" cy="338" r="3" /><circle cx="284" cy="339" r="3" /><circle cx="305" cy="340" r="3" /><circle cx="305" cy="340" r="3" /><circle cx="320" cy="341" r="3" /><circle cx="273" cy="341" r="3" /><circle cx="316" cy="346" r="3" /><circle cx="268" cy="349" r="3" /><circle cx="305" cy="350" r="3" /><circle cx="292" cy="351" r="3" /><circle cx="319" cy="359" r="3" /></svg>