<?xml version="1.0" encoding="utf-8" ?>
<svg baseProfile="tiny" height="100%" version="1.2" width="100%" xmlns="http://www.w3.org/2000/svg" xmlns:ev="http://www.w3.org/2001/xml-events" xmlns:xlink="http://www.w3.org/1999/xlink"><defs /><line stroke="rgb(10%,10%,16%)" x1="18" x2="47" y1="62" y2="285" /><line stroke="rgb(10%,10%,16%)" x1="47" x2="242" y1="285" y2="622" /><line stroke="rgb(10%,10%,16%)" x1="242" x2="335" y1="622" y2="587" /><line stroke="rgb(10%,10%,16%)" x1="335" x2="454" y1="587" y2="238" /><line stroke="rgb(10%,10%,16%)" x1="454" x2="470" y1="238" y2="121" /><line stroke="rgb(10%,10%,16%)" x1="470" x2="91" y1="121" y2="8" /><line stroke="rgb(10%,10%,16%)" x1="91" x2="139" y1="8" y2="7" /><circle cx="18" cy="62" r="3" /><circle cx="47" cy="285" r="3" /><circle cx="51" cy="289" r="3" /><circle cx="53" cy="228" r="3" /><circle cx="80" cy="95" r="3" /><circle cx="82" cy="288" r="3" /><circle cx="91" cy="8" r="3" /><circle cx="91" cy="26" r="3" /><circle cx="117" cy="176" r="3" /><circle cx="120" cy="171" r="3" /><circle cx="128" cy="286" r="3" /><circle cx="139" cy="7" r="3" /><circle cx="145" cy="154" r="3" /><circle cx="146" cy="135" r="3" /><circle cx="162" cy="35" r="3" /><circle cx="164" cy="358" r="3" /><circle cx="167" cy="243" r="3" /><circle cx="180" cy="458" r="3" /><circle cx="196" cy="85" r="3" /><circle cx="215" cy="327" r="3" /><circle cx="237" cy="212" r="3" /><circle cx="242" cy="622" r="3" /><circle cx="246" cy="150" r="3" /><circle cx="249" cy="202" r="3" /><circle cx="257" cy="459" r="3" /><circle cx="277" cy="217" r="3" /><circle cx="312" cy="215" r="3" /><circle cx="314" cy="322" r="3" /><circle cx="320" cy="186" r="3" /><circle cx="323" cy="111" r="3" /><circle cx="335" cy="587" r="3" /><circle cx="343" cy="319" r="3" /><circle cx="350" cy="267" r="3" /><circle cx="367" cy="212" r="3" /><circle cx="387" cy="245" r="3" /><circle cx="398" cy="227" r="3" /><circle cx="405" cy="202" r="3" /><circle cx="412" cy="297" r="3" /><circle cx="454" cy="238" r="3" /><circle cx="470" cy="121" r="3" /></svg>