<?xml version="1.0" encoding="utf-8" ?>
<svg baseProfile="tiny" height="100%" version="1.2" width="100%" xmlns="http://www.w3.org/2000/svg" xmlns:ev="http://www.w3.org/2001/xml-events" xmlns:xlink="http://www.w3.org/1999/xlink"><defs /><line stroke="rgb(10%,10%,16%)" x1="303" x2="319" y1="275" y2="278" /><line stroke="rgb(10%,10%,16%)" x1="319" x2="324" y1="278" y2="282" /><line stroke="rgb(10%,10%,16%)" x1="324" x2="329" y1="282" y2="291" /><line stroke="rgb(10%,10%,16%)" x1="329" x2="328" y1="291" y2="311" /><line stroke="rgb(10%,10%,16%)" x1="328" x2="325" y1="311" y2="317" /><line stroke="rgb(10%,10%,16%)" x1="325" x2="316" y1="317" y2="324" /><line stroke="rgb(10%,10%,16%)" x1="316" x2="297" y1="324" y2="325" /><line stroke="rgb(10%,10%,16%)" x1="297" x2="297" y1="325" y2="325" /><line stroke="rgb(10%,10%,16%)" x1="297" x2="268" y1="325" y2="313" /><line stroke="rgb(10%,10%,16%)" x1="268" x2="271" y1="313" y2="297" /><line stroke="rgb(10%,10%,16%)" x1="271" x2="273" y1="297" y2="293" /><line stroke="rgb(10%,10%,16%)" x1="273" x2="285" y1="293" y2="281" /><line stroke="rgb(10%,10%,16%)" x1="285" x2="303" y1="281" y2="275" /><circle cx="303" cy="275" r="3" /><circle cx="304" cy="276" r="3" /><circle cx="319" cy="278" r="3" /><circle cx="297" cy="278" r="3" /><circle cx="299" cy="280" r="3" /><circle cx="314" cy="280" r="3" /><circle cx="299" cy="280" r="3" /><circle cx="285" cy="281" r="3" /><circle cx="294" cy="281" r="3" /><circle cx="292" cy="281" r="3" /><circle cx="309" cy="281" r="3" /><circle cx="303" cy="281" r="3" /><circle cx="289" cy="281" r="3" /><circle cx="313" cy="282" r="3" /><circle cx="316" cy="282" r="3" /><circle cx="324" cy="282" r="3" /><circle cx="300" cy="283" r="3" /><circle cx="300" cy="283" r="3" /><circle cx="296" cy="283" r="3" /><circle cx="317" cy="284" r="3" /><circle cx="300" cy="284" r="3" /><circle cx="283" cy="284" r="3" /><circle cx="300" cy="284" r="3" /><circle cx="303" cy="284" r="3" /><circle cx="303" cy="284" r="3" /><circle cx="289" cy="284" r="3" /><circle cx="297" cy="284" r="3" /><circle cx="307" cy="284" r="3" /><circle cx="301" cy="285" r="3" /><circle cx="312" cy="285" r="3" /><circle cx="282" cy="285" r="3" /><circle cx="305" cy="285" r="3" /><circle cx="297" cy="285" r="3" /><circle cx="289" cy="285" r="3" /><circle cx="311" cy="285" r="3" /><circle cx="284" cy="285" r="3" /><circle cx="292" cy="286" r="3" /><circle cx="289" cy="286" r="3" /><circle cx="296" cy="286" r="3" /><circle cx="304" cy="286" r="3" /><circle cx="285" cy="286" r="3" /><circle cx="316" cy="287" r="3" /><circle cx="279" cy="287" r="3" /><circle cx="300" cy="287" r="3" /><circle cx="303" cy="287" r="3" /><circle cx="297" cy="287" r="3" /><circle cx="307" cy="287" r="3" /><circle cx="303" cy="287" r="3" /><circle cx="308" cy="287" r="3" /><circle cx="287" cy="287" r="3" /><circle cx="290" cy="287" r="3" /><circle cx="281" cy="288" r="3" /><circle cx="313" cy="288" r="3" /><circle cx="301" cy="288" r="3" /><circle cx="314" cy="288" r="3" /><circle cx="318" cy="288" r="3" /><circle cx="279" cy="289" r="3" /><circle cx="295" cy="289" r="3" /><circle cx="291" cy="289" r="3" /><circle cx="300" cy="289" r="3" /><circle cx="314" cy="289" r="3" /><circle cx="291" cy="289" r="3" /><circle cx="317" cy="289" r="3" /><circle cx="301" cy="289" r="3" /><circle cx="291" cy="289" r="3" /><circle cx="312" cy="289" r="3" /><circle cx="296" cy="289" r="3" /><circle cx="311" cy="289" r="3" /><circle cx="319" cy="289" r="3" /><circle cx="310" cy="289" r="3" /><circle cx="318" cy="289" r="3" /><circle cx="308" cy="290" r="3" /><circle cx="279" cy="290" r="3" /><circle cx="299" cy="290" r="3" /><circle cx="276" cy="290" r="3" /><circle cx="298" cy="290" r="3" /><circle cx="319" cy="290" r="3" /><circle cx="306" cy="290" r="3" /><circle cx="314" cy="290" r="3" /><circle cx="300" cy="290" r="3" /><circle cx="315" cy="290" r="3" /><circle cx="292" cy="290" r="3" /><circle cx="307" cy="290" r="3" /><circle cx="280" cy="290" r="3" /><circle cx="305" cy="290" r="3" /><circle cx="279" cy="290" r="3" /><circle cx="296" cy="291" r="3" /><circle cx="303" cy="291" r="3" /><circle cx="297" cy="291" r="3" /><circle cx="287" cy="291" r="3" /><circle cx="308" cy="291" r="3" /><circle cx="291" cy="291" r="3" /><circle cx="304" cy="291" r="3" /><circle cx="315" cy="291" r="3" /><circle cx="303" cy="291" r="3" /><circle cx="304" cy="291" r="3" /><circle cx="329" cy="291" r="3" /><circle cx="308" cy="291" r="3" /><circle cx="308" cy="291" r="3" /><circle cx="281" cy="291" r="3" /><circle cx="302" cy="291" r="3" /><circle cx="309" cy="291" r="3" /><circle cx="301" cy="292" r="3" /><circle cx="297" cy="292" r="3" /><circle cx="297" cy="292" r="3" /><circle cx="289" cy="292" r="3" /><circle cx="292" cy="292" r="3" /><circle cx="297" cy="292" r="3" /><circle cx="283" cy="292" r="3" /><circle cx="303" cy="292" r="3" /><circle cx="287" cy="292" r="3" /><circle cx="318" cy="292" r="3" /><circle cx="294" cy="292" r="3" /><circle cx="297" cy="292" r="3" /><circle cx="308" cy="292" r="3" /><circle cx="321" cy="293" r="3" /><circle cx="308" cy="293" r="3" /><circle cx="296" cy="293" r="3" /><circle cx="273" cy="293" r="3" /><circle cx="303" cy="293" r="3" /><circle cx="304" cy="293" r="3" /><circle cx="302" cy="293" r="3" /><circle cx="318" cy="293" r="3" /><circle cx="302" cy="293" r="3" /><circle cx="304" cy="293" r="3" /><circle cx="324" cy="293" r="3" /><circle cx="307" cy="293" r="3" /><circle cx="294" cy="293" r="3" /><circle cx="288" cy="293" r="3" /><circle cx="326" cy="293" r="3" /><circle cx="291" cy="293" r="3" /><circle cx="280" cy="293" r="3" /><circle cx="299" cy="294" r="3" /><circle cx="294" cy="294" r="3" /><circle cx="296" cy="294" r="3" /><circle cx="302" cy="294" r="3" /><circle cx="301" cy="294" r="3" /><circle cx="303" cy="294" r="3" /><circle cx="306" cy="294" r="3" /><circle cx="303" cy="294" r="3" /><circle cx="287" cy="294" r="3" /><circle cx="311" cy="294" r="3" /><circle cx="302" cy="294" r="3" /><circle cx="298" cy="294" r="3" /><circle cx="296" cy="294" r="3" /><circle cx="303" cy="294" r="3" /><circle cx="296" cy="294" r="3" /><circle cx="300" cy="294" r="3" /><circle cx="298" cy="294" r="3" /><circle cx="284" cy="295" r="3" /><circle cx="314" cy="295" r="3" /><circle cx="299" cy="295" r="3" /><circle cx="306" cy="295" r="3" /><circle cx="295" cy="295" r="3" /><circle cx="292" cy="295" r="3" /><circle cx="308" cy="295" r="3" /><circle cx="293" cy="295" r="3" /><circle cx="286" cy="295" r="3" /><circle cx="302" cy="295" r="3" /><circle cx="286" cy="295" r="3" /><circle cx="304" cy="295" r="3" /><circle cx="299" cy="295" r="3" /><circle cx="299" cy="295" r="3" /><circle cx="279" cy="296" r="3" /><circle cx="309" cy="296" r="3" /><circle cx="313" cy="296" r="3" /><circle cx="312" cy="296" r="3" /><circle cx="314" cy="296" r="3" /><circle cx="312" cy="296" r="3" /><circle cx="298" cy="296" r="3" /><circle cx="308" cy="296" r="3" /><circle cx="292" cy="296" r="3" /><circle cx="294" cy="296" r="3" /><circle cx="309" cy="296" r="3" /><circle cx="323" cy="296" r="3" /><circle cx="315" cy="296" r="3" /><circle cx="306" cy="296" r="3" /><circle cx="302" cy="296" r="3" /><circle cx="290" cy="296" r="3" /><circle cx="306" cy="296" r="3" /><circle cx="290" cy="296" r="3" /><circle cx="287" cy="296" r="3" /><circle cx="290" cy="296" r="3" /><circle cx="306" cy="296" r="3" /><circle cx="306" cy="296" r="3" /><circle cx="286" cy="297" r="3" /><circle cx="295" cy="297" r="3" /><circle cx="296" cy="297" r="3" /><circle cx="290" cy="297" r="3" /><circle cx="288" cy="297" r="3" /><circle cx="297" cy="297" r="3" /><circle cx="300" cy="297" r="3" /><circle cx="312" cy="297" r="3" /><circle cx="306" cy="297" r="3" /><circle cx="301" cy="297" r="3" /><circle cx="298" cy="297" r="3" /><circle cx="289" cy="297" r="3" /><circle cx="289" cy="297" r="3" /><circle cx="312" cy="297" r="3" /><circle cx="294" cy="297" r="3" /><circle cx="271" cy="297" r="3" /><circle cx="327" cy="297" r="3" /><circle cx="282" cy="298" r="3" /><circle cx="311" cy="298" r="3" /><circle cx="290" cy="298" r="3" /><circle cx="304" cy="298" r="3" /><circle cx="316" cy="298" r="3" /><circle cx="292" cy="298" r="3" /><circle cx="310" cy="298" r="3" /><circle cx="304" cy="298" r="3" /><circle cx="319" cy="298" r="3" /><circle cx="302" cy="298" r="3" /><circle cx="308" cy="298" r="3" /><circle cx="301" cy="298" r="3" /><circle cx="320" cy="298" r="3" /><circle cx="292" cy="298" r="3" /><circle cx="313" cy="298" r="3" /><circle cx="289" cy="298" r="3" /><circle cx="308" cy="298" r="3" /><circle cx="289" cy="298" r="3" /><circle cx="292" cy="298" r="3" /><circle cx="308" cy="298" r="3" /><circle cx="308" cy="298" r="3" /><circle cx="306" cy="299" r="3" /><circle cx="300" cy="299" r="3" /><circle cx="303" cy="299" r="3" /><circle cx="291" cy="299" r="3" /><circle cx="322" cy="299" r="3" /><circle cx="298" cy="299" r="3" /><circle cx="301" cy="299" r="3" /><circle cx="302" cy="299" r="3" /><circle cx="302" cy="299" r="3" /><circle cx="307" cy="299" r="3" /><circle cx="302" cy="299" r="3" /><circle cx="308" cy="299" r="3" /><circle cx="303" cy="299" r="3" /><circle cx="312" cy="299" r="3" /><circle cx="306" cy="299" r="3" /><circle cx="301" cy="300" r="3" /><circle cx="290" cy="300" r="3" /><circle cx="312" cy="300" r="3" /><circle cx="287" cy="300" r="3" /><circle cx="312" cy="300" r="3" /><circle cx="318" cy="300" r="3" /><circle cx="297" cy="300" r="3" /><circle cx="296" cy="300" r="3" /><circle cx="296" cy="300" r="3" /><circle cx="301" cy="300" r="3" /><circle cx="290" cy="300" r="3" /><circle cx="311" cy="300" r="3" /><circle cx="315" cy="300" r="3" /><circle cx="302" cy="300" r="3" /><circle cx="284" cy="300" r="3" /><circle cx="307" cy="300" r="3" /><circle cx="300" cy="300" r="3" /><circle cx="299" cy="300" r="3" /><circle cx="304" cy="300" r="3" /><circle cx="297" cy="300" r="3" /><circle cx="311" cy="300" r="3" /><circle cx="302" cy="300" r="3" /><circle cx="295" cy="300" r="3" /><circle cx="307" cy="300" r="3" /><circle cx="301" cy="300" r="3" /><circle cx="305" cy="301" r="3" /><circle cx="290" cy="301" r="3" /><circle cx="302" cy="301" r="3" /><circle cx="301" cy="301" r="3" /><circle cx="317" cy="301" r="3" /><circle cx="298" cy="301" r="3" /><circle cx="303" cy="301" r="3" /><circle cx="305" cy="301" r="3" /><circle cx="314" cy="301" r="3" /><circle cx="298" cy="301" r="3" /><circle cx="313" cy="301" r="3" /><circle cx="312" cy="301" r="3" /><circle cx="287" cy="301" r="3" /><circle cx="291" cy="301" r="3" /><circle cx="304" cy="301" r="3" /><circle cx="308" cy="301" r="3" /><circle cx="297" cy="302" r="3" /><circle cx="295" cy="302" r="3" /><circle cx="305" cy="302" r="3" /><circle cx="280" cy="302" r="3" /><circle cx="299" cy="302" r="3" /><circle cx="320" cy="302" r="3" /><circle cx="286" cy="302" r="3" /><circle cx="304" cy="302" r="3" /><circle cx="297" cy="302" r="3" /><circle cx="309" cy="302" r="3" /><circle cx="299" cy="302" r="3" /><circle cx="295" cy="302" r="3" /><circle cx="309" cy="302" r="3" /><circle cx="301" cy="302" r="3" /><circle cx="303" cy="302" r="3" /><circle cx="298" cy="302" r="3" /><circle cx="283" cy="302" r="3" /><circle cx="280" cy="302" r="3" /><circle cx="299" cy="302" r="3" /><circle cx="289" cy="302" r="3" /><circle cx="278" cy="302" r="3" /><circle cx="317" cy="302" r="3" /><circle cx="288" cy="302" r="3" /><circle cx="308" cy="302" r="3" /><circle cx="284" cy="302" r="3" /><circle cx="284" cy="302" r="3" /><circle cx="296" cy="302" r="3" /><circle cx="299" cy="302" r="3" /><circle cx="307" cy="302" r="3" /><circle cx="306" cy="302" r="3" /><circle cx="301" cy="303" r="3" /><circle cx="289" cy="303" r="3" /><circle cx="288" cy="303" r="3" /><circle cx="290" cy="303" r="3" /><circle cx="306" cy="303" r="3" /><circle cx="297" cy="303" r="3" /><circle cx="315" cy="303" r="3" /><circle cx="305" cy="303" r="3" /><circle cx="295" cy="303" r="3" /><circle cx="317" cy="303" r="3" /><circle cx="297" cy="303" r="3" /><circle cx="297" cy="303" r="3" /><circle cx="300" cy="303" r="3" /><circle cx="300" cy="303" r="3" /><circle cx="295" cy="303" r="3" /><circle cx="290" cy="303" r="3" /><circle cx="308" cy="303" r="3" /><circle cx="311" cy="303" r="3" /><circle cx="314" cy="303" r="3" /><circle cx="302" cy="303" r="3" /><circle cx="313" cy="303" r="3" /><circle cx="303" cy="303" r="3" /><circle cx="305" cy="303" r="3" /><circle cx="306" cy="303" r="3" /><circle cx="308" cy="303" r="3" /><circle cx="326" cy="304" r="3" /><circle cx="303" cy="304" r="3" /><circle cx="301" cy="304" r="3" /><circle cx="293" cy="304" r="3" /><circle cx="294" cy="304" r="3" /><circle cx="309" cy="304" r="3" /><circle cx="309" cy="304" r="3" /><circle cx="311" cy="304" r="3" /><circle cx="278" cy="304" r="3" /><circle cx="314" cy="304" r="3" /><circle cx="306" cy="304" r="3" /><circle cx="304" cy="304" r="3" /><circle cx="294" cy="304" r="3" /><circle cx="290" cy="304" r="3" /><circle cx="291" cy="304" r="3" /><circle cx="293" cy="304" r="3" /><circle cx="302" cy="304" r="3" /><circle cx="296" cy="304" r="3" /><circle cx="302" cy="304" r="3" /><circle cx="312" cy="304" r="3" /><circle cx="278" cy="304" r="3" /><circle cx="298" cy="304" r="3" /><circle cx="312" cy="305" r="3" /><circle cx="281" cy="305" r="3" /><circle cx="323" cy="305" r="3" /><circle cx="292" cy="305" r="3" /><circle cx="314" cy="305" r="3" /><circle cx="296" cy="305" r="3" /><circle cx="302" cy="305" r="3" /><circle cx="291" cy="305" r="3" /><circle cx="305" cy="305" r="3" /><circle cx="295" cy="305" r="3" /><circle cx="288" cy="305" r="3" /><circle cx="303" cy="305" r="3" /><circle cx="294" cy="305" r="3" /><circle cx="284" cy="305" r="3" /><circle cx="305" cy="305" r="3" /><circle cx="292" cy="306" r="3" /><circle cx="311" cy="306" r="3" /><circle cx="296" cy="306" r="3" /><circle cx="299" cy="306" r="3" /><circle cx="273" cy="306" r="3" /><circle cx="292" cy="306" r="3" /><circle cx="292" cy="306" r="3" /><circle cx="298" cy="306" r="3" /><circle cx="273" cy="306" r="3" /><circle cx="315" cy="306" r="3" /><circle cx="297" cy="306" r="3" /><circle cx="306" cy="306" r="3" /><circle cx="316" cy="307" r="3" /><circle cx="304" cy="307" r="3" /><circle cx="307" cy="307" r="3" /><circle cx="292" cy="307" r="3" /><circle cx="297" cy="307" r="3" /><circle cx="303" cy="307" r="3" /><circle cx="292" cy="307" r="3" /><circle cx="293" cy="307" r="3" /><circle cx="300" cy="307" r="3" /><circle cx="289" cy="307" r="3" /><circle cx="278" cy="307" r="3" /><circle cx="293" cy="307" r="3" /><circle cx="327" cy="307" r="3" /><circle cx="297" cy="307" r="3" /><circle cx="301" cy="307" r="3" /><circle cx="310" cy="307" r="3" /><circle cx="311" cy="307" r="3" /><circle cx="316" cy="307" r="3" /><circle cx="289" cy="308" r="3" /><circle cx="303" cy="308" r="3" /><circle cx="324" cy="308" r="3" /><circle cx="292" cy="308" r="3" /><circle cx="317" cy="308" r="3" /><circle cx="280" cy="308" r="3" /><circle cx="289" cy="308" r="3" /><circle cx="295" cy="308" r="3" /><circle cx="291" cy="309" r="3" /><circle cx="292" cy="309" r="3" /><circle cx="298" cy="309" r="3" /><circle cx="297" cy="309" r="3" /><circle cx="300" cy="309" r="3" /><circle cx="292" cy="309" r="3" /><circle cx="301" cy="309" r="3" /><circle cx="304" cy="309" r="3" /><circle cx="307" cy="309" r="3" /><circle cx="302" cy="309" r="3" /><circle cx="304" cy="309" r="3" /><circle cx="297" cy="309" r="3" /><circle cx="292" cy="309" r="3" /><circle cx="316" cy="309" r="3" /><circle cx="294" cy="309" r="3" /><circle cx="299" cy="309" r="3" /><circle cx="302" cy="310" r="3" /><circle cx="300" cy="310" r="3" /><circle cx="298" cy="310" r="3" /><circle cx="301" cy="310" r="3" /><circle cx="309" cy="310" r="3" /><circle cx="311" cy="310" r="3" /><circle cx="298" cy="310" r="3" /><circle cx="298" cy="311" r="3" /><circle cx="328" cy="311" r="3" /><circle cx="313" cy="311" r="3" /><circle cx="284" cy="311" r="3" /><circle cx="297" cy="311" r="3" /><circle cx="307" cy="311" r="3" /><circle cx="294" cy="311" r="3" /><circle cx="281" cy="311" r="3" /><circle cx="307" cy="311" r="3" /><circle cx="287" cy="311" r="3" /><circle cx="302" cy="311" r="3" /><circle cx="291" cy="312" r="3" /><circle cx="291" cy="312" r="3" /><circle cx="309" cy="312" r="3" /><circle cx="308" cy="312" r="3" /><circle cx="293" cy="312" r="3" /><circle cx="302" cy="312" r="3" /><circle cx="313" cy="312" r="3" /><circle cx="284" cy="312" r="3" /><circle cx="314" cy="312" r="3" /><circle cx="287" cy="312" r="3" /><circle cx="310" cy="312" r="3" /><circle cx="300" cy="312" r="3" /><circle cx="312" cy="312" r="3" /><circle cx="320" cy="312" r="3" /><circle cx="302" cy="313" r="3" /><circle cx="268" cy="313" r="3" /><circle cx="290" cy="313" r="3" /><circle cx="300" cy="313" r="3" /><circle cx="296" cy="313" r="3" /><circle cx="295" cy="313" r="3" /><circle cx="312" cy="314" r="3" /><circle cx="307" cy="314" r="3" /><circle cx="300" cy="314" r="3" /><circle cx="313" cy="314" r="3" /><circle cx="290" cy="314" r="3" /><circle cx="317" cy="315" r="3" /><circle cx="299" cy="315" r="3" /><circle cx="286" cy="315" r="3" /><circle cx="298" cy="315" r="3" /><circle cx="314" cy="315" r="3" /><circle cx="304" cy="315" r="3" /><circle cx="293" cy="316" r="3" /><circle cx="301" cy="316" r="3" /><circle cx="283" cy="316" r="3" /><circle cx="294" cy="316" r="3" /><circle cx="296" cy="316" r="3" /><circle cx="301" cy="316" r="3" /><circle cx="300" cy="317" r="3" /><circle cx="324" cy="317" r="3" /><circle cx="290" cy="317" r="3" /><circle cx="298" cy="317" r="3" /><circle cx="282" cy="317" r="3" /><circle cx="325" cy="317" r="3" /><circle cx="311" cy="318" r="3" /><circle cx="293" cy="318" r="3" /><circle cx="298" cy="318" r="3" /><circle cx="310" cy="318" r="3" /><circle cx="300" cy="318" r="3" /><circle cx="301" cy="319" r="3" /><circle cx="298" cy="319" r="3" /><circle cx="288" cy="319" r="3" /><circle cx="311" cy="320" r="3" /><circle cx="301" cy="320" r="3" /><circle cx="307" cy="321" r="3" /><circle cx="299" cy="321" r="3" /><circle cx="316" cy="324" r="3" /><circle cx="297" cy="325" r="3" /></svg>