<?xml version="1.0" encoding="utf-8" ?>
<svg baseProfile="tiny" height="100%" version="1.2" width="100%" xmlns="http://www.w3.org/2000/svg" xmlns:ev="http://www.w3.org/2001/xml-events" xmlns:xlink="http://www.w3.org/1999/xlink"><defs /><line stroke="rgb(10%,10%,16%)" x1="285" x2="343" y1="132" y2="152" /><line stroke="rgb(10%,10%,16%)" x1="343" x2="353" y1="152" y2="158" /><line stroke="rgb(10%,10%,16%)" x1="353" x2="392" y1="158" y2="206" /><line stroke="rgb(10%,10%,16%)" x1="392" x2="431" y1="206" y2="297" /><line stroke="rgb(10%,10%,16%)" x1="431" x2="354" y1="297" y2="466" /><line stroke="rgb(10%,10%,16%)" x1="354" x2="354" y1="466" y2="466" /><line stroke="rgb(10%,10%,16%)" x1="354" x2="274" y1="466" y2="439" /><line stroke="rgb(10%,10%,16%)" x1="274" x2="253" y1="439" y2="431" /><line stroke="rgb(10%,10%,16%)" x1="253" x2="193" y1="431" y2="396" /><line stroke="rgb(10%,10%,16%)" x1="193" x2="156" y1="396" y2="329" /><line stroke="rgb(10%,10%,16%)" x1="156" x2="176" y1="329" y2="210" /><line stroke="rgb(10%,10%,16%)" x1="176" x2="285" y1="210" y2="132" /><circle cx="285" cy="132" r="3" /><circle cx="343" cy="152" r="3" /><circle cx="353" cy="158" r="3" /><circle cx="317" cy="164" r="3" /><circle cx="295" cy="179" r="3" /><circle cx="365" cy="181" r="3" /><circle cx="345" cy="184" r="3" /><circle cx="369" cy="190" r="3" /><circle cx="321" cy="197" r="3" /><circle cx="275" cy="200" r="3" /><circle cx="255" cy="202" r="3" /><circle cx="352" cy="202" r="3" /><circle cx="314" cy="203" r="3" /><circle cx="248" cy="204" r="3" /><circle cx="286" cy="205" r="3" /><circle cx="312" cy="206" r="3" /><circle cx="215" cy="206" r="3" /><circle cx="392" cy="206" r="3" /><circle cx="345" cy="208" r="3" /><circle cx="176" cy="210" r="3" /><circle cx="375" cy="212" r="3" /><circle cx="262" cy="212" r="3" /><circle cx="269" cy="216" r="3" /><circle cx="319" cy="217" r="3" /><circle cx="254" cy="218" r="3" /><circle cx="311" cy="218" r="3" /><circle cx="311" cy="219" r="3" /><circle cx="258" cy="220" r="3" /><circle cx="240" cy="222" r="3" /><circle cx="350" cy="222" r="3" /><circle cx="299" cy="224" r="3" /><circle cx="312" cy="224" r="3" /><circle cx="272" cy="225" r="3" /><circle cx="327" cy="226" r="3" /><circle cx="322" cy="228" r="3" /><circle cx="324" cy="229" r="3" /><circle cx="331" cy="230" r="3" /><circle cx="243" cy="230" r="3" /><circle cx="235" cy="231" r="3" /><circle cx="301" cy="232" r="3" /><circle cx="271" cy="232" r="3" /><circle cx="271" cy="232" r="3" /><circle cx="308" cy="235" r="3" /><circle cx="323" cy="235" r="3" /><circle cx="221" cy="236" r="3" /><circle cx="265" cy="236" r="3" /><circle cx="237" cy="236" r="3" /><circle cx="305" cy="237" r="3" /><circle cx="234" cy="237" r="3" /><circle cx="219" cy="239" r="3" /><circle cx="274" cy="239" r="3" /><circle cx="368" cy="239" r="3" /><circle cx="371" cy="240" r="3" /><circle cx="257" cy="242" r="3" /><circle cx="258" cy="242" r="3" /><circle cx="308" cy="243" r="3" /><circle cx="221" cy="244" r="3" /><circle cx="254" cy="245" r="3" /><circle cx="205" cy="245" r="3" /><circle cx="347" cy="245" r="3" /><circle cx="261" cy="246" r="3" /><circle cx="264" cy="246" r="3" /><circle cx="312" cy="246" r="3" /><circle cx="339" cy="247" r="3" /><circle cx="252" cy="247" r="3" /><circle cx="307" cy="247" r="3" /><circle cx="270" cy="247" r="3" /><circle cx="339" cy="248" r="3" /><circle cx="323" cy="248" r="3" /><circle cx="312" cy="248" r="3" /><circle cx="283" cy="249" r="3" /><circle cx="305" cy="249" r="3" /><circle cx="325" cy="250" r="3" /><circle cx="253" cy="250" r="3" /><circle cx="358" cy="250" r="3" /><circle cx="339" cy="250" r="3" /><circle cx="310" cy="251" r="3" /><circle cx="398" cy="251" r="3" /><circle cx="245" cy="251" r="3" /><circle cx="268" cy="252" r="3" /><circle cx="294" cy="252" r="3" /><circle cx="274" cy="253" r="3" /><circle cx="226" cy="253" r="3" /><circle cx="223" cy="255" r="3" /><circle cx="309" cy="256" r="3" /><circle cx="249" cy="257" r="3" /><circle cx="359" cy="257" r="3" /><circle cx="326" cy="257" r="3" /><circle cx="222" cy="257" r="3" /><circle cx="178" cy="258" r="3" /><circle cx="307" cy="258" r="3" /><circle cx="370" cy="258" r="3" /><circle cx="271" cy="259" r="3" /><circle cx="364" cy="260" r="3" /><circle cx="339" cy="260" r="3" /><circle cx="338" cy="261" r="3" /><circle cx="350" cy="261" r="3" /><circle cx="385" cy="261" r="3" /><circle cx="304" cy="261" r="3" /><circle cx="252" cy="261" r="3" /><circle cx="345" cy="262" r="3" /><circle cx="279" cy="262" r="3" /><circle cx="344" cy="263" r="3" /><circle cx="411" cy="264" r="3" /><circle cx="343" cy="264" r="3" /><circle cx="370" cy="264" r="3" /><circle cx="358" cy="264" r="3" /><circle cx="281" cy="264" r="3" /><circle cx="355" cy="265" r="3" /><circle cx="322" cy="266" r="3" /><circle cx="282" cy="266" r="3" /><circle cx="254" cy="266" r="3" /><circle cx="259" cy="267" r="3" /><circle cx="329" cy="267" r="3" /><circle cx="314" cy="268" r="3" /><circle cx="274" cy="269" r="3" /><circle cx="326" cy="269" r="3" /><circle cx="286" cy="269" r="3" /><circle cx="345" cy="269" r="3" /><circle cx="305" cy="269" r="3" /><circle cx="273" cy="269" r="3" /><circle cx="315" cy="269" r="3" /><circle cx="276" cy="270" r="3" /><circle cx="194" cy="270" r="3" /><circle cx="205" cy="270" r="3" /><circle cx="300" cy="271" r="3" /><circle cx="311" cy="271" r="3" /><circle cx="317" cy="273" r="3" /><circle cx="318" cy="273" r="3" /><circle cx="219" cy="274" r="3" /><circle cx="287" cy="274" r="3" /><circle cx="286" cy="274" r="3" /><circle cx="273" cy="274" r="3" /><circle cx="261" cy="274" r="3" /><circle cx="287" cy="274" r="3" /><circle cx="287" cy="275" r="3" /><circle cx="271" cy="275" r="3" /><circle cx="306" cy="275" r="3" /><circle cx="221" cy="275" r="3" /><circle cx="298" cy="275" r="3" /><circle cx="327" cy="276" r="3" /><circle cx="266" cy="276" r="3" /><circle cx="249" cy="276" r="3" /><circle cx="354" cy="276" r="3" /><circle cx="371" cy="276" r="3" /><circle cx="390" cy="276" r="3" /><circle cx="272" cy="277" r="3" /><circle cx="377" cy="277" r="3" /><circle cx="320" cy="277" r="3" /><circle cx="259" cy="277" r="3" /><circle cx="304" cy="278" r="3" /><circle cx="353" cy="278" r="3" /><circle cx="386" cy="278" r="3" /><circle cx="263" cy="278" r="3" /><circle cx="340" cy="278" r="3" /><circle cx="212" cy="279" r="3" /><circle cx="262" cy="279" r="3" /><circle cx="292" cy="279" r="3" /><circle cx="282" cy="280" r="3" /><circle cx="285" cy="280" r="3" /><circle cx="307" cy="280" r="3" /><circle cx="355" cy="280" r="3" /><circle cx="405" cy="280" r="3" /><circle cx="367" cy="281" r="3" /><circle cx="373" cy="281" r="3" /><circle cx="306" cy="281" r="3" /><circle cx="353" cy="281" r="3" /><circle cx="332" cy="281" r="3" /><circle cx="247" cy="282" r="3" /><circle cx="164" cy="282" r="3" /><circle cx="245" cy="282" r="3" /><circle cx="352" cy="282" r="3" /><circle cx="299" cy="282" r="3" /><circle cx="312" cy="282" r="3" /><circle cx="329" cy="283" r="3" /><circle cx="302" cy="283" r="3" /><circle cx="218" cy="284" r="3" /><circle cx="328" cy="285" r="3" /><circle cx="291" cy="285" r="3" /><circle cx="279" cy="285" r="3" /><circle cx="343" cy="285" r="3" /><circle cx="306" cy="286" r="3" /><circle cx="291" cy="286" r="3" /><circle cx="329" cy="286" r="3" /><circle cx="323" cy="286" r="3" /><circle cx="282" cy="286" r="3" /><circle cx="300" cy="287" r="3" /><circle cx="232" cy="287" r="3" /><circle cx="213" cy="287" r="3" /><circle cx="281" cy="288" r="3" /><circle cx="294" cy="288" r="3" /><circle cx="408" cy="288" r="3" /><circle cx="425" cy="288" r="3" /><circle cx="298" cy="289" r="3" /><circle cx="254" cy="289" r="3" /><circle cx="271" cy="289" r="3" /><circle cx="346" cy="289" r="3" /><circle cx="332" cy="289" r="3" /><circle cx="292" cy="289" r="3" /><circle cx="269" cy="289" r="3" /><circle cx="262" cy="290" r="3" /><circle cx="340" cy="290" r="3" /><circle cx="338" cy="291" r="3" /><circle cx="302" cy="292" r="3" /><circle cx="276" cy="292" r="3" /><circle cx="332" cy="292" r="3" /><circle cx="406" cy="292" r="3" /><circle cx="270" cy="292" r="3" /><circle cx="320" cy="292" r="3" /><circle cx="269" cy="293" r="3" /><circle cx="272" cy="293" r="3" /><circle cx="304" cy="293" r="3" /><circle cx="322" cy="293" r="3" /><circle cx="329" cy="293" r="3" /><circle cx="288" cy="294" r="3" /><circle cx="228" cy="294" r="3" /><circle cx="326" cy="294" r="3" /><circle cx="310" cy="294" r="3" /><circle cx="371" cy="295" r="3" /><circle cx="320" cy="295" r="3" /><circle cx="238" cy="295" r="3" /><circle cx="232" cy="295" r="3" /><circle cx="300" cy="295" r="3" /><circle cx="408" cy="295" r="3" /><circle cx="280" cy="296" r="3" /><circle cx="393" cy="296" r="3" /><circle cx="282" cy="296" r="3" /><circle cx="349" cy="296" r="3" /><circle cx="330" cy="296" r="3" /><circle cx="229" cy="296" r="3" /><circle cx="253" cy="296" r="3" /><circle cx="277" cy="297" r="3" /><circle cx="431" cy="297" r="3" /><circle cx="299" cy="297" r="3" /><circle cx="319" cy="297" r="3" /><circle cx="295" cy="297" r="3" /><circle cx="302" cy="297" r="3" /><circle cx="258" cy="297" r="3" /><circle cx="271" cy="297" r="3" /><circle cx="352" cy="297" r="3" /><circle cx="206" cy="298" r="3" /><circle cx="320" cy="298" r="3" /><circle cx="357" cy="298" r="3" /><circle cx="303" cy="299" r="3" /><circle cx="331" cy="299" r="3" /><circle cx="338" cy="299" r="3" /><circle cx="331" cy="299" r="3" /><circle cx="333" cy="299" r="3" /><circle cx="285" cy="299" r="3" /><circle cx="327" cy="299" r="3" /><circle cx="299" cy="299" r="3" /><circle cx="405" cy="300" r="3" /><circle cx="275" cy="300" r="3" /><circle cx="378" cy="300" r="3" /><circle cx="318" cy="301" r="3" /><circle cx="250" cy="301" r="3" /><circle cx="276" cy="301" r="3" /><circle cx="329" cy="301" r="3" /><circle cx="269" cy="302" r="3" /><circle cx="261" cy="302" r="3" /><circle cx="328" cy="302" r="3" /><circle cx="260" cy="302" r="3" /><circle cx="360" cy="302" r="3" /><circle cx="247" cy="303" r="3" /><circle cx="285" cy="303" r="3" /><circle cx="229" cy="303" r="3" /><circle cx="278" cy="303" r="3" /><circle cx="329" cy="303" r="3" /><circle cx="312" cy="303" r="3" /><circle cx="339" cy="303" r="3" /><circle cx="267" cy="304" r="3" /><circle cx="244" cy="304" r="3" /><circle cx="405" cy="304" r="3" /><circle cx="236" cy="304" r="3" /><circle cx="292" cy="304" r="3" /><circle cx="349" cy="305" r="3" /><circle cx="304" cy="306" r="3" /><circle cx="372" cy="306" r="3" /><circle cx="326" cy="306" r="3" /><circle cx="305" cy="306" r="3" /><circle cx="304" cy="307" r="3" /><circle cx="220" cy="307" r="3" /><circle cx="286" cy="307" r="3" /><circle cx="263" cy="307" r="3" /><circle cx="282" cy="308" r="3" /><circle cx="223" cy="308" r="3" /><circle cx="303" cy="308" r="3" /><circle cx="312" cy="308" r="3" /><circle cx="337" cy="308" r="3" /><circle cx="335" cy="308" r="3" /><circle cx="368" cy="309" r="3" /><circle cx="318" cy="309" r="3" /><circle cx="324" cy="309" r="3" /><circle cx="325" cy="309" r="3" /><circle cx="240" cy="310" r="3" /><circle cx="284" cy="311" r="3" /><circle cx="245" cy="311" r="3" /><circle cx="258" cy="312" r="3" /><circle cx="299" cy="313" r="3" /><circle cx="373" cy="313" r="3" /><circle cx="301" cy="313" r="3" /><circle cx="248" cy="313" r="3" /><circle cx="336" cy="314" r="3" /><circle cx="271" cy="314" r="3" /><circle cx="391" cy="314" r="3" /><circle cx="234" cy="314" r="3" /><circle cx="293" cy="314" r="3" /><circle cx="220" cy="315" r="3" /><circle cx="304" cy="315" r="3" /><circle cx="372" cy="316" r="3" /><circle cx="252" cy="316" r="3" /><circle cx="266" cy="316" r="3" /><circle cx="230" cy="316" r="3" /><circle cx="293" cy="316" r="3" /><circle cx="320" cy="316" r="3" /><circle cx="317" cy="316" r="3" /><circle cx="242" cy="317" r="3" /><circle cx="309" cy="317" r="3" /><circle cx="328" cy="317" r="3" /><circle cx="245" cy="317" r="3" /><circle cx="255" cy="318" r="3" /><circle cx="261" cy="318" r="3" /><circle cx="327" cy="318" r="3" /><circle cx="397" cy="318" r="3" /><circle cx="313" cy="318" r="3" /><circle cx="298" cy="319" r="3" /><circle cx="295" cy="319" r="3" /><circle cx="326" cy="319" r="3" /><circle cx="261" cy="320" r="3" /><circle cx="324" cy="320" r="3" /><circle cx="190" cy="321" r="3" /><circle cx="317" cy="321" r="3" /><circle cx="320" cy="321" r="3" /><circle cx="362" cy="321" r="3" /><circle cx="340" cy="322" r="3" /><circle cx="316" cy="322" r="3" /><circle cx="308" cy="322" r="3" /><circle cx="347" cy="322" r="3" /><circle cx="287" cy="322" r="3" /><circle cx="260" cy="322" r="3" /><circle cx="301" cy="322" r="3" /><circle cx="311" cy="323" r="3" /><circle cx="231" cy="323" r="3" /><circle cx="331" cy="323" r="3" /><circle cx="208" cy="324" r="3" /><circle cx="242" cy="324" r="3" /><circle cx="267" cy="324" r="3" /><circle cx="334" cy="325" r="3" /><circle cx="318" cy="325" r="3" /><circle cx="256" cy="326" r="3" /><circle cx="253" cy="326" r="3" /><circle cx="234" cy="326" r="3" /><circle cx="276" cy="326" r="3" /><circle cx="338" cy="327" r="3" /><circle cx="278" cy="327" r="3" /><circle cx="251" cy="328" r="3" /><circle cx="262" cy="328" r="3" /><circle cx="271" cy="328" r="3" /><circle cx="221" cy="328" r="3" /><circle cx="305" cy="328" r="3" /><circle cx="200" cy="328" r="3" /><circle cx="156" cy="329" r="3" /><circle cx="302" cy="331" r="3" /><circle cx="339" cy="332" r="3" /><circle cx="273" cy="332" r="3" /><circle cx="340" cy="332" r="3" /><circle cx="325" cy="332" r="3" /><circle cx="298" cy="332" r="3" /><circle cx="292" cy="332" r="3" /><circle cx="297" cy="332" r="3" /><circle cx="294" cy="332" r="3" /><circle cx="224" cy="333" r="3" /><circle cx="333" cy="333" r="3" /><circle cx="332" cy="334" r="3" /><circle cx="288" cy="334" r="3" /><circle cx="305" cy="334" r="3" /><circle cx="205" cy="334" r="3" /><circle cx="377" cy="334" r="3" /><circle cx="332" cy="334" r="3" /><circle cx="287" cy="335" r="3" /><circle cx="259" cy="335" r="3" /><circle cx="283" cy="335" r="3" /><circle cx="296" cy="335" r="3" /><circle cx="382" cy="335" r="3" /><circle cx="275" cy="336" r="3" /><circle cx="341" cy="336" r="3" /><circle cx="316" cy="337" r="3" /><circle cx="343" cy="338" r="3" /><circle cx="374" cy="338" r="3" /><circle cx="345" cy="338" r="3" /><circle cx="298" cy="338" r="3" /><circle cx="222" cy="339" r="3" /><circle cx="224" cy="339" r="3" /><circle cx="364" cy="339" r="3" /><circle cx="312" cy="339" r="3" /><circle cx="278" cy="339" r="3" /><circle cx="364" cy="339" r="3" /><circle cx="312" cy="339" r="3" /><circle cx="264" cy="340" r="3" /><circle cx="226" cy="340" r="3" /><circle cx="375" cy="340" r="3" /><circle cx="338" cy="341" r="3" /><circle cx="241" cy="341" r="3" /><circle cx="292" cy="342" r="3" /><circle cx="332" cy="342" r="3" /><circle cx="287" cy="342" r="3" /><circle cx="173" cy="342" r="3" /><circle cx="375" cy="343" r="3" /><circle cx="282" cy="343" r="3" /><circle cx="356" cy="343" r="3" /><circle cx="310" cy="343" r="3" /><circle cx="299" cy="344" r="3" /><circle cx="302" cy="344" r="3" /><circle cx="320" cy="344" r="3" /><circle cx="281" cy="345" r="3" /><circle cx="315" cy="345" r="3" /><circle cx="356" cy="346" r="3" /><circle cx="299" cy="346" r="3" /><circle cx="395" cy="348" r="3" /><circle cx="290" cy="348" r="3" /><circle cx="272" cy="348" r="3" /><circle cx="249" cy="350" r="3" /><circle cx="310" cy="350" r="3" /><circle cx="243" cy="350" r="3" /><circle cx="244" cy="351" r="3" /><circle cx="246" cy="351" r="3" /><circle cx="272" cy="351" r="3" /><circle cx="218" cy="351" r="3" /><circle cx="339" cy="352" r="3" /><circle cx="334" cy="352" r="3" /><circle cx="367" cy="352" r="3" /><circle cx="357" cy="353" r="3" /><circle cx="284" cy="353" r="3" /><circle cx="297" cy="353" r="3" /><circle cx="247" cy="354" r="3" /><circle cx="271" cy="354" r="3" /><circle cx="295" cy="354" r="3" /><circle cx="370" cy="354" r="3" /><circle cx="221" cy="354" r="3" /><circle cx="245" cy="354" r="3" /><circle cx="270" cy="355" r="3" /><circle cx="254" cy="356" r="3" /><circle cx="387" cy="356" r="3" /><circle cx="327" cy="357" r="3" /><circle cx="345" cy="357" r="3" /><circle cx="272" cy="358" r="3" /><circle cx="333" cy="358" r="3" /><circle cx="294" cy="358" r="3" /><circle cx="282" cy="359" r="3" /><circle cx="289" cy="359" r="3" /><circle cx="343" cy="360" r="3" /><circle cx="236" cy="361" r="3" /><circle cx="327" cy="362" r="3" /><circle cx="194" cy="363" r="3" /><circle cx="306" cy="363" r="3" /><circle cx="299" cy="363" r="3" /><circle cx="234" cy="363" r="3" /><circle cx="315" cy="364" r="3" /><circle cx="211" cy="365" r="3" /><circle cx="320" cy="366" r="3" /><circle cx="283" cy="366" r="3" /><circle cx="272" cy="367" r="3" /><circle cx="294" cy="367" r="3" /><circle cx="229" cy="369" r="3" /><circle cx="303" cy="369" r="3" /><circle cx="310" cy="370" r="3" /><circle cx="266" cy="372" r="3" /><circle cx="342" cy="372" r="3" /><circle cx="333" cy="373" r="3" /><circle cx="308" cy="375" r="3" /><circle cx="279" cy="375" r="3" /><circle cx="332" cy="376" r="3" /><circle cx="311" cy="376" r="3" /><circle cx="347" cy="376" r="3" /><circle cx="335" cy="376" r="3" /><circle cx="296" cy="378" r="3" /><circle cx="211" cy="378" r="3" /><circle cx="341" cy="382" r="3" /><circle cx="295" cy="385" r="3" /><circle cx="370" cy="386" r="3" /><circle cx="342" cy="387" r="3" /><circle cx="217" cy="387" r="3" /><circle cx="256" cy="388" r="3" /><circle cx="306" cy="389" r="3" /><circle cx="323" cy="389" r="3" /><circle cx="325" cy="393" r="3" /><circle cx="193" cy="396" r="3" /><circle cx="315" cy="396" r="3" /><circle cx="273" cy="399" r="3" /><circle cx="265" cy="399" r="3" /><circle cx="244" cy="399" r="3" /><circle cx="291" cy="400" r="3" /><circle cx="294" cy="401" r="3" /><circle cx="278" cy="402" r="3" /><circle cx="292" cy="404" r="3" /><circle cx="254" cy="412" r="3" /><circle cx="294" cy="421" r="3" /><circle cx="253" cy="431" r="3" /><circle cx="274" cy="439" r="3" /><circle cx="354" cy="466" r="3" /></svg>