<?xml version="1.0" encoding="utf-8" ?>
<svg baseProfile="tiny" height="100%" version="1.2" width="100%" xmlns="http://www.w3.org/2000/svg" xmlns:ev="http://www.w3.org/2001/xml-events" xmlns:xlink="http://www.w3.org/1999/xlink"><defs /><line stroke="rgb(10%,10%,16%)" x1="367" x2="359" y1="236" y2="311" /><line stroke="rgb(10%,10%,16%)" x1="359" x2="354" y1="311" y2="339" /><line stroke="rgb(10%,10%,16%)" x1="354" x2="333" y1="339" y2="353" /><line stroke="rgb(10%,10%,16%)" x1="333" x2="266" y1="353" y2="356" /><line stroke="rgb(10%,10%,16%)" x1="266" x2="266" y1="356" y2="356" /><line stroke="rgb(10%,10%,16%)" x1="266" x2="243" y1="356" y2="314" /><line stroke="rgb(10%,10%,16%)" x1="243" x2="239" y1="314" y2="277" /><line stroke="rgb(10%,10%,16%)" x1="239" x2="269" y1="277" y2="253" /><line stroke="rgb(10%,10%,16%)" x1="269" x2="367" y1="253" y2="236" /><circle cx="367" cy="236" r="3" /><circle cx="305" cy="248" r="3" /><circle cx="305" cy="251" r="3" /><circle cx="269" cy="253" r="3" /><circle cx="292" cy="254" r="3" /><circle cx="298" cy="255" r="3" /><circle cx="285" cy="257" r="3" /><circle cx="333" cy="258" r="3" /><circle cx="286" cy="259" r="3" /><circle cx="310" cy="259" r="3" /><circle cx="283" cy="261" r="3" /><circle cx="279" cy="261" r="3" /><circle cx="290" cy="261" r="3" /><circle cx="349" cy="261" r="3" /><circle cx="294" cy="263" r="3" /><circle cx="321" cy="263" r="3" /><circle cx="262" cy="263" r="3" /><circle cx="288" cy="264" r="3" /><circle cx="306" cy="265" r="3" /><circle cx="337" cy="265" r="3" /><circle cx="261" cy="265" r="3" /><circle cx="331" cy="267" r="3" /><circle cx="314" cy="267" r="3" /><circle cx="309" cy="267" r="3" /><circle cx="341" cy="267" r="3" /><circle cx="305" cy="267" r="3" /><circle cx="324" cy="268" r="3" /><circle cx="314" cy="269" r="3" /><circle cx="276" cy="269" r="3" /><circle cx="305" cy="269" r="3" /><circle cx="302" cy="270" r="3" /><circle cx="273" cy="270" r="3" /><circle cx="322" cy="270" r="3" /><circle cx="282" cy="270" r="3" /><circle cx="273" cy="270" r="3" /><circle cx="302" cy="271" r="3" /><circle cx="317" cy="271" r="3" /><circle cx="319" cy="271" r="3" /><circle cx="321" cy="271" r="3" /><circle cx="305" cy="272" r="3" /><circle cx="296" cy="272" r="3" /><circle cx="324" cy="272" r="3" /><circle cx="285" cy="273" r="3" /><circle cx="307" cy="273" r="3" /><circle cx="351" cy="273" r="3" /><circle cx="303" cy="274" r="3" /><circle cx="296" cy="274" r="3" /><circle cx="304" cy="274" r="3" /><circle cx="338" cy="275" r="3" /><circle cx="298" cy="275" r="3" /><circle cx="300" cy="275" r="3" /><circle cx="295" cy="275" r="3" /><circle cx="278" cy="275" r="3" /><circle cx="328" cy="275" r="3" /><circle cx="310" cy="276" r="3" /><circle cx="284" cy="276" r="3" /><circle cx="239" cy="277" r="3" /><circle cx="329" cy="277" r="3" /><circle cx="291" cy="277" r="3" /><circle cx="248" cy="277" r="3" /><circle cx="323" cy="278" r="3" /><circle cx="336" cy="278" r="3" /><circle cx="326" cy="278" r="3" /><circle cx="282" cy="278" r="3" /><circle cx="306" cy="278" r="3" /><circle cx="309" cy="278" r="3" /><circle cx="304" cy="279" r="3" /><circle cx="275" cy="279" r="3" /><circle cx="284" cy="279" r="3" /><circle cx="280" cy="279" r="3" /><circle cx="301" cy="279" r="3" /><circle cx="299" cy="280" r="3" /><circle cx="330" cy="280" r="3" /><circle cx="286" cy="280" r="3" /><circle cx="291" cy="280" r="3" /><circle cx="304" cy="281" r="3" /><circle cx="255" cy="281" r="3" /><circle cx="297" cy="281" r="3" /><circle cx="313" cy="281" r="3" /><circle cx="324" cy="281" r="3" /><circle cx="289" cy="281" r="3" /><circle cx="306" cy="282" r="3" /><circle cx="335" cy="282" r="3" /><circle cx="283" cy="282" r="3" /><circle cx="263" cy="282" r="3" /><circle cx="291" cy="282" r="3" /><circle cx="316" cy="282" r="3" /><circle cx="275" cy="282" r="3" /><circle cx="308" cy="282" r="3" /><circle cx="294" cy="283" r="3" /><circle cx="302" cy="283" r="3" /><circle cx="295" cy="283" r="3" /><circle cx="342" cy="283" r="3" /><circle cx="306" cy="283" r="3" /><circle cx="286" cy="283" r="3" /><circle cx="336" cy="283" r="3" /><circle cx="277" cy="284" r="3" /><circle cx="332" cy="284" r="3" /><circle cx="284" cy="284" r="3" /><circle cx="296" cy="284" r="3" /><circle cx="321" cy="284" r="3" /><circle cx="289" cy="284" r="3" /><circle cx="306" cy="284" r="3" /><circle cx="288" cy="285" r="3" /><circle cx="311" cy="285" r="3" /><circle cx="319" cy="285" r="3" /><circle cx="304" cy="285" r="3" /><circle cx="273" cy="285" r="3" /><circle cx="243" cy="285" r="3" /><circle cx="290" cy="285" r="3" /><circle cx="290" cy="285" r="3" /><circle cx="289" cy="285" r="3" /><circle cx="306" cy="285" r="3" /><circle cx="313" cy="286" r="3" /><circle cx="298" cy="286" r="3" /><circle cx="269" cy="286" r="3" /><circle cx="303" cy="287" r="3" /><circle cx="315" cy="287" r="3" /><circle cx="289" cy="287" r="3" /><circle cx="289" cy="287" r="3" /><circle cx="308" cy="287" r="3" /><circle cx="281" cy="288" r="3" /><circle cx="327" cy="288" r="3" /><circle cx="274" cy="288" r="3" /><circle cx="302" cy="288" r="3" /><circle cx="311" cy="288" r="3" /><circle cx="294" cy="289" r="3" /><circle cx="274" cy="289" r="3" /><circle cx="302" cy="289" r="3" /><circle cx="284" cy="289" r="3" /><circle cx="324" cy="289" r="3" /><circle cx="281" cy="289" r="3" /><circle cx="300" cy="290" r="3" /><circle cx="295" cy="290" r="3" /><circle cx="314" cy="290" r="3" /><circle cx="343" cy="290" r="3" /><circle cx="292" cy="290" r="3" /><circle cx="309" cy="290" r="3" /><circle cx="283" cy="290" r="3" /><circle cx="322" cy="290" r="3" /><circle cx="298" cy="291" r="3" /><circle cx="307" cy="291" r="3" /><circle cx="301" cy="291" r="3" /><circle cx="326" cy="291" r="3" /><circle cx="285" cy="291" r="3" /><circle cx="287" cy="291" r="3" /><circle cx="315" cy="291" r="3" /><circle cx="253" cy="291" r="3" /><circle cx="303" cy="291" r="3" /><circle cx="281" cy="291" r="3" /><circle cx="279" cy="291" r="3" /><circle cx="307" cy="291" r="3" /><circle cx="312" cy="291" r="3" /><circle cx="310" cy="292" r="3" /><circle cx="301" cy="292" r="3" /><circle cx="352" cy="292" r="3" /><circle cx="271" cy="292" r="3" /><circle cx="329" cy="292" r="3" /><circle cx="317" cy="292" r="3" /><circle cx="319" cy="293" r="3" /><circle cx="319" cy="293" r="3" /><circle cx="301" cy="293" r="3" /><circle cx="292" cy="293" r="3" /><circle cx="314" cy="293" r="3" /><circle cx="299" cy="293" r="3" /><circle cx="299" cy="293" r="3" /><circle cx="292" cy="293" r="3" /><circle cx="305" cy="293" r="3" /><circle cx="283" cy="293" r="3" /><circle cx="288" cy="293" r="3" /><circle cx="299" cy="293" r="3" /><circle cx="303" cy="293" r="3" /><circle cx="313" cy="294" r="3" /><circle cx="297" cy="294" r="3" /><circle cx="309" cy="294" r="3" /><circle cx="287" cy="294" r="3" /><circle cx="337" cy="294" r="3" /><circle cx="250" cy="294" r="3" /><circle cx="318" cy="294" r="3" /><circle cx="328" cy="294" r="3" /><circle cx="301" cy="294" r="3" /><circle cx="295" cy="295" r="3" /><circle cx="312" cy="295" r="3" /><circle cx="284" cy="295" r="3" /><circle cx="321" cy="295" r="3" /><circle cx="257" cy="295" r="3" /><circle cx="298" cy="295" r="3" /><circle cx="267" cy="295" r="3" /><circle cx="302" cy="295" r="3" /><circle cx="285" cy="295" r="3" /><circle cx="280" cy="295" r="3" /><circle cx="320" cy="295" r="3" /><circle cx="298" cy="295" r="3" /><circle cx="302" cy="295" r="3" /><circle cx="296" cy="295" r="3" /><circle cx="311" cy="295" r="3" /><circle cx="360" cy="295" r="3" /><circle cx="279" cy="296" r="3" /><circle cx="298" cy="296" r="3" /><circle cx="287" cy="296" r="3" /><circle cx="296" cy="296" r="3" /><circle cx="296" cy="296" r="3" /><circle cx="323" cy="296" r="3" /><circle cx="287" cy="296" r="3" /><circle cx="311" cy="296" r="3" /><circle cx="326" cy="296" r="3" /><circle cx="308" cy="296" r="3" /><circle cx="291" cy="296" r="3" /><circle cx="298" cy="297" r="3" /><circle cx="314" cy="297" r="3" /><circle cx="300" cy="297" r="3" /><circle cx="308" cy="297" r="3" /><circle cx="291" cy="297" r="3" /><circle cx="297" cy="297" r="3" /><circle cx="329" cy="297" r="3" /><circle cx="317" cy="297" r="3" /><circle cx="312" cy="297" r="3" /><circle cx="298" cy="297" r="3" /><circle cx="279" cy="297" r="3" /><circle cx="303" cy="297" r="3" /><circle cx="299" cy="298" r="3" /><circle cx="301" cy="298" r="3" /><circle cx="315" cy="298" r="3" /><circle cx="300" cy="298" r="3" /><circle cx="283" cy="298" r="3" /><circle cx="284" cy="298" r="3" /><circle cx="292" cy="298" r="3" /><circle cx="274" cy="298" r="3" /><circle cx="279" cy="298" r="3" /><circle cx="309" cy="298" r="3" /><circle cx="300" cy="298" r="3" /><circle cx="331" cy="299" r="3" /><circle cx="290" cy="299" r="3" /><circle cx="307" cy="299" r="3" /><circle cx="294" cy="299" r="3" /><circle cx="270" cy="299" r="3" /><circle cx="299" cy="299" r="3" /><circle cx="297" cy="299" r="3" /><circle cx="300" cy="299" r="3" /><circle cx="299" cy="299" r="3" /><circle cx="332" cy="299" r="3" /><circle cx="277" cy="299" r="3" /><circle cx="280" cy="300" r="3" /><circle cx="274" cy="300" r="3" /><circle cx="298" cy="300" r="3" /><circle cx="310" cy="300" r="3" /><circle cx="302" cy="300" r="3" /><circle cx="287" cy="300" r="3" /><circle cx="294" cy="300" r="3" /><circle cx="298" cy="300" r="3" /><circle cx="297" cy="300" r="3" /><circle cx="290" cy="301" r="3" /><circle cx="289" cy="301" r="3" /><circle cx="321" cy="301" r="3" /><circle cx="287" cy="301" r="3" /><circle cx="283" cy="301" r="3" /><circle cx="298" cy="301" r="3" /><circle cx="283" cy="301" r="3" /><circle cx="287" cy="302" r="3" /><circle cx="298" cy="302" r="3" /><circle cx="305" cy="302" r="3" /><circle cx="282" cy="302" r="3" /><circle cx="300" cy="302" r="3" /><circle cx="337" cy="302" r="3" /><circle cx="290" cy="302" r="3" /><circle cx="308" cy="302" r="3" /><circle cx="298" cy="302" r="3" /><circle cx="292" cy="302" r="3" /><circle cx="303" cy="302" r="3" /><circle cx="330" cy="303" r="3" /><circle cx="313" cy="303" r="3" /><circle cx="296" cy="303" r="3" /><circle cx="310" cy="303" r="3" /><circle cx="308" cy="303" r="3" /><circle cx="291" cy="303" r="3" /><circle cx="326" cy="303" r="3" /><circle cx="291" cy="303" r="3" /><circle cx="334" cy="303" r="3" /><circle cx="299" cy="303" r="3" /><circle cx="280" cy="304" r="3" /><circle cx="299" cy="304" r="3" /><circle cx="322" cy="304" r="3" /><circle cx="277" cy="304" r="3" /><circle cx="296" cy="304" r="3" /><circle cx="276" cy="305" r="3" /><circle cx="258" cy="305" r="3" /><circle cx="326" cy="305" r="3" /><circle cx="294" cy="305" r="3" /><circle cx="308" cy="305" r="3" /><circle cx="337" cy="305" r="3" /><circle cx="312" cy="306" r="3" /><circle cx="278" cy="306" r="3" /><circle cx="278" cy="306" r="3" /><circle cx="289" cy="306" r="3" /><circle cx="272" cy="306" r="3" /><circle cx="297" cy="306" r="3" /><circle cx="300" cy="307" r="3" /><circle cx="291" cy="307" r="3" /><circle cx="305" cy="307" r="3" /><circle cx="331" cy="307" r="3" /><circle cx="299" cy="307" r="3" /><circle cx="295" cy="307" r="3" /><circle cx="280" cy="307" r="3" /><circle cx="315" cy="307" r="3" /><circle cx="291" cy="307" r="3" /><circle cx="292" cy="307" r="3" /><circle cx="297" cy="307" r="3" /><circle cx="298" cy="307" r="3" /><circle cx="330" cy="307" r="3" /><circle cx="298" cy="307" r="3" /><circle cx="309" cy="307" r="3" /><circle cx="289" cy="307" r="3" /><circle cx="305" cy="308" r="3" /><circle cx="281" cy="308" r="3" /><circle cx="326" cy="308" r="3" /><circle cx="322" cy="308" r="3" /><circle cx="322" cy="309" r="3" /><circle cx="312" cy="309" r="3" /><circle cx="296" cy="309" r="3" /><circle cx="289" cy="309" r="3" /><circle cx="306" cy="309" r="3" /><circle cx="331" cy="309" r="3" /><circle cx="312" cy="309" r="3" /><circle cx="285" cy="309" r="3" /><circle cx="288" cy="309" r="3" /><circle cx="280" cy="309" r="3" /><circle cx="263" cy="309" r="3" /><circle cx="278" cy="310" r="3" /><circle cx="311" cy="310" r="3" /><circle cx="301" cy="310" r="3" /><circle cx="260" cy="310" r="3" /><circle cx="280" cy="310" r="3" /><circle cx="260" cy="310" r="3" /><circle cx="298" cy="310" r="3" /><circle cx="300" cy="310" r="3" /><circle cx="285" cy="310" r="3" /><circle cx="303" cy="310" r="3" /><circle cx="305" cy="310" r="3" /><circle cx="359" cy="311" r="3" /><circle cx="271" cy="311" r="3" /><circle cx="264" cy="311" r="3" /><circle cx="274" cy="311" r="3" /><circle cx="306" cy="311" r="3" /><circle cx="312" cy="311" r="3" /><circle cx="304" cy="312" r="3" /><circle cx="283" cy="312" r="3" /><circle cx="283" cy="312" r="3" /><circle cx="290" cy="312" r="3" /><circle cx="291" cy="312" r="3" /><circle cx="307" cy="312" r="3" /><circle cx="287" cy="312" r="3" /><circle cx="266" cy="312" r="3" /><circle cx="316" cy="312" r="3" /><circle cx="320" cy="313" r="3" /><circle cx="324" cy="313" r="3" /><circle cx="281" cy="313" r="3" /><circle cx="308" cy="313" r="3" /><circle cx="305" cy="313" r="3" /><circle cx="270" cy="313" r="3" /><circle cx="302" cy="313" r="3" /><circle cx="324" cy="313" r="3" /><circle cx="286" cy="313" r="3" /><circle cx="286" cy="313" r="3" /><circle cx="305" cy="313" r="3" /><circle cx="280" cy="313" r="3" /><circle cx="283" cy="313" r="3" /><circle cx="269" cy="313" r="3" /><circle cx="306" cy="313" r="3" /><circle cx="291" cy="314" r="3" /><circle cx="298" cy="314" r="3" /><circle cx="292" cy="314" r="3" /><circle cx="243" cy="314" r="3" /><circle cx="321" cy="314" r="3" /><circle cx="310" cy="314" r="3" /><circle cx="337" cy="314" r="3" /><circle cx="333" cy="314" r="3" /><circle cx="329" cy="315" r="3" /><circle cx="337" cy="315" r="3" /><circle cx="267" cy="315" r="3" /><circle cx="294" cy="315" r="3" /><circle cx="267" cy="315" r="3" /><circle cx="303" cy="315" r="3" /><circle cx="294" cy="315" r="3" /><circle cx="299" cy="315" r="3" /><circle cx="319" cy="315" r="3" /><circle cx="337" cy="315" r="3" /><circle cx="271" cy="315" r="3" /><circle cx="298" cy="315" r="3" /><circle cx="279" cy="315" r="3" /><circle cx="296" cy="316" r="3" /><circle cx="341" cy="316" r="3" /><circle cx="296" cy="316" r="3" /><circle cx="265" cy="316" r="3" /><circle cx="279" cy="316" r="3" /><circle cx="293" cy="316" r="3" /><circle cx="299" cy="316" r="3" /><circle cx="297" cy="317" r="3" /><circle cx="282" cy="317" r="3" /><circle cx="284" cy="317" r="3" /><circle cx="276" cy="317" r="3" /><circle cx="291" cy="317" r="3" /><circle cx="307" cy="318" r="3" /><circle cx="320" cy="318" r="3" /><circle cx="269" cy="318" r="3" /><circle cx="301" cy="318" r="3" /><circle cx="282" cy="318" r="3" /><circle cx="302" cy="318" r="3" /><circle cx="314" cy="318" r="3" /><circle cx="321" cy="318" r="3" /><circle cx="325" cy="319" r="3" /><circle cx="322" cy="319" r="3" /><circle cx="282" cy="319" r="3" /><circle cx="294" cy="320" r="3" /><circle cx="297" cy="320" r="3" /><circle cx="308" cy="320" r="3" /><circle cx="294" cy="320" r="3" /><circle cx="325" cy="320" r="3" /><circle cx="332" cy="321" r="3" /><circle cx="300" cy="321" r="3" /><circle cx="284" cy="321" r="3" /><circle cx="332" cy="321" r="3" /><circle cx="310" cy="321" r="3" /><circle cx="286" cy="321" r="3" /><circle cx="293" cy="321" r="3" /><circle cx="336" cy="322" r="3" /><circle cx="284" cy="322" r="3" /><circle cx="301" cy="322" r="3" /><circle cx="318" cy="322" r="3" /><circle cx="301" cy="322" r="3" /><circle cx="256" cy="322" r="3" /><circle cx="317" cy="322" r="3" /><circle cx="276" cy="322" r="3" /><circle cx="271" cy="324" r="3" /><circle cx="294" cy="324" r="3" /><circle cx="320" cy="324" r="3" /><circle cx="291" cy="324" r="3" /><circle cx="288" cy="324" r="3" /><circle cx="333" cy="324" r="3" /><circle cx="287" cy="324" r="3" /><circle cx="315" cy="325" r="3" /><circle cx="300" cy="325" r="3" /><circle cx="290" cy="325" r="3" /><circle cx="298" cy="326" r="3" /><circle cx="279" cy="326" r="3" /><circle cx="311" cy="326" r="3" /><circle cx="316" cy="326" r="3" /><circle cx="335" cy="326" r="3" /><circle cx="287" cy="327" r="3" /><circle cx="303" cy="327" r="3" /><circle cx="326" cy="327" r="3" /><circle cx="315" cy="327" r="3" /><circle cx="288" cy="328" r="3" /><circle cx="329" cy="328" r="3" /><circle cx="278" cy="328" r="3" /><circle cx="302" cy="328" r="3" /><circle cx="323" cy="329" r="3" /><circle cx="327" cy="329" r="3" /><circle cx="317" cy="329" r="3" /><circle cx="298" cy="329" r="3" /><circle cx="307" cy="329" r="3" /><circle cx="325" cy="330" r="3" /><circle cx="293" cy="330" r="3" /><circle cx="330" cy="331" r="3" /><circle cx="324" cy="331" r="3" /><circle cx="349" cy="331" r="3" /><circle cx="307" cy="332" r="3" /><circle cx="302" cy="333" r="3" /><circle cx="319" cy="333" r="3" /><circle cx="275" cy="333" r="3" /><circle cx="316" cy="333" r="3" /><circle cx="282" cy="334" r="3" /><circle cx="295" cy="334" r="3" /><circle cx="273" cy="334" r="3" /><circle cx="289" cy="334" r="3" /><circle cx="302" cy="335" r="3" /><circle cx="310" cy="335" r="3" /><circle cx="297" cy="335" r="3" /><circle cx="296" cy="336" r="3" /><circle cx="293" cy="336" r="3" /><circle cx="319" cy="337" r="3" /><circle cx="305" cy="339" r="3" /><circle cx="295" cy="339" r="3" /><circle cx="354" cy="339" r="3" /><circle cx="290" cy="340" r="3" /><circle cx="280" cy="341" r="3" /><circle cx="293" cy="342" r="3" /><circle cx="308" cy="342" r="3" /><circle cx="281" cy="343" r="3" /><circle cx="303" cy="343" r="3" /><circle cx="282" cy="344" r="3" /><circle cx="304" cy="346" r="3" /><circle cx="287" cy="346" r="3" /><circle cx="277" cy="346" r="3" /><circle cx="287" cy="348" r="3" /><circle cx="309" cy="349" r="3" /><circle cx="287" cy="349" r="3" /><circle cx="319" cy="352" r="3" /><circle cx="333" cy="353" r="3" /><circle cx="301" cy="354" r="3" /><circle cx="266" cy="356" r="3" /></svg>