<?xml version="1.0" encoding="utf-8" ?>
<svg baseProfile="tiny" height="100%" version="1.2" width="100%" xmlns="http://www.w3.org/2000/svg" xmlns:ev="http://www.w3.org/2001/xml-events" xmlns:xlink="http://www.w3.org/1999/xlink"><defs /><line stroke="rgb(10%,10%,16%)" x1="239" x2="410" y1="9" y2="15" /><line stroke="rgb(10%,10%,16%)" x1="410" x2="498" y1="15" y2="128" /><line stroke="rgb(10%,10%,16%)" x1="498" x2="499" y1="128" y2="289" /><line stroke="rgb(10%,10%,16%)" x1="499" x2="456" y1="289" y2="482" /><line stroke="rgb(10%,10%,16%)" x1="456" x2="242" y1="482" y2="496" /><line stroke="rgb(10%,10%,16%)" x1="242" x2="242" y1="496" y2="496" /><line stroke="rgb(10%,10%,16%)" x1="242" x2="179" y1="496" y2="484" /><line stroke="rgb(10%,10%,16%)" x1="179" x2="53" y1="484" y2="454" /><line stroke="rgb(10%,10%,16%)" x1="53" x2="30" y1="454" y2="429" /><line stroke="rgb(10%,10%,16%)" x1="30" x2="8" y1="429" y2="80" /><line stroke="rgb(10%,10%,16%)" x1="8" x2="10" y1="80" y2="23" /><line stroke="rgb(10%,10%,16%)" x1="10" x2="72" y1="23" y2="14" /><line stroke="rgb(10%,10%,16%)" x1="72" x2="239" y1="14" y2="9" /><circle cx="239" cy="9" r="3" /><circle cx="72" cy="14" r="3" /><circle cx="410" cy="15" r="3" /><circle cx="235" cy="15" r="3" /><circle cx="378" cy="19" r="3" /><circle cx="43" cy="23" r="3" /><circle cx="10" cy="23" r="3" /><circle cx="276" cy="25" r="3" /><circle cx="371" cy="25" r="3" /><circle cx="24" cy="36" r="3" /><circle cx="58" cy="38" r="3" /><circle cx="135" cy="49" r="3" /><circle cx="35" cy="50" r="3" /><circle cx="199" cy="55" r="3" /><circle cx="222" cy="55" r="3" /><circle cx="350" cy="63" r="3" /><circle cx="137" cy="63" r="3" /><circle cx="399" cy="65" r="3" /><circle cx="394" cy="67" r="3" /><circle cx="240" cy="72" r="3" /><circle cx="82" cy="73" r="3" /><circle cx="254" cy="79" r="3" /><circle cx="8" cy="80" r="3" /><circle cx="177" cy="86" r="3" /><circle cx="208" cy="94" r="3" /><circle cx="177" cy="99" r="3" /><circle cx="204" cy="100" r="3" /><circle cx="328" cy="113" r="3" /><circle cx="17" cy="113" r="3" /><circle cx="389" cy="117" r="3" /><circle cx="372" cy="120" r="3" /><circle cx="498" cy="128" r="3" /><circle cx="51" cy="150" r="3" /><circle cx="94" cy="152" r="3" /><circle cx="319" cy="172" r="3" /><circle cx="463" cy="180" r="3" /><circle cx="325" cy="182" r="3" /><circle cx="457" cy="185" r="3" /><circle cx="208" cy="187" r="3" /><circle cx="333" cy="196" r="3" /><circle cx="348" cy="197" r="3" /><circle cx="196" cy="221" r="3" /><circle cx="253" cy="226" r="3" /><circle cx="268" cy="231" r="3" /><circle cx="468" cy="248" r="3" /><circle cx="52" cy="255" r="3" /><circle cx="151" cy="257" r="3" /><circle cx="471" cy="268" r="3" /><circle cx="229" cy="271" r="3" /><circle cx="361" cy="273" r="3" /><circle cx="157" cy="274" r="3" /><circle cx="251" cy="277" r="3" /><circle cx="418" cy="279" r="3" /><circle cx="124" cy="280" r="3" /><circle cx="295" cy="282" r="3" /><circle cx="313" cy="285" r="3" /><circle cx="499" cy="289" r="3" /><circle cx="390" cy="289" r="3" /><circle cx="402" cy="294" r="3" /><circle cx="280" cy="297" r="3" /><circle cx="372" cy="298" r="3" /><circle cx="139" cy="310" r="3" /><circle cx="177" cy="313" r="3" /><circle cx="436" cy="314" r="3" /><circle cx="404" cy="317" r="3" /><circle cx="322" cy="323" r="3" /><circle cx="439" cy="334" r="3" /><circle cx="194" cy="335" r="3" /><circle cx="179" cy="337" r="3" /><circle cx="411" cy="338" r="3" /><circle cx="354" cy="347" r="3" /><circle cx="181" cy="350" r="3" /><circle cx="47" cy="350" r="3" /><circle cx="165" cy="350" r="3" /><circle cx="282" cy="362" r="3" /><circle cx="394" cy="365" r="3" /><circle cx="252" cy="372" r="3" /><circle cx="437" cy="373" r="3" /><circle cx="347" cy="374" r="3" /><circle cx="166" cy="380" r="3" /><circle cx="94" cy="385" r="3" /><circle cx="304" cy="385" r="3" /><circle cx="315" cy="391" r="3" /><circle cx="173" cy="398" r="3" /><circle cx="387" cy="404" r="3" /><circle cx="172" cy="411" r="3" /><circle cx="30" cy="429" r="3" /><circle cx="414" cy="429" r="3" /><circle cx="318" cy="432" r="3" /><circle cx="263" cy="433" r="3" /><circle cx="86" cy="433" r="3" /><circle cx="376" cy="441" r="3" /><circle cx="183" cy="441" r="3" /><circle cx="53" cy="454" r="3" /><circle cx="323" cy="458" r="3" /><circle cx="154" cy="470" r="3" /><circle cx="365" cy="473" r="3" /><circle cx="456" cy="482" r="3" /><circle cx="179" cy="484" r="3" /><circle cx="242" cy="496" r="3" /></svg>