<?xml version="1.0" encoding="utf-8" ?>
<svg baseProfile="tiny" height="100%" version="1.2" width="100%" xmlns="http://www.w3.org/2000/svg" xmlns:ev="http://www.w3.org/2001/xml-events" xmlns:xlink="http://www.w3.org/1999/xlink"><defs /><line stroke="rgb(10%,10%,16%)" x1="133" x2="240.4439" y1="197" y2="143.5603" /><line stroke="rgb(10%,10%,16%)" x1="193" x2="75.6639" y1="152" y2="177.1445" /><line stroke="rgb(10%,10%,16%)" x1="304" x2="341.347" y1="167" y2="52.9596" /><line stroke="rgb(10%,10%,16%)" x1="207" x2="87.4332" y1="189" y2="199.1876" /><line stroke="rgb(10%,10%,16%)" x1="169" x2="263.3318" y1="173" y2="247.1722" /><line stroke="rgb(10%,10%,16%)" x1="268" x2="347.1324" y1="268" y2="177.7887" /><line stroke="rgb(10%,10%,16%)" x1="236" x2="170.281" y1="240" y2="139.5957" /><line stroke="rgb(10%,10%,16%)" x1="235" x2="116.8093" y1="379" y2="399.7593" /><line stroke="rgb(10%,10%,16%)" x1="153" x2="198.532" y1="199" y2="310.0263" /><line stroke="rgb(10%,10%,16%)" x1="250" x2="285.7006" y1="266" y2="151.4336" /><line stroke="rgb(10%,10%,16%)" x1="183" x2="218.7006" y1="375" y2="260.4336" /><line stroke="rgb(10%,10%,16%)" x1="228" x2="335.4439" y1="342" y2="288.5603" /><line stroke="rgb(10%,10%,16%)" x1="378" x2="462.4048" y1="263" y2="177.7015" /><line stroke="rgb(10%,10%,16%)" x1="373" x2="346.4146" y1="370" y2="487.018" /><line stroke="rgb(10%,10%,16%)" x1="289" x2="372.5312" y1="340" y2="426.1542" /><line stroke="rgb(10%,10%,16%)" x1="301" x2="371.8136" y1="225" y2="128.1215" /><line stroke="rgb(10%,10%,16%)" x1="239" x2="186.2404" y1="206" y2="313.7795" /><line stroke="rgb(10%,10%,16%)" x1="257" x2="202.8824" y1="242" y2="134.8959" /><line stroke="rgb(10%,10%,16%)" x1="317" x2="383.1414" y1="204" y2="304.1265" /><line stroke="rgb(10%,10%,16%)" x1="218" x2="322.8928" y1="347" y2="288.7119" /><line stroke="rgb(10%,10%,16%)" x1="177" x2="237.0119" y1="205" y2="308.9162" /><line stroke="rgb(10%,10%,16%)" x1="351" x2="331.6956" y1="157" y2="38.5629" /><line stroke="rgb(10%,10%,16%)" x1="297" x2="299.2339" y1="333" y2="213.0208" /><line stroke="rgb(10%,10%,16%)" x1="200" x2="156.5427" y1="304" y2="192.1454" /><line stroke="rgb(10%,10%,16%)" x1="178" x2="180.7393" y1="346" y2="465.9687" /><line stroke="rgb(10%,10%,16%)" x1="155" x2="185.2294" y1="143" y2="259.13" /><line stroke="rgb(10%,10%,16%)" x1="306" x2="371.2954" y1="156" y2="256.6803" /><line stroke="rgb(10%,10%,16%)" x1="328" x2="445.2291" y1="192" y2="166.3614" /><line stroke="rgb(10%,10%,16%)" x1="350" x2="337.8398" y1="162" y2="42.6177" /><line stroke="rgb(10%,10%,16%)" x1="361" x2="245.2505" y1="163" y2="131.3449" /><line stroke="rgb(10%,10%,16%)" x1="305" x2="258.8052" y1="153" y2="263.7522" /><line stroke="rgb(10%,10%,16%)" x1="169" x2="95.0267" y1="370" y2="464.4878" /><line stroke="rgb(10%,10%,16%)" x1="174" x2="272.614" y1="241" y2="309.376" /><line stroke="rgb(10%,10%,16%)" x1="354" x2="381.0782" y1="174" y2="57.095" /><line stroke="rgb(10%,10%,16%)" x1="206" x2="172.4383" y1="182" y2="297.2112" /><line stroke="rgb(10%,10%,16%)" x1="160" x2="202.5133" y1="291" y2="178.7831" /><line stroke="rgb(10%,10%,16%)" x1="220" x2="312.614" y1="210" y2="286.3063" /><line stroke="rgb(10%,10%,16%)" x1="175" x2="56.7228" y1="238" y2="217.7389" /><line stroke="rgb(10%,10%,16%)" x1="280" x2="308.7591" y1="257" y2="140.4972" /><line stroke="rgb(10%,10%,16%)" x1="371" x2="294.4988" y1="139" y2="46.547" /><circle cx="137.1121" cy="194.9548" r="3" /><circle cx="173.7478" cy="176.7332" r="3" /><circle cx="189.4705" cy="168.9131" r="3" /><circle cx="213.9249" cy="156.7502" r="3" /><circle cx="164.9234" cy="181.1222" r="3" /><circle cx="180.1961" cy="154.7438" r="3" /><circle cx="159.2267" cy="159.2374" r="3" /><circle cx="336.4696" cy="67.8527" r="3" /><circle cx="307.0647" cy="157.6417" r="3" /><circle cx="339.4753" cy="58.6747" r="3" /><circle cx="309.8876" cy="149.0218" r="3" /><circle cx="329.5676" cy="88.9283" r="3" /><circle cx="191.0744" cy="190.3569" r="3" /><circle cx="202.8497" cy="189.3536" r="3" /><circle cx="156.9766" cy="193.2622" r="3" /><circle cx="167.8426" cy="192.3364" r="3" /><circle cx="203.8835" cy="189.2655" r="3" /><circle cx="198.3638" cy="189.7358" r="3" /><circle cx="216.6896" cy="210.4979" r="3" /><circle cx="257.3361" cy="242.4579" r="3" /><circle cx="231.2095" cy="221.9148" r="3" /><circle cx="201.2377" cy="198.3482" r="3" /><circle cx="196.5095" cy="194.6305" r="3" /><circle cx="320.0672" cy="208.6432" r="3" /><circle cx="298.8653" cy="232.8134" r="3" /><circle cx="331.6084" cy="195.4861" r="3" /><circle cx="336.2489" cy="190.1959" r="3" /><circle cx="277.3955" cy="257.2891" r="3" /><circle cx="280.9207" cy="253.2704" r="3" /><circle cx="228.1942" cy="228.0745" r="3" /><circle cx="203.5474" cy="190.4195" r="3" /><circle cx="200.1001" cy="185.1528" r="3" /><circle cx="178.9782" cy="388.8398" r="3" /><circle cx="150.3082" cy="393.8755" r="3" /><circle cx="193.7663" cy="298.4054" r="3" /><circle cx="181.0928" cy="267.502" r="3" /><circle cx="174.756" cy="252.0504" r="3" /><circle cx="168.5401" cy="236.8934" r="3" /><circle cx="257.7566" cy="241.1083" r="3" /><circle cx="215.3053" cy="271.3292" r="3" /><circle cx="215.7382" cy="269.94" r="3" /><circle cx="297.4758" cy="307.4446" r="3" /><circle cx="362.5752" cy="415.8856" r="3" /><circle cx="350.9462" cy="156.6698" r="3" /><circle cx="327.3607" cy="188.9365" r="3" /><circle cx="349.6392" cy="158.4578" r="3" /><circle cx="348.7649" cy="159.654" r="3" /><circle cx="361.2928" cy="142.5149" r="3" /><circle cx="367.21" cy="134.4197" r="3" /><circle cx="238.9064" cy="206.1911" r="3" /><circle cx="210.8213" cy="263.5647" r="3" /><circle cx="196.0298" cy="293.7812" r="3" /><circle cx="209.7373" cy="265.7792" r="3" /><circle cx="232.144" cy="220.0057" r="3" /><circle cx="255.6885" cy="239.4043" r="3" /><circle cx="297.5625" cy="302.7877" r="3" /><circle cx="213.6782" cy="268.5117" r="3" /><circle cx="191.8229" cy="230.6673" r="3" /><circle cx="186.4088" cy="221.2921" r="3" /><circle cx="346.9759" cy="132.3115" r="3" /><circle cx="342.4405" cy="104.4853" r="3" /><circle cx="298.0921" cy="274.3415" r="3" /><circle cx="176.0852" cy="242.4458" r="3" /><circle cx="183.1184" cy="260.5485" r="3" /><circle cx="177.2545" cy="245.4555" r="3" /><circle cx="174.3122" cy="237.8822" r="3" /><circle cx="181.9438" cy="246.508" r="3" /><circle cx="184.4282" cy="256.0521" r="3" /><circle cx="179.8716" cy="238.5475" r="3" /><circle cx="329.1801" cy="191.7419" r="3" /><circle cx="349.7896" cy="159.9342" r="3" /><circle cx="344.3804" cy="106.8297" r="3" /><circle cx="356.8131" cy="161.855" r="3" /><circle cx="306.8592" cy="148.1936" r="3" /><circle cx="265.5662" cy="247.5427" r="3" /><circle cx="186.3238" cy="249.5449" r="3" /><circle cx="177.9143" cy="243.714" r="3" /><circle cx="364.0519" cy="130.603" r="3" /></svg>