<?xml version="1.0" encoding="utf-8" ?>
<svg baseProfile="tiny" height="100%" version="1.2" width="100%" xmlns="http://www.w3.org/2000/svg" xmlns:ev="http://www.w3.org/2001/xml-events" xmlns:xlink="http://www.w3.org/1999/xlink"><defs /><line stroke="rgb(10%,10%,16%)" x1="150" x2="73.4988" y1="191" y2="98.547" /><line stroke="rgb(10%,10%,16%)" x1="184" x2="301.8795" y1="292" y2="314.4594" /><line stroke="rgb(10%,10%,16%)" x1="306" x2="425.9836" y1="365" y2="366.9811" /><line stroke="rgb(10%,10%,16%)" x1="305" x2="211.2966" y1="351" y2="425.9645" /><line stroke="rgb(10%,10%,16%)" x1="229" x2="186.9599" y1="256" y2="368.395" /><line stroke="rgb(10%,10%,16%)" x1="225" x2="227.7393" y1="233" y2="352.9687" /><line stroke="rgb(10%,10%,16%)" x1="216" x2="330.9968" y1="284" y2="249.7109" /><line stroke="rgb(10%,10%,16%)" x1="282" x2="384.6503" y1="324" y2="261.8477" /><line stroke="rgb(10%,10%,16%)" x1="155" x2="272.5438" y1="260" y2="284.1549" /><line stroke="rgb(10%,10%,16%)" x1="194" x2="282.5521" y1="296" y2="376.9847" /><line stroke="rgb(10%,10%,16%)" x1="356" x2="406.7441" y1="161" y2="52.257" /><line stroke="rgb(10%,10%,16%)" x1="184" x2="234.7441" y1="292" y2="183.257" /><line stroke="rgb(10%,10%,16%)" x1="254" x2="175.4082" y1="252" y2="161.3174" /><line stroke="rgb(10%,10%,16%)" x1="122" x2="65.2649" y1="152" y2="257.7409" /><line stroke="rgb(10%,10%,16%)" x1="144" x2="24.0373" y1="282" y2="284.9921" /><line stroke="rgb(10%,10%,16%)" x1="329" x2="272.2649" y1="362" y2="467.7409" /><line stroke="rgb(10%,10%,16%)" x1="249" x2="303.7568" y1="353" y2="246.2213" /><line stroke="rgb(10%,10%,16%)" x1="212" x2="121.152" y1="343" y2="421.4006" /><line stroke="rgb(10%,10%,16%)" x1="371" x2="267.2105" y1="304" y2="364.2307" /><line stroke="rgb(10%,10%,16%)" x1="370" x2="464.3318" y1="232" y2="306.1722" /><line stroke="rgb(10%,10%,16%)" x1="218" x2="130.1334" y1="312" y2="393.728" /><line stroke="rgb(10%,10%,16%)" x1="228" x2="325.7419" y1="231" y2="161.383" /><line stroke="rgb(10%,10%,16%)" x1="235" x2="331.0004" y1="138" y2="209.9995" /><line stroke="rgb(10%,10%,16%)" x1="346" x2="422.8901" y1="173" y2="265.1299" /><line stroke="rgb(10%,10%,16%)" x1="256" x2="175.3586" y1="366" y2="277.1351" /><line stroke="rgb(10%,10%,16%)" x1="372" x2="379.2032" y1="286" y2="405.7836" /><line stroke="rgb(10%,10%,16%)" x1="261" x2="312.2018" y1="141" y2="249.5282" /><line stroke="rgb(10%,10%,16%)" x1="358" x2="476.3615" y1="343" y2="362.7626" /><line stroke="rgb(10%,10%,16%)" x1="328" x2="298.2602" y1="150" y2="33.7436" /><line stroke="rgb(10%,10%,16%)" x1="215" x2="99.2505" y1="342" y2="310.3449" /><line stroke="rgb(10%,10%,16%)" x1="267" x2="181.8795" y1="301" y2="216.4157" /><line stroke="rgb(10%,10%,16%)" x1="123" x2="231.8496" y1="212" y2="262.5149" /><line stroke="rgb(10%,10%,16%)" x1="234" x2="353.5037" y1="322" y2="332.9021" /><line stroke="rgb(10%,10%,16%)" x1="173" x2="292.8862" y1="246" y2="240.7753" /><line stroke="rgb(10%,10%,16%)" x1="340" x2="338.2717" y1="179" y2="298.9876" /><line stroke="rgb(10%,10%,16%)" x1="367" x2="278.7899" y1="270" y2="188.6429" /><line stroke="rgb(10%,10%,16%)" x1="321" x2="240.3586" y1="297" y2="208.1351" /><line stroke="rgb(10%,10%,16%)" x1="181" x2="220.9405" y1="344" y2="230.8419" /><line stroke="rgb(10%,10%,16%)" x1="128" x2="68.4265" y1="195" y2="90.8319" /><line stroke="rgb(10%,10%,16%)" x1="227" x2="342.4787" y1="241" y2="208.3707" /><circle cx="120.32" cy="155.1312" r="3" /><circle cx="213.4368" cy="297.6086" r="3" /><circle cx="226.5322" cy="300.1036" r="3" /><circle cx="298.7439" cy="313.862" r="3" /><circle cx="271.7114" cy="308.7115" r="3" /><circle cx="189.8613" cy="293.1168" r="3" /><circle cx="198.3865" cy="294.741" r="3" /><circle cx="327.2025" cy="365.3501" r="3" /><circle cx="376.821" cy="366.1694" r="3" /><circle cx="277.8711" cy="372.7037" r="3" /><circle cx="225.7251" cy="264.7555" r="3" /><circle cx="218.8441" cy="283.152" r="3" /><circle cx="222.3287" cy="273.8358" r="3" /><circle cx="208.931" cy="309.655" r="3" /><circle cx="189.0509" cy="362.8048" r="3" /><circle cx="202.7473" cy="326.1871" r="3" /><circle cx="207.7454" cy="312.8246" r="3" /><circle cx="198.5186" cy="337.4927" r="3" /><circle cx="227.0259" cy="261.2778" r="3" /><circle cx="227.3451" cy="260.4244" r="3" /><circle cx="226.0958" cy="280.9897" r="3" /><circle cx="225.9494" cy="274.5799" r="3" /><circle cx="227.1304" cy="326.2991" r="3" /><circle cx="227.3151" cy="334.3899" r="3" /><circle cx="225.6136" cy="259.8744" r="3" /><circle cx="225.6078" cy="259.6182" r="3" /><circle cx="225.2448" cy="243.7231" r="3" /><circle cx="238.7622" cy="277.2129" r="3" /><circle cx="296.7273" cy="259.9291" r="3" /><circle cx="242.0696" cy="276.2267" r="3" /><circle cx="289.3546" cy="262.1275" r="3" /><circle cx="338.4033" cy="289.8492" r="3" /><circle cx="195.0883" cy="268.238" r="3" /><circle cx="244.1831" cy="278.3269" r="3" /><circle cx="206.8854" cy="270.6623" r="3" /><circle cx="251.339" cy="348.4389" r="3" /><circle cx="268.0644" cy="363.7351" r="3" /><circle cx="214.775" cy="314.9997" r="3" /><circle cx="196.9802" cy="298.7255" r="3" /><circle cx="220.6321" cy="213.4986" r="3" /><circle cx="185.6463" cy="288.4719" r="3" /><circle cx="207.4252" cy="241.8005" r="3" /><circle cx="203.8275" cy="249.5104" r="3" /><circle cx="206.1395" cy="244.5558" r="3" /><circle cx="232.8229" cy="227.5649" r="3" /><circle cx="246.0412" cy="242.8168" r="3" /><circle cx="241.0307" cy="237.0355" r="3" /><circle cx="113.0006" cy="168.7727" r="3" /><circle cx="263.5162" cy="324.6927" r="3" /><circle cx="293.345" cy="266.5249" r="3" /><circle cx="325.5849" cy="330.3551" r="3" /><circle cx="212.0334" cy="317.5498" r="3" /><circle cx="192.3935" cy="335.8176" r="3" /><circle cx="295.1912" cy="183.1429" r="3" /><circle cx="284.4812" cy="190.7711" r="3" /><circle cx="282.5718" cy="192.131" r="3" /><circle cx="248.1098" cy="216.6767" r="3" /><circle cx="273.0469" cy="166.5349" r="3" /><circle cx="196.412" cy="300.3354" r="3" /><circle cx="375.6045" cy="345.9394" r="3" /><circle cx="287.0878" cy="196.2962" r="3" /><circle cx="298.6297" cy="220.7605" r="3" /><circle cx="184.6368" cy="333.6963" r="3" /><circle cx="225.135" cy="259.3988" r="3" /><circle cx="210.0274" cy="244.3863" r="3" /><circle cx="214.5675" cy="248.8978" r="3" /><circle cx="194.2663" cy="245.0732" r="3" /><circle cx="212.8701" cy="253.7068" r="3" /><circle cx="270.8498" cy="241.7357" r="3" /><circle cx="216.2556" cy="244.1149" r="3" /><circle cx="339.0604" cy="244.231" r="3" /><circle cx="339.5651" cy="209.194" r="3" /><circle cx="310.0991" cy="217.5198" r="3" /><circle cx="261.3695" cy="231.2887" r="3" /></svg>