<?xml version="1.0" encoding="utf-8" ?>
<svg baseProfile="tiny" height="100%" version="1.2" width="100%" xmlns="http://www.w3.org/2000/svg" xmlns:ev="http://www.w3.org/2001/xml-events" xmlns:xlink="http://www.w3.org/1999/xlink"><defs /><line stroke="rgb(10%,10%,16%)" x1="61" x2="61" y1="484" y2="482" /><line stroke="rgb(10%,10%,16%)" x1="287" x2="289" y1="421" y2="419" /><line stroke="rgb(10%,10%,16%)" x1="79" x2="77" y1="151" y2="153" /><line stroke="rgb(10%,10%,16%)" x1="485" x2="485" y1="171" y2="168" /><line stroke="rgb(10%,10%,16%)" x1="315" x2="313" y1="471" y2="474" /><line stroke="rgb(10%,10%,16%)" x1="182" x2="186" y1="105" y2="105" /><line stroke="rgb(10%,10%,16%)" x1="416" x2="416" y1="11" y2="7" /><line stroke="rgb(10%,10%,16%)" x1="182" x2="181" y1="105" y2="109" /><line stroke="rgb(10%,10%,16%)" x1="132" x2="134" y1="348" y2="352" /><line stroke="rgb(10%,10%,16%)" x1="156" x2="153" y1="429" y2="425" /><line stroke="rgb(10%,10%,16%)" x1="336" x2="340" y1="25" y2="22" /><line stroke="rgb(10%,10%,16%)" x1="23" x2="22" y1="5" y2="0" /><line stroke="rgb(10%,10%,16%)" x1="485" x2="480" y1="171" y2="172" /><line stroke="rgb(10%,10%,16%)" x1="51" x2="50" y1="404" y2="410" /><line stroke="rgb(10%,10%,16%)" x1="181" x2="186" y1="109" y2="105" /><line stroke="rgb(10%,10%,16%)" x1="485" x2="480" y1="168" y2="172" /><line stroke="rgb(10%,10%,16%)" x1="104" x2="108" y1="187" y2="182" /><line stroke="rgb(10%,10%,16%)" x1="490" x2="490" y1="15" y2="8" /><line stroke="rgb(10%,10%,16%)" x1="490" x2="490" y1="1" y2="8" /><line stroke="rgb(10%,10%,16%)" x1="161" x2="166" y1="249" y2="244" /><line stroke="rgb(10%,10%,16%)" x1="311" x2="309" y1="293" y2="286" /><line stroke="rgb(10%,10%,16%)" x1="156" x2="161" y1="429" y2="423" /><line stroke="rgb(10%,10%,16%)" x1="337" x2="342" y1="401" y2="407" /><line stroke="rgb(10%,10%,16%)" x1="153" x2="161" y1="425" y2="423" /><line stroke="rgb(10%,10%,16%)" x1="409" x2="403" y1="295" y2="301" /><line stroke="rgb(10%,10%,16%)" x1="279" x2="282" y1="394" y2="386" /><line stroke="rgb(10%,10%,16%)" x1="53" x2="48" y1="306" y2="299" /><line stroke="rgb(10%,10%,16%)" x1="298" x2="298" y1="297" y2="306" /><line stroke="rgb(10%,10%,16%)" x1="48" x2="39" y1="299" y2="298" /><line stroke="rgb(10%,10%,16%)" x1="184" x2="179" y1="476" y2="468" /><line stroke="rgb(10%,10%,16%)" x1="287" x2="278" y1="421" y2="425" /><line stroke="rgb(10%,10%,16%)" x1="346" x2="350" y1="170" y2="161" /><line stroke="rgb(10%,10%,16%)" x1="190" x2="186" y1="114" y2="105" /><line stroke="rgb(10%,10%,16%)" x1="480" x2="470" y1="367" y2="368" /><line stroke="rgb(10%,10%,16%)" x1="181" x2="190" y1="109" y2="114" /><line stroke="rgb(10%,10%,16%)" x1="28" x2="22" y1="28" y2="37" /><line stroke="rgb(10%,10%,16%)" x1="411" x2="411" y1="411" y2="422" /><line stroke="rgb(10%,10%,16%)" x1="374" x2="373" y1="301" y2="290" /><line stroke="rgb(10%,10%,16%)" x1="268" x2="278" y1="420" y2="425" /><line stroke="rgb(10%,10%,16%)" x1="439" x2="450" y1="494" y2="497" /><line stroke="rgb(10%,10%,16%)" x1="471" x2="472" y1="416" y2="428" /><line stroke="rgb(10%,10%,16%)" x1="377" x2="382" y1="237" y2="226" /><line stroke="rgb(10%,10%,16%)" x1="475" x2="480" y1="183" y2="172" /><line stroke="rgb(10%,10%,16%)" x1="19" x2="9" y1="495" y2="488" /><line stroke="rgb(10%,10%,16%)" x1="271" x2="278" y1="435" y2="425" /><line stroke="rgb(10%,10%,16%)" x1="289" x2="278" y1="419" y2="425" /><line stroke="rgb(10%,10%,16%)" x1="427" x2="419" y1="179" y2="189" /><line stroke="rgb(10%,10%,16%)" x1="439" x2="434" y1="104" y2="116" /><line stroke="rgb(10%,10%,16%)" x1="171" x2="158" y1="479" y2="477" /><line stroke="rgb(10%,10%,16%)" x1="171" x2="184" y1="479" y2="476" /><line stroke="rgb(10%,10%,16%)" x1="456" x2="443" y1="450" y2="447" /><line stroke="rgb(10%,10%,16%)" x1="362" x2="359" y1="324" y2="337" /><line stroke="rgb(10%,10%,16%)" x1="180" x2="190" y1="123" y2="114" /><line stroke="rgb(10%,10%,16%)" x1="171" x2="179" y1="479" y2="468" /><line stroke="rgb(10%,10%,16%)" x1="311" x2="298" y1="293" y2="297" /><line stroke="rgb(10%,10%,16%)" x1="490" x2="497" y1="15" y2="27" /><line stroke="rgb(10%,10%,16%)" x1="284" x2="272" y1="229" y2="236" /><line stroke="rgb(10%,10%,16%)" x1="490" x2="490" y1="15" y2="1" /><line stroke="rgb(10%,10%,16%)" x1="181" x2="180" y1="109" y2="123" /><line stroke="rgb(10%,10%,16%)" x1="67" x2="53" y1="308" y2="306" /><line stroke="rgb(10%,10%,16%)" x1="245" x2="243" y1="108" y2="122" /><line stroke="rgb(10%,10%,16%)" x1="412" x2="406" y1="257" y2="270" /><line stroke="rgb(10%,10%,16%)" x1="93" x2="97" y1="219" y2="233" /><line stroke="rgb(10%,10%,16%)" x1="490" x2="485" y1="185" y2="171" /><line stroke="rgb(10%,10%,16%)" x1="490" x2="475" y1="185" y2="183" /><line stroke="rgb(10%,10%,16%)" x1="100" x2="108" y1="169" y2="182" /><line stroke="rgb(10%,10%,16%)" x1="271" x2="268" y1="435" y2="420" /><line stroke="rgb(10%,10%,16%)" x1="298" x2="309" y1="297" y2="286" /><line stroke="rgb(10%,10%,16%)" x1="427" x2="439" y1="179" y2="189" /><line stroke="rgb(10%,10%,16%)" x1="485" x2="475" y1="171" y2="183" /><line stroke="rgb(10%,10%,16%)" x1="53" x2="39" y1="306" y2="298" /><line stroke="rgb(10%,10%,16%)" x1="50" x2="34" y1="410" y2="408" /><line stroke="rgb(10%,10%,16%)" x1="60" x2="57" y1="197" y2="213" /><line stroke="rgb(10%,10%,16%)" x1="178" x2="183" y1="448" y2="432" /><line stroke="rgb(10%,10%,16%)" x1="296" x2="284" y1="467" y2="455" /><line stroke="rgb(10%,10%,16%)" x1="366" x2="353" y1="439" y2="428" /><line stroke="rgb(10%,10%,16%)" x1="329" x2="342" y1="418" y2="407" /><line stroke="rgb(10%,10%,16%)" x1="67" x2="61" y1="466" y2="482" /><line stroke="rgb(10%,10%,16%)" x1="471" x2="485" y1="416" y2="406" /><line stroke="rgb(10%,10%,16%)" x1="51" x2="34" y1="404" y2="408" /><line stroke="rgb(10%,10%,16%)" x1="490" x2="485" y1="185" y2="168" /><line stroke="rgb(10%,10%,16%)" x1="380" x2="372" y1="39" y2="23" /><line stroke="rgb(10%,10%,16%)" x1="156" x2="156" y1="429" y2="447" /><line stroke="rgb(10%,10%,16%)" x1="107" x2="107" y1="37" y2="55" /><line stroke="rgb(10%,10%,16%)" x1="263" x2="245" y1="110" y2="108" /><line stroke="rgb(10%,10%,16%)" x1="420" x2="402" y1="67" y2="65" /><line stroke="rgb(10%,10%,16%)" x1="440" x2="443" y1="57" y2="75" /><line stroke="rgb(10%,10%,16%)" x1="311" x2="298" y1="293" y2="306" /><line stroke="rgb(10%,10%,16%)" x1="296" x2="313" y1="467" y2="474" /><line stroke="rgb(10%,10%,16%)" x1="100" x2="104" y1="169" y2="187" /><line stroke="rgb(10%,10%,16%)" x1="337" x2="329" y1="401" y2="418" /><line stroke="rgb(10%,10%,16%)" x1="445" x2="455" y1="12" y2="28" /><line stroke="rgb(10%,10%,16%)" x1="468" x2="484" y1="157" y2="147" /><line stroke="rgb(10%,10%,16%)" x1="61" x2="67" y1="484" y2="466" /><line stroke="rgb(10%,10%,16%)" x1="60" x2="54" y1="197" y2="179" /><line stroke="rgb(10%,10%,16%)" x1="499" x2="480" y1="368" y2="367" /><line stroke="rgb(10%,10%,16%)" x1="313" x2="312" y1="345" y2="326" /><line stroke="rgb(10%,10%,16%)" x1="468" x2="449" y1="157" y2="159" /><line stroke="rgb(10%,10%,16%)" x1="456" x2="470" y1="355" y2="368" /><line stroke="rgb(10%,10%,16%)" x1="30" x2="18" y1="100" y2="85" /><line stroke="rgb(10%,10%,16%)" x1="468" x2="480" y1="157" y2="172" /><line stroke="rgb(10%,10%,16%)" x1="111" x2="94" y1="275" y2="266" /><line stroke="rgb(10%,10%,16%)" x1="60" x2="79" y1="197" y2="194" /><line stroke="rgb(10%,10%,16%)" x1="315" x2="296" y1="471" y2="467" /><line stroke="rgb(10%,10%,16%)" x1="289" x2="308" y1="419" y2="424" /><line stroke="rgb(10%,10%,16%)" x1="439" x2="419" y1="189" y2="189" /><line stroke="rgb(10%,10%,16%)" x1="178" x2="179" y1="448" y2="468" /><line stroke="rgb(10%,10%,16%)" x1="252" x2="234" y1="301" y2="292" /><line stroke="rgb(10%,10%,16%)" x1="5" x2="22" y1="26" y2="37" /><line stroke="rgb(10%,10%,16%)" x1="485" x2="468" y1="168" y2="157" /><line stroke="rgb(10%,10%,16%)" x1="367" x2="350" y1="172" y2="161" /><line stroke="rgb(10%,10%,16%)" x1="369" x2="373" y1="270" y2="290" /><line stroke="rgb(10%,10%,16%)" x1="367" x2="383" y1="172" y2="159" /><line stroke="rgb(10%,10%,16%)" x1="67" x2="48" y1="308" y2="299" /><line stroke="rgb(10%,10%,16%)" x1="289" x2="268" y1="419" y2="420" /><line stroke="rgb(10%,10%,16%)" x1="485" x2="484" y1="168" y2="147" /><line stroke="rgb(10%,10%,16%)" x1="367" x2="346" y1="172" y2="170" /><line stroke="rgb(10%,10%,16%)" x1="287" x2="308" y1="421" y2="424" /><line stroke="rgb(10%,10%,16%)" x1="135" x2="132" y1="327" y2="348" /><line stroke="rgb(10%,10%,16%)" x1="287" x2="271" y1="421" y2="435" /><line stroke="rgb(10%,10%,16%)" x1="111" x2="130" y1="275" y2="285" /><line stroke="rgb(10%,10%,16%)" x1="283" x2="288" y1="204" y2="183" /><line stroke="rgb(10%,10%,16%)" x1="308" x2="329" y1="424" y2="418" /><line stroke="rgb(10%,10%,16%)" x1="156" x2="178" y1="447" y2="448" /><line stroke="rgb(10%,10%,16%)" x1="21" x2="18" y1="63" y2="85" /><line stroke="rgb(10%,10%,16%)" x1="156" x2="153" y1="447" y2="425" /><line stroke="rgb(10%,10%,16%)" x1="440" x2="420" y1="57" y2="67" /><line stroke="rgb(10%,10%,16%)" x1="107" x2="97" y1="37" y2="17" /><line stroke="rgb(10%,10%,16%)" x1="428" x2="406" y1="275" y2="270" /><line stroke="rgb(10%,10%,16%)" x1="158" x2="179" y1="477" y2="468" /><line stroke="rgb(10%,10%,16%)" x1="50" x2="63" y1="118" y2="99" /><line stroke="rgb(10%,10%,16%)" x1="366" x2="347" y1="439" y2="452" /><line stroke="rgb(10%,10%,16%)" x1="28" x2="5" y1="28" y2="26" /><line stroke="rgb(10%,10%,16%)" x1="335" x2="337" y1="378" y2="401" /><line stroke="rgb(10%,10%,16%)" x1="243" x2="220" y1="47" y2="44" /><line stroke="rgb(10%,10%,16%)" x1="263" x2="243" y1="110" y2="122" /><line stroke="rgb(10%,10%,16%)" x1="23" x2="28" y1="5" y2="28" /><line stroke="rgb(10%,10%,16%)" x1="353" x2="342" y1="428" y2="407" /><line stroke="rgb(10%,10%,16%)" x1="183" x2="161" y1="432" y2="423" /><line stroke="rgb(10%,10%,16%)" x1="271" x2="284" y1="435" y2="455" /><line stroke="rgb(10%,10%,16%)" x1="411" x2="411" y1="422" y2="446" /><line stroke="rgb(10%,10%,16%)" x1="497" x2="490" y1="27" y2="50" /><line stroke="rgb(10%,10%,16%)" x1="412" x2="428" y1="257" y2="275" /><line stroke="rgb(10%,10%,16%)" x1="27" x2="9" y1="472" y2="488" /><line stroke="rgb(10%,10%,16%)" x1="67" x2="57" y1="308" y2="330" /><line stroke="rgb(10%,10%,16%)" x1="161" x2="173" y1="249" y2="270" /><line stroke="rgb(10%,10%,16%)" x1="315" x2="318" y1="471" y2="447" /><line stroke="rgb(10%,10%,16%)" x1="53" x2="57" y1="306" y2="330" /><line stroke="rgb(10%,10%,16%)" x1="19" x2="27" y1="495" y2="472" /><line stroke="rgb(10%,10%,16%)" x1="420" x2="443" y1="67" y2="75" /><line stroke="rgb(10%,10%,16%)" x1="298" x2="312" y1="306" y2="326" /><line stroke="rgb(10%,10%,16%)" x1="156" x2="161" y1="447" y2="423" /><line stroke="rgb(10%,10%,16%)" x1="391" x2="382" y1="356" y2="379" /><line stroke="rgb(10%,10%,16%)" x1="347" x2="353" y1="452" y2="428" /><line stroke="rgb(10%,10%,16%)" x1="284" x2="283" y1="229" y2="204" /><line stroke="rgb(10%,10%,16%)" x1="135" x2="134" y1="327" y2="352" /><line stroke="rgb(10%,10%,16%)" x1="308" x2="318" y1="424" y2="447" /><line stroke="rgb(10%,10%,16%)" x1="60" x2="35" y1="197" y2="200" /><line stroke="rgb(10%,10%,16%)" x1="409" x2="406" y1="295" y2="270" /><line stroke="rgb(10%,10%,16%)" x1="485" x2="472" y1="406" y2="428" /><line stroke="rgb(10%,10%,16%)" x1="57" x2="35" y1="213" y2="200" /><line stroke="rgb(10%,10%,16%)" x1="466" x2="491" y1="253" y2="247" /><line stroke="rgb(10%,10%,16%)" x1="74" x2="51" y1="392" y2="404" /><line stroke="rgb(10%,10%,16%)" x1="362" x2="374" y1="324" y2="301" /><line stroke="rgb(10%,10%,16%)" x1="79" x2="104" y1="194" y2="187" /><line stroke="rgb(10%,10%,16%)" x1="353" x2="329" y1="428" y2="418" /><line stroke="rgb(10%,10%,16%)" x1="21" x2="22" y1="63" y2="37" /><line stroke="rgb(10%,10%,16%)" x1="220" x2="225" y1="44" y2="70" /><line stroke="rgb(10%,10%,16%)" x1="480" x2="456" y1="367" y2="355" /><line stroke="rgb(10%,10%,16%)" x1="50" x2="30" y1="118" y2="100" /><line stroke="rgb(10%,10%,16%)" x1="289" x2="279" y1="419" y2="394" /><line stroke="rgb(10%,10%,16%)" x1="490" x2="497" y1="1" y2="27" /><line stroke="rgb(10%,10%,16%)" x1="173" x2="166" y1="270" y2="244" /><line stroke="rgb(10%,10%,16%)" x1="475" x2="468" y1="183" y2="157" /><line stroke="rgb(10%,10%,16%)" x1="456" x2="472" y1="450" y2="428" /><line stroke="rgb(10%,10%,16%)" x1="38" x2="34" y1="435" y2="408" /><line stroke="rgb(10%,10%,16%)" x1="410" x2="383" y1="155" y2="159" /><line stroke="rgb(10%,10%,16%)" x1="210" x2="199" y1="216" y2="241" /><line stroke="rgb(10%,10%,16%)" x1="39" x2="24" y1="298" y2="275" /><line stroke="rgb(10%,10%,16%)" x1="428" x2="409" y1="275" y2="295" /><line stroke="rgb(10%,10%,16%)" x1="23" x2="5" y1="5" y2="26" /><line stroke="rgb(10%,10%,16%)" x1="100" x2="79" y1="169" y2="151" /><line stroke="rgb(10%,10%,16%)" x1="38" x2="50" y1="435" y2="410" /><line stroke="rgb(10%,10%,16%)" x1="100" x2="77" y1="169" y2="153" /><line stroke="rgb(10%,10%,16%)" x1="279" x2="268" y1="394" y2="420" /><line stroke="rgb(10%,10%,16%)" x1="225" x2="240" y1="419" y2="395" /><line stroke="rgb(10%,10%,16%)" x1="54" x2="35" y1="179" y2="200" /><line stroke="rgb(10%,10%,16%)" x1="28" x2="22" y1="28" y2="0" /><line stroke="rgb(10%,10%,16%)" x1="178" x2="184" y1="448" y2="476" /><line stroke="rgb(10%,10%,16%)" x1="93" x2="79" y1="219" y2="194" /><line stroke="rgb(10%,10%,16%)" x1="380" x2="353" y1="39" y2="49" /><line stroke="rgb(10%,10%,16%)" x1="499" x2="470" y1="368" y2="368" /><line stroke="rgb(10%,10%,16%)" x1="374" x2="403" y1="301" y2="301" /><line stroke="rgb(10%,10%,16%)" x1="445" x2="416" y1="12" y2="11" /><line stroke="rgb(10%,10%,16%)" x1="135" x2="106" y1="327" y2="329" /><line stroke="rgb(10%,10%,16%)" x1="57" x2="79" y1="213" y2="194" /><line stroke="rgb(10%,10%,16%)" x1="54" x2="79" y1="179" y2="194" /><line stroke="rgb(10%,10%,16%)" x1="243" x2="225" y1="47" y2="70" /><line stroke="rgb(10%,10%,16%)" x1="439" x2="443" y1="104" y2="75" /><line stroke="rgb(10%,10%,16%)" x1="427" x2="410" y1="179" y2="155" /><line stroke="rgb(10%,10%,16%)" x1="336" x2="353" y1="25" y2="49" /><line stroke="rgb(10%,10%,16%)" x1="445" x2="416" y1="12" y2="7" /><line stroke="rgb(10%,10%,16%)" x1="471" x2="466" y1="282" y2="253" /><line stroke="rgb(10%,10%,16%)" x1="318" x2="347" y1="447" y2="452" /><line stroke="rgb(10%,10%,16%)" x1="427" x2="449" y1="179" y2="159" /><line stroke="rgb(10%,10%,16%)" x1="296" x2="318" y1="467" y2="447" /><line stroke="rgb(10%,10%,16%)" x1="335" x2="342" y1="378" y2="407" /><line stroke="rgb(10%,10%,16%)" x1="353" x2="340" y1="49" y2="22" /><line stroke="rgb(10%,10%,16%)" x1="74" x2="50" y1="392" y2="410" /><line stroke="rgb(10%,10%,16%)" x1="480" x2="480" y1="367" y2="337" /><line stroke="rgb(10%,10%,16%)" x1="456" x2="480" y1="355" y2="337" /><line stroke="rgb(10%,10%,16%)" x1="156" x2="158" y1="447" y2="477" /><line stroke="rgb(10%,10%,16%)" x1="178" x2="161" y1="448" y2="423" /><line stroke="rgb(10%,10%,16%)" x1="486" x2="456" y1="455" y2="450" /><line stroke="rgb(10%,10%,16%)" x1="486" x2="472" y1="455" y2="428" /><line stroke="rgb(10%,10%,16%)" x1="318" x2="329" y1="447" y2="418" /><line stroke="rgb(10%,10%,16%)" x1="5" x2="22" y1="26" y2="0" /><line stroke="rgb(10%,10%,16%)" x1="156" x2="179" y1="447" y2="468" /><line stroke="rgb(10%,10%,16%)" x1="406" x2="403" y1="270" y2="301" /><line stroke="rgb(10%,10%,16%)" x1="315" x2="346" y1="166" y2="170" /><line stroke="rgb(10%,10%,16%)" x1="440" x2="456" y1="382" y2="355" /><line stroke="rgb(10%,10%,16%)" x1="369" x2="374" y1="270" y2="301" /><line stroke="rgb(10%,10%,16%)" x1="439" x2="449" y1="189" y2="159" /><line stroke="rgb(10%,10%,16%)" x1="315" x2="288" y1="166" y2="183" /><line stroke="rgb(10%,10%,16%)" x1="373" x2="403" y1="290" y2="301" /><line stroke="rgb(10%,10%,16%)" x1="443" x2="411" y1="447" y2="446" /><line stroke="rgb(10%,10%,16%)" x1="372" x2="340" y1="23" y2="22" /><line stroke="rgb(10%,10%,16%)" x1="132" x2="106" y1="348" y2="329" /><line stroke="rgb(10%,10%,16%)" x1="372" x2="353" y1="23" y2="49" /><line stroke="rgb(10%,10%,16%)" x1="74" x2="90" y1="392" y2="420" /><line stroke="rgb(10%,10%,16%)" x1="440" x2="455" y1="57" y2="28" /><line stroke="rgb(10%,10%,16%)" x1="100" x2="79" y1="169" y2="194" /><line stroke="rgb(10%,10%,16%)" x1="311" x2="312" y1="293" y2="326" /><line stroke="rgb(10%,10%,16%)" x1="30" x2="63" y1="100" y2="99" /><line stroke="rgb(10%,10%,16%)" x1="383" x2="350" y1="159" y2="161" /><line stroke="rgb(10%,10%,16%)" x1="440" x2="470" y1="382" y2="368" /><line stroke="rgb(10%,10%,16%)" x1="137" x2="107" y1="69" y2="55" /><line stroke="rgb(10%,10%,16%)" x1="199" x2="166" y1="241" y2="244" /><line stroke="rgb(10%,10%,16%)" x1="97" x2="94" y1="233" y2="266" /><line stroke="rgb(10%,10%,16%)" x1="289" x2="282" y1="419" y2="386" /><line stroke="rgb(10%,10%,16%)" x1="272" x2="283" y1="236" y2="204" /><line stroke="rgb(10%,10%,16%)" x1="93" x2="104" y1="219" y2="187" /><line stroke="rgb(10%,10%,16%)" x1="48" x2="24" y1="299" y2="275" /><line stroke="rgb(10%,10%,16%)" x1="284" x2="317" y1="229" y2="237" /><line stroke="rgb(10%,10%,16%)" x1="369" x2="377" y1="270" y2="237" /><line stroke="rgb(10%,10%,16%)" x1="380" x2="402" y1="39" y2="65" /><line stroke="rgb(10%,10%,16%)" x1="287" x2="284" y1="421" y2="455" /><line stroke="rgb(10%,10%,16%)" x1="443" x2="472" y1="447" y2="428" /><line stroke="rgb(10%,10%,16%)" x1="54" x2="77" y1="179" y2="153" /><line stroke="rgb(10%,10%,16%)" x1="318" x2="284" y1="447" y2="455" /><line stroke="rgb(10%,10%,16%)" x1="490" x2="490" y1="15" y2="50" /><line stroke="rgb(10%,10%,16%)" x1="411" x2="411" y1="411" y2="446" /><line stroke="rgb(10%,10%,16%)" x1="419" x2="410" y1="189" y2="155" /><line stroke="rgb(10%,10%,16%)" x1="315" x2="350" y1="166" y2="161" /><line stroke="rgb(10%,10%,16%)" x1="294" x2="263" y1="93" y2="110" /><line stroke="rgb(10%,10%,16%)" x1="475" x2="449" y1="183" y2="159" /><line stroke="rgb(10%,10%,16%)" x1="27" x2="61" y1="472" y2="482" /><line stroke="rgb(10%,10%,16%)" x1="28" x2="21" y1="28" y2="63" /><line stroke="rgb(10%,10%,16%)" x1="382" x2="348" y1="226" y2="215" /><line stroke="rgb(10%,10%,16%)" x1="61" x2="27" y1="484" y2="472" /><line stroke="rgb(10%,10%,16%)" x1="134" x2="106" y1="352" y2="329" /><line stroke="rgb(10%,10%,16%)" x1="499" x2="480" y1="368" y2="337" /><line stroke="rgb(10%,10%,16%)" x1="377" x2="348" y1="237" y2="215" /><line stroke="rgb(10%,10%,16%)" x1="439" x2="475" y1="189" y2="183" /><line stroke="rgb(10%,10%,16%)" x1="93" x2="57" y1="219" y2="213" /><line stroke="rgb(10%,10%,16%)" x1="56" x2="24" y1="257" y2="275" /><line stroke="rgb(10%,10%,16%)" x1="39" x2="57" y1="298" y2="330" /><line stroke="rgb(10%,10%,16%)" x1="268" x2="282" y1="420" y2="386" /><line stroke="rgb(10%,10%,16%)" x1="369" x2="406" y1="270" y2="270" /><line stroke="rgb(10%,10%,16%)" x1="484" x2="449" y1="147" y2="159" /><line stroke="rgb(10%,10%,16%)" x1="337" x2="308" y1="401" y2="424" /><line stroke="rgb(10%,10%,16%)" x1="391" x2="359" y1="356" y2="337" /><line stroke="rgb(10%,10%,16%)" x1="315" x2="347" y1="471" y2="452" /><line stroke="rgb(10%,10%,16%)" x1="490" x2="455" y1="15" y2="28" /><line stroke="rgb(10%,10%,16%)" x1="240" x2="268" y1="395" y2="420" /><line stroke="rgb(10%,10%,16%)" x1="152" x2="134" y1="385" y2="352" /><line stroke="rgb(10%,10%,16%)" x1="173" x2="181" y1="270" y2="307" /><line stroke="rgb(10%,10%,16%)" x1="317" x2="348" y1="237" y2="215" /><line stroke="rgb(10%,10%,16%)" x1="21" x2="30" y1="63" y2="100" /><line stroke="rgb(10%,10%,16%)" x1="434" x2="396" y1="116" y2="119" /><line stroke="rgb(10%,10%,16%)" x1="490" x2="484" y1="185" y2="147" /><line stroke="rgb(10%,10%,16%)" x1="347" x2="329" y1="452" y2="418" /><line stroke="rgb(10%,10%,16%)" x1="406" x2="373" y1="270" y2="290" /><line stroke="rgb(10%,10%,16%)" x1="38" x2="27" y1="435" y2="472" /><line stroke="rgb(10%,10%,16%)" x1="410" x2="396" y1="155" y2="119" /><line stroke="rgb(10%,10%,16%)" x1="440" x2="402" y1="57" y2="65" /><line stroke="rgb(10%,10%,16%)" x1="199" x2="173" y1="241" y2="270" /><line stroke="rgb(10%,10%,16%)" x1="374" x2="359" y1="301" y2="337" /><line stroke="rgb(10%,10%,16%)" x1="152" x2="161" y1="385" y2="423" /><line stroke="rgb(10%,10%,16%)" x1="56" x2="94" y1="257" y2="266" /><line stroke="rgb(10%,10%,16%)" x1="308" x2="284" y1="424" y2="455" /><line stroke="rgb(10%,10%,16%)" x1="410" x2="449" y1="155" y2="159" /><line stroke="rgb(10%,10%,16%)" x1="340" x2="353" y1="86" y2="49" /><line stroke="rgb(10%,10%,16%)" x1="97" x2="107" y1="17" y2="55" /><line stroke="rgb(10%,10%,16%)" x1="335" x2="313" y1="378" y2="345" /><line stroke="rgb(10%,10%,16%)" x1="210" x2="218" y1="216" y2="177" /><line stroke="rgb(10%,10%,16%)" x1="93" x2="108" y1="219" y2="182" /><line stroke="rgb(10%,10%,16%)" x1="366" x2="342" y1="439" y2="407" /><line stroke="rgb(10%,10%,16%)" x1="152" x2="153" y1="385" y2="425" /><line stroke="rgb(10%,10%,16%)" x1="412" x2="377" y1="257" y2="237" /><line stroke="rgb(10%,10%,16%)" x1="21" x2="5" y1="63" y2="26" /><line stroke="rgb(10%,10%,16%)" x1="471" x2="491" y1="282" y2="247" /><line stroke="rgb(10%,10%,16%)" x1="27" x2="67" y1="472" y2="466" /><line stroke="rgb(10%,10%,16%)" x1="499" x2="485" y1="368" y2="406" /><line stroke="rgb(10%,10%,16%)" x1="313" x2="347" y1="474" y2="452" /><line stroke="rgb(10%,10%,16%)" x1="130" x2="94" y1="285" y2="266" /><line stroke="rgb(10%,10%,16%)" x1="14" x2="35" y1="235" y2="200" /><line stroke="rgb(10%,10%,16%)" x1="485" x2="470" y1="406" y2="368" /><line stroke="rgb(10%,10%,16%)" x1="152" x2="193" y1="385" y2="386" /><line stroke="rgb(10%,10%,16%)" x1="440" x2="411" y1="382" y2="411" /><line stroke="rgb(10%,10%,16%)" x1="77" x2="79" y1="153" y2="194" /><line stroke="rgb(10%,10%,16%)" x1="237" x2="240" y1="354" y2="395" /><line stroke="rgb(10%,10%,16%)" x1="14" x2="24" y1="235" y2="275" /><line stroke="rgb(10%,10%,16%)" x1="50" x2="90" y1="410" y2="420" /><line stroke="rgb(10%,10%,16%)" x1="490" x2="455" y1="50" y2="28" /><line stroke="rgb(10%,10%,16%)" x1="439" x2="420" y1="104" y2="67" /><line stroke="rgb(10%,10%,16%)" x1="39" x2="5" y1="298" y2="322" /><line stroke="rgb(10%,10%,16%)" x1="471" x2="443" y1="416" y2="447" /><line stroke="rgb(10%,10%,16%)" x1="313" x2="298" y1="345" y2="306" /><line stroke="rgb(10%,10%,16%)" x1="396" x2="383" y1="119" y2="159" /><line stroke="rgb(10%,10%,16%)" x1="135" x2="130" y1="327" y2="285" /><line stroke="rgb(10%,10%,16%)" x1="38" x2="67" y1="435" y2="466" /><line stroke="rgb(10%,10%,16%)" x1="416" x2="455" y1="11" y2="28" /><line stroke="rgb(10%,10%,16%)" x1="56" x2="48" y1="257" y2="299" /><line stroke="rgb(10%,10%,16%)" x1="245" x2="225" y1="108" y2="70" /><line stroke="rgb(10%,10%,16%)" x1="240" x2="282" y1="395" y2="386" /><line stroke="rgb(10%,10%,16%)" x1="225" x2="268" y1="419" y2="420" /><line stroke="rgb(10%,10%,16%)" x1="74" x2="34" y1="392" y2="408" /><line stroke="rgb(10%,10%,16%)" x1="412" x2="382" y1="257" y2="226" /><line stroke="rgb(10%,10%,16%)" x1="411" x2="382" y1="411" y2="379" /><line stroke="rgb(10%,10%,16%)" x1="61" x2="19" y1="484" y2="495" /><line stroke="rgb(10%,10%,16%)" x1="428" x2="471" y1="275" y2="282" /><line stroke="rgb(10%,10%,16%)" x1="107" x2="137" y1="37" y2="69" /><line stroke="rgb(10%,10%,16%)" x1="428" x2="466" y1="275" y2="253" /><line stroke="rgb(10%,10%,16%)" x1="50" x2="79" y1="118" y2="151" /><line stroke="rgb(10%,10%,16%)" x1="377" x2="406" y1="237" y2="270" /><line stroke="rgb(10%,10%,16%)" x1="225" x2="183" y1="419" y2="432" /><line stroke="rgb(10%,10%,16%)" x1="183" x2="184" y1="432" y2="476" /><line stroke="rgb(10%,10%,16%)" x1="56" x2="57" y1="257" y2="213" /><line stroke="rgb(10%,10%,16%)" x1="50" x2="77" y1="118" y2="153" /><line stroke="rgb(10%,10%,16%)" x1="490" x2="455" y1="1" y2="28" /><line stroke="rgb(10%,10%,16%)" x1="67" x2="106" y1="308" y2="329" /><line stroke="rgb(10%,10%,16%)" x1="97" x2="57" y1="233" y2="213" /><line stroke="rgb(10%,10%,16%)" x1="272" x2="317" y1="236" y2="237" /><line stroke="rgb(10%,10%,16%)" x1="346" x2="348" y1="170" y2="215" /><line stroke="rgb(10%,10%,16%)" x1="456" x2="411" y1="450" y2="446" /><line stroke="rgb(10%,10%,16%)" x1="439" x2="396" y1="104" y2="119" /><line stroke="rgb(10%,10%,16%)" x1="434" x2="449" y1="116" y2="159" /><line stroke="rgb(10%,10%,16%)" x1="411" x2="366" y1="446" y2="439" /><line stroke="rgb(10%,10%,16%)" x1="173" x2="130" y1="270" y2="285" /><line stroke="rgb(10%,10%,16%)" x1="380" x2="416" y1="39" y2="11" /><line stroke="rgb(10%,10%,16%)" x1="416" x2="372" y1="11" y2="23" /><line stroke="rgb(10%,10%,16%)" x1="434" x2="410" y1="116" y2="155" /><line stroke="rgb(10%,10%,16%)" x1="180" x2="136" y1="123" y2="136" /><line stroke="rgb(10%,10%,16%)" x1="225" x2="193" y1="419" y2="386" /><line stroke="rgb(10%,10%,16%)" x1="471" x2="440" y1="416" y2="382" /><line stroke="rgb(10%,10%,16%)" x1="308" x2="282" y1="424" y2="386" /><line stroke="rgb(10%,10%,16%)" x1="284" x2="288" y1="229" y2="183" /><line stroke="rgb(10%,10%,16%)" x1="252" x2="298" y1="301" y2="297" /><line stroke="rgb(10%,10%,16%)" x1="367" x2="410" y1="172" y2="155" /><line stroke="rgb(10%,10%,16%)" x1="252" x2="298" y1="301" y2="306" /><line stroke="rgb(10%,10%,16%)" x1="445" x2="490" y1="12" y2="1" /><line stroke="rgb(10%,10%,16%)" x1="294" x2="340" y1="93" y2="86" /><line stroke="rgb(10%,10%,16%)" x1="313" x2="359" y1="345" y2="337" /><line stroke="rgb(10%,10%,16%)" x1="416" x2="372" y1="7" y2="23" /><line stroke="rgb(10%,10%,16%)" x1="335" x2="382" y1="378" y2="379" /><line stroke="rgb(10%,10%,16%)" x1="367" x2="348" y1="172" y2="215" /><line stroke="rgb(10%,10%,16%)" x1="183" x2="193" y1="432" y2="386" /><line stroke="rgb(10%,10%,16%)" x1="439" x2="456" y1="494" y2="450" /><line stroke="rgb(10%,10%,16%)" x1="489" x2="484" y1="100" y2="147" /><line stroke="rgb(10%,10%,16%)" x1="456" x2="450" y1="450" y2="497" /><line stroke="rgb(10%,10%,16%)" x1="251" x2="284" y1="489" y2="455" /><line stroke="rgb(10%,10%,16%)" x1="14" x2="56" y1="235" y2="257" /><line stroke="rgb(10%,10%,16%)" x1="56" x2="97" y1="257" y2="233" /><line stroke="rgb(10%,10%,16%)" x1="161" x2="130" y1="249" y2="285" /><line stroke="rgb(10%,10%,16%)" x1="335" x2="359" y1="378" y2="337" /><line stroke="rgb(10%,10%,16%)" x1="193" x2="240" y1="386" y2="395" /><line stroke="rgb(10%,10%,16%)" x1="359" x2="382" y1="337" y2="379" /><line stroke="rgb(10%,10%,16%)" x1="471" x2="470" y1="416" y2="368" /><line stroke="rgb(10%,10%,16%)" x1="443" x2="411" y1="447" y2="411" /><line stroke="rgb(10%,10%,16%)" x1="359" x2="312" y1="337" y2="326" /><line stroke="rgb(10%,10%,16%)" x1="14" x2="57" y1="235" y2="213" /><line stroke="rgb(10%,10%,16%)" x1="443" x2="455" y1="75" y2="28" /><line stroke="rgb(10%,10%,16%)" x1="225" x2="271" y1="419" y2="435" /><line stroke="rgb(10%,10%,16%)" x1="382" x2="342" y1="379" y2="407" /><line stroke="rgb(10%,10%,16%)" x1="100" x2="136" y1="169" y2="136" /><line stroke="rgb(10%,10%,16%)" x1="193" x2="161" y1="386" y2="423" /><line stroke="rgb(10%,10%,16%)" x1="486" x2="485" y1="455" y2="406" /><line stroke="rgb(10%,10%,16%)" x1="57" x2="106" y1="330" y2="329" /><line stroke="rgb(10%,10%,16%)" x1="439" x2="390" y1="494" y2="500" /><line stroke="rgb(10%,10%,16%)" x1="309" x2="317" y1="286" y2="237" /><line stroke="rgb(10%,10%,16%)" x1="67" x2="94" y1="308" y2="266" /><line stroke="rgb(10%,10%,16%)" x1="489" x2="490" y1="100" y2="50" /><line stroke="rgb(10%,10%,16%)" x1="362" x2="312" y1="324" y2="326" /><line stroke="rgb(10%,10%,16%)" x1="251" x2="296" y1="489" y2="467" /><line stroke="rgb(10%,10%,16%)" x1="130" x2="106" y1="285" y2="329" /><line stroke="rgb(10%,10%,16%)" x1="135" x2="181" y1="327" y2="307" /><line stroke="rgb(10%,10%,16%)" x1="439" x2="489" y1="104" y2="100" /><line stroke="rgb(10%,10%,16%)" x1="5" x2="24" y1="322" y2="275" /><line stroke="rgb(10%,10%,16%)" x1="218" x2="167" y1="177" y2="177" /><line stroke="rgb(10%,10%,16%)" x1="490" x2="439" y1="185" y2="189" /><line stroke="rgb(10%,10%,16%)" x1="294" x2="245" y1="93" y2="108" /><line stroke="rgb(10%,10%,16%)" x1="313" x2="282" y1="345" y2="386" /><line stroke="rgb(10%,10%,16%)" x1="167" x2="136" y1="177" y2="136" /><line stroke="rgb(10%,10%,16%)" x1="67" x2="90" y1="466" y2="420" /><line stroke="rgb(10%,10%,16%)" x1="402" x2="353" y1="65" y2="49" /><line stroke="rgb(10%,10%,16%)" x1="440" x2="416" y1="57" y2="11" /><line stroke="rgb(10%,10%,16%)" x1="210" x2="166" y1="216" y2="244" /><line stroke="rgb(10%,10%,16%)" x1="67" x2="56" y1="308" y2="257" /><line stroke="rgb(10%,10%,16%)" x1="97" x2="108" y1="233" y2="182" /><line stroke="rgb(10%,10%,16%)" x1="158" x2="153" y1="477" y2="425" /><line stroke="rgb(10%,10%,16%)" x1="419" x2="382" y1="189" y2="226" /><line stroke="rgb(10%,10%,16%)" x1="489" x2="443" y1="100" y2="75" /><line stroke="rgb(10%,10%,16%)" x1="225" x2="186" y1="70" y2="105" /><line stroke="rgb(10%,10%,16%)" x1="181" x2="136" y1="109" y2="136" /><line stroke="rgb(10%,10%,16%)" x1="5" x2="57" y1="322" y2="330" /><line stroke="rgb(10%,10%,16%)" x1="411" x2="366" y1="411" y2="439" /><line stroke="rgb(10%,10%,16%)" x1="443" x2="490" y1="75" y2="50" /><line stroke="rgb(10%,10%,16%)" x1="335" x2="308" y1="378" y2="424" /><line stroke="rgb(10%,10%,16%)" x1="335" x2="282" y1="378" y2="386" /><line stroke="rgb(10%,10%,16%)" x1="243" x2="190" y1="122" y2="114" /><line stroke="rgb(10%,10%,16%)" x1="439" x2="402" y1="104" y2="65" /><line stroke="rgb(10%,10%,16%)" x1="136" x2="108" y1="136" y2="182" /><line stroke="rgb(10%,10%,16%)" x1="38" x2="90" y1="435" y2="420" /><line stroke="rgb(10%,10%,16%)" x1="412" x2="466" y1="257" y2="253" /><line stroke="rgb(10%,10%,16%)" x1="111" x2="106" y1="275" y2="329" /><line stroke="rgb(10%,10%,16%)" x1="402" x2="396" y1="65" y2="119" /><line stroke="rgb(10%,10%,16%)" x1="79" x2="63" y1="151" y2="99" /><line stroke="rgb(10%,10%,16%)" x1="237" x2="193" y1="354" y2="386" /><line stroke="rgb(10%,10%,16%)" x1="369" x2="362" y1="270" y2="324" /><line stroke="rgb(10%,10%,16%)" x1="419" x2="367" y1="189" y2="172" /><line stroke="rgb(10%,10%,16%)" x1="67" x2="111" y1="308" y2="275" /><line stroke="rgb(10%,10%,16%)" x1="243" x2="225" y1="122" y2="70" /><line stroke="rgb(10%,10%,16%)" x1="252" x2="237" y1="301" y2="354" /><line stroke="rgb(10%,10%,16%)" x1="234" x2="181" y1="292" y2="307" /><line stroke="rgb(10%,10%,16%)" x1="237" x2="282" y1="354" y2="386" /><line stroke="rgb(10%,10%,16%)" x1="486" x2="450" y1="455" y2="497" /><line stroke="rgb(10%,10%,16%)" x1="21" x2="63" y1="63" y2="99" /><line stroke="rgb(10%,10%,16%)" x1="272" x2="288" y1="236" y2="183" /><line stroke="rgb(10%,10%,16%)" x1="182" x2="225" y1="105" y2="70" /><line stroke="rgb(10%,10%,16%)" x1="391" x2="440" y1="356" y2="382" /><line stroke="rgb(10%,10%,16%)" x1="182" x2="136" y1="105" y2="136" /><line stroke="rgb(10%,10%,16%)" x1="180" x2="167" y1="123" y2="177" /><line stroke="rgb(10%,10%,16%)" x1="130" x2="181" y1="285" y2="307" /><line stroke="rgb(10%,10%,16%)" x1="439" x2="411" y1="494" y2="446" /><line stroke="rgb(10%,10%,16%)" x1="471" x2="480" y1="282" y2="337" /><line stroke="rgb(10%,10%,16%)" x1="416" x2="402" y1="11" y2="65" /><line stroke="rgb(10%,10%,16%)" x1="439" x2="449" y1="104" y2="159" /><line stroke="rgb(10%,10%,16%)" x1="367" x2="382" y1="172" y2="226" /><line stroke="rgb(10%,10%,16%)" x1="190" x2="225" y1="114" y2="70" /><line stroke="rgb(10%,10%,16%)" x1="391" x2="403" y1="356" y2="301" /><line stroke="rgb(10%,10%,16%)" x1="311" x2="317" y1="293" y2="237" /><line stroke="rgb(10%,10%,16%)" x1="359" x2="403" y1="337" y2="301" /><line stroke="rgb(10%,10%,16%)" x1="271" x2="251" y1="435" y2="489" /><line stroke="rgb(10%,10%,16%)" x1="182" x2="137" y1="105" y2="69" /><line stroke="rgb(10%,10%,16%)" x1="390" x2="411" y1="500" y2="446" /><line stroke="rgb(10%,10%,16%)" x1="210" x2="167" y1="216" y2="177" /><line stroke="rgb(10%,10%,16%)" x1="440" x2="382" y1="382" y2="379" /><line stroke="rgb(10%,10%,16%)" x1="294" x2="243" y1="93" y2="122" /><line stroke="rgb(10%,10%,16%)" x1="369" x2="348" y1="270" y2="215" /><line stroke="rgb(10%,10%,16%)" x1="79" x2="136" y1="151" y2="136" /><line stroke="rgb(10%,10%,16%)" x1="252" x2="309" y1="301" y2="286" /><line stroke="rgb(10%,10%,16%)" x1="315" x2="348" y1="166" y2="215" /><line stroke="rgb(10%,10%,16%)" x1="167" x2="108" y1="177" y2="182" /><line stroke="rgb(10%,10%,16%)" x1="311" x2="362" y1="293" y2="324" /><line stroke="rgb(10%,10%,16%)" x1="450" x2="390" y1="497" y2="500" /><line stroke="rgb(10%,10%,16%)" x1="471" x2="411" y1="416" y2="411" /><line stroke="rgb(10%,10%,16%)" x1="38" x2="9" y1="435" y2="488" /><line stroke="rgb(10%,10%,16%)" x1="5" x2="18" y1="26" y2="85" /><line stroke="rgb(10%,10%,16%)" x1="243" x2="218" y1="122" y2="177" /><line stroke="rgb(10%,10%,16%)" x1="152" x2="135" y1="385" y2="327" /><line stroke="rgb(10%,10%,16%)" x1="243" x2="245" y1="47" y2="108" /><line stroke="rgb(10%,10%,16%)" x1="50" x2="54" y1="118" y2="179" /><line stroke="rgb(10%,10%,16%)" x1="336" x2="340" y1="25" y2="86" /><line stroke="rgb(10%,10%,16%)" x1="288" x2="317" y1="183" y2="237" /><line stroke="rgb(10%,10%,16%)" x1="369" x2="317" y1="270" y2="237" /><line stroke="rgb(10%,10%,16%)" x1="130" x2="97" y1="285" y2="233" /><line stroke="rgb(10%,10%,16%)" x1="199" x2="234" y1="241" y2="292" /><line stroke="rgb(10%,10%,16%)" x1="490" x2="491" y1="185" y2="247" /><line stroke="rgb(10%,10%,16%)" x1="237" x2="234" y1="354" y2="292" /><line stroke="rgb(10%,10%,16%)" x1="366" x2="382" y1="439" y2="379" /><line stroke="rgb(10%,10%,16%)" x1="272" x2="309" y1="236" y2="286" /><line stroke="rgb(10%,10%,16%)" x1="63" x2="107" y1="99" y2="55" /><line stroke="rgb(10%,10%,16%)" x1="439" x2="484" y1="104" y2="147" /><line stroke="rgb(10%,10%,16%)" x1="396" x2="350" y1="119" y2="161" /><line stroke="rgb(10%,10%,16%)" x1="311" x2="369" y1="293" y2="270" /><line stroke="rgb(10%,10%,16%)" x1="180" x2="243" y1="123" y2="122" /><line stroke="rgb(10%,10%,16%)" x1="90" x2="153" y1="420" y2="425" /><line stroke="rgb(10%,10%,16%)" x1="471" x2="409" y1="282" y2="295" /><line stroke="rgb(10%,10%,16%)" x1="391" x2="409" y1="356" y2="295" /><line stroke="rgb(10%,10%,16%)" x1="251" x2="313" y1="489" y2="474" /><line stroke="rgb(10%,10%,16%)" x1="411" x2="347" y1="446" y2="452" /><line stroke="rgb(10%,10%,16%)" x1="74" x2="57" y1="392" y2="330" /><line stroke="rgb(10%,10%,16%)" x1="390" x2="347" y1="500" y2="452" /><line stroke="rgb(10%,10%,16%)" x1="234" x2="173" y1="292" y2="270" /><line stroke="rgb(10%,10%,16%)" x1="340" x2="396" y1="86" y2="119" /><line stroke="rgb(10%,10%,16%)" x1="391" x2="456" y1="356" y2="355" /><line stroke="rgb(10%,10%,16%)" x1="210" x2="272" y1="216" y2="236" /><line stroke="rgb(10%,10%,16%)" x1="402" x2="340" y1="65" y2="86" /><line stroke="rgb(10%,10%,16%)" x1="97" x2="137" y1="17" y2="69" /><line stroke="rgb(10%,10%,16%)" x1="161" x2="97" y1="249" y2="233" /><line stroke="rgb(10%,10%,16%)" x1="180" x2="218" y1="123" y2="177" /><line stroke="rgb(10%,10%,16%)" x1="167" x2="166" y1="177" y2="244" /><line stroke="rgb(10%,10%,16%)" x1="137" x2="136" y1="69" y2="136" /><line stroke="rgb(10%,10%,16%)" x1="272" x2="234" y1="236" y2="292" /><line stroke="rgb(10%,10%,16%)" x1="439" x2="382" y1="189" y2="226" /><line stroke="rgb(10%,10%,16%)" x1="288" x2="348" y1="183" y2="215" /><line stroke="rgb(10%,10%,16%)" x1="272" x2="252" y1="236" y2="301" /><line stroke="rgb(10%,10%,16%)" x1="184" x2="251" y1="476" y2="489" /><line stroke="rgb(10%,10%,16%)" x1="243" x2="294" y1="47" y2="93" /><line stroke="rgb(10%,10%,16%)" x1="439" x2="466" y1="189" y2="253" /><line stroke="rgb(10%,10%,16%)" x1="28" x2="97" y1="28" y2="17" /><line stroke="rgb(10%,10%,16%)" x1="97" x2="166" y1="233" y2="244" /><line stroke="rgb(10%,10%,16%)" x1="225" x2="184" y1="419" y2="476" /><line stroke="rgb(10%,10%,16%)" x1="288" x2="218" y1="183" y2="177" /><line stroke="rgb(10%,10%,16%)" x1="61" x2="90" y1="484" y2="420" /><line stroke="rgb(10%,10%,16%)" x1="74" x2="106" y1="392" y2="329" /><line stroke="rgb(10%,10%,16%)" x1="152" x2="90" y1="385" y2="420" /><line stroke="rgb(10%,10%,16%)" x1="182" x2="220" y1="105" y2="44" /><line stroke="rgb(10%,10%,16%)" x1="74" x2="134" y1="392" y2="352" /><line stroke="rgb(10%,10%,16%)" x1="490" x2="466" y1="185" y2="253" /><line stroke="rgb(10%,10%,16%)" x1="237" x2="181" y1="354" y2="307" /><line stroke="rgb(10%,10%,16%)" x1="412" x2="439" y1="257" y2="189" /><line stroke="rgb(10%,10%,16%)" x1="272" x2="199" y1="236" y2="241" /><line stroke="rgb(10%,10%,16%)" x1="497" x2="489" y1="27" y2="100" /><line stroke="rgb(10%,10%,16%)" x1="490" x2="416" y1="1" y2="7" /><line stroke="rgb(10%,10%,16%)" x1="471" x2="456" y1="282" y2="355" /><line stroke="rgb(10%,10%,16%)" x1="225" x2="251" y1="419" y2="489" /><line stroke="rgb(10%,10%,16%)" x1="252" x2="313" y1="301" y2="345" /><line stroke="rgb(10%,10%,16%)" x1="340" x2="350" y1="86" y2="161" /><line stroke="rgb(10%,10%,16%)" x1="243" x2="288" y1="122" y2="183" /><line stroke="rgb(10%,10%,16%)" x1="315" x2="294" y1="166" y2="93" /><line stroke="rgb(10%,10%,16%)" x1="409" x2="456" y1="295" y2="355" /><line stroke="rgb(10%,10%,16%)" x1="237" x2="313" y1="354" y2="345" /><line stroke="rgb(10%,10%,16%)" x1="97" x2="22" y1="17" y2="0" /><line stroke="rgb(10%,10%,16%)" x1="416" x2="340" y1="7" y2="22" /><line stroke="rgb(10%,10%,16%)" x1="152" x2="74" y1="385" y2="392" /><line stroke="rgb(10%,10%,16%)" x1="28" x2="63" y1="28" y2="99" /><line stroke="rgb(10%,10%,16%)" x1="63" x2="137" y1="99" y2="69" /><line stroke="rgb(10%,10%,16%)" x1="193" x2="181" y1="386" y2="307" /><line stroke="rgb(10%,10%,16%)" x1="294" x2="336" y1="93" y2="25" /><line stroke="rgb(10%,10%,16%)" x1="272" x2="218" y1="236" y2="177" /><line stroke="rgb(10%,10%,16%)" x1="171" x2="251" y1="479" y2="489" /><line stroke="rgb(10%,10%,16%)" x1="390" x2="313" y1="500" y2="474" /><line stroke="rgb(10%,10%,16%)" x1="34" x2="57" y1="408" y2="330" /><line stroke="rgb(10%,10%,16%)" x1="63" x2="136" y1="99" y2="136" /><line stroke="rgb(10%,10%,16%)" x1="30" x2="54" y1="100" y2="179" /><line stroke="rgb(10%,10%,16%)" x1="135" x2="193" y1="327" y2="386" /><line stroke="rgb(10%,10%,16%)" x1="28" x2="107" y1="28" y2="55" /><line stroke="rgb(10%,10%,16%)" x1="315" x2="340" y1="166" y2="86" /><line stroke="rgb(10%,10%,16%)" x1="34" x2="9" y1="408" y2="488" /><line stroke="rgb(10%,10%,16%)" x1="315" x2="243" y1="166" y2="122" /><line stroke="rgb(10%,10%,16%)" x1="166" x2="108" y1="244" y2="182" /><line stroke="rgb(10%,10%,16%)" x1="490" x2="489" y1="185" y2="100" /><line stroke="rgb(10%,10%,16%)" x1="220" x2="137" y1="44" y2="69" /><line stroke="rgb(10%,10%,16%)" x1="14" x2="5" y1="235" y2="322" /><line stroke="rgb(10%,10%,16%)" x1="486" x2="499" y1="455" y2="368" /><line stroke="rgb(10%,10%,16%)" x1="158" x2="90" y1="477" y2="420" /><line stroke="rgb(10%,10%,16%)" x1="499" x2="471" y1="368" y2="282" /><line stroke="rgb(10%,10%,16%)" x1="34" x2="5" y1="408" y2="322" /><line stroke="rgb(10%,10%,16%)" x1="243" x2="336" y1="47" y2="25" /><line stroke="rgb(10%,10%,16%)" x1="61" x2="158" y1="484" y2="477" /><line stroke="rgb(10%,10%,16%)" x1="30" x2="35" y1="100" y2="200" /><line stroke="rgb(10%,10%,16%)" x1="243" x2="340" y1="47" y2="22" /><line stroke="rgb(10%,10%,16%)" x1="61" x2="171" y1="484" y2="479" /><line stroke="rgb(10%,10%,16%)" x1="35" x2="18" y1="200" y2="85" /><line stroke="rgb(10%,10%,16%)" x1="499" x2="491" y1="368" y2="247" /><line stroke="rgb(10%,10%,16%)" x1="220" x2="340" y1="44" y2="22" /><line stroke="rgb(10%,10%,16%)" x1="220" x2="97" y1="44" y2="17" /><line stroke="rgb(10%,10%,16%)" x1="390" x2="251" y1="500" y2="489" /><line stroke="rgb(10%,10%,16%)" x1="489" x2="491" y1="100" y2="247" /><line stroke="rgb(10%,10%,16%)" x1="14" x2="18" y1="235" y2="85" /><line stroke="rgb(10%,10%,16%)" x1="171" x2="19" y1="479" y2="495" /><line stroke="rgb(10%,10%,16%)" x1="5" x2="9" y1="322" y2="488" /><line stroke="rgb(10%,10%,16%)" x1="220" x2="416" y1="44" y2="7" /><line stroke="rgb(10%,10%,16%)" x1="220" x2="22" y1="44" y2="0" /><line stroke="rgb(10%,10%,16%)" x1="14" x2="5" y1="235" y2="26" /><line stroke="rgb(10%,10%,16%)" x1="497" x2="491" y1="27" y2="247" /><line stroke="rgb(10%,10%,16%)" x1="19" x2="251" y1="495" y2="489" /><line stroke="rgb(10%,10%,16%)" x1="5" x2="5" y1="26" y2="322" /><line stroke="rgb(10%,10%,16%)" x1="499" x2="497" y1="368" y2="27" /><line stroke="rgb(10%,10%,16%)" x1="19" x2="390" y1="495" y2="500" /><line stroke="rgb(10%,10%,16%)" x1="416" x2="22" y1="7" y2="0" /><line stroke="rgb(10%,10%,16%)" x1="490" x2="22" y1="1" y2="0" /><circle cx="412" cy="257" r="3" /><circle cx="380" cy="39" r="3" /><circle cx="23" cy="5" r="3" /><circle cx="490" cy="15" r="3" /><circle cx="61" cy="484" r="3" /><circle cx="391" cy="356" r="3" /><circle cx="440" cy="57" r="3" /><circle cx="182" cy="105" r="3" /><circle cx="171" cy="479" r="3" /><circle cx="67" cy="308" r="3" /><circle cx="284" cy="229" r="3" /><circle cx="486" cy="455" r="3" /><circle cx="445" cy="12" r="3" /><circle cx="287" cy="421" r="3" /><circle cx="53" cy="306" r="3" /><circle cx="152" cy="385" r="3" /><circle cx="74" cy="392" r="3" /><circle cx="38" cy="435" r="3" /><circle cx="315" cy="166" r="3" /><circle cx="19" cy="495" r="3" /><circle cx="210" cy="216" r="3" /><circle cx="499" cy="368" r="3" /><circle cx="439" cy="494" r="3" /><circle cx="456" cy="450" r="3" /><circle cx="135" cy="327" r="3" /><circle cx="225" cy="419" r="3" /><circle cx="289" cy="419" r="3" /><circle cx="100" cy="169" r="3" /><circle cx="28" cy="28" r="3" /><circle cx="272" cy="236" r="3" /><circle cx="427" cy="179" r="3" /><circle cx="428" cy="275" r="3" /><circle cx="50" cy="118" r="3" /><circle cx="439" cy="104" r="3" /><circle cx="450" cy="497" r="3" /><circle cx="21" cy="63" r="3" /><circle cx="311" cy="293" r="3" /><circle cx="51" cy="404" r="3" /><circle cx="14" cy="235" r="3" /><circle cx="30" cy="100" r="3" /><circle cx="156" cy="429" r="3" /><circle cx="79" cy="151" r="3" /><circle cx="369" cy="270" r="3" /><circle cx="243" cy="47" r="3" /><circle cx="434" cy="116" r="3" /><circle cx="471" cy="416" r="3" /><circle cx="220" cy="44" r="3" /><circle cx="252" cy="301" r="3" /><circle cx="440" cy="382" r="3" /><circle cx="443" cy="447" r="3" /><circle cx="156" cy="447" r="3" /><circle cx="132" cy="348" r="3" /><circle cx="490" cy="185" r="3" /><circle cx="362" cy="324" r="3" /><circle cx="178" cy="448" r="3" /><circle cx="411" cy="411" r="3" /><circle cx="183" cy="432" r="3" /><circle cx="411" cy="422" r="3" /><circle cx="374" cy="301" r="3" /><circle cx="5" cy="26" r="3" /><circle cx="56" cy="257" r="3" /><circle cx="27" cy="472" r="3" /><circle cx="67" cy="466" r="3" /><circle cx="237" cy="354" r="3" /><circle cx="199" cy="241" r="3" /><circle cx="416" cy="11" r="3" /><circle cx="294" cy="93" r="3" /><circle cx="263" cy="110" r="3" /><circle cx="283" cy="204" r="3" /><circle cx="420" cy="67" r="3" /><circle cx="390" cy="500" r="3" /><circle cx="490" cy="1" r="3" /><circle cx="497" cy="27" r="3" /><circle cx="111" cy="275" r="3" /><circle cx="471" cy="282" r="3" /><circle cx="411" cy="446" r="3" /><circle cx="22" cy="37" r="3" /><circle cx="485" cy="406" r="3" /><circle cx="161" cy="249" r="3" /><circle cx="271" cy="435" r="3" /><circle cx="402" cy="65" r="3" /><circle cx="107" cy="37" r="3" /><circle cx="193" cy="386" r="3" /><circle cx="181" cy="109" r="3" /><circle cx="335" cy="378" r="3" /><circle cx="298" cy="297" r="3" /><circle cx="184" cy="476" r="3" /><circle cx="313" cy="345" r="3" /><circle cx="60" cy="197" r="3" /><circle cx="245" cy="108" r="3" /><circle cx="251" cy="489" r="3" /><circle cx="337" cy="401" r="3" /><circle cx="439" cy="189" r="3" /><circle cx="180" cy="123" r="3" /><circle cx="54" cy="179" r="3" /><circle cx="243" cy="122" r="3" /><circle cx="309" cy="286" r="3" /><circle cx="466" cy="253" r="3" /><circle cx="234" cy="292" r="3" /><circle cx="63" cy="99" r="3" /><circle cx="134" cy="352" r="3" /><circle cx="97" cy="17" r="3" /><circle cx="489" cy="100" r="3" /><circle cx="485" cy="171" r="3" /><circle cx="409" cy="295" r="3" /><circle cx="288" cy="183" r="3" /><circle cx="315" cy="471" r="3" /><circle cx="50" cy="410" r="3" /><circle cx="485" cy="168" r="3" /><circle cx="240" cy="395" r="3" /><circle cx="279" cy="394" r="3" /><circle cx="377" cy="237" r="3" /><circle cx="443" cy="75" r="3" /><circle cx="218" cy="177" r="3" /><circle cx="308" cy="424" r="3" /><circle cx="366" cy="439" r="3" /><circle cx="158" cy="477" r="3" /><circle cx="472" cy="428" r="3" /><circle cx="173" cy="270" r="3" /><circle cx="296" cy="467" r="3" /><circle cx="317" cy="237" r="3" /><circle cx="313" cy="474" r="3" /><circle cx="336" cy="25" r="3" /><circle cx="340" cy="86" r="3" /><circle cx="48" cy="299" r="3" /><circle cx="416" cy="7" r="3" /><circle cx="167" cy="177" r="3" /><circle cx="268" cy="420" r="3" /><circle cx="90" cy="420" r="3" /><circle cx="480" cy="367" r="3" /><circle cx="22" cy="0" r="3" /><circle cx="318" cy="447" r="3" /><circle cx="39" cy="298" r="3" /><circle cx="419" cy="189" r="3" /><circle cx="93" cy="219" r="3" /><circle cx="367" cy="172" r="3" /><circle cx="130" cy="285" r="3" /><circle cx="347" cy="452" r="3" /><circle cx="410" cy="155" r="3" /><circle cx="396" cy="119" r="3" /><circle cx="34" cy="408" r="3" /><circle cx="346" cy="170" r="3" /><circle cx="383" cy="159" r="3" /><circle cx="350" cy="161" r="3" /><circle cx="372" cy="23" r="3" /><circle cx="97" cy="233" r="3" /><circle cx="57" cy="213" r="3" /><circle cx="475" cy="183" r="3" /><circle cx="468" cy="157" r="3" /><circle cx="353" cy="428" r="3" /><circle cx="284" cy="455" r="3" /><circle cx="77" cy="153" r="3" /><circle cx="79" cy="194" r="3" /><circle cx="166" cy="244" r="3" /><circle cx="456" cy="355" r="3" /><circle cx="190" cy="114" r="3" /><circle cx="298" cy="306" r="3" /><circle cx="480" cy="172" r="3" /><circle cx="35" cy="200" r="3" /><circle cx="406" cy="270" r="3" /><circle cx="329" cy="418" r="3" /><circle cx="359" cy="337" r="3" /><circle cx="137" cy="69" r="3" /><circle cx="181" cy="307" r="3" /><circle cx="107" cy="55" r="3" /><circle cx="382" cy="226" r="3" /><circle cx="491" cy="247" r="3" /><circle cx="104" cy="187" r="3" /><circle cx="353" cy="49" r="3" /><circle cx="5" cy="322" r="3" /><circle cx="57" cy="330" r="3" /><circle cx="484" cy="147" r="3" /><circle cx="278" cy="425" r="3" /><circle cx="490" cy="8" r="3" /><circle cx="179" cy="468" r="3" /><circle cx="153" cy="425" r="3" /><circle cx="340" cy="22" r="3" /><circle cx="480" cy="337" r="3" /><circle cx="61" cy="482" r="3" /><circle cx="348" cy="215" r="3" /><circle cx="449" cy="159" r="3" /><circle cx="382" cy="379" r="3" /><circle cx="24" cy="275" r="3" /><circle cx="312" cy="326" r="3" /><circle cx="373" cy="290" r="3" /><circle cx="490" cy="50" r="3" /><circle cx="106" cy="329" r="3" /><circle cx="470" cy="368" r="3" /><circle cx="282" cy="386" r="3" /><circle cx="136" cy="136" r="3" /><circle cx="342" cy="407" r="3" /><circle cx="108" cy="182" r="3" /><circle cx="18" cy="85" r="3" /><circle cx="94" cy="266" r="3" /><circle cx="225" cy="70" r="3" /><circle cx="186" cy="105" r="3" /><circle cx="455" cy="28" r="3" /><circle cx="9" cy="488" r="3" /><circle cx="403" cy="301" r="3" /><circle cx="161" cy="423" r="3" /></svg>