<?xml version="1.0" encoding="utf-8" ?>
<svg baseProfile="tiny" height="100%" version="1.2" width="100%" xmlns="http://www.w3.org/2000/svg" xmlns:ev="http://www.w3.org/2001/xml-events" xmlns:xlink="http://www.w3.org/1999/xlink"><defs /><circle cx="330.982" cy="1050.7131" r="3" /><circle cx="201.7457" cy="588.6149" r="3" /><circle cx="130.8991" cy="327.642" r="3" /><circle cx="166.5244" cy="599.0419" r="3" /><circle cx="128.134" cy="224.8819" r="3" /><circle cx="161.3367" cy="424.0271" r="3" /><circle cx="242.4785" cy="516.7289" r="3" /><circle cx="12.174" cy="241.924" r="3" /><circle cx="35.095" cy="82.6346" r="3" /><circle cx="283.1574" cy="819.7695" r="3" /><circle cx="169.8145" cy="269.7438" r="3" /><circle cx="204.7069" cy="586.8904" r="3" /><circle cx="305.6081" cy="1063.9569" r="3" /><circle cx="376.9275" cy="728.7397" r="3" /><circle cx="257.2039" cy="535.1815" r="3" /><circle cx="125.6095" cy="348.0281" r="3" /><circle cx="79.9386" cy="127.7531" r="3" /><circle cx="384.9444" cy="888.3382" r="3" /><circle cx="271.3173" cy="615.5007" r="3" /><circle cx="117.0325" cy="342.0475" r="3" /><circle cx="292.3098" cy="872.932" r="3" /><circle cx="215.5195" cy="580.8294" r="3" /><circle cx="61.3715" cy="73.6753" r="3" /><circle cx="123.6197" cy="331.615" r="3" /><circle cx="350.9568" cy="919.2101" r="3" /><circle cx="314.7717" cy="734.4487" r="3" /><circle cx="23.7828" cy="14.1339" r="3" /><circle cx="167.4003" cy="524.4131" r="3" /><circle cx="64.8693" cy="212.0197" r="3" /><circle cx="315.0621" cy="878.7064" r="3" /><circle cx="342.9553" cy="806.9865" r="3" /><circle cx="180.8594" cy="510.1554" r="3" /><circle cx="204.7567" cy="606.8983" r="3" /><circle cx="104.0966" cy="459.6608" r="3" /><circle cx="39.6552" cy="171.6501" r="3" /><circle cx="362.7929" cy="867.8703" r="3" /><circle cx="257.6132" cy="693.8547" r="3" /><circle cx="380.1669" cy="803.1348" r="3" /><circle cx="19.2015" cy="84.6868" r="3" /><circle cx="260.0444" cy="429.7346" r="3" /><circle cx="106.5644" cy="37.0602" r="3" /><circle cx="138.9867" cy="305.078" r="3" /><circle cx="13.9974" cy="184.075" r="3" /><circle cx="316.2137" cy="864.9908" r="3" /><circle cx="369.807" cy="850.1602" r="3" /><circle cx="396.4813" cy="1015.4237" r="3" /><circle cx="205.5345" cy="648.8468" r="3" /><circle cx="339.0738" cy="732.2461" r="3" /><circle cx="382.1738" cy="983.7546" r="3" /><circle cx="23.5323" cy="13.8187" r="3" /><circle cx="65.6196" cy="206.7501" r="3" /><circle cx="182.7045" cy="516.226" r="3" /><circle cx="100.9426" cy="273.0065" r="3" /><circle cx="362.8989" cy="802.5599" r="3" /><circle cx="378.6884" cy="1087.0082" r="3" /><circle cx="187.0374" cy="594.0145" r="3" /><circle cx="394.6928" cy="1023.7394" r="3" /><circle cx="397.9166" cy="1013.2364" r="3" /><circle cx="71.0966" cy="291.1009" r="3" /><circle cx="1.1258" cy="79.2068" r="3" /><circle cx="343.8243" cy="864.8897" r="3" /><circle cx="1.435" cy="81.3022" r="3" /><circle cx="227.2205" cy="597.945" r="3" /><circle cx="340.8478" cy="753.1073" r="3" /><circle cx="239.5101" cy="648.8961" r="3" /><circle cx="61.921" cy="327.4281" r="3" /><circle cx="156.393" cy="453.8252" r="3" /><circle cx="398.2093" cy="1144.8941" r="3" /><circle cx="14.1838" cy="91.5293" r="3" /><circle cx="169.396" cy="483.4944" r="3" /><circle cx="126.1492" cy="397.9509" r="3" /><circle cx="245.2001" cy="483.6286" r="3" /><circle cx="356.8122" cy="874.183" r="3" /><circle cx="118.5448" cy="259.3633" r="3" /><circle cx="234.6772" cy="493.9579" r="3" /><circle cx="266.212" cy="763.5283" r="3" /><circle cx="231.4985" cy="611.9057" r="3" /><circle cx="137.322" cy="202.9658" r="3" /><circle cx="0.0" cy="28.1811" r="3" /><circle cx="365.963" cy="876.4975" r="3" /><circle cx="205.0065" cy="608.1913" r="3" /><circle cx="178.4096" cy="522.5482" r="3" /><circle cx="88.3956" cy="174.979" r="3" /><circle cx="306.5014" cy="698.8142" r="3" /><circle cx="312.1554" cy="901.2847" r="3" /><circle cx="141.8354" cy="233.9887" r="3" /><circle cx="340.5309" cy="819.7878" r="3" /><circle cx="90.0118" cy="228.0997" r="3" /><circle cx="22.4554" cy="48.3139" r="3" /><circle cx="76.6013" cy="61.5016" r="3" /><circle cx="348.5392" cy="985.8886" r="3" /><circle cx="41.4291" cy="226.0502" r="3" /><circle cx="161.1837" cy="422.2969" r="3" /><circle cx="25.8076" cy="325.5109" r="3" /><circle cx="372.7714" cy="961.1847" r="3" /><circle cx="133.6494" cy="314.1044" r="3" /><circle cx="328.8469" cy="844.8991" r="3" /><circle cx="30.7099" cy="0.0" r="3" /><circle cx="324.5843" cy="846.1061" r="3" /><circle cx="170.3734" cy="404.9948" r="3" /></svg>