<?xml version="1.0" encoding="utf-8" ?>
<svg baseProfile="tiny" height="201px" version="1.2" width="201px" xmlns="http://www.w3.org/2000/svg" xmlns:ev="http://www.w3.org/2001/xml-events" xmlns:xlink="http://www.w3.org/1999/xlink"><defs /><line stroke="rgb(10%,10%,16%)" x1="200.1134" x2="200.1134" y1="0.1703" y2="200.1703" /><line stroke="rgb(10%,10%,16%)" x1="200.1134" x2="0.1134" y1="200.1703" y2="200.1703" /><line stroke="rgb(10%,10%,16%)" x1="0.1134" x2="0.1134" y1="200.1703" y2="0.1703" /><line stroke="rgb(10%,10%,16%)" x1="0.1134" x2="200.1134" y1="0.1703" y2="0.1703" /><line stroke="rgb(10%,10%,16%)" x1="200.1134" x2="200.1134" y1="0.1703" y2="50.1703" /><line stroke="rgb(10%,10%,16%)" x1="200.1134" x2="149.9431" y1="50.1703" y2="200.1134" /><line stroke="rgb(10%,10%,16%)" x1="149.9431" x2="0.0" y1="200.1134" y2="149.9431" /><line stroke="rgb(10%,10%,16%)" x1="0.0" x2="50.1703" y1="149.9431" y2="0.0" /><line stroke="rgb(10%,10%,16%)" x1="50.1703" x2="200.1134" y1="0.0" y2="50.1703" /><line stroke="rgb(10%,10%,16%)" x1="200.1134" x2="187.5708" y1="50.1703" y2="87.6561" /><line stroke="rgb(10%,10%,16%)" x1="187.5708" x2="112.344" y1="87.6561" y2="187.4855" /><line stroke="rgb(10%,10%,16%)" x1="112.344" x2="12.5145" y1="187.4855" y2="112.2586" /><line stroke="rgb(10%,10%,16%)" x1="12.5145" x2="87.7414" y1="112.2586" y2="12.4292" /><line stroke="rgb(10%,10%,16%)" x1="87.7414" x2="187.5708" y1="12.4292" y2="87.6561" /><line stroke="rgb(10%,10%,16%)" x1="187.5708" x2="168.7641" y1="87.6561" y2="112.6134" /><line stroke="rgb(10%,10%,16%)" x1="168.7641" x2="87.323" y1="112.6134" y2="168.5863" /><line stroke="rgb(10%,10%,16%)" x1="87.323" x2="31.3501" y1="168.5863" y2="87.1452" /><line stroke="rgb(10%,10%,16%)" x1="31.3501" x2="112.7912" y1="87.1452" y2="31.1723" /><line stroke="rgb(10%,10%,16%)" x1="112.7912" x2="168.7641" y1="31.1723" y2="112.6134" /><line stroke="rgb(10%,10%,16%)" x1="168.7641" x2="148.4038" y1="112.6134" y2="126.6066" /><line stroke="rgb(10%,10%,16%)" x1="148.4038" x2="73.3053" y1="126.6066" y2="148.1408" /><line stroke="rgb(10%,10%,16%)" x1="73.3053" x2="51.7711" y1="148.1408" y2="73.0422" /><line stroke="rgb(10%,10%,16%)" x1="51.7711" x2="126.8697" y1="73.0422" y2="51.5081" /><line stroke="rgb(10%,10%,16%)" x1="126.8697" x2="148.4038" y1="51.5081" y2="126.6066" /><line stroke="rgb(10%,10%,16%)" x1="148.4038" x2="129.6292" y1="126.6066" y2="131.9902" /><line stroke="rgb(10%,10%,16%)" x1="129.6292" x2="67.9247" y1="131.9902" y2="129.2961" /><line stroke="rgb(10%,10%,16%)" x1="67.9247" x2="70.6188" y1="129.2961" y2="67.5917" /><line stroke="rgb(10%,10%,16%)" x1="70.6188" x2="132.3233" y1="67.5917" y2="70.2857" /><line stroke="rgb(10%,10%,16%)" x1="132.3233" x2="129.6292" y1="70.2857" y2="131.9902" /><line stroke="rgb(10%,10%,16%)" x1="129.6292" x2="114.2031" y1="131.9902" y2="131.3167" /><line stroke="rgb(10%,10%,16%)" x1="114.2031" x2="68.6181" y1="131.3167" y2="113.8182" /><line stroke="rgb(10%,10%,16%)" x1="68.6181" x2="86.1165" y1="113.8182" y2="68.2333" /><line stroke="rgb(10%,10%,16%)" x1="86.1165" x2="131.7015" y1="68.2333" y2="85.7317" /><line stroke="rgb(10%,10%,16%)" x1="131.7015" x2="114.2031" y1="85.7317" y2="131.3167" /><line stroke="rgb(10%,10%,16%)" x1="114.2031" x2="102.8068" y1="131.3167" y2="126.9421" /><line stroke="rgb(10%,10%,16%)" x1="102.8068" x2="73.0206" y1="126.9421" y2="102.3882" /><line stroke="rgb(10%,10%,16%)" x1="73.0206" x2="97.5745" y1="102.3882" y2="72.6019" /><line stroke="rgb(10%,10%,16%)" x1="97.5745" x2="127.3607" y1="72.6019" y2="97.1558" /><line stroke="rgb(10%,10%,16%)" x1="127.3607" x2="102.8068" y1="97.1558" y2="126.9421" /><line stroke="rgb(10%,10%,16%)" x1="102.8068" x2="95.3603" y1="126.9421" y2="120.8036" /><line stroke="rgb(10%,10%,16%)" x1="95.3603" x2="79.1884" y1="120.8036" y2="94.9232" /><line stroke="rgb(10%,10%,16%)" x1="79.1884" x2="105.0688" y1="94.9232" y2="78.7514" /><line stroke="rgb(10%,10%,16%)" x1="105.0688" x2="121.2406" y1="78.7514" y2="104.6317" /><line stroke="rgb(10%,10%,16%)" x1="121.2406" x2="95.3603" y1="104.6317" y2="120.8036" /><line stroke="rgb(10%,10%,16%)" x1="95.3603" x2="91.3173" y1="120.8036" y2="114.3335" /><line stroke="rgb(10%,10%,16%)" x1="91.3173" x2="85.6851" y1="114.3335" y2="90.8738" /><line stroke="rgb(10%,10%,16%)" x1="85.6851" x2="109.1448" y1="90.8738" y2="85.2417" /><line stroke="rgb(10%,10%,16%)" x1="109.1448" x2="114.777" y1="85.2417" y2="108.7013" /><line stroke="rgb(10%,10%,16%)" x1="114.777" x2="91.3173" y1="108.7013" y2="114.3335" /><line stroke="rgb(10%,10%,16%)" x1="91.3173" x2="89.9093" y1="114.3335" y2="108.4686" /><line stroke="rgb(10%,10%,16%)" x1="89.9093" x2="91.5716" y1="108.4686" y2="89.4677" /><line stroke="rgb(10%,10%,16%)" x1="91.5716" x2="110.5725" y1="89.4677" y2="91.13" /><line stroke="rgb(10%,10%,16%)" x1="110.5725" x2="108.9102" y1="91.13" y2="110.1309" /><line stroke="rgb(10%,10%,16%)" x1="108.9102" x2="89.9093" y1="110.1309" y2="108.4686" /><line stroke="rgb(10%,10%,16%)" x1="89.9093" x2="90.3249" y1="108.4686" y2="103.7184" /><line stroke="rgb(10%,10%,16%)" x1="90.3249" x2="96.3376" y1="103.7184" y2="89.8901" /><line stroke="rgb(10%,10%,16%)" x1="96.3376" x2="110.1658" y1="89.8901" y2="95.9028" /><line stroke="rgb(10%,10%,16%)" x1="110.1658" x2="104.1531" y1="95.9028" y2="109.7311" /><line stroke="rgb(10%,10%,16%)" x1="104.1531" x2="90.3249" y1="109.7311" y2="103.7184" /><line stroke="rgb(10%,10%,16%)" x1="90.3249" x2="91.828" y1="103.7184" y2="100.2613" /><line stroke="rgb(10%,10%,16%)" x1="91.828" x2="99.8047" y1="100.2613" y2="91.4023" /><line stroke="rgb(10%,10%,16%)" x1="99.8047" x2="108.6637" y1="91.4023" y2="99.379" /><line stroke="rgb(10%,10%,16%)" x1="108.6637" x2="100.687" y1="99.379" y2="108.2379" /><line stroke="rgb(10%,10%,16%)" x1="100.687" x2="91.828" y1="108.2379" y2="100.2613" /><line stroke="rgb(10%,10%,16%)" x1="91.828" x2="93.8222" y1="100.2613" y2="98.0465" /><line stroke="rgb(10%,10%,16%)" x1="93.8222" x2="102.0247" y1="98.0465" y2="93.4058" /><line stroke="rgb(10%,10%,16%)" x1="102.0247" x2="106.6655" y1="93.4058" y2="101.6083" /><line stroke="rgb(10%,10%,16%)" x1="106.6655" x2="98.463" y1="101.6083" y2="106.2491" /><line stroke="rgb(10%,10%,16%)" x1="98.463" x2="93.8222" y1="106.2491" y2="98.0465" /><line stroke="rgb(10%,10%,16%)" x1="93.8222" x2="95.8728" y1="98.0465" y2="96.8864" /><line stroke="rgb(10%,10%,16%)" x1="95.8728" x2="103.1865" y1="96.8864" y2="95.4647" /><line stroke="rgb(10%,10%,16%)" x1="103.1865" x2="104.6082" y1="95.4647" y2="102.7784" /><line stroke="rgb(10%,10%,16%)" x1="104.6082" x2="97.2945" y1="102.7784" y2="104.2" /><line stroke="rgb(10%,10%,16%)" x1="97.2945" x2="95.8728" y1="104.2" y2="96.8864" /><line stroke="rgb(10%,10%,16%)" x1="95.8728" x2="97.7012" y1="96.8864" y2="96.5309" /></svg>
