<?xml version="1.0" encoding="utf-8" ?>
<svg baseProfile="tiny" height="100%" version="1.2" width="100%" xmlns="http://www.w3.org/2000/svg" xmlns:ev="http://www.w3.org/2001/xml-events" xmlns:xlink="http://www.w3.org/1999/xlink"><defs /><line stroke="rgb(10%,10%,16%)" x1="153" x2="153" y1="56" y2="6" /><line stroke="rgb(10%,10%,16%)" x1="153" x2="203" y1="6" y2="6" /><line stroke="rgb(10%,10%,16%)" x1="203" x2="203" y1="6" y2="56" /><line stroke="rgb(10%,10%,16%)" x1="203" x2="153" y1="56" y2="56" /><line stroke="rgb(10%,10%,16%)" x1="163" x2="182" y1="51" y2="0" /><line stroke="rgb(10%,10%,16%)" x1="182" x2="233" y1="0" y2="18" /><line stroke="rgb(10%,10%,16%)" x1="233" x2="215" y1="18" y2="70" /><line stroke="rgb(10%,10%,16%)" x1="215" x2="163" y1="70" y2="51" /><line stroke="rgb(10%,10%,16%)" x1="175" x2="214" y1="50" y2="3" /><line stroke="rgb(10%,10%,16%)" x1="214" x2="260" y1="3" y2="42" /><line stroke="rgb(10%,10%,16%)" x1="260" x2="222" y1="42" y2="89" /><line stroke="rgb(10%,10%,16%)" x1="222" x2="175" y1="89" y2="50" /><line stroke="rgb(10%,10%,16%)" x1="188" x2="246" y1="53" y2="20" /><line stroke="rgb(10%,10%,16%)" x1="246" x2="279" y1="20" y2="77" /><line stroke="rgb(10%,10%,16%)" x1="279" x2="222" y1="77" y2="111" /><line stroke="rgb(10%,10%,16%)" x1="222" x2="188" y1="111" y2="53" /><line stroke="rgb(10%,10%,16%)" x1="201" x2="273" y1="61" y2="48" /><line stroke="rgb(10%,10%,16%)" x1="273" x2="286" y1="48" y2="121" /><line stroke="rgb(10%,10%,16%)" x1="286" x2="213" y1="121" y2="133" /><line stroke="rgb(10%,10%,16%)" x1="213" x2="201" y1="133" y2="61" /><line stroke="rgb(10%,10%,16%)" x1="210" x2="290" y1="74" y2="88" /><line stroke="rgb(10%,10%,16%)" x1="290" x2="276" y1="88" y2="168" /><line stroke="rgb(10%,10%,16%)" x1="276" x2="197" y1="168" y2="154" /><line stroke="rgb(10%,10%,16%)" x1="197" x2="210" y1="154" y2="74" /><line stroke="rgb(10%,10%,16%)" x1="216" x2="292" y1="92" y2="136" /><line stroke="rgb(10%,10%,16%)" x1="292" x2="248" y1="136" y2="213" /><line stroke="rgb(10%,10%,16%)" x1="248" x2="171" y1="213" y2="168" /><line stroke="rgb(10%,10%,16%)" x1="171" x2="216" y1="168" y2="92" /><line stroke="rgb(10%,10%,16%)" x1="214" x2="277" y1="111" y2="186" /><line stroke="rgb(10%,10%,16%)" x1="277" x2="202" y1="186" y2="249" /><line stroke="rgb(10%,10%,16%)" x1="202" x2="140" y1="249" y2="174" /><line stroke="rgb(10%,10%,16%)" x1="140" x2="214" y1="174" y2="111" /><line stroke="rgb(10%,10%,16%)" x1="206" x2="242" y1="131" y2="232" /><line stroke="rgb(10%,10%,16%)" x1="242" x2="142" y1="232" y2="269" /><line stroke="rgb(10%,10%,16%)" x1="142" x2="105" y1="269" y2="168" /><line stroke="rgb(10%,10%,16%)" x1="105" x2="206" y1="168" y2="131" /><line stroke="rgb(10%,10%,16%)" x1="189" x2="189" y1="149" y2="267" /><line stroke="rgb(10%,10%,16%)" x1="189" x2="71" y1="267" y2="267" /><line stroke="rgb(10%,10%,16%)" x1="71" x2="71" y1="267" y2="149" /><line stroke="rgb(10%,10%,16%)" x1="71" x2="189" y1="149" y2="149" /><line stroke="rgb(10%,10%,16%)" x1="166" x2="121" y1="160" y2="282" /><line stroke="rgb(10%,10%,16%)" x1="121" x2="0" y1="282" y2="238" /><line stroke="rgb(10%,10%,16%)" x1="0" x2="44" y1="238" y2="116" /><line stroke="rgb(10%,10%,16%)" x1="44" x2="166" y1="116" y2="160" /></svg>