<?xml version="1.0" encoding="utf-8" ?>
<svg baseProfile="tiny" height="100%" version="1.2" width="100%" xmlns="http://www.w3.org/2000/svg" xmlns:ev="http://www.w3.org/2001/xml-events" xmlns:xlink="http://www.w3.org/1999/xlink"><defs /><line stroke="rgb(10%,10%,16%)" x1="53" x2="3" y1="132" y2="132" /><line stroke="rgb(10%,10%,16%)" x1="3" x2="3" y1="132" y2="82" /><line stroke="rgb(10%,10%,16%)" x1="3" x2="53" y1="82" y2="82" /><line stroke="rgb(10%,10%,16%)" x1="53" x2="53" y1="82" y2="132" /><line stroke="rgb(10%,10%,16%)" x1="51" x2="0" y1="120" y2="101" /><line stroke="rgb(10%,10%,16%)" x1="0" x2="18" y1="101" y2="49" /><line stroke="rgb(10%,10%,16%)" x1="18" x2="70" y1="49" y2="68" /><line stroke="rgb(10%,10%,16%)" x1="70" x2="51" y1="68" y2="120" /><line stroke="rgb(10%,10%,16%)" x1="54" x2="8" y1="106" y2="68" /><line stroke="rgb(10%,10%,16%)" x1="8" x2="47" y1="68" y2="21" /><line stroke="rgb(10%,10%,16%)" x1="47" x2="93" y1="21" y2="60" /><line stroke="rgb(10%,10%,16%)" x1="93" x2="54" y1="60" y2="106" /><line stroke="rgb(10%,10%,16%)" x1="63" x2="29" y1="94" y2="36" /><line stroke="rgb(10%,10%,16%)" x1="29" x2="87" y1="36" y2="3" /><line stroke="rgb(10%,10%,16%)" x1="87" x2="120" y1="3" y2="61" /><line stroke="rgb(10%,10%,16%)" x1="120" x2="63" y1="61" y2="94" /><line stroke="rgb(10%,10%,16%)" x1="76" x2="63" y1="84" y2="12" /><line stroke="rgb(10%,10%,16%)" x1="63" x2="135" y1="12" y2="0" /><line stroke="rgb(10%,10%,16%)" x1="135" x2="148" y1="0" y2="72" /><line stroke="rgb(10%,10%,16%)" x1="148" x2="76" y1="72" y2="84" /><line stroke="rgb(10%,10%,16%)" x1="93" x2="107" y1="79" y2="0" /><line stroke="rgb(10%,10%,16%)" x1="107" x2="186" y1="0" y2="14" /><line stroke="rgb(10%,10%,16%)" x1="186" x2="172" y1="14" y2="93" /><line stroke="rgb(10%,10%,16%)" x1="172" x2="93" y1="93" y2="79" /><line stroke="rgb(10%,10%,16%)" x1="113" x2="157" y1="80" y2="4" /><line stroke="rgb(10%,10%,16%)" x1="157" x2="234" y1="4" y2="48" /><line stroke="rgb(10%,10%,16%)" x1="234" x2="189" y1="48" y2="125" /><line stroke="rgb(10%,10%,16%)" x1="189" x2="113" y1="125" y2="80" /><line stroke="rgb(10%,10%,16%)" x1="133" x2="207" y1="89" y2="26" /><line stroke="rgb(10%,10%,16%)" x1="207" x2="270" y1="26" y2="101" /><line stroke="rgb(10%,10%,16%)" x1="270" x2="195" y1="101" y2="164" /><line stroke="rgb(10%,10%,16%)" x1="195" x2="133" y1="164" y2="89" /><line stroke="rgb(10%,10%,16%)" x1="150" x2="251" y1="106" y2="69" /><line stroke="rgb(10%,10%,16%)" x1="251" x2="287" y1="69" y2="170" /><line stroke="rgb(10%,10%,16%)" x1="287" x2="187" y1="170" y2="206" /><line stroke="rgb(10%,10%,16%)" x1="187" x2="150" y1="206" y2="106" /><line stroke="rgb(10%,10%,16%)" x1="162" x2="280" y1="129" y2="129" /><line stroke="rgb(10%,10%,16%)" x1="280" x2="280" y1="129" y2="247" /><line stroke="rgb(10%,10%,16%)" x1="280" x2="162" y1="247" y2="247" /><line stroke="rgb(10%,10%,16%)" x1="162" x2="162" y1="247" y2="129" /><line stroke="rgb(10%,10%,16%)" x1="165" x2="287" y1="158" y2="202" /><line stroke="rgb(10%,10%,16%)" x1="287" x2="243" y1="202" y2="324" /><line stroke="rgb(10%,10%,16%)" x1="243" x2="121" y1="324" y2="280" /><line stroke="rgb(10%,10%,16%)" x1="121" x2="165" y1="280" y2="158" /></svg>