<?xml version="1.0" encoding="utf-8" ?>
<svg baseProfile="tiny" height="431px" version="1.2" width="501px" xmlns="http://www.w3.org/2000/svg" xmlns:ev="http://www.w3.org/2001/xml-events" xmlns:xlink="http://www.w3.org/1999/xlink"><defs /><line stroke="rgb(10%,10%,16%)" x1="361" x2="396" y1="148" y2="179" /><line stroke="rgb(10%,10%,16%)" x1="396" x2="430" y1="179" y2="216" /><line stroke="rgb(10%,10%,16%)" x1="430" x2="498" y1="216" y2="373" /><line stroke="rgb(10%,10%,16%)" x1="498" x2="367" y1="373" y2="419" /><line stroke="rgb(10%,10%,16%)" x1="367" x2="294" y1="419" y2="428" /><line stroke="rgb(10%,10%,16%)" x1="294" x2="294" y1="428" y2="428" /><line stroke="rgb(10%,10%,16%)" x1="294" x2="181" y1="428" y2="385" /><line stroke="rgb(10%,10%,16%)" x1="181" x2="151" y1="385" y2="338" /><line stroke="rgb(10%,10%,16%)" x1="151" x2="143" y1="338" y2="324" /><line stroke="rgb(10%,10%,16%)" x1="143" x2="142" y1="324" y2="208" /><line stroke="rgb(10%,10%,16%)" x1="142" x2="181" y1="208" y2="166" /><line stroke="rgb(10%,10%,16%)" x1="181" x2="361" y1="166" y2="148" /><circle cx="361" cy="148" r="3" /><circle cx="181" cy="166" r="3" /><circle cx="309" cy="167" r="3" /><circle cx="263" cy="177" r="3" /><circle cx="225" cy="178" r="3" /><circle cx="396" cy="179" r="3" /><circle cx="335" cy="183" r="3" /><circle cx="267" cy="185" r="3" /><circle cx="358" cy="187" r="3" /><circle cx="260" cy="192" r="3" /><circle cx="281" cy="194" r="3" /><circle cx="273" cy="194" r="3" /><circle cx="204" cy="196" r="3" /><circle cx="291" cy="197" r="3" /><circle cx="298" cy="199" r="3" /><circle cx="330" cy="200" r="3" /><circle cx="300" cy="202" r="3" /><circle cx="290" cy="203" r="3" /><circle cx="310" cy="204" r="3" /><circle cx="339" cy="205" r="3" /><circle cx="325" cy="205" r="3" /><circle cx="272" cy="206" r="3" /><circle cx="279" cy="206" r="3" /><circle cx="142" cy="208" r="3" /><circle cx="238" cy="210" r="3" /><circle cx="317" cy="211" r="3" /><circle cx="242" cy="212" r="3" /><circle cx="233" cy="212" r="3" /><circle cx="297" cy="212" r="3" /><circle cx="430" cy="216" r="3" /><circle cx="236" cy="217" r="3" /><circle cx="312" cy="217" r="3" /><circle cx="333" cy="219" r="3" /><circle cx="323" cy="221" r="3" /><circle cx="235" cy="222" r="3" /><circle cx="305" cy="223" r="3" /><circle cx="257" cy="224" r="3" /><circle cx="372" cy="224" r="3" /><circle cx="352" cy="224" r="3" /><circle cx="234" cy="224" r="3" /><circle cx="259" cy="225" r="3" /><circle cx="324" cy="226" r="3" /><circle cx="205" cy="228" r="3" /><circle cx="276" cy="228" r="3" /><circle cx="226" cy="229" r="3" /><circle cx="327" cy="229" r="3" /><circle cx="325" cy="230" r="3" /><circle cx="189" cy="230" r="3" /><circle cx="357" cy="230" r="3" /><circle cx="398" cy="233" r="3" /><circle cx="305" cy="234" r="3" /><circle cx="301" cy="234" r="3" /><circle cx="216" cy="234" r="3" /><circle cx="285" cy="235" r="3" /><circle cx="371" cy="235" r="3" /><circle cx="211" cy="235" r="3" /><circle cx="210" cy="235" r="3" /><circle cx="306" cy="236" r="3" /><circle cx="311" cy="236" r="3" /><circle cx="353" cy="236" r="3" /><circle cx="349" cy="237" r="3" /><circle cx="260" cy="237" r="3" /><circle cx="219" cy="237" r="3" /><circle cx="333" cy="237" r="3" /><circle cx="290" cy="238" r="3" /><circle cx="319" cy="238" r="3" /><circle cx="339" cy="238" r="3" /><circle cx="357" cy="239" r="3" /><circle cx="269" cy="240" r="3" /><circle cx="266" cy="241" r="3" /><circle cx="272" cy="241" r="3" /><circle cx="301" cy="242" r="3" /><circle cx="266" cy="243" r="3" /><circle cx="331" cy="243" r="3" /><circle cx="335" cy="243" r="3" /><circle cx="233" cy="243" r="3" /><circle cx="258" cy="243" r="3" /><circle cx="302" cy="244" r="3" /><circle cx="332" cy="244" r="3" /><circle cx="275" cy="244" r="3" /><circle cx="343" cy="244" r="3" /><circle cx="291" cy="245" r="3" /><circle cx="263" cy="245" r="3" /><circle cx="286" cy="245" r="3" /><circle cx="390" cy="245" r="3" /><circle cx="417" cy="245" r="3" /><circle cx="246" cy="246" r="3" /><circle cx="288" cy="246" r="3" /><circle cx="376" cy="246" r="3" /><circle cx="314" cy="247" r="3" /><circle cx="269" cy="247" r="3" /><circle cx="278" cy="247" r="3" /><circle cx="278" cy="247" r="3" /><circle cx="293" cy="248" r="3" /><circle cx="252" cy="248" r="3" /><circle cx="285" cy="248" r="3" /><circle cx="314" cy="248" r="3" /><circle cx="224" cy="248" r="3" /><circle cx="207" cy="249" r="3" /><circle cx="389" cy="249" r="3" /><circle cx="356" cy="249" r="3" /><circle cx="319" cy="250" r="3" /><circle cx="209" cy="251" r="3" /><circle cx="351" cy="251" r="3" /><circle cx="384" cy="251" r="3" /><circle cx="318" cy="251" r="3" /><circle cx="357" cy="251" r="3" /><circle cx="359" cy="253" r="3" /><circle cx="288" cy="253" r="3" /><circle cx="430" cy="254" r="3" /><circle cx="352" cy="254" r="3" /><circle cx="226" cy="254" r="3" /><circle cx="255" cy="255" r="3" /><circle cx="410" cy="256" r="3" /><circle cx="332" cy="256" r="3" /><circle cx="329" cy="256" r="3" /><circle cx="330" cy="256" r="3" /><circle cx="316" cy="256" r="3" /><circle cx="259" cy="257" r="3" /><circle cx="250" cy="258" r="3" /><circle cx="376" cy="258" r="3" /><circle cx="188" cy="259" r="3" /><circle cx="266" cy="260" r="3" /><circle cx="285" cy="260" r="3" /><circle cx="338" cy="260" r="3" /><circle cx="238" cy="261" r="3" /><circle cx="318" cy="261" r="3" /><circle cx="330" cy="261" r="3" /><circle cx="349" cy="262" r="3" /><circle cx="300" cy="263" r="3" /><circle cx="314" cy="263" r="3" /><circle cx="289" cy="264" r="3" /><circle cx="277" cy="265" r="3" /><circle cx="379" cy="265" r="3" /><circle cx="298" cy="265" r="3" /><circle cx="258" cy="266" r="3" /><circle cx="381" cy="266" r="3" /><circle cx="287" cy="266" r="3" /><circle cx="302" cy="266" r="3" /><circle cx="219" cy="267" r="3" /><circle cx="341" cy="267" r="3" /><circle cx="284" cy="267" r="3" /><circle cx="343" cy="267" r="3" /><circle cx="302" cy="267" r="3" /><circle cx="312" cy="268" r="3" /><circle cx="276" cy="268" r="3" /><circle cx="250" cy="268" r="3" /><circle cx="293" cy="268" r="3" /><circle cx="194" cy="268" r="3" /><circle cx="294" cy="269" r="3" /><circle cx="278" cy="269" r="3" /><circle cx="253" cy="269" r="3" /><circle cx="365" cy="270" r="3" /><circle cx="322" cy="270" r="3" /><circle cx="305" cy="271" r="3" /><circle cx="359" cy="271" r="3" /><circle cx="412" cy="271" r="3" /><circle cx="321" cy="273" r="3" /><circle cx="333" cy="273" r="3" /><circle cx="263" cy="273" r="3" /><circle cx="317" cy="274" r="3" /><circle cx="244" cy="275" r="3" /><circle cx="328" cy="275" r="3" /><circle cx="325" cy="276" r="3" /><circle cx="342" cy="276" r="3" /><circle cx="227" cy="276" r="3" /><circle cx="322" cy="277" r="3" /><circle cx="269" cy="278" r="3" /><circle cx="260" cy="278" r="3" /><circle cx="222" cy="278" r="3" /><circle cx="317" cy="278" r="3" /><circle cx="355" cy="279" r="3" /><circle cx="227" cy="279" r="3" /><circle cx="346" cy="279" r="3" /><circle cx="326" cy="279" r="3" /><circle cx="385" cy="279" r="3" /><circle cx="252" cy="279" r="3" /><circle cx="241" cy="280" r="3" /><circle cx="314" cy="280" r="3" /><circle cx="175" cy="280" r="3" /><circle cx="299" cy="281" r="3" /><circle cx="316" cy="281" r="3" /><circle cx="322" cy="281" r="3" /><circle cx="321" cy="282" r="3" /><circle cx="318" cy="282" r="3" /><circle cx="309" cy="283" r="3" /><circle cx="294" cy="283" r="3" /><circle cx="242" cy="283" r="3" /><circle cx="276" cy="283" r="3" /><circle cx="266" cy="283" r="3" /><circle cx="338" cy="283" r="3" /><circle cx="274" cy="284" r="3" /><circle cx="283" cy="284" r="3" /><circle cx="386" cy="284" r="3" /><circle cx="270" cy="285" r="3" /><circle cx="392" cy="285" r="3" /><circle cx="299" cy="285" r="3" /><circle cx="348" cy="286" r="3" /><circle cx="247" cy="286" r="3" /><circle cx="286" cy="286" r="3" /><circle cx="304" cy="286" r="3" /><circle cx="308" cy="287" r="3" /><circle cx="310" cy="287" r="3" /><circle cx="410" cy="287" r="3" /><circle cx="353" cy="287" r="3" /><circle cx="307" cy="287" r="3" /><circle cx="279" cy="287" r="3" /><circle cx="300" cy="287" r="3" /><circle cx="355" cy="288" r="3" /><circle cx="255" cy="288" r="3" /><circle cx="396" cy="288" r="3" /><circle cx="277" cy="288" r="3" /><circle cx="286" cy="288" r="3" /><circle cx="253" cy="288" r="3" /><circle cx="250" cy="289" r="3" /><circle cx="284" cy="289" r="3" /><circle cx="348" cy="289" r="3" /><circle cx="247" cy="290" r="3" /><circle cx="321" cy="290" r="3" /><circle cx="233" cy="290" r="3" /><circle cx="298" cy="290" r="3" /><circle cx="279" cy="290" r="3" /><circle cx="229" cy="291" r="3" /><circle cx="272" cy="291" r="3" /><circle cx="280" cy="291" r="3" /><circle cx="277" cy="291" r="3" /><circle cx="356" cy="291" r="3" /><circle cx="265" cy="291" r="3" /><circle cx="234" cy="292" r="3" /><circle cx="247" cy="292" r="3" /><circle cx="362" cy="292" r="3" /><circle cx="340" cy="292" r="3" /><circle cx="374" cy="292" r="3" /><circle cx="422" cy="292" r="3" /><circle cx="216" cy="292" r="3" /><circle cx="299" cy="293" r="3" /><circle cx="297" cy="294" r="3" /><circle cx="366" cy="294" r="3" /><circle cx="265" cy="294" r="3" /><circle cx="411" cy="294" r="3" /><circle cx="271" cy="294" r="3" /><circle cx="263" cy="294" r="3" /><circle cx="331" cy="294" r="3" /><circle cx="285" cy="294" r="3" /><circle cx="361" cy="295" r="3" /><circle cx="243" cy="295" r="3" /><circle cx="276" cy="295" r="3" /><circle cx="316" cy="295" r="3" /><circle cx="364" cy="296" r="3" /><circle cx="255" cy="296" r="3" /><circle cx="283" cy="296" r="3" /><circle cx="305" cy="297" r="3" /><circle cx="303" cy="298" r="3" /><circle cx="301" cy="298" r="3" /><circle cx="180" cy="298" r="3" /><circle cx="329" cy="299" r="3" /><circle cx="297" cy="299" r="3" /><circle cx="329" cy="299" r="3" /><circle cx="309" cy="300" r="3" /><circle cx="361" cy="300" r="3" /><circle cx="219" cy="300" r="3" /><circle cx="316" cy="300" r="3" /><circle cx="207" cy="300" r="3" /><circle cx="396" cy="301" r="3" /><circle cx="321" cy="301" r="3" /><circle cx="278" cy="301" r="3" /><circle cx="232" cy="301" r="3" /><circle cx="309" cy="301" r="3" /><circle cx="337" cy="301" r="3" /><circle cx="397" cy="302" r="3" /><circle cx="248" cy="302" r="3" /><circle cx="352" cy="302" r="3" /><circle cx="308" cy="303" r="3" /><circle cx="336" cy="303" r="3" /><circle cx="267" cy="303" r="3" /><circle cx="323" cy="303" r="3" /><circle cx="303" cy="304" r="3" /><circle cx="361" cy="304" r="3" /><circle cx="283" cy="304" r="3" /><circle cx="326" cy="305" r="3" /><circle cx="277" cy="305" r="3" /><circle cx="288" cy="305" r="3" /><circle cx="257" cy="305" r="3" /><circle cx="337" cy="305" r="3" /><circle cx="263" cy="305" r="3" /><circle cx="367" cy="306" r="3" /><circle cx="202" cy="307" r="3" /><circle cx="261" cy="307" r="3" /><circle cx="338" cy="307" r="3" /><circle cx="287" cy="307" r="3" /><circle cx="374" cy="307" r="3" /><circle cx="273" cy="307" r="3" /><circle cx="259" cy="308" r="3" /><circle cx="311" cy="308" r="3" /><circle cx="363" cy="308" r="3" /><circle cx="314" cy="308" r="3" /><circle cx="273" cy="309" r="3" /><circle cx="332" cy="309" r="3" /><circle cx="274" cy="309" r="3" /><circle cx="358" cy="309" r="3" /><circle cx="296" cy="309" r="3" /><circle cx="230" cy="309" r="3" /><circle cx="310" cy="310" r="3" /><circle cx="348" cy="310" r="3" /><circle cx="266" cy="310" r="3" /><circle cx="275" cy="311" r="3" /><circle cx="309" cy="311" r="3" /><circle cx="322" cy="311" r="3" /><circle cx="329" cy="311" r="3" /><circle cx="297" cy="312" r="3" /><circle cx="310" cy="312" r="3" /><circle cx="258" cy="312" r="3" /><circle cx="285" cy="313" r="3" /><circle cx="276" cy="313" r="3" /><circle cx="240" cy="313" r="3" /><circle cx="289" cy="313" r="3" /><circle cx="223" cy="313" r="3" /><circle cx="266" cy="314" r="3" /><circle cx="225" cy="314" r="3" /><circle cx="236" cy="314" r="3" /><circle cx="308" cy="314" r="3" /><circle cx="348" cy="314" r="3" /><circle cx="227" cy="314" r="3" /><circle cx="298" cy="314" r="3" /><circle cx="324" cy="314" r="3" /><circle cx="231" cy="314" r="3" /><circle cx="402" cy="315" r="3" /><circle cx="326" cy="315" r="3" /><circle cx="271" cy="316" r="3" /><circle cx="332" cy="316" r="3" /><circle cx="310" cy="317" r="3" /><circle cx="254" cy="317" r="3" /><circle cx="322" cy="317" r="3" /><circle cx="285" cy="317" r="3" /><circle cx="271" cy="318" r="3" /><circle cx="314" cy="318" r="3" /><circle cx="434" cy="319" r="3" /><circle cx="263" cy="319" r="3" /><circle cx="224" cy="320" r="3" /><circle cx="362" cy="320" r="3" /><circle cx="309" cy="320" r="3" /><circle cx="355" cy="320" r="3" /><circle cx="269" cy="320" r="3" /><circle cx="310" cy="320" r="3" /><circle cx="239" cy="321" r="3" /><circle cx="225" cy="322" r="3" /><circle cx="388" cy="322" r="3" /><circle cx="276" cy="322" r="3" /><circle cx="287" cy="322" r="3" /><circle cx="341" cy="323" r="3" /><circle cx="322" cy="323" r="3" /><circle cx="280" cy="323" r="3" /><circle cx="143" cy="324" r="3" /><circle cx="266" cy="324" r="3" /><circle cx="310" cy="324" r="3" /><circle cx="219" cy="325" r="3" /><circle cx="187" cy="325" r="3" /><circle cx="300" cy="325" r="3" /><circle cx="286" cy="325" r="3" /><circle cx="344" cy="326" r="3" /><circle cx="228" cy="326" r="3" /><circle cx="315" cy="326" r="3" /><circle cx="263" cy="326" r="3" /><circle cx="398" cy="327" r="3" /><circle cx="325" cy="327" r="3" /><circle cx="348" cy="327" r="3" /><circle cx="176" cy="328" r="3" /><circle cx="322" cy="328" r="3" /><circle cx="303" cy="328" r="3" /><circle cx="320" cy="328" r="3" /><circle cx="273" cy="328" r="3" /><circle cx="343" cy="328" r="3" /><circle cx="268" cy="329" r="3" /><circle cx="259" cy="329" r="3" /><circle cx="378" cy="329" r="3" /><circle cx="393" cy="330" r="3" /><circle cx="221" cy="330" r="3" /><circle cx="327" cy="331" r="3" /><circle cx="231" cy="331" r="3" /><circle cx="324" cy="332" r="3" /><circle cx="217" cy="332" r="3" /><circle cx="305" cy="332" r="3" /><circle cx="320" cy="332" r="3" /><circle cx="247" cy="332" r="3" /><circle cx="319" cy="335" r="3" /><circle cx="369" cy="335" r="3" /><circle cx="295" cy="336" r="3" /><circle cx="318" cy="337" r="3" /><circle cx="309" cy="337" r="3" /><circle cx="352" cy="337" r="3" /><circle cx="227" cy="337" r="3" /><circle cx="151" cy="338" r="3" /><circle cx="279" cy="338" r="3" /><circle cx="264" cy="339" r="3" /><circle cx="382" cy="339" r="3" /><circle cx="271" cy="339" r="3" /><circle cx="383" cy="340" r="3" /><circle cx="265" cy="340" r="3" /><circle cx="345" cy="340" r="3" /><circle cx="390" cy="341" r="3" /><circle cx="334" cy="341" r="3" /><circle cx="261" cy="342" r="3" /><circle cx="367" cy="342" r="3" /><circle cx="339" cy="343" r="3" /><circle cx="260" cy="343" r="3" /><circle cx="391" cy="343" r="3" /><circle cx="240" cy="344" r="3" /><circle cx="210" cy="344" r="3" /><circle cx="287" cy="344" r="3" /><circle cx="215" cy="344" r="3" /><circle cx="238" cy="346" r="3" /><circle cx="224" cy="346" r="3" /><circle cx="268" cy="346" r="3" /><circle cx="301" cy="346" r="3" /><circle cx="290" cy="347" r="3" /><circle cx="275" cy="348" r="3" /><circle cx="354" cy="348" r="3" /><circle cx="353" cy="349" r="3" /><circle cx="294" cy="349" r="3" /><circle cx="330" cy="350" r="3" /><circle cx="267" cy="350" r="3" /><circle cx="327" cy="350" r="3" /><circle cx="303" cy="351" r="3" /><circle cx="332" cy="351" r="3" /><circle cx="290" cy="351" r="3" /><circle cx="247" cy="351" r="3" /><circle cx="371" cy="352" r="3" /><circle cx="332" cy="353" r="3" /><circle cx="325" cy="353" r="3" /><circle cx="344" cy="353" r="3" /><circle cx="303" cy="353" r="3" /><circle cx="261" cy="354" r="3" /><circle cx="400" cy="355" r="3" /><circle cx="278" cy="356" r="3" /><circle cx="385" cy="356" r="3" /><circle cx="304" cy="357" r="3" /><circle cx="188" cy="357" r="3" /><circle cx="261" cy="358" r="3" /><circle cx="367" cy="358" r="3" /><circle cx="306" cy="359" r="3" /><circle cx="262" cy="359" r="3" /><circle cx="237" cy="359" r="3" /><circle cx="276" cy="360" r="3" /><circle cx="188" cy="361" r="3" /><circle cx="204" cy="361" r="3" /><circle cx="388" cy="362" r="3" /><circle cx="381" cy="362" r="3" /><circle cx="259" cy="362" r="3" /><circle cx="358" cy="363" r="3" /><circle cx="266" cy="363" r="3" /><circle cx="287" cy="364" r="3" /><circle cx="277" cy="365" r="3" /><circle cx="359" cy="366" r="3" /><circle cx="237" cy="366" r="3" /><circle cx="232" cy="368" r="3" /><circle cx="314" cy="368" r="3" /><circle cx="320" cy="368" r="3" /><circle cx="288" cy="370" r="3" /><circle cx="278" cy="371" r="3" /><circle cx="309" cy="372" r="3" /><circle cx="498" cy="373" r="3" /><circle cx="225" cy="373" r="3" /><circle cx="233" cy="374" r="3" /><circle cx="325" cy="375" r="3" /><circle cx="267" cy="376" r="3" /><circle cx="323" cy="376" r="3" /><circle cx="367" cy="378" r="3" /><circle cx="274" cy="379" r="3" /><circle cx="345" cy="379" r="3" /><circle cx="285" cy="380" r="3" /><circle cx="302" cy="380" r="3" /><circle cx="213" cy="384" r="3" /><circle cx="331" cy="384" r="3" /><circle cx="341" cy="384" r="3" /><circle cx="343" cy="384" r="3" /><circle cx="181" cy="385" r="3" /><circle cx="219" cy="385" r="3" /><circle cx="324" cy="385" r="3" /><circle cx="356" cy="387" r="3" /><circle cx="310" cy="387" r="3" /><circle cx="318" cy="388" r="3" /><circle cx="298" cy="391" r="3" /><circle cx="281" cy="391" r="3" /><circle cx="301" cy="392" r="3" /><circle cx="309" cy="393" r="3" /><circle cx="328" cy="394" r="3" /><circle cx="301" cy="396" r="3" /><circle cx="295" cy="398" r="3" /><circle cx="289" cy="400" r="3" /><circle cx="335" cy="403" r="3" /><circle cx="309" cy="403" r="3" /><circle cx="339" cy="406" r="3" /><circle cx="270" cy="407" r="3" /><circle cx="316" cy="408" r="3" /><circle cx="312" cy="411" r="3" /><circle cx="319" cy="416" r="3" /><circle cx="322" cy="416" r="3" /><circle cx="367" cy="419" r="3" /><circle cx="330" cy="419" r="3" /><circle cx="294" cy="428" r="3" /></svg>
