<?xml version="1.0" encoding="utf-8" ?>
<svg baseProfile="tiny" height="664px" version="1.2" width="579px" xmlns="http://www.w3.org/2000/svg" xmlns:ev="http://www.w3.org/2001/xml-events" xmlns:xlink="http://www.w3.org/1999/xlink"><defs /><line stroke="rgb(10%,10%,16%)" x1="273" x2="317" y1="-29" y2="-19" /><line stroke="rgb(10%,10%,16%)" x1="317" x2="381" y1="-19" y2="42" /><line stroke="rgb(10%,10%,16%)" x1="381" x2="430" y1="42" y2="89" /><line stroke="rgb(10%,10%,16%)" x1="430" x2="472" y1="89" y2="140" /><line stroke="rgb(10%,10%,16%)" x1="472" x2="526" y1="140" y2="225" /><line stroke="rgb(10%,10%,16%)" x1="526" x2="569" y1="225" y2="315" /><line stroke="rgb(10%,10%,16%)" x1="569" x2="576" y1="315" y2="460" /><line stroke="rgb(10%,10%,16%)" x1="576" x2="494" y1="460" y2="528" /><line stroke="rgb(10%,10%,16%)" x1="494" x2="263" y1="528" y2="629" /><line stroke="rgb(10%,10%,16%)" x1="263" x2="263" y1="629" y2="629" /><line stroke="rgb(10%,10%,16%)" x1="263" x2="136" y1="629" y2="571" /><line stroke="rgb(10%,10%,16%)" x1="136" x2="23" y1="571" y2="477" /><line stroke="rgb(10%,10%,16%)" x1="23" x2="33" y1="477" y2="239" /><line stroke="rgb(10%,10%,16%)" x1="33" x2="82" y1="239" y2="88" /><line stroke="rgb(10%,10%,16%)" x1="82" x2="273" y1="88" y2="-29" /><circle cx="273" cy="-29" r="3" /><circle cx="317" cy="-19" r="3" /><circle cx="299" cy="34" r="3" /><circle cx="381" cy="42" r="3" /><circle cx="269" cy="59" r="3" /><circle cx="292" cy="71" r="3" /><circle cx="82" cy="88" r="3" /><circle cx="430" cy="89" r="3" /><circle cx="186" cy="93" r="3" /><circle cx="382" cy="95" r="3" /><circle cx="241" cy="98" r="3" /><circle cx="162" cy="99" r="3" /><circle cx="372" cy="99" r="3" /><circle cx="402" cy="102" r="3" /><circle cx="345" cy="103" r="3" /><circle cx="138" cy="105" r="3" /><circle cx="396" cy="105" r="3" /><circle cx="155" cy="108" r="3" /><circle cx="380" cy="116" r="3" /><circle cx="265" cy="118" r="3" /><circle cx="236" cy="120" r="3" /><circle cx="383" cy="121" r="3" /><circle cx="198" cy="123" r="3" /><circle cx="358" cy="127" r="3" /><circle cx="266" cy="128" r="3" /><circle cx="114" cy="128" r="3" /><circle cx="431" cy="130" r="3" /><circle cx="130" cy="132" r="3" /><circle cx="224" cy="132" r="3" /><circle cx="407" cy="135" r="3" /><circle cx="309" cy="138" r="3" /><circle cx="217" cy="138" r="3" /><circle cx="221" cy="140" r="3" /><circle cx="472" cy="140" r="3" /><circle cx="381" cy="143" r="3" /><circle cx="333" cy="145" r="3" /><circle cx="342" cy="146" r="3" /><circle cx="338" cy="147" r="3" /><circle cx="360" cy="148" r="3" /><circle cx="227" cy="148" r="3" /><circle cx="331" cy="150" r="3" /><circle cx="397" cy="151" r="3" /><circle cx="288" cy="159" r="3" /><circle cx="231" cy="160" r="3" /><circle cx="321" cy="160" r="3" /><circle cx="164" cy="161" r="3" /><circle cx="395" cy="162" r="3" /><circle cx="276" cy="163" r="3" /><circle cx="340" cy="163" r="3" /><circle cx="337" cy="164" r="3" /><circle cx="263" cy="165" r="3" /><circle cx="280" cy="166" r="3" /><circle cx="409" cy="167" r="3" /><circle cx="426" cy="167" r="3" /><circle cx="408" cy="168" r="3" /><circle cx="389" cy="169" r="3" /><circle cx="314" cy="169" r="3" /><circle cx="75" cy="170" r="3" /><circle cx="310" cy="171" r="3" /><circle cx="272" cy="172" r="3" /><circle cx="245" cy="174" r="3" /><circle cx="330" cy="174" r="3" /><circle cx="243" cy="175" r="3" /><circle cx="161" cy="179" r="3" /><circle cx="318" cy="179" r="3" /><circle cx="254" cy="181" r="3" /><circle cx="196" cy="181" r="3" /><circle cx="413" cy="182" r="3" /><circle cx="236" cy="184" r="3" /><circle cx="236" cy="185" r="3" /><circle cx="150" cy="186" r="3" /><circle cx="260" cy="187" r="3" /><circle cx="364" cy="192" r="3" /><circle cx="180" cy="193" r="3" /><circle cx="276" cy="194" r="3" /><circle cx="448" cy="195" r="3" /><circle cx="298" cy="195" r="3" /><circle cx="321" cy="196" r="3" /><circle cx="202" cy="197" r="3" /><circle cx="208" cy="197" r="3" /><circle cx="155" cy="197" r="3" /><circle cx="314" cy="197" r="3" /><circle cx="150" cy="198" r="3" /><circle cx="190" cy="199" r="3" /><circle cx="324" cy="200" r="3" /><circle cx="246" cy="201" r="3" /><circle cx="263" cy="204" r="3" /><circle cx="63" cy="204" r="3" /><circle cx="411" cy="205" r="3" /><circle cx="348" cy="205" r="3" /><circle cx="234" cy="206" r="3" /><circle cx="414" cy="207" r="3" /><circle cx="481" cy="209" r="3" /><circle cx="275" cy="209" r="3" /><circle cx="308" cy="210" r="3" /><circle cx="343" cy="210" r="3" /><circle cx="361" cy="211" r="3" /><circle cx="321" cy="212" r="3" /><circle cx="397" cy="212" r="3" /><circle cx="185" cy="213" r="3" /><circle cx="262" cy="214" r="3" /><circle cx="303" cy="215" r="3" /><circle cx="280" cy="216" r="3" /><circle cx="360" cy="217" r="3" /><circle cx="314" cy="217" r="3" /><circle cx="181" cy="221" r="3" /><circle cx="463" cy="221" r="3" /><circle cx="154" cy="221" r="3" /><circle cx="145" cy="222" r="3" /><circle cx="372" cy="222" r="3" /><circle cx="429" cy="224" r="3" /><circle cx="399" cy="225" r="3" /><circle cx="526" cy="225" r="3" /><circle cx="176" cy="226" r="3" /><circle cx="260" cy="227" r="3" /><circle cx="359" cy="227" r="3" /><circle cx="193" cy="228" r="3" /><circle cx="207" cy="229" r="3" /><circle cx="336" cy="229" r="3" /><circle cx="367" cy="229" r="3" /><circle cx="201" cy="230" r="3" /><circle cx="77" cy="230" r="3" /><circle cx="219" cy="231" r="3" /><circle cx="230" cy="231" r="3" /><circle cx="333" cy="232" r="3" /><circle cx="231" cy="233" r="3" /><circle cx="342" cy="233" r="3" /><circle cx="292" cy="235" r="3" /><circle cx="204" cy="236" r="3" /><circle cx="234" cy="236" r="3" /><circle cx="308" cy="238" r="3" /><circle cx="291" cy="238" r="3" /><circle cx="33" cy="239" r="3" /><circle cx="258" cy="240" r="3" /><circle cx="226" cy="240" r="3" /><circle cx="208" cy="242" r="3" /><circle cx="348" cy="242" r="3" /><circle cx="486" cy="242" r="3" /><circle cx="118" cy="243" r="3" /><circle cx="275" cy="243" r="3" /><circle cx="263" cy="243" r="3" /><circle cx="484" cy="243" r="3" /><circle cx="334" cy="244" r="3" /><circle cx="128" cy="245" r="3" /><circle cx="439" cy="246" r="3" /><circle cx="380" cy="247" r="3" /><circle cx="279" cy="248" r="3" /><circle cx="356" cy="249" r="3" /><circle cx="397" cy="249" r="3" /><circle cx="129" cy="250" r="3" /><circle cx="269" cy="250" r="3" /><circle cx="432" cy="251" r="3" /><circle cx="243" cy="251" r="3" /><circle cx="315" cy="251" r="3" /><circle cx="182" cy="252" r="3" /><circle cx="374" cy="252" r="3" /><circle cx="351" cy="252" r="3" /><circle cx="376" cy="253" r="3" /><circle cx="294" cy="253" r="3" /><circle cx="273" cy="254" r="3" /><circle cx="351" cy="254" r="3" /><circle cx="197" cy="254" r="3" /><circle cx="229" cy="254" r="3" /><circle cx="363" cy="254" r="3" /><circle cx="197" cy="255" r="3" /><circle cx="264" cy="255" r="3" /><circle cx="304" cy="255" r="3" /><circle cx="261" cy="257" r="3" /><circle cx="320" cy="258" r="3" /><circle cx="303" cy="259" r="3" /><circle cx="418" cy="259" r="3" /><circle cx="286" cy="259" r="3" /><circle cx="305" cy="259" r="3" /><circle cx="287" cy="260" r="3" /><circle cx="201" cy="260" r="3" /><circle cx="259" cy="261" r="3" /><circle cx="407" cy="261" r="3" /><circle cx="191" cy="261" r="3" /><circle cx="266" cy="261" r="3" /><circle cx="224" cy="264" r="3" /><circle cx="266" cy="264" r="3" /><circle cx="295" cy="265" r="3" /><circle cx="113" cy="265" r="3" /><circle cx="343" cy="265" r="3" /><circle cx="255" cy="266" r="3" /><circle cx="363" cy="267" r="3" /><circle cx="475" cy="268" r="3" /><circle cx="334" cy="268" r="3" /><circle cx="448" cy="269" r="3" /><circle cx="202" cy="270" r="3" /><circle cx="274" cy="270" r="3" /><circle cx="324" cy="270" r="3" /><circle cx="209" cy="270" r="3" /><circle cx="254" cy="270" r="3" /><circle cx="277" cy="271" r="3" /><circle cx="283" cy="271" r="3" /><circle cx="56" cy="271" r="3" /><circle cx="378" cy="271" r="3" /><circle cx="400" cy="272" r="3" /><circle cx="302" cy="272" r="3" /><circle cx="404" cy="273" r="3" /><circle cx="329" cy="273" r="3" /><circle cx="503" cy="274" r="3" /><circle cx="317" cy="274" r="3" /><circle cx="341" cy="275" r="3" /><circle cx="240" cy="275" r="3" /><circle cx="520" cy="276" r="3" /><circle cx="342" cy="276" r="3" /><circle cx="373" cy="276" r="3" /><circle cx="392" cy="277" r="3" /><circle cx="165" cy="277" r="3" /><circle cx="221" cy="278" r="3" /><circle cx="238" cy="278" r="3" /><circle cx="340" cy="279" r="3" /><circle cx="205" cy="280" r="3" /><circle cx="357" cy="282" r="3" /><circle cx="289" cy="282" r="3" /><circle cx="120" cy="282" r="3" /><circle cx="268" cy="282" r="3" /><circle cx="327" cy="283" r="3" /><circle cx="192" cy="284" r="3" /><circle cx="226" cy="284" r="3" /><circle cx="300" cy="284" r="3" /><circle cx="308" cy="284" r="3" /><circle cx="152" cy="285" r="3" /><circle cx="417" cy="285" r="3" /><circle cx="301" cy="286" r="3" /><circle cx="174" cy="286" r="3" /><circle cx="286" cy="286" r="3" /><circle cx="317" cy="287" r="3" /><circle cx="287" cy="290" r="3" /><circle cx="206" cy="290" r="3" /><circle cx="345" cy="291" r="3" /><circle cx="298" cy="292" r="3" /><circle cx="424" cy="292" r="3" /><circle cx="304" cy="294" r="3" /><circle cx="327" cy="295" r="3" /><circle cx="378" cy="295" r="3" /><circle cx="216" cy="297" r="3" /><circle cx="86" cy="297" r="3" /><circle cx="362" cy="297" r="3" /><circle cx="186" cy="297" r="3" /><circle cx="274" cy="298" r="3" /><circle cx="252" cy="299" r="3" /><circle cx="259" cy="299" r="3" /><circle cx="435" cy="300" r="3" /><circle cx="293" cy="300" r="3" /><circle cx="250" cy="300" r="3" /><circle cx="357" cy="301" r="3" /><circle cx="308" cy="302" r="3" /><circle cx="445" cy="302" r="3" /><circle cx="83" cy="303" r="3" /><circle cx="234" cy="303" r="3" /><circle cx="315" cy="303" r="3" /><circle cx="203" cy="304" r="3" /><circle cx="236" cy="305" r="3" /><circle cx="304" cy="305" r="3" /><circle cx="282" cy="306" r="3" /><circle cx="395" cy="307" r="3" /><circle cx="326" cy="307" r="3" /><circle cx="291" cy="307" r="3" /><circle cx="393" cy="308" r="3" /><circle cx="461" cy="308" r="3" /><circle cx="346" cy="308" r="3" /><circle cx="337" cy="309" r="3" /><circle cx="132" cy="310" r="3" /><circle cx="361" cy="310" r="3" /><circle cx="419" cy="310" r="3" /><circle cx="266" cy="310" r="3" /><circle cx="297" cy="311" r="3" /><circle cx="253" cy="311" r="3" /><circle cx="275" cy="311" r="3" /><circle cx="381" cy="312" r="3" /><circle cx="322" cy="313" r="3" /><circle cx="187" cy="313" r="3" /><circle cx="206" cy="314" r="3" /><circle cx="339" cy="314" r="3" /><circle cx="569" cy="315" r="3" /><circle cx="364" cy="315" r="3" /><circle cx="451" cy="316" r="3" /><circle cx="467" cy="316" r="3" /><circle cx="393" cy="316" r="3" /><circle cx="90" cy="317" r="3" /><circle cx="278" cy="318" r="3" /><circle cx="359" cy="318" r="3" /><circle cx="247" cy="318" r="3" /><circle cx="331" cy="319" r="3" /><circle cx="321" cy="320" r="3" /><circle cx="357" cy="320" r="3" /><circle cx="301" cy="320" r="3" /><circle cx="217" cy="321" r="3" /><circle cx="368" cy="321" r="3" /><circle cx="314" cy="321" r="3" /><circle cx="346" cy="322" r="3" /><circle cx="329" cy="322" r="3" /><circle cx="269" cy="322" r="3" /><circle cx="339" cy="323" r="3" /><circle cx="332" cy="323" r="3" /><circle cx="390" cy="323" r="3" /><circle cx="307" cy="323" r="3" /><circle cx="383" cy="323" r="3" /><circle cx="197" cy="324" r="3" /><circle cx="358" cy="324" r="3" /><circle cx="238" cy="328" r="3" /><circle cx="348" cy="328" r="3" /><circle cx="304" cy="330" r="3" /><circle cx="352" cy="330" r="3" /><circle cx="400" cy="332" r="3" /><circle cx="461" cy="333" r="3" /><circle cx="254" cy="335" r="3" /><circle cx="194" cy="335" r="3" /><circle cx="383" cy="336" r="3" /><circle cx="406" cy="336" r="3" /><circle cx="348" cy="336" r="3" /><circle cx="234" cy="337" r="3" /><circle cx="364" cy="337" r="3" /><circle cx="280" cy="337" r="3" /><circle cx="351" cy="337" r="3" /><circle cx="190" cy="338" r="3" /><circle cx="350" cy="338" r="3" /><circle cx="364" cy="339" r="3" /><circle cx="142" cy="339" r="3" /><circle cx="324" cy="339" r="3" /><circle cx="339" cy="339" r="3" /><circle cx="347" cy="341" r="3" /><circle cx="181" cy="341" r="3" /><circle cx="244" cy="342" r="3" /><circle cx="418" cy="342" r="3" /><circle cx="314" cy="342" r="3" /><circle cx="244" cy="343" r="3" /><circle cx="482" cy="343" r="3" /><circle cx="242" cy="343" r="3" /><circle cx="285" cy="344" r="3" /><circle cx="240" cy="345" r="3" /><circle cx="424" cy="345" r="3" /><circle cx="275" cy="345" r="3" /><circle cx="293" cy="345" r="3" /><circle cx="344" cy="345" r="3" /><circle cx="152" cy="347" r="3" /><circle cx="131" cy="347" r="3" /><circle cx="372" cy="347" r="3" /><circle cx="374" cy="348" r="3" /><circle cx="375" cy="350" r="3" /><circle cx="277" cy="351" r="3" /><circle cx="152" cy="351" r="3" /><circle cx="250" cy="352" r="3" /><circle cx="210" cy="353" r="3" /><circle cx="295" cy="354" r="3" /><circle cx="150" cy="354" r="3" /><circle cx="311" cy="355" r="3" /><circle cx="381" cy="356" r="3" /><circle cx="360" cy="358" r="3" /><circle cx="370" cy="358" r="3" /><circle cx="326" cy="359" r="3" /><circle cx="290" cy="359" r="3" /><circle cx="387" cy="360" r="3" /><circle cx="401" cy="360" r="3" /><circle cx="224" cy="361" r="3" /><circle cx="280" cy="361" r="3" /><circle cx="319" cy="361" r="3" /><circle cx="230" cy="362" r="3" /><circle cx="245" cy="362" r="3" /><circle cx="336" cy="363" r="3" /><circle cx="221" cy="364" r="3" /><circle cx="209" cy="364" r="3" /><circle cx="396" cy="364" r="3" /><circle cx="385" cy="364" r="3" /><circle cx="266" cy="365" r="3" /><circle cx="104" cy="367" r="3" /><circle cx="400" cy="369" r="3" /><circle cx="421" cy="369" r="3" /><circle cx="397" cy="370" r="3" /><circle cx="276" cy="371" r="3" /><circle cx="366" cy="372" r="3" /><circle cx="336" cy="372" r="3" /><circle cx="368" cy="373" r="3" /><circle cx="403" cy="374" r="3" /><circle cx="408" cy="374" r="3" /><circle cx="416" cy="375" r="3" /><circle cx="125" cy="375" r="3" /><circle cx="257" cy="376" r="3" /><circle cx="455" cy="376" r="3" /><circle cx="215" cy="377" r="3" /><circle cx="173" cy="377" r="3" /><circle cx="368" cy="377" r="3" /><circle cx="271" cy="378" r="3" /><circle cx="228" cy="378" r="3" /><circle cx="185" cy="379" r="3" /><circle cx="355" cy="379" r="3" /><circle cx="235" cy="380" r="3" /><circle cx="356" cy="380" r="3" /><circle cx="229" cy="382" r="3" /><circle cx="423" cy="383" r="3" /><circle cx="351" cy="383" r="3" /><circle cx="299" cy="384" r="3" /><circle cx="230" cy="384" r="3" /><circle cx="507" cy="385" r="3" /><circle cx="267" cy="385" r="3" /><circle cx="168" cy="385" r="3" /><circle cx="402" cy="385" r="3" /><circle cx="214" cy="386" r="3" /><circle cx="360" cy="388" r="3" /><circle cx="310" cy="389" r="3" /><circle cx="247" cy="389" r="3" /><circle cx="304" cy="389" r="3" /><circle cx="234" cy="391" r="3" /><circle cx="352" cy="391" r="3" /><circle cx="199" cy="394" r="3" /><circle cx="280" cy="395" r="3" /><circle cx="263" cy="396" r="3" /><circle cx="97" cy="396" r="3" /><circle cx="448" cy="397" r="3" /><circle cx="371" cy="398" r="3" /><circle cx="263" cy="399" r="3" /><circle cx="288" cy="400" r="3" /><circle cx="432" cy="400" r="3" /><circle cx="362" cy="400" r="3" /><circle cx="343" cy="401" r="3" /><circle cx="312" cy="402" r="3" /><circle cx="366" cy="405" r="3" /><circle cx="524" cy="405" r="3" /><circle cx="321" cy="406" r="3" /><circle cx="292" cy="407" r="3" /><circle cx="402" cy="408" r="3" /><circle cx="291" cy="408" r="3" /><circle cx="275" cy="408" r="3" /><circle cx="139" cy="410" r="3" /><circle cx="66" cy="413" r="3" /><circle cx="473" cy="414" r="3" /><circle cx="170" cy="415" r="3" /><circle cx="234" cy="415" r="3" /><circle cx="416" cy="415" r="3" /><circle cx="333" cy="415" r="3" /><circle cx="389" cy="419" r="3" /><circle cx="398" cy="419" r="3" /><circle cx="209" cy="420" r="3" /><circle cx="266" cy="422" r="3" /><circle cx="339" cy="422" r="3" /><circle cx="303" cy="423" r="3" /><circle cx="325" cy="424" r="3" /><circle cx="446" cy="425" r="3" /><circle cx="117" cy="425" r="3" /><circle cx="324" cy="428" r="3" /><circle cx="259" cy="428" r="3" /><circle cx="140" cy="429" r="3" /><circle cx="334" cy="430" r="3" /><circle cx="219" cy="430" r="3" /><circle cx="434" cy="432" r="3" /><circle cx="115" cy="433" r="3" /><circle cx="123" cy="435" r="3" /><circle cx="345" cy="436" r="3" /><circle cx="252" cy="436" r="3" /><circle cx="237" cy="437" r="3" /><circle cx="390" cy="437" r="3" /><circle cx="237" cy="438" r="3" /><circle cx="268" cy="438" r="3" /><circle cx="174" cy="441" r="3" /><circle cx="360" cy="444" r="3" /><circle cx="437" cy="447" r="3" /><circle cx="364" cy="448" r="3" /><circle cx="239" cy="449" r="3" /><circle cx="196" cy="450" r="3" /><circle cx="153" cy="451" r="3" /><circle cx="254" cy="452" r="3" /><circle cx="235" cy="453" r="3" /><circle cx="389" cy="454" r="3" /><circle cx="285" cy="455" r="3" /><circle cx="257" cy="456" r="3" /><circle cx="412" cy="459" r="3" /><circle cx="101" cy="459" r="3" /><circle cx="576" cy="460" r="3" /><circle cx="261" cy="464" r="3" /><circle cx="426" cy="466" r="3" /><circle cx="236" cy="466" r="3" /><circle cx="163" cy="469" r="3" /><circle cx="485" cy="471" r="3" /><circle cx="350" cy="471" r="3" /><circle cx="271" cy="472" r="3" /><circle cx="400" cy="472" r="3" /><circle cx="262" cy="475" r="3" /><circle cx="405" cy="477" r="3" /><circle cx="281" cy="477" r="3" /><circle cx="23" cy="477" r="3" /><circle cx="208" cy="477" r="3" /><circle cx="298" cy="480" r="3" /><circle cx="428" cy="484" r="3" /><circle cx="316" cy="485" r="3" /><circle cx="215" cy="486" r="3" /><circle cx="277" cy="491" r="3" /><circle cx="210" cy="493" r="3" /><circle cx="192" cy="496" r="3" /><circle cx="421" cy="499" r="3" /><circle cx="289" cy="504" r="3" /><circle cx="243" cy="517" r="3" /><circle cx="297" cy="518" r="3" /><circle cx="494" cy="528" r="3" /><circle cx="336" cy="536" r="3" /><circle cx="195" cy="570" r="3" /><circle cx="136" cy="571" r="3" /><circle cx="263" cy="629" r="3" /></svg>
