<?xml version="1.0" encoding="utf-8" ?>
<svg baseProfile="tiny" height="503px" version="1.2" width="504px" xmlns="http://www.w3.org/2000/svg" xmlns:ev="http://www.w3.org/2001/xml-events" xmlns:xlink="http://www.w3.org/1999/xlink"><defs /><line stroke="rgb(10%,10%,16%)" x1="141" x2="407" y1="13" y2="14" /><line stroke="rgb(10%,10%,16%)" x1="407" x2="448" y1="14" y2="24" /><line stroke="rgb(10%,10%,16%)" x1="448" x2="496" y1="24" y2="79" /><line stroke="rgb(10%,10%,16%)" x1="496" x2="499" y1="79" y2="439" /><line stroke="rgb(10%,10%,16%)" x1="499" x2="462" y1="439" y2="473" /><line stroke="rgb(10%,10%,16%)" x1="462" x2="341" y1="473" y2="493" /><line stroke="rgb(10%,10%,16%)" x1="341" x2="109" y1="493" y2="500" /><line stroke="rgb(10%,10%,16%)" x1="109" x2="109" y1="500" y2="500" /><line stroke="rgb(10%,10%,16%)" x1="109" x2="33" y1="500" y2="476" /><line stroke="rgb(10%,10%,16%)" x1="33" x2="1" y1="476" y2="465" /><line stroke="rgb(10%,10%,16%)" x1="1" x2="3" y1="465" y2="120" /><line stroke="rgb(10%,10%,16%)" x1="3" x2="48" y1="120" y2="42" /><line stroke="rgb(10%,10%,16%)" x1="48" x2="98" y1="42" y2="20" /><line stroke="rgb(10%,10%,16%)" x1="98" x2="141" y1="20" y2="13" /><circle cx="141" cy="13" r="3" /><circle cx="407" cy="14" r="3" /><circle cx="98" cy="20" r="3" /><circle cx="448" cy="24" r="3" /><circle cx="408" cy="25" r="3" /><circle cx="448" cy="29" r="3" /><circle cx="367" cy="34" r="3" /><circle cx="93" cy="39" r="3" /><circle cx="215" cy="40" r="3" /><circle cx="48" cy="42" r="3" /><circle cx="438" cy="42" r="3" /><circle cx="386" cy="57" r="3" /><circle cx="97" cy="69" r="3" /><circle cx="451" cy="70" r="3" /><circle cx="175" cy="71" r="3" /><circle cx="496" cy="79" r="3" /><circle cx="217" cy="94" r="3" /><circle cx="350" cy="95" r="3" /><circle cx="69" cy="105" r="3" /><circle cx="243" cy="106" r="3" /><circle cx="155" cy="106" r="3" /><circle cx="103" cy="111" r="3" /><circle cx="103" cy="112" r="3" /><circle cx="3" cy="120" r="3" /><circle cx="167" cy="141" r="3" /><circle cx="230" cy="141" r="3" /><circle cx="111" cy="145" r="3" /><circle cx="352" cy="150" r="3" /><circle cx="449" cy="160" r="3" /><circle cx="258" cy="185" r="3" /><circle cx="188" cy="187" r="3" /><circle cx="169" cy="189" r="3" /><circle cx="173" cy="189" r="3" /><circle cx="400" cy="192" r="3" /><circle cx="5" cy="193" r="3" /><circle cx="96" cy="198" r="3" /><circle cx="144" cy="202" r="3" /><circle cx="143" cy="210" r="3" /><circle cx="140" cy="213" r="3" /><circle cx="460" cy="218" r="3" /><circle cx="97" cy="220" r="3" /><circle cx="208" cy="230" r="3" /><circle cx="214" cy="232" r="3" /><circle cx="21" cy="241" r="3" /><circle cx="97" cy="243" r="3" /><circle cx="278" cy="247" r="3" /><circle cx="135" cy="256" r="3" /><circle cx="400" cy="257" r="3" /><circle cx="491" cy="258" r="3" /><circle cx="349" cy="268" r="3" /><circle cx="225" cy="279" r="3" /><circle cx="16" cy="280" r="3" /><circle cx="229" cy="281" r="3" /><circle cx="159" cy="282" r="3" /><circle cx="147" cy="282" r="3" /><circle cx="298" cy="284" r="3" /><circle cx="118" cy="296" r="3" /><circle cx="414" cy="304" r="3" /><circle cx="384" cy="309" r="3" /><circle cx="249" cy="310" r="3" /><circle cx="287" cy="311" r="3" /><circle cx="202" cy="313" r="3" /><circle cx="469" cy="319" r="3" /><circle cx="71" cy="321" r="3" /><circle cx="415" cy="322" r="3" /><circle cx="131" cy="332" r="3" /><circle cx="283" cy="342" r="3" /><circle cx="3" cy="350" r="3" /><circle cx="101" cy="356" r="3" /><circle cx="36" cy="359" r="3" /><circle cx="20" cy="361" r="3" /><circle cx="398" cy="366" r="3" /><circle cx="340" cy="373" r="3" /><circle cx="29" cy="401" r="3" /><circle cx="450" cy="402" r="3" /><circle cx="290" cy="413" r="3" /><circle cx="445" cy="413" r="3" /><circle cx="133" cy="415" r="3" /><circle cx="359" cy="421" r="3" /><circle cx="375" cy="424" r="3" /><circle cx="144" cy="424" r="3" /><circle cx="419" cy="429" r="3" /><circle cx="499" cy="439" r="3" /><circle cx="266" cy="439" r="3" /><circle cx="88" cy="441" r="3" /><circle cx="290" cy="454" r="3" /><circle cx="203" cy="459" r="3" /><circle cx="403" cy="464" r="3" /><circle cx="456" cy="464" r="3" /><circle cx="1" cy="465" r="3" /><circle cx="462" cy="473" r="3" /><circle cx="33" cy="476" r="3" /><circle cx="395" cy="477" r="3" /><circle cx="184" cy="477" r="3" /><circle cx="285" cy="483" r="3" /><circle cx="170" cy="484" r="3" /><circle cx="94" cy="486" r="3" /><circle cx="304" cy="491" r="3" /><circle cx="341" cy="493" r="3" /><circle cx="109" cy="500" r="3" /></svg>
