<?xml version="1.0" encoding="utf-8" ?>
<svg baseProfile="tiny" height="378px" version="1.2" width="362px" xmlns="http://www.w3.org/2000/svg" xmlns:ev="http://www.w3.org/2001/xml-events" xmlns:xlink="http://www.w3.org/1999/xlink"><defs /><line stroke="rgb(10%,10%,16%)" x1="304" x2="326" y1="233" y2="254" /><line stroke="rgb(10%,10%,16%)" x1="326" x2="342" y1="254" y2="274" /><line stroke="rgb(10%,10%,16%)" x1="342" x2="359" y1="274" y2="310" /><line stroke="rgb(10%,10%,16%)" x1="359" x2="340" y1="310" y2="345" /><line stroke="rgb(10%,10%,16%)" x1="340" x2="281" y1="345" y2="375" /><line stroke="rgb(10%,10%,16%)" x1="281" x2="281" y1="375" y2="375" /><line stroke="rgb(10%,10%,16%)" x1="281" x2="268" y1="375" y2="370" /><line stroke="rgb(10%,10%,16%)" x1="268" x2="249" y1="370" y2="342" /><line stroke="rgb(10%,10%,16%)" x1="249" x2="245" y1="342" y2="297" /><line stroke="rgb(10%,10%,16%)" x1="245" x2="261" y1="297" y2="268" /><line stroke="rgb(10%,10%,16%)" x1="261" x2="304" y1="268" y2="233" /><circle cx="304" cy="233" r="3" /><circle cx="307" cy="249" r="3" /><circle cx="293" cy="252" r="3" /><circle cx="316" cy="252" r="3" /><circle cx="294" cy="254" r="3" /><circle cx="297" cy="254" r="3" /><circle cx="326" cy="254" r="3" /><circle cx="308" cy="255" r="3" /><circle cx="279" cy="255" r="3" /><circle cx="297" cy="255" r="3" /><circle cx="308" cy="258" r="3" /><circle cx="292" cy="258" r="3" /><circle cx="311" cy="259" r="3" /><circle cx="295" cy="260" r="3" /><circle cx="320" cy="261" r="3" /><circle cx="289" cy="263" r="3" /><circle cx="273" cy="263" r="3" /><circle cx="281" cy="263" r="3" /><circle cx="310" cy="264" r="3" /><circle cx="311" cy="264" r="3" /><circle cx="306" cy="264" r="3" /><circle cx="296" cy="265" r="3" /><circle cx="291" cy="265" r="3" /><circle cx="306" cy="266" r="3" /><circle cx="300" cy="266" r="3" /><circle cx="324" cy="267" r="3" /><circle cx="302" cy="267" r="3" /><circle cx="318" cy="267" r="3" /><circle cx="307" cy="268" r="3" /><circle cx="316" cy="268" r="3" /><circle cx="313" cy="268" r="3" /><circle cx="261" cy="268" r="3" /><circle cx="303" cy="269" r="3" /><circle cx="306" cy="269" r="3" /><circle cx="317" cy="269" r="3" /><circle cx="273" cy="269" r="3" /><circle cx="280" cy="269" r="3" /><circle cx="289" cy="270" r="3" /><circle cx="282" cy="270" r="3" /><circle cx="303" cy="270" r="3" /><circle cx="313" cy="271" r="3" /><circle cx="285" cy="271" r="3" /><circle cx="299" cy="272" r="3" /><circle cx="311" cy="272" r="3" /><circle cx="294" cy="272" r="3" /><circle cx="289" cy="273" r="3" /><circle cx="291" cy="273" r="3" /><circle cx="291" cy="273" r="3" /><circle cx="299" cy="274" r="3" /><circle cx="301" cy="274" r="3" /><circle cx="342" cy="274" r="3" /><circle cx="305" cy="274" r="3" /><circle cx="316" cy="274" r="3" /><circle cx="295" cy="275" r="3" /><circle cx="312" cy="275" r="3" /><circle cx="290" cy="275" r="3" /><circle cx="323" cy="275" r="3" /><circle cx="301" cy="275" r="3" /><circle cx="302" cy="276" r="3" /><circle cx="292" cy="276" r="3" /><circle cx="319" cy="276" r="3" /><circle cx="314" cy="276" r="3" /><circle cx="322" cy="276" r="3" /><circle cx="314" cy="277" r="3" /><circle cx="272" cy="277" r="3" /><circle cx="284" cy="277" r="3" /><circle cx="306" cy="277" r="3" /><circle cx="267" cy="277" r="3" /><circle cx="290" cy="277" r="3" /><circle cx="265" cy="277" r="3" /><circle cx="325" cy="277" r="3" /><circle cx="284" cy="277" r="3" /><circle cx="274" cy="278" r="3" /><circle cx="302" cy="278" r="3" /><circle cx="321" cy="278" r="3" /><circle cx="283" cy="278" r="3" /><circle cx="288" cy="279" r="3" /><circle cx="330" cy="279" r="3" /><circle cx="314" cy="279" r="3" /><circle cx="311" cy="279" r="3" /><circle cx="284" cy="279" r="3" /><circle cx="272" cy="280" r="3" /><circle cx="294" cy="280" r="3" /><circle cx="272" cy="280" r="3" /><circle cx="292" cy="280" r="3" /><circle cx="301" cy="280" r="3" /><circle cx="277" cy="280" r="3" /><circle cx="302" cy="280" r="3" /><circle cx="329" cy="280" r="3" /><circle cx="335" cy="280" r="3" /><circle cx="271" cy="281" r="3" /><circle cx="291" cy="281" r="3" /><circle cx="282" cy="281" r="3" /><circle cx="314" cy="281" r="3" /><circle cx="305" cy="281" r="3" /><circle cx="319" cy="281" r="3" /><circle cx="299" cy="282" r="3" /><circle cx="289" cy="282" r="3" /><circle cx="279" cy="282" r="3" /><circle cx="302" cy="282" r="3" /><circle cx="282" cy="282" r="3" /><circle cx="307" cy="282" r="3" /><circle cx="311" cy="282" r="3" /><circle cx="268" cy="282" r="3" /><circle cx="338" cy="282" r="3" /><circle cx="326" cy="283" r="3" /><circle cx="268" cy="283" r="3" /><circle cx="317" cy="283" r="3" /><circle cx="310" cy="283" r="3" /><circle cx="268" cy="283" r="3" /><circle cx="268" cy="283" r="3" /><circle cx="284" cy="283" r="3" /><circle cx="279" cy="284" r="3" /><circle cx="287" cy="284" r="3" /><circle cx="314" cy="284" r="3" /><circle cx="270" cy="284" r="3" /><circle cx="292" cy="284" r="3" /><circle cx="285" cy="284" r="3" /><circle cx="282" cy="284" r="3" /><circle cx="284" cy="285" r="3" /><circle cx="307" cy="285" r="3" /><circle cx="309" cy="285" r="3" /><circle cx="307" cy="285" r="3" /><circle cx="304" cy="285" r="3" /><circle cx="310" cy="285" r="3" /><circle cx="295" cy="285" r="3" /><circle cx="295" cy="286" r="3" /><circle cx="281" cy="286" r="3" /><circle cx="310" cy="286" r="3" /><circle cx="318" cy="286" r="3" /><circle cx="306" cy="286" r="3" /><circle cx="293" cy="287" r="3" /><circle cx="303" cy="287" r="3" /><circle cx="321" cy="287" r="3" /><circle cx="294" cy="287" r="3" /><circle cx="299" cy="287" r="3" /><circle cx="298" cy="288" r="3" /><circle cx="289" cy="288" r="3" /><circle cx="278" cy="288" r="3" /><circle cx="339" cy="288" r="3" /><circle cx="278" cy="288" r="3" /><circle cx="309" cy="288" r="3" /><circle cx="309" cy="288" r="3" /><circle cx="313" cy="288" r="3" /><circle cx="295" cy="289" r="3" /><circle cx="289" cy="289" r="3" /><circle cx="299" cy="289" r="3" /><circle cx="331" cy="289" r="3" /><circle cx="287" cy="289" r="3" /><circle cx="275" cy="289" r="3" /><circle cx="300" cy="290" r="3" /><circle cx="290" cy="290" r="3" /><circle cx="282" cy="290" r="3" /><circle cx="277" cy="290" r="3" /><circle cx="265" cy="290" r="3" /><circle cx="305" cy="290" r="3" /><circle cx="295" cy="290" r="3" /><circle cx="282" cy="290" r="3" /><circle cx="305" cy="291" r="3" /><circle cx="334" cy="291" r="3" /><circle cx="311" cy="291" r="3" /><circle cx="342" cy="291" r="3" /><circle cx="283" cy="291" r="3" /><circle cx="327" cy="291" r="3" /><circle cx="320" cy="291" r="3" /><circle cx="284" cy="291" r="3" /><circle cx="310" cy="291" r="3" /><circle cx="292" cy="291" r="3" /><circle cx="312" cy="291" r="3" /><circle cx="305" cy="291" r="3" /><circle cx="285" cy="291" r="3" /><circle cx="265" cy="292" r="3" /><circle cx="330" cy="292" r="3" /><circle cx="298" cy="292" r="3" /><circle cx="298" cy="292" r="3" /><circle cx="277" cy="292" r="3" /><circle cx="323" cy="292" r="3" /><circle cx="289" cy="292" r="3" /><circle cx="314" cy="292" r="3" /><circle cx="274" cy="292" r="3" /><circle cx="313" cy="292" r="3" /><circle cx="312" cy="293" r="3" /><circle cx="329" cy="293" r="3" /><circle cx="286" cy="293" r="3" /><circle cx="316" cy="293" r="3" /><circle cx="306" cy="293" r="3" /><circle cx="291" cy="293" r="3" /><circle cx="288" cy="293" r="3" /><circle cx="295" cy="293" r="3" /><circle cx="285" cy="293" r="3" /><circle cx="285" cy="293" r="3" /><circle cx="293" cy="294" r="3" /><circle cx="270" cy="294" r="3" /><circle cx="281" cy="294" r="3" /><circle cx="331" cy="294" r="3" /><circle cx="316" cy="294" r="3" /><circle cx="323" cy="294" r="3" /><circle cx="328" cy="294" r="3" /><circle cx="293" cy="294" r="3" /><circle cx="334" cy="294" r="3" /><circle cx="302" cy="294" r="3" /><circle cx="301" cy="294" r="3" /><circle cx="304" cy="295" r="3" /><circle cx="281" cy="295" r="3" /><circle cx="297" cy="295" r="3" /><circle cx="312" cy="295" r="3" /><circle cx="291" cy="295" r="3" /><circle cx="289" cy="295" r="3" /><circle cx="307" cy="295" r="3" /><circle cx="283" cy="295" r="3" /><circle cx="328" cy="295" r="3" /><circle cx="298" cy="295" r="3" /><circle cx="303" cy="296" r="3" /><circle cx="282" cy="296" r="3" /><circle cx="297" cy="296" r="3" /><circle cx="310" cy="296" r="3" /><circle cx="291" cy="296" r="3" /><circle cx="287" cy="297" r="3" /><circle cx="333" cy="297" r="3" /><circle cx="292" cy="297" r="3" /><circle cx="287" cy="297" r="3" /><circle cx="307" cy="297" r="3" /><circle cx="293" cy="297" r="3" /><circle cx="318" cy="297" r="3" /><circle cx="245" cy="297" r="3" /><circle cx="315" cy="297" r="3" /><circle cx="295" cy="297" r="3" /><circle cx="286" cy="297" r="3" /><circle cx="324" cy="298" r="3" /><circle cx="288" cy="298" r="3" /><circle cx="265" cy="298" r="3" /><circle cx="296" cy="298" r="3" /><circle cx="304" cy="298" r="3" /><circle cx="297" cy="298" r="3" /><circle cx="292" cy="298" r="3" /><circle cx="306" cy="298" r="3" /><circle cx="295" cy="298" r="3" /><circle cx="278" cy="298" r="3" /><circle cx="301" cy="298" r="3" /><circle cx="333" cy="298" r="3" /><circle cx="287" cy="299" r="3" /><circle cx="320" cy="299" r="3" /><circle cx="292" cy="299" r="3" /><circle cx="306" cy="299" r="3" /><circle cx="288" cy="299" r="3" /><circle cx="277" cy="299" r="3" /><circle cx="298" cy="299" r="3" /><circle cx="287" cy="299" r="3" /><circle cx="282" cy="299" r="3" /><circle cx="298" cy="299" r="3" /><circle cx="311" cy="299" r="3" /><circle cx="310" cy="299" r="3" /><circle cx="311" cy="300" r="3" /><circle cx="301" cy="300" r="3" /><circle cx="297" cy="300" r="3" /><circle cx="287" cy="300" r="3" /><circle cx="301" cy="300" r="3" /><circle cx="298" cy="300" r="3" /><circle cx="300" cy="300" r="3" /><circle cx="342" cy="300" r="3" /><circle cx="311" cy="300" r="3" /><circle cx="341" cy="300" r="3" /><circle cx="269" cy="300" r="3" /><circle cx="292" cy="300" r="3" /><circle cx="298" cy="300" r="3" /><circle cx="323" cy="300" r="3" /><circle cx="286" cy="300" r="3" /><circle cx="325" cy="300" r="3" /><circle cx="297" cy="300" r="3" /><circle cx="333" cy="300" r="3" /><circle cx="312" cy="300" r="3" /><circle cx="294" cy="300" r="3" /><circle cx="293" cy="301" r="3" /><circle cx="287" cy="301" r="3" /><circle cx="298" cy="301" r="3" /><circle cx="300" cy="301" r="3" /><circle cx="272" cy="301" r="3" /><circle cx="279" cy="301" r="3" /><circle cx="260" cy="301" r="3" /><circle cx="283" cy="301" r="3" /><circle cx="316" cy="301" r="3" /><circle cx="324" cy="301" r="3" /><circle cx="325" cy="302" r="3" /><circle cx="256" cy="302" r="3" /><circle cx="328" cy="302" r="3" /><circle cx="249" cy="302" r="3" /><circle cx="300" cy="302" r="3" /><circle cx="292" cy="302" r="3" /><circle cx="307" cy="302" r="3" /><circle cx="269" cy="303" r="3" /><circle cx="277" cy="303" r="3" /><circle cx="323" cy="303" r="3" /><circle cx="280" cy="303" r="3" /><circle cx="270" cy="303" r="3" /><circle cx="327" cy="303" r="3" /><circle cx="309" cy="303" r="3" /><circle cx="314" cy="304" r="3" /><circle cx="339" cy="304" r="3" /><circle cx="311" cy="304" r="3" /><circle cx="325" cy="304" r="3" /><circle cx="319" cy="304" r="3" /><circle cx="300" cy="304" r="3" /><circle cx="300" cy="304" r="3" /><circle cx="312" cy="305" r="3" /><circle cx="319" cy="305" r="3" /><circle cx="308" cy="305" r="3" /><circle cx="282" cy="305" r="3" /><circle cx="314" cy="305" r="3" /><circle cx="299" cy="305" r="3" /><circle cx="287" cy="305" r="3" /><circle cx="310" cy="305" r="3" /><circle cx="314" cy="305" r="3" /><circle cx="292" cy="305" r="3" /><circle cx="289" cy="306" r="3" /><circle cx="322" cy="306" r="3" /><circle cx="321" cy="306" r="3" /><circle cx="308" cy="306" r="3" /><circle cx="277" cy="306" r="3" /><circle cx="313" cy="306" r="3" /><circle cx="300" cy="306" r="3" /><circle cx="331" cy="306" r="3" /><circle cx="305" cy="306" r="3" /><circle cx="315" cy="307" r="3" /><circle cx="318" cy="307" r="3" /><circle cx="312" cy="307" r="3" /><circle cx="319" cy="307" r="3" /><circle cx="281" cy="307" r="3" /><circle cx="305" cy="307" r="3" /><circle cx="297" cy="307" r="3" /><circle cx="335" cy="307" r="3" /><circle cx="306" cy="308" r="3" /><circle cx="283" cy="308" r="3" /><circle cx="281" cy="308" r="3" /><circle cx="286" cy="308" r="3" /><circle cx="294" cy="309" r="3" /><circle cx="287" cy="309" r="3" /><circle cx="279" cy="309" r="3" /><circle cx="348" cy="309" r="3" /><circle cx="258" cy="309" r="3" /><circle cx="287" cy="309" r="3" /><circle cx="295" cy="310" r="3" /><circle cx="338" cy="310" r="3" /><circle cx="293" cy="310" r="3" /><circle cx="281" cy="310" r="3" /><circle cx="359" cy="310" r="3" /><circle cx="320" cy="310" r="3" /><circle cx="260" cy="310" r="3" /><circle cx="262" cy="310" r="3" /><circle cx="302" cy="311" r="3" /><circle cx="273" cy="311" r="3" /><circle cx="273" cy="311" r="3" /><circle cx="256" cy="311" r="3" /><circle cx="301" cy="311" r="3" /><circle cx="294" cy="311" r="3" /><circle cx="298" cy="311" r="3" /><circle cx="291" cy="311" r="3" /><circle cx="271" cy="311" r="3" /><circle cx="326" cy="311" r="3" /><circle cx="311" cy="311" r="3" /><circle cx="287" cy="312" r="3" /><circle cx="292" cy="312" r="3" /><circle cx="318" cy="312" r="3" /><circle cx="274" cy="312" r="3" /><circle cx="271" cy="312" r="3" /><circle cx="301" cy="312" r="3" /><circle cx="323" cy="312" r="3" /><circle cx="308" cy="312" r="3" /><circle cx="285" cy="312" r="3" /><circle cx="294" cy="312" r="3" /><circle cx="275" cy="313" r="3" /><circle cx="301" cy="313" r="3" /><circle cx="299" cy="313" r="3" /><circle cx="324" cy="313" r="3" /><circle cx="281" cy="313" r="3" /><circle cx="287" cy="313" r="3" /><circle cx="303" cy="313" r="3" /><circle cx="313" cy="314" r="3" /><circle cx="308" cy="314" r="3" /><circle cx="311" cy="314" r="3" /><circle cx="327" cy="314" r="3" /><circle cx="308" cy="314" r="3" /><circle cx="302" cy="314" r="3" /><circle cx="272" cy="314" r="3" /><circle cx="287" cy="314" r="3" /><circle cx="307" cy="314" r="3" /><circle cx="285" cy="315" r="3" /><circle cx="299" cy="315" r="3" /><circle cx="298" cy="315" r="3" /><circle cx="281" cy="315" r="3" /><circle cx="309" cy="315" r="3" /><circle cx="287" cy="315" r="3" /><circle cx="261" cy="315" r="3" /><circle cx="310" cy="316" r="3" /><circle cx="303" cy="316" r="3" /><circle cx="294" cy="316" r="3" /><circle cx="311" cy="316" r="3" /><circle cx="299" cy="316" r="3" /><circle cx="289" cy="316" r="3" /><circle cx="275" cy="316" r="3" /><circle cx="339" cy="316" r="3" /><circle cx="265" cy="317" r="3" /><circle cx="295" cy="317" r="3" /><circle cx="284" cy="317" r="3" /><circle cx="275" cy="317" r="3" /><circle cx="291" cy="317" r="3" /><circle cx="322" cy="317" r="3" /><circle cx="291" cy="317" r="3" /><circle cx="276" cy="317" r="3" /><circle cx="352" cy="317" r="3" /><circle cx="295" cy="318" r="3" /><circle cx="291" cy="318" r="3" /><circle cx="288" cy="318" r="3" /><circle cx="313" cy="318" r="3" /><circle cx="267" cy="318" r="3" /><circle cx="316" cy="318" r="3" /><circle cx="305" cy="318" r="3" /><circle cx="275" cy="318" r="3" /><circle cx="277" cy="319" r="3" /><circle cx="291" cy="319" r="3" /><circle cx="317" cy="319" r="3" /><circle cx="266" cy="319" r="3" /><circle cx="316" cy="319" r="3" /><circle cx="331" cy="319" r="3" /><circle cx="302" cy="320" r="3" /><circle cx="326" cy="320" r="3" /><circle cx="295" cy="320" r="3" /><circle cx="284" cy="321" r="3" /><circle cx="296" cy="321" r="3" /><circle cx="306" cy="321" r="3" /><circle cx="275" cy="321" r="3" /><circle cx="262" cy="321" r="3" /><circle cx="295" cy="321" r="3" /><circle cx="283" cy="322" r="3" /><circle cx="268" cy="322" r="3" /><circle cx="309" cy="322" r="3" /><circle cx="290" cy="322" r="3" /><circle cx="275" cy="323" r="3" /><circle cx="256" cy="323" r="3" /><circle cx="307" cy="323" r="3" /><circle cx="308" cy="323" r="3" /><circle cx="299" cy="323" r="3" /><circle cx="336" cy="323" r="3" /><circle cx="265" cy="323" r="3" /><circle cx="288" cy="324" r="3" /><circle cx="292" cy="324" r="3" /><circle cx="297" cy="324" r="3" /><circle cx="279" cy="324" r="3" /><circle cx="286" cy="324" r="3" /><circle cx="285" cy="325" r="3" /><circle cx="290" cy="325" r="3" /><circle cx="314" cy="325" r="3" /><circle cx="322" cy="325" r="3" /><circle cx="284" cy="326" r="3" /><circle cx="341" cy="327" r="3" /><circle cx="316" cy="327" r="3" /><circle cx="302" cy="327" r="3" /><circle cx="312" cy="327" r="3" /><circle cx="293" cy="328" r="3" /><circle cx="292" cy="329" r="3" /><circle cx="290" cy="329" r="3" /><circle cx="289" cy="329" r="3" /><circle cx="296" cy="329" r="3" /><circle cx="290" cy="329" r="3" /><circle cx="260" cy="329" r="3" /><circle cx="304" cy="330" r="3" /><circle cx="288" cy="330" r="3" /><circle cx="323" cy="330" r="3" /><circle cx="308" cy="330" r="3" /><circle cx="268" cy="330" r="3" /><circle cx="295" cy="330" r="3" /><circle cx="310" cy="330" r="3" /><circle cx="284" cy="331" r="3" /><circle cx="312" cy="332" r="3" /><circle cx="300" cy="332" r="3" /><circle cx="313" cy="333" r="3" /><circle cx="304" cy="334" r="3" /><circle cx="267" cy="334" r="3" /><circle cx="297" cy="334" r="3" /><circle cx="284" cy="335" r="3" /><circle cx="277" cy="335" r="3" /><circle cx="299" cy="335" r="3" /><circle cx="283" cy="335" r="3" /><circle cx="273" cy="335" r="3" /><circle cx="310" cy="336" r="3" /><circle cx="328" cy="336" r="3" /><circle cx="304" cy="336" r="3" /><circle cx="292" cy="337" r="3" /><circle cx="307" cy="337" r="3" /><circle cx="311" cy="338" r="3" /><circle cx="290" cy="339" r="3" /><circle cx="286" cy="342" r="3" /><circle cx="303" cy="342" r="3" /><circle cx="249" cy="342" r="3" /><circle cx="324" cy="344" r="3" /><circle cx="340" cy="345" r="3" /><circle cx="307" cy="347" r="3" /><circle cx="306" cy="348" r="3" /><circle cx="308" cy="350" r="3" /><circle cx="268" cy="370" r="3" /><circle cx="281" cy="375" r="3" /></svg>
