<?xml version="1.0" encoding="utf-8" ?>
<svg baseProfile="tiny" height="334px" version="1.2" width="334px" xmlns="http://www.w3.org/2000/svg" xmlns:ev="http://www.w3.org/2001/xml-events" xmlns:xlink="http://www.w3.org/1999/xlink"><defs /><line stroke="rgb(10%,10%,16%)" x1="284" x2="312" y1="274" y2="276" /><line stroke="rgb(10%,10%,16%)" x1="312" x2="317" y1="276" y2="281" /><line stroke="rgb(10%,10%,16%)" x1="317" x2="323" y1="281" y2="288" /><line stroke="rgb(10%,10%,16%)" x1="323" x2="328" y1="288" y2="294" /><line stroke="rgb(10%,10%,16%)" x1="328" x2="329" y1="294" y2="296" /><line stroke="rgb(10%,10%,16%)" x1="329" x2="331" y1="296" y2="312" /><line stroke="rgb(10%,10%,16%)" x1="331" x2="304" y1="312" y2="331" /><line stroke="rgb(10%,10%,16%)" x1="304" x2="304" y1="331" y2="331" /><line stroke="rgb(10%,10%,16%)" x1="304" x2="291" y1="331" y2="328" /><line stroke="rgb(10%,10%,16%)" x1="291" x2="285" y1="328" y2="323" /><line stroke="rgb(10%,10%,16%)" x1="285" x2="279" y1="323" y2="315" /><line stroke="rgb(10%,10%,16%)" x1="279" x2="273" y1="315" y2="306" /><line stroke="rgb(10%,10%,16%)" x1="273" x2="276" y1="306" y2="295" /><line stroke="rgb(10%,10%,16%)" x1="276" x2="284" y1="295" y2="274" /><circle cx="284" cy="274" r="3" /><circle cx="312" cy="276" r="3" /><circle cx="300" cy="277" r="3" /><circle cx="295" cy="278" r="3" /><circle cx="299" cy="278" r="3" /><circle cx="292" cy="278" r="3" /><circle cx="308" cy="278" r="3" /><circle cx="302" cy="279" r="3" /><circle cx="305" cy="279" r="3" /><circle cx="290" cy="279" r="3" /><circle cx="296" cy="279" r="3" /><circle cx="312" cy="281" r="3" /><circle cx="317" cy="281" r="3" /><circle cx="284" cy="281" r="3" /><circle cx="302" cy="281" r="3" /><circle cx="299" cy="282" r="3" /><circle cx="283" cy="283" r="3" /><circle cx="307" cy="283" r="3" /><circle cx="298" cy="283" r="3" /><circle cx="303" cy="283" r="3" /><circle cx="304" cy="283" r="3" /><circle cx="307" cy="284" r="3" /><circle cx="288" cy="284" r="3" /><circle cx="309" cy="284" r="3" /><circle cx="295" cy="284" r="3" /><circle cx="307" cy="284" r="3" /><circle cx="287" cy="284" r="3" /><circle cx="299" cy="285" r="3" /><circle cx="295" cy="285" r="3" /><circle cx="305" cy="285" r="3" /><circle cx="303" cy="285" r="3" /><circle cx="299" cy="285" r="3" /><circle cx="290" cy="285" r="3" /><circle cx="294" cy="285" r="3" /><circle cx="298" cy="285" r="3" /><circle cx="299" cy="285" r="3" /><circle cx="303" cy="285" r="3" /><circle cx="293" cy="286" r="3" /><circle cx="290" cy="286" r="3" /><circle cx="295" cy="286" r="3" /><circle cx="302" cy="286" r="3" /><circle cx="297" cy="286" r="3" /><circle cx="294" cy="286" r="3" /><circle cx="308" cy="286" r="3" /><circle cx="307" cy="287" r="3" /><circle cx="290" cy="287" r="3" /><circle cx="303" cy="287" r="3" /><circle cx="309" cy="287" r="3" /><circle cx="291" cy="287" r="3" /><circle cx="310" cy="287" r="3" /><circle cx="297" cy="287" r="3" /><circle cx="306" cy="287" r="3" /><circle cx="297" cy="287" r="3" /><circle cx="302" cy="287" r="3" /><circle cx="300" cy="288" r="3" /><circle cx="301" cy="288" r="3" /><circle cx="298" cy="288" r="3" /><circle cx="323" cy="288" r="3" /><circle cx="296" cy="288" r="3" /><circle cx="309" cy="288" r="3" /><circle cx="284" cy="288" r="3" /><circle cx="308" cy="288" r="3" /><circle cx="288" cy="288" r="3" /><circle cx="300" cy="288" r="3" /><circle cx="300" cy="289" r="3" /><circle cx="298" cy="289" r="3" /><circle cx="283" cy="289" r="3" /><circle cx="291" cy="289" r="3" /><circle cx="301" cy="289" r="3" /><circle cx="318" cy="289" r="3" /><circle cx="311" cy="289" r="3" /><circle cx="294" cy="289" r="3" /><circle cx="307" cy="289" r="3" /><circle cx="316" cy="290" r="3" /><circle cx="314" cy="290" r="3" /><circle cx="288" cy="290" r="3" /><circle cx="295" cy="290" r="3" /><circle cx="304" cy="290" r="3" /><circle cx="301" cy="290" r="3" /><circle cx="303" cy="290" r="3" /><circle cx="307" cy="291" r="3" /><circle cx="294" cy="291" r="3" /><circle cx="307" cy="291" r="3" /><circle cx="279" cy="291" r="3" /><circle cx="302" cy="291" r="3" /><circle cx="286" cy="291" r="3" /><circle cx="295" cy="291" r="3" /><circle cx="289" cy="291" r="3" /><circle cx="309" cy="291" r="3" /><circle cx="280" cy="291" r="3" /><circle cx="307" cy="291" r="3" /><circle cx="299" cy="291" r="3" /><circle cx="280" cy="291" r="3" /><circle cx="300" cy="291" r="3" /><circle cx="303" cy="291" r="3" /><circle cx="288" cy="291" r="3" /><circle cx="285" cy="291" r="3" /><circle cx="319" cy="291" r="3" /><circle cx="305" cy="291" r="3" /><circle cx="295" cy="292" r="3" /><circle cx="312" cy="292" r="3" /><circle cx="295" cy="292" r="3" /><circle cx="311" cy="292" r="3" /><circle cx="301" cy="292" r="3" /><circle cx="316" cy="292" r="3" /><circle cx="293" cy="292" r="3" /><circle cx="301" cy="292" r="3" /><circle cx="313" cy="292" r="3" /><circle cx="293" cy="292" r="3" /><circle cx="307" cy="292" r="3" /><circle cx="305" cy="293" r="3" /><circle cx="297" cy="293" r="3" /><circle cx="308" cy="293" r="3" /><circle cx="305" cy="293" r="3" /><circle cx="309" cy="293" r="3" /><circle cx="292" cy="293" r="3" /><circle cx="305" cy="293" r="3" /><circle cx="301" cy="293" r="3" /><circle cx="297" cy="293" r="3" /><circle cx="310" cy="293" r="3" /><circle cx="300" cy="293" r="3" /><circle cx="300" cy="293" r="3" /><circle cx="295" cy="293" r="3" /><circle cx="298" cy="293" r="3" /><circle cx="296" cy="293" r="3" /><circle cx="309" cy="293" r="3" /><circle cx="296" cy="293" r="3" /><circle cx="310" cy="293" r="3" /><circle cx="300" cy="294" r="3" /><circle cx="307" cy="294" r="3" /><circle cx="302" cy="294" r="3" /><circle cx="319" cy="294" r="3" /><circle cx="303" cy="294" r="3" /><circle cx="287" cy="294" r="3" /><circle cx="328" cy="294" r="3" /><circle cx="286" cy="294" r="3" /><circle cx="288" cy="294" r="3" /><circle cx="289" cy="294" r="3" /><circle cx="279" cy="294" r="3" /><circle cx="313" cy="294" r="3" /><circle cx="293" cy="294" r="3" /><circle cx="300" cy="294" r="3" /><circle cx="287" cy="294" r="3" /><circle cx="283" cy="294" r="3" /><circle cx="296" cy="294" r="3" /><circle cx="303" cy="295" r="3" /><circle cx="313" cy="295" r="3" /><circle cx="303" cy="295" r="3" /><circle cx="301" cy="295" r="3" /><circle cx="307" cy="295" r="3" /><circle cx="301" cy="295" r="3" /><circle cx="297" cy="295" r="3" /><circle cx="293" cy="295" r="3" /><circle cx="291" cy="295" r="3" /><circle cx="301" cy="295" r="3" /><circle cx="303" cy="295" r="3" /><circle cx="308" cy="295" r="3" /><circle cx="298" cy="295" r="3" /><circle cx="285" cy="295" r="3" /><circle cx="287" cy="295" r="3" /><circle cx="309" cy="295" r="3" /><circle cx="308" cy="295" r="3" /><circle cx="276" cy="295" r="3" /><circle cx="309" cy="295" r="3" /><circle cx="291" cy="295" r="3" /><circle cx="311" cy="295" r="3" /><circle cx="300" cy="295" r="3" /><circle cx="297" cy="295" r="3" /><circle cx="300" cy="295" r="3" /><circle cx="307" cy="295" r="3" /><circle cx="291" cy="296" r="3" /><circle cx="291" cy="296" r="3" /><circle cx="329" cy="296" r="3" /><circle cx="299" cy="296" r="3" /><circle cx="302" cy="296" r="3" /><circle cx="303" cy="296" r="3" /><circle cx="306" cy="296" r="3" /><circle cx="297" cy="296" r="3" /><circle cx="311" cy="296" r="3" /><circle cx="281" cy="296" r="3" /><circle cx="287" cy="296" r="3" /><circle cx="294" cy="296" r="3" /><circle cx="302" cy="296" r="3" /><circle cx="315" cy="296" r="3" /><circle cx="310" cy="296" r="3" /><circle cx="300" cy="296" r="3" /><circle cx="294" cy="296" r="3" /><circle cx="301" cy="296" r="3" /><circle cx="294" cy="296" r="3" /><circle cx="313" cy="297" r="3" /><circle cx="296" cy="297" r="3" /><circle cx="312" cy="297" r="3" /><circle cx="302" cy="297" r="3" /><circle cx="307" cy="297" r="3" /><circle cx="296" cy="297" r="3" /><circle cx="293" cy="297" r="3" /><circle cx="303" cy="297" r="3" /><circle cx="308" cy="297" r="3" /><circle cx="307" cy="297" r="3" /><circle cx="309" cy="298" r="3" /><circle cx="299" cy="298" r="3" /><circle cx="292" cy="298" r="3" /><circle cx="301" cy="298" r="3" /><circle cx="317" cy="298" r="3" /><circle cx="299" cy="298" r="3" /><circle cx="281" cy="298" r="3" /><circle cx="303" cy="298" r="3" /><circle cx="292" cy="298" r="3" /><circle cx="285" cy="298" r="3" /><circle cx="304" cy="298" r="3" /><circle cx="299" cy="298" r="3" /><circle cx="300" cy="298" r="3" /><circle cx="306" cy="299" r="3" /><circle cx="296" cy="299" r="3" /><circle cx="301" cy="299" r="3" /><circle cx="294" cy="299" r="3" /><circle cx="291" cy="299" r="3" /><circle cx="287" cy="299" r="3" /><circle cx="317" cy="299" r="3" /><circle cx="315" cy="299" r="3" /><circle cx="294" cy="299" r="3" /><circle cx="288" cy="299" r="3" /><circle cx="318" cy="299" r="3" /><circle cx="292" cy="299" r="3" /><circle cx="296" cy="299" r="3" /><circle cx="292" cy="299" r="3" /><circle cx="289" cy="299" r="3" /><circle cx="324" cy="299" r="3" /><circle cx="292" cy="299" r="3" /><circle cx="305" cy="299" r="3" /><circle cx="305" cy="300" r="3" /><circle cx="308" cy="300" r="3" /><circle cx="295" cy="300" r="3" /><circle cx="305" cy="300" r="3" /><circle cx="300" cy="300" r="3" /><circle cx="294" cy="300" r="3" /><circle cx="307" cy="300" r="3" /><circle cx="275" cy="300" r="3" /><circle cx="315" cy="300" r="3" /><circle cx="283" cy="300" r="3" /><circle cx="318" cy="300" r="3" /><circle cx="292" cy="300" r="3" /><circle cx="298" cy="300" r="3" /><circle cx="302" cy="300" r="3" /><circle cx="314" cy="300" r="3" /><circle cx="306" cy="300" r="3" /><circle cx="295" cy="300" r="3" /><circle cx="286" cy="300" r="3" /><circle cx="300" cy="300" r="3" /><circle cx="287" cy="300" r="3" /><circle cx="303" cy="300" r="3" /><circle cx="291" cy="300" r="3" /><circle cx="323" cy="300" r="3" /><circle cx="294" cy="300" r="3" /><circle cx="298" cy="300" r="3" /><circle cx="290" cy="301" r="3" /><circle cx="294" cy="301" r="3" /><circle cx="321" cy="301" r="3" /><circle cx="302" cy="301" r="3" /><circle cx="313" cy="301" r="3" /><circle cx="298" cy="301" r="3" /><circle cx="299" cy="301" r="3" /><circle cx="298" cy="301" r="3" /><circle cx="294" cy="301" r="3" /><circle cx="289" cy="301" r="3" /><circle cx="296" cy="301" r="3" /><circle cx="292" cy="301" r="3" /><circle cx="306" cy="301" r="3" /><circle cx="305" cy="301" r="3" /><circle cx="293" cy="301" r="3" /><circle cx="306" cy="301" r="3" /><circle cx="310" cy="301" r="3" /><circle cx="297" cy="301" r="3" /><circle cx="305" cy="302" r="3" /><circle cx="297" cy="302" r="3" /><circle cx="279" cy="302" r="3" /><circle cx="285" cy="302" r="3" /><circle cx="323" cy="302" r="3" /><circle cx="294" cy="302" r="3" /><circle cx="310" cy="302" r="3" /><circle cx="297" cy="302" r="3" /><circle cx="295" cy="302" r="3" /><circle cx="286" cy="302" r="3" /><circle cx="294" cy="302" r="3" /><circle cx="311" cy="302" r="3" /><circle cx="301" cy="302" r="3" /><circle cx="305" cy="302" r="3" /><circle cx="314" cy="302" r="3" /><circle cx="283" cy="302" r="3" /><circle cx="285" cy="302" r="3" /><circle cx="297" cy="302" r="3" /><circle cx="294" cy="302" r="3" /><circle cx="315" cy="302" r="3" /><circle cx="305" cy="303" r="3" /><circle cx="296" cy="303" r="3" /><circle cx="303" cy="303" r="3" /><circle cx="290" cy="303" r="3" /><circle cx="321" cy="303" r="3" /><circle cx="297" cy="303" r="3" /><circle cx="304" cy="303" r="3" /><circle cx="302" cy="303" r="3" /><circle cx="313" cy="303" r="3" /><circle cx="283" cy="303" r="3" /><circle cx="292" cy="303" r="3" /><circle cx="287" cy="303" r="3" /><circle cx="291" cy="303" r="3" /><circle cx="293" cy="303" r="3" /><circle cx="284" cy="304" r="3" /><circle cx="303" cy="304" r="3" /><circle cx="302" cy="304" r="3" /><circle cx="290" cy="304" r="3" /><circle cx="300" cy="304" r="3" /><circle cx="301" cy="304" r="3" /><circle cx="289" cy="304" r="3" /><circle cx="313" cy="304" r="3" /><circle cx="308" cy="304" r="3" /><circle cx="290" cy="304" r="3" /><circle cx="294" cy="304" r="3" /><circle cx="306" cy="304" r="3" /><circle cx="308" cy="304" r="3" /><circle cx="295" cy="304" r="3" /><circle cx="316" cy="304" r="3" /><circle cx="310" cy="304" r="3" /><circle cx="284" cy="304" r="3" /><circle cx="307" cy="304" r="3" /><circle cx="290" cy="304" r="3" /><circle cx="302" cy="304" r="3" /><circle cx="313" cy="305" r="3" /><circle cx="293" cy="305" r="3" /><circle cx="308" cy="305" r="3" /><circle cx="277" cy="305" r="3" /><circle cx="297" cy="305" r="3" /><circle cx="299" cy="305" r="3" /><circle cx="301" cy="305" r="3" /><circle cx="295" cy="305" r="3" /><circle cx="285" cy="305" r="3" /><circle cx="298" cy="305" r="3" /><circle cx="306" cy="305" r="3" /><circle cx="308" cy="305" r="3" /><circle cx="307" cy="305" r="3" /><circle cx="292" cy="305" r="3" /><circle cx="303" cy="305" r="3" /><circle cx="304" cy="305" r="3" /><circle cx="300" cy="305" r="3" /><circle cx="300" cy="305" r="3" /><circle cx="311" cy="305" r="3" /><circle cx="296" cy="305" r="3" /><circle cx="290" cy="306" r="3" /><circle cx="273" cy="306" r="3" /><circle cx="299" cy="306" r="3" /><circle cx="308" cy="306" r="3" /><circle cx="303" cy="306" r="3" /><circle cx="294" cy="306" r="3" /><circle cx="302" cy="306" r="3" /><circle cx="307" cy="306" r="3" /><circle cx="305" cy="306" r="3" /><circle cx="292" cy="306" r="3" /><circle cx="297" cy="306" r="3" /><circle cx="288" cy="306" r="3" /><circle cx="326" cy="306" r="3" /><circle cx="303" cy="306" r="3" /><circle cx="300" cy="306" r="3" /><circle cx="316" cy="306" r="3" /><circle cx="288" cy="306" r="3" /><circle cx="295" cy="306" r="3" /><circle cx="322" cy="306" r="3" /><circle cx="287" cy="306" r="3" /><circle cx="285" cy="306" r="3" /><circle cx="299" cy="307" r="3" /><circle cx="303" cy="307" r="3" /><circle cx="296" cy="307" r="3" /><circle cx="285" cy="307" r="3" /><circle cx="293" cy="307" r="3" /><circle cx="292" cy="307" r="3" /><circle cx="300" cy="307" r="3" /><circle cx="302" cy="307" r="3" /><circle cx="307" cy="307" r="3" /><circle cx="302" cy="307" r="3" /><circle cx="307" cy="307" r="3" /><circle cx="300" cy="307" r="3" /><circle cx="289" cy="307" r="3" /><circle cx="295" cy="307" r="3" /><circle cx="312" cy="307" r="3" /><circle cx="312" cy="307" r="3" /><circle cx="292" cy="307" r="3" /><circle cx="295" cy="307" r="3" /><circle cx="305" cy="307" r="3" /><circle cx="296" cy="308" r="3" /><circle cx="302" cy="308" r="3" /><circle cx="313" cy="308" r="3" /><circle cx="309" cy="308" r="3" /><circle cx="305" cy="308" r="3" /><circle cx="307" cy="308" r="3" /><circle cx="305" cy="308" r="3" /><circle cx="298" cy="308" r="3" /><circle cx="284" cy="308" r="3" /><circle cx="303" cy="308" r="3" /><circle cx="287" cy="308" r="3" /><circle cx="316" cy="308" r="3" /><circle cx="293" cy="309" r="3" /><circle cx="303" cy="309" r="3" /><circle cx="308" cy="309" r="3" /><circle cx="297" cy="309" r="3" /><circle cx="281" cy="309" r="3" /><circle cx="297" cy="309" r="3" /><circle cx="289" cy="309" r="3" /><circle cx="296" cy="309" r="3" /><circle cx="296" cy="309" r="3" /><circle cx="313" cy="309" r="3" /><circle cx="311" cy="309" r="3" /><circle cx="320" cy="309" r="3" /><circle cx="312" cy="309" r="3" /><circle cx="284" cy="310" r="3" /><circle cx="307" cy="310" r="3" /><circle cx="316" cy="310" r="3" /><circle cx="293" cy="310" r="3" /><circle cx="310" cy="310" r="3" /><circle cx="302" cy="310" r="3" /><circle cx="315" cy="310" r="3" /><circle cx="314" cy="310" r="3" /><circle cx="307" cy="310" r="3" /><circle cx="293" cy="310" r="3" /><circle cx="308" cy="310" r="3" /><circle cx="303" cy="310" r="3" /><circle cx="295" cy="310" r="3" /><circle cx="288" cy="310" r="3" /><circle cx="301" cy="310" r="3" /><circle cx="296" cy="310" r="3" /><circle cx="290" cy="311" r="3" /><circle cx="300" cy="311" r="3" /><circle cx="304" cy="311" r="3" /><circle cx="300" cy="311" r="3" /><circle cx="307" cy="311" r="3" /><circle cx="307" cy="311" r="3" /><circle cx="290" cy="311" r="3" /><circle cx="304" cy="311" r="3" /><circle cx="281" cy="312" r="3" /><circle cx="331" cy="312" r="3" /><circle cx="316" cy="312" r="3" /><circle cx="289" cy="312" r="3" /><circle cx="297" cy="312" r="3" /><circle cx="291" cy="312" r="3" /><circle cx="300" cy="312" r="3" /><circle cx="289" cy="313" r="3" /><circle cx="296" cy="313" r="3" /><circle cx="288" cy="313" r="3" /><circle cx="306" cy="313" r="3" /><circle cx="298" cy="313" r="3" /><circle cx="296" cy="313" r="3" /><circle cx="284" cy="313" r="3" /><circle cx="327" cy="313" r="3" /><circle cx="302" cy="313" r="3" /><circle cx="299" cy="313" r="3" /><circle cx="299" cy="314" r="3" /><circle cx="309" cy="314" r="3" /><circle cx="284" cy="314" r="3" /><circle cx="295" cy="314" r="3" /><circle cx="297" cy="314" r="3" /><circle cx="303" cy="314" r="3" /><circle cx="306" cy="314" r="3" /><circle cx="291" cy="315" r="3" /><circle cx="310" cy="315" r="3" /><circle cx="309" cy="315" r="3" /><circle cx="311" cy="315" r="3" /><circle cx="299" cy="315" r="3" /><circle cx="320" cy="315" r="3" /><circle cx="304" cy="315" r="3" /><circle cx="279" cy="315" r="3" /><circle cx="304" cy="315" r="3" /><circle cx="307" cy="316" r="3" /><circle cx="296" cy="316" r="3" /><circle cx="291" cy="316" r="3" /><circle cx="308" cy="316" r="3" /><circle cx="294" cy="316" r="3" /><circle cx="300" cy="317" r="3" /><circle cx="304" cy="317" r="3" /><circle cx="304" cy="317" r="3" /><circle cx="305" cy="317" r="3" /><circle cx="310" cy="317" r="3" /><circle cx="304" cy="318" r="3" /><circle cx="299" cy="319" r="3" /><circle cx="301" cy="319" r="3" /><circle cx="286" cy="319" r="3" /><circle cx="292" cy="319" r="3" /><circle cx="301" cy="319" r="3" /><circle cx="293" cy="320" r="3" /><circle cx="298" cy="320" r="3" /><circle cx="302" cy="320" r="3" /><circle cx="294" cy="321" r="3" /><circle cx="293" cy="322" r="3" /><circle cx="288" cy="322" r="3" /><circle cx="304" cy="322" r="3" /><circle cx="285" cy="323" r="3" /><circle cx="311" cy="323" r="3" /><circle cx="311" cy="323" r="3" /><circle cx="285" cy="323" r="3" /><circle cx="290" cy="323" r="3" /><circle cx="291" cy="324" r="3" /><circle cx="291" cy="328" r="3" /><circle cx="304" cy="331" r="3" /></svg>
