<?xml version="1.0" encoding="utf-8" ?>
<svg baseProfile="tiny" height="452px" version="1.2" width="470px" xmlns="http://www.w3.org/2000/svg" xmlns:ev="http://www.w3.org/2001/xml-events" xmlns:xlink="http://www.w3.org/1999/xlink"><defs /><line stroke="rgb(10%,10%,16%)" x1="144" x2="70.0267" y1="188" y2="282.4878" /><line stroke="rgb(10%,10%,16%)" x1="127" x2="51.8383" y1="283" y2="189.4547" /><line stroke="rgb(10%,10%,16%)" x1="177" x2="183.6985" y1="193" y2="73.1871" /><line stroke="rgb(10%,10%,16%)" x1="246" x2="261.5937" y1="318" y2="199.0175" /><line stroke="rgb(10%,10%,16%)" x1="184" x2="83.1824" y1="215" y2="149.9169" /><line stroke="rgb(10%,10%,16%)" x1="355" x2="317.1729" y1="142" y2="255.882" /><line stroke="rgb(10%,10%,16%)" x1="135" x2="200.2954" y1="165" y2="265.6803" /><line stroke="rgb(10%,10%,16%)" x1="129" x2="67.0641" y1="299" y2="196.219" /><line stroke="rgb(10%,10%,16%)" x1="129" x2="244.1402" y1="239" y2="272.8043" /><line stroke="rgb(10%,10%,16%)" x1="333" x2="233.9791" y1="263" y2="330.7854" /><line stroke="rgb(10%,10%,16%)" x1="370" x2="251.1184" y1="333" y2="349.3453" /><line stroke="rgb(10%,10%,16%)" x1="350" x2="298.3414" y1="139" y2="30.6885" /><line stroke="rgb(10%,10%,16%)" x1="140" x2="97.9599" y1="340" y2="452.395" /><line stroke="rgb(10%,10%,16%)" x1="121" x2="70.9068" y1="267" y2="157.9557" /><line stroke="rgb(10%,10%,16%)" x1="228" x2="120.1096" y1="311" y2="258.4676" /><line stroke="rgb(10%,10%,16%)" x1="139" x2="33.8626" y1="124" y2="181.8457" /><line stroke="rgb(10%,10%,16%)" x1="137" x2="164.5705" y1="146" y2="262.7898" /><line stroke="rgb(10%,10%,16%)" x1="249" x2="307.6936" y1="207" y2="102.3336" /><line stroke="rgb(10%,10%,16%)" x1="234" x2="328.0184" y1="164" y2="89.431" /><line stroke="rgb(10%,10%,16%)" x1="342" x2="291.9068" y1="208" y2="98.9557" /><line stroke="rgb(10%,10%,16%)" x1="191" x2="156.9532" y1="239" y2="123.9313" /><line stroke="rgb(10%,10%,16%)" x1="173" x2="287.9968" y1="278" y2="243.7109" /><line stroke="rgb(10%,10%,16%)" x1="334" x2="426.2917" y1="164" y2="87.3042" /><line stroke="rgb(10%,10%,16%)" x1="138" x2="18.0091" y1="332" y2="330.5244" /><line stroke="rgb(10%,10%,16%)" x1="188" x2="147.5831" y1="274" y2="386.9888" /><line stroke="rgb(10%,10%,16%)" x1="363" x2="469.8938" y1="368" y2="422.5318" /><line stroke="rgb(10%,10%,16%)" x1="369" x2="364.0279" y1="319" y2="199.1031" /><line stroke="rgb(10%,10%,16%)" x1="221" x2="130.152" y1="310" y2="388.4006" /><line stroke="rgb(10%,10%,16%)" x1="229" x2="333.0424" y1="293" y2="233.2072" /><line stroke="rgb(10%,10%,16%)" x1="297" x2="349.305" y1="200" y2="91.9991" /><line stroke="rgb(10%,10%,16%)" x1="336" x2="408.2016" y1="203" y2="107.1515" /><line stroke="rgb(10%,10%,16%)" x1="373" x2="364.0723" y1="312" y2="431.6674" /><line stroke="rgb(10%,10%,16%)" x1="317" x2="436.9427" y1="177" y2="180.709" /><line stroke="rgb(10%,10%,16%)" x1="299" x2="391.2917" y1="239" y2="162.3042" /><line stroke="rgb(10%,10%,16%)" x1="310" x2="292.1941" y1="289" y2="407.6716" /><line stroke="rgb(10%,10%,16%)" x1="376" x2="446.8136" y1="180" y2="83.1215" /><line stroke="rgb(10%,10%,16%)" x1="219" x2="338.5037" y1="351" y2="361.9021" /><line stroke="rgb(10%,10%,16%)" x1="145" x2="242.0274" y1="301" y2="371.6094" /><line stroke="rgb(10%,10%,16%)" x1="143" x2="52.152" y1="371" y2="449.4006" /><line stroke="rgb(10%,10%,16%)" x1="167" x2="50.558" y1="349" y2="319.9955" /><circle cx="97.9405" cy="246.8329" r="3" /><circle cx="143.3874" cy="188.7824" r="3" /><circle cx="97.7278" cy="247.1046" r="3" /><circle cx="106.6342" cy="235.7282" r="3" /><circle cx="96.4348" cy="244.959" r="3" /><circle cx="177.0619" cy="191.893" r="3" /><circle cx="254.4243" cy="253.7213" r="3" /><circle cx="250.9281" cy="280.398" r="3" /><circle cx="155.4915" cy="196.5962" r="3" /><circle cx="87.1912" cy="152.5048" r="3" /><circle cx="147.7671" cy="191.6097" r="3" /><circle cx="183.8749" cy="214.9193" r="3" /><circle cx="336.8216" cy="196.7276" r="3" /><circle cx="352.913" cy="148.283" r="3" /><circle cx="322.7375" cy="239.1294" r="3" /><circle cx="343.1062" cy="177.8073" r="3" /><circle cx="331.8473" cy="211.7034" r="3" /><circle cx="195.6904" cy="258.5798" r="3" /><circle cx="145.197" cy="180.723" r="3" /><circle cx="161.1851" cy="248.4493" r="3" /><circle cx="217.0746" cy="264.8581" r="3" /><circle cx="301.9952" cy="342.3502" r="3" /><circle cx="326.814" cy="90.3863" r="3" /><circle cx="338.361" cy="114.5967" r="3" /><circle cx="121.448" cy="389.5991" r="3" /><circle cx="139.2217" cy="342.0807" r="3" /><circle cx="72.1934" cy="160.7564" r="3" /><circle cx="182.6614" cy="288.9244" r="3" /><circle cx="304.444" cy="108.1287" r="3" /><circle cx="299.8687" cy="116.2875" r="3" /><circle cx="298.3434" cy="112.9672" r="3" /><circle cx="318.208" cy="156.209" r="3" /><circle cx="338.3003" cy="199.9463" r="3" /><circle cx="327.9141" cy="177.3375" r="3" /><circle cx="340.4262" cy="204.5742" r="3" /><circle cx="96.7132" cy="331.4923" r="3" /><circle cx="154.6363" cy="367.271" r="3" /><circle cx="171.4553" cy="320.2522" r="3" /><circle cx="161.6488" cy="347.6671" r="3" /><circle cx="368.6087" cy="370.8613" r="3" /><circle cx="191.889" cy="335.1224" r="3" /><circle cx="354.7072" cy="178.166" r="3" /><circle cx="371.5767" cy="178.6877" r="3" /><circle cx="376.8403" cy="178.8504" r="3" /><circle cx="385.2879" cy="167.2934" r="3" /><circle cx="299.5941" cy="358.3524" r="3" /></svg>
