<?xml version="1.0" encoding="utf-8" ?>
<svg baseProfile="tiny" height="423px" version="1.2" width="497px" xmlns="http://www.w3.org/2000/svg" xmlns:ev="http://www.w3.org/2001/xml-events" xmlns:xlink="http://www.w3.org/1999/xlink"><defs /><line stroke="rgb(10%,10%,16%)" x1="88" x2="66" y1="94" y2="100" /><line stroke="rgb(10%,10%,16%)" x1="390" x2="365" y1="33" y2="56" /><line stroke="rgb(10%,10%,16%)" x1="103" x2="98" y1="386" y2="347" /><line stroke="rgb(10%,10%,16%)" x1="334" x2="365" y1="6" y2="56" /><line stroke="rgb(10%,10%,16%)" x1="249" x2="192" y1="262" y2="280" /><line stroke="rgb(10%,10%,16%)" x1="390" x2="334" y1="33" y2="6" /><line stroke="rgb(10%,10%,16%)" x1="494" x2="454" y1="130" y2="79" /><line stroke="rgb(10%,10%,16%)" x1="88" x2="88" y1="94" y2="23" /><line stroke="rgb(10%,10%,16%)" x1="103" x2="39" y1="386" y2="420" /><line stroke="rgb(10%,10%,16%)" x1="249" x2="208" y1="262" y2="198" /><line stroke="rgb(10%,10%,16%)" x1="390" x2="454" y1="33" y2="79" /><line stroke="rgb(10%,10%,16%)" x1="236" x2="295" y1="390" y2="337" /><line stroke="rgb(10%,10%,16%)" x1="114" x2="38" y1="256" y2="232" /><line stroke="rgb(10%,10%,16%)" x1="66" x2="88" y1="100" y2="23" /><line stroke="rgb(10%,10%,16%)" x1="114" x2="192" y1="256" y2="280" /><line stroke="rgb(10%,10%,16%)" x1="208" x2="192" y1="198" y2="280" /><line stroke="rgb(10%,10%,16%)" x1="249" x2="295" y1="262" y2="337" /><line stroke="rgb(10%,10%,16%)" x1="454" x2="365" y1="79" y2="56" /><line stroke="rgb(10%,10%,16%)" x1="98" x2="114" y1="347" y2="256" /><line stroke="rgb(10%,10%,16%)" x1="98" x2="39" y1="347" y2="420" /><line stroke="rgb(10%,10%,16%)" x1="249" x2="317" y1="262" y2="195" /><line stroke="rgb(10%,10%,16%)" x1="317" x2="208" y1="195" y2="198" /><line stroke="rgb(10%,10%,16%)" x1="208" x2="114" y1="198" y2="256" /><line stroke="rgb(10%,10%,16%)" x1="98" x2="192" y1="347" y2="280" /><line stroke="rgb(10%,10%,16%)" x1="295" x2="192" y1="337" y2="280" /><line stroke="rgb(10%,10%,16%)" x1="236" x2="192" y1="390" y2="280" /><line stroke="rgb(10%,10%,16%)" x1="98" x2="38" y1="347" y2="232" /><line stroke="rgb(10%,10%,16%)" x1="103" x2="236" y1="386" y2="390" /><line stroke="rgb(10%,10%,16%)" x1="38" x2="66" y1="232" y2="100" /><line stroke="rgb(10%,10%,16%)" x1="103" x2="192" y1="386" y2="280" /><line stroke="rgb(10%,10%,16%)" x1="317" x2="295" y1="195" y2="337" /><line stroke="rgb(10%,10%,16%)" x1="88" x2="38" y1="94" y2="232" /><line stroke="rgb(10%,10%,16%)" x1="317" x2="365" y1="195" y2="56" /><line stroke="rgb(10%,10%,16%)" x1="494" x2="365" y1="130" y2="56" /><line stroke="rgb(10%,10%,16%)" x1="88" x2="208" y1="94" y2="198" /><line stroke="rgb(10%,10%,16%)" x1="88" x2="114" y1="94" y2="256" /><line stroke="rgb(10%,10%,16%)" x1="39" x2="38" y1="420" y2="232" /><line stroke="rgb(10%,10%,16%)" x1="494" x2="317" y1="130" y2="195" /><line stroke="rgb(10%,10%,16%)" x1="317" x2="334" y1="195" y2="6" /><line stroke="rgb(10%,10%,16%)" x1="492" x2="295" y1="364" y2="337" /><line stroke="rgb(10%,10%,16%)" x1="39" x2="236" y1="420" y2="390" /><line stroke="rgb(10%,10%,16%)" x1="208" x2="88" y1="198" y2="23" /><line stroke="rgb(10%,10%,16%)" x1="208" x2="334" y1="198" y2="6" /><line stroke="rgb(10%,10%,16%)" x1="494" x2="492" y1="130" y2="364" /><line stroke="rgb(10%,10%,16%)" x1="317" x2="492" y1="195" y2="364" /><line stroke="rgb(10%,10%,16%)" x1="334" x2="88" y1="6" y2="23" /><line stroke="rgb(10%,10%,16%)" x1="492" x2="236" y1="364" y2="390" /><line stroke="rgb(10%,10%,16%)" x1="492" x2="39" y1="364" y2="420" /><circle cx="494" cy="130" r="3" /><circle cx="249" cy="262" r="3" /><circle cx="390" cy="33" r="3" /><circle cx="317" cy="195" r="3" /><circle cx="454" cy="79" r="3" /><circle cx="88" cy="94" r="3" /><circle cx="492" cy="364" r="3" /><circle cx="103" cy="386" r="3" /><circle cx="98" cy="347" r="3" /><circle cx="39" cy="420" r="3" /><circle cx="208" cy="198" r="3" /><circle cx="114" cy="256" r="3" /><circle cx="334" cy="6" r="3" /><circle cx="38" cy="232" r="3" /><circle cx="236" cy="390" r="3" /><circle cx="295" cy="337" r="3" /><circle cx="66" cy="100" r="3" /><circle cx="88" cy="23" r="3" /><circle cx="192" cy="280" r="3" /><circle cx="365" cy="56" r="3" /></svg>
