<?xml version="1.0" encoding="utf-8" ?>
<svg baseProfile="tiny" height="300" version="1.2" width="300" xmlns="http://www.w3.org/2000/svg" xmlns:ev="http://www.w3.org/2001/xml-events" xmlns:xlink="http://www.w3.org/1999/xlink"><defs /><line stroke="rgb(10%,10%,16%)" x1="0" x2="30" y1="0" y2="0" /><line stroke="rgb(10%,10%,16%)" x1="0" x2="0" y1="0" y2="30" /><line stroke="rgb(10%,10%,16%)" x1="0" x2="30" y1="300" y2="300" /><line stroke="rgb(10%,10%,16%)" x1="300" x2="300" y1="0" y2="30" /><line stroke="rgb(10%,10%,16%)" x1="30" x2="60" y1="0" y2="0" /><line stroke="rgb(10%,10%,16%)" x1="0" x2="0" y1="30" y2="60" /><line stroke="rgb(10%,10%,16%)" x1="30" x2="60" y1="300" y2="300" /><line stroke="rgb(10%,10%,16%)" x1="300" x2="300" y1="30" y2="60" /><line stroke="rgb(10%,10%,16%)" x1="60" x2="90" y1="0" y2="0" /><line stroke="rgb(10%,10%,16%)" x1="0" x2="0" y1="60" y2="90" /><line stroke="rgb(10%,10%,16%)" x1="60" x2="90" y1="300" y2="300" /><line stroke="rgb(10%,10%,16%)" x1="300" x2="300" y1="60" y2="90" /><line stroke="rgb(10%,10%,16%)" x1="90" x2="120" y1="0" y2="0" /><line stroke="rgb(10%,10%,16%)" x1="0" x2="0" y1="90" y2="120" /><line stroke="rgb(10%,10%,16%)" x1="90" x2="120" y1="300" y2="300" /><line stroke="rgb(10%,10%,16%)" x1="300" x2="300" y1="90" y2="120" /><line stroke="rgb(10%,10%,16%)" x1="120" x2="150" y1="0" y2="0" /><line stroke="rgb(10%,10%,16%)" x1="0" x2="0" y1="120" y2="150" /><line stroke="rgb(10%,10%,16%)" x1="120" x2="150" y1="300" y2="300" /><line stroke="rgb(10%,10%,16%)" x1="300" x2="300" y1="120" y2="150" /><line stroke="rgb(10%,10%,16%)" x1="150" x2="180" y1="0" y2="0" /><line stroke="rgb(10%,10%,16%)" x1="0" x2="0" y1="150" y2="180" /><line stroke="rgb(10%,10%,16%)" x1="150" x2="180" y1="300" y2="300" /><line stroke="rgb(10%,10%,16%)" x1="300" x2="300" y1="150" y2="180" /><line stroke="rgb(10%,10%,16%)" x1="180" x2="210" y1="0" y2="0" /><line stroke="rgb(10%,10%,16%)" x1="0" x2="0" y1="180" y2="210" /><line stroke="rgb(10%,10%,16%)" x1="180" x2="210" y1="300" y2="300" /><line stroke="rgb(10%,10%,16%)" x1="300" x2="300" y1="180" y2="210" /><line stroke="rgb(10%,10%,16%)" x1="210" x2="240" y1="0" y2="0" /><line stroke="rgb(10%,10%,16%)" x1="0" x2="0" y1="210" y2="240" /><line stroke="rgb(10%,10%,16%)" x1="210" x2="240" y1="300" y2="300" /><line stroke="rgb(10%,10%,16%)" x1="300" x2="300" y1="210" y2="240" /><line stroke="rgb(10%,10%,16%)" x1="240" x2="270" y1="0" y2="0" /><line stroke="rgb(10%,10%,16%)" x1="0" x2="0" y1="240" y2="270" /><line stroke="rgb(10%,10%,16%)" x1="240" x2="270" y1="300" y2="300" /><line stroke="rgb(10%,10%,16%)" x1="300" x2="300" y1="240" y2="270" /><line stroke="rgb(10%,10%,16%)" x1="270" x2="300" y1="0" y2="0" /><line stroke="rgb(10%,10%,16%)" x1="0" x2="0" y1="270" y2="300" /><line stroke="rgb(10%,10%,16%)" x1="270" x2="300" y1="300" y2="300" /><line stroke="rgb(10%,10%,16%)" x1="300" x2="300" y1="270" y2="300" /></svg>