<?xml version="1.0" encoding="utf-8" ?>
<svg baseProfile="tiny" height="120" version="1.2" width="120" xmlns="http://www.w3.org/2000/svg" xmlns:ev="http://www.w3.org/2001/xml-events" xmlns:xlink="http://www.w3.org/1999/xlink"><defs /><line stroke="rgb(10%,10%,16%)" x1="0" x2="30" y1="0" y2="0" /><line stroke="rgb(10%,10%,16%)" x1="0" x2="0" y1="0" y2="30" /><line stroke="rgb(10%,10%,16%)" x1="0" x2="30" y1="120" y2="120" /><line stroke="rgb(10%,10%,16%)" x1="120" x2="120" y1="0" y2="30" /><line stroke="rgb(10%,10%,16%)" x1="30" x2="60" y1="0" y2="0" /><line stroke="rgb(10%,10%,16%)" x1="0" x2="0" y1="30" y2="60" /><line stroke="rgb(10%,10%,16%)" x1="30" x2="60" y1="120" y2="120" /><line stroke="rgb(10%,10%,16%)" x1="120" x2="120" y1="30" y2="60" /><line stroke="rgb(10%,10%,16%)" x1="60" x2="90" y1="0" y2="0" /><line stroke="rgb(10%,10%,16%)" x1="0" x2="0" y1="60" y2="90" /><line stroke="rgb(10%,10%,16%)" x1="60" x2="90" y1="120" y2="120" /><line stroke="rgb(10%,10%,16%)" x1="120" x2="120" y1="60" y2="90" /><line stroke="rgb(10%,10%,16%)" x1="90" x2="120" y1="0" y2="0" /><line stroke="rgb(10%,10%,16%)" x1="0" x2="0" y1="90" y2="120" /><line stroke="rgb(10%,10%,16%)" x1="90" x2="120" y1="120" y2="120" /><line stroke="rgb(10%,10%,16%)" x1="120" x2="120" y1="90" y2="120" /><line stroke="rgb(10%,10%,16%)" x1="30" x2="30" y1="120" y2="90" /><line stroke="rgb(10%,10%,16%)" x1="60" x2="30" y1="30" y2="30" /><line stroke="rgb(10%,10%,16%)" x1="60" x2="60" y1="60" y2="30" /><line stroke="rgb(10%,10%,16%)" x1="60" x2="30" y1="60" y2="60" /><line stroke="rgb(10%,10%,16%)" x1="90" x2="90" y1="30" y2="0" /><line stroke="rgb(10%,10%,16%)" x1="90" x2="60" y1="60" y2="60" /><line stroke="rgb(10%,10%,16%)" x1="90" x2="90" y1="90" y2="60" /></svg>