<?xml version="1.0" encoding="utf-8" ?>
<svg baseProfile="tiny" height="210" version="1.2" width="210" xmlns="http://www.w3.org/2000/svg" xmlns:ev="http://www.w3.org/2001/xml-events" xmlns:xlink="http://www.w3.org/1999/xlink"><defs /><circle cx="135.0" cy="195.0" fill="rgb(0%,100%,50%)" r="3" /><circle cx="165.0" cy="195.0" fill="rgb(0%,100%,50%)" r="3" /><circle cx="195.0" cy="195.0" fill="rgb(0%,100%,50%)" r="3" /><circle cx="195.0" cy="195.0" fill="rgb(100%,10%,16%)" r="3" /><circle cx="195.0" cy="165.0" fill="rgb(0%,100%,50%)" r="3" /><circle cx="195.0" cy="135.0" fill="rgb(0%,100%,50%)" r="3" /><circle cx="195.0" cy="105.0" fill="rgb(0%,100%,50%)" r="3" /><circle cx="195.0" cy="75.0" fill="rgb(0%,100%,50%)" r="3" /><circle cx="195.0" cy="45.0" fill="rgb(0%,100%,50%)" r="3" /><circle cx="195.0" cy="15.0" fill="rgb(0%,100%,50%)" r="3" /><circle cx="195.0" cy="15.0" fill="rgb(100%,10%,16%)" r="3" /><circle cx="165.0" cy="15.0" fill="rgb(0%,100%,50%)" r="3" /><circle cx="135.0" cy="15.0" fill="rgb(0%,100%,50%)" r="3" /><circle cx="105.0" cy="15.0" fill="rgb(0%,100%,50%)" r="3" /><circle cx="75.0" cy="15.0" fill="rgb(0%,100%,50%)" r="3" /><circle cx="45.0" cy="15.0" fill="rgb(0%,100%,50%)" r="3" /><circle cx="15.0" cy="15.0" fill="rgb(0%,100%,50%)" r="3" /><line stroke="rgb(10%,10%,16%)" x1="0" x2="30" y1="0" y2="0" /><line stroke="rgb(10%,10%,16%)" x1="0" x2="0" y1="0" y2="30" /><line stroke="rgb(10%,10%,16%)" x1="0" x2="30" y1="210" y2="210" /><line stroke="rgb(10%,10%,16%)" x1="210" x2="210" y1="0" y2="30" /><line stroke="rgb(10%,10%,16%)" x1="30" x2="60" y1="0" y2="0" /><line stroke="rgb(10%,10%,16%)" x1="0" x2="0" y1="30" y2="60" /><line stroke="rgb(10%,10%,16%)" x1="30" x2="60" y1="210" y2="210" /><line stroke="rgb(10%,10%,16%)" x1="210" x2="210" y1="30" y2="60" /><line stroke="rgb(10%,10%,16%)" x1="60" x2="90" y1="0" y2="0" /><line stroke="rgb(10%,10%,16%)" x1="0" x2="0" y1="60" y2="90" /><line stroke="rgb(10%,10%,16%)" x1="60" x2="90" y1="210" y2="210" /><line stroke="rgb(10%,10%,16%)" x1="210" x2="210" y1="60" y2="90" /><line stroke="rgb(10%,10%,16%)" x1="90" x2="120" y1="0" y2="0" /><line stroke="rgb(10%,10%,16%)" x1="0" x2="0" y1="90" y2="120" /><line stroke="rgb(10%,10%,16%)" x1="90" x2="120" y1="210" y2="210" /><line stroke="rgb(10%,10%,16%)" x1="210" x2="210" y1="90" y2="120" /><line stroke="rgb(10%,10%,16%)" x1="120" x2="150" y1="0" y2="0" /><line stroke="rgb(10%,10%,16%)" x1="0" x2="0" y1="120" y2="150" /><line stroke="rgb(10%,10%,16%)" x1="120" x2="150" y1="210" y2="210" /><line stroke="rgb(10%,10%,16%)" x1="210" x2="210" y1="120" y2="150" /><line stroke="rgb(10%,10%,16%)" x1="150" x2="180" y1="0" y2="0" /><line stroke="rgb(10%,10%,16%)" x1="0" x2="0" y1="150" y2="180" /><line stroke="rgb(10%,10%,16%)" x1="150" x2="180" y1="210" y2="210" /><line stroke="rgb(10%,10%,16%)" x1="210" x2="210" y1="150" y2="180" /><line stroke="rgb(10%,10%,16%)" x1="180" x2="210" y1="0" y2="0" /><line stroke="rgb(10%,10%,16%)" x1="0" x2="0" y1="180" y2="210" /><line stroke="rgb(10%,10%,16%)" x1="180" x2="210" y1="210" y2="210" /><line stroke="rgb(10%,10%,16%)" x1="210" x2="210" y1="180" y2="210" /><line stroke="rgb(10%,10%,16%)" x1="30" x2="0" y1="30" y2="30" /><line stroke="rgb(10%,10%,16%)" x1="30" x2="30" y1="60" y2="30" /><line stroke="rgb(10%,10%,16%)" x1="30" x2="30" y1="90" y2="60" /><line stroke="rgb(10%,10%,16%)" x1="60" x2="60" y1="60" y2="30" /><line stroke="rgb(10%,10%,16%)" x1="60" x2="30" y1="90" y2="90" /><line stroke="rgb(10%,10%,16%)" x1="60" x2="60" y1="120" y2="90" /><line stroke="rgb(10%,10%,16%)" x1="90" x2="60" y1="30" y2="30" /><line stroke="rgb(10%,10%,16%)" x1="90" x2="60" y1="60" y2="60" /><line stroke="rgb(10%,10%,16%)" x1="90" x2="90" y1="90" y2="60" /><line stroke="rgb(10%,10%,16%)" x1="90" x2="60" y1="120" y2="120" /><line stroke="rgb(10%,10%,16%)" x1="90" x2="90" y1="150" y2="120" /><line stroke="rgb(10%,10%,16%)" x1="120" x2="90" y1="30" y2="30" /><line stroke="rgb(10%,10%,16%)" x1="120" x2="90" y1="90" y2="90" /><line stroke="rgb(10%,10%,16%)" x1="120" x2="120" y1="120" y2="90" /><line stroke="rgb(10%,10%,16%)" x1="120" x2="90" y1="150" y2="150" /><line stroke="rgb(10%,10%,16%)" x1="120" x2="120" y1="180" y2="150" /><line stroke="rgb(10%,10%,16%)" x1="150" x2="120" y1="30" y2="30" /><line stroke="rgb(10%,10%,16%)" x1="150" x2="120" y1="120" y2="120" /><line stroke="rgb(10%,10%,16%)" x1="150" x2="150" y1="150" y2="120" /><line stroke="rgb(10%,10%,16%)" x1="150" x2="120" y1="180" y2="180" /><line stroke="rgb(10%,10%,16%)" x1="180" x2="150" y1="30" y2="30" /><line stroke="rgb(10%,10%,16%)" x1="180" x2="180" y1="60" y2="30" /><line stroke="rgb(10%,10%,16%)" x1="180" x2="180" y1="90" y2="60" /><line stroke="rgb(10%,10%,16%)" x1="180" x2="180" y1="120" y2="90" /><line stroke="rgb(10%,10%,16%)" x1="180" x2="180" y1="150" y2="120" /><line stroke="rgb(10%,10%,16%)" x1="180" x2="150" y1="150" y2="150" /><line stroke="rgb(10%,10%,16%)" x1="180" x2="150" y1="180" y2="180" /></svg>