<?xml version="1.0" encoding="utf-8" ?>
<svg baseProfile="tiny" height="100%" version="1.2" width="100%" xmlns="http://www.w3.org/2000/svg" xmlns:ev="http://www.w3.org/2001/xml-events" xmlns:xlink="http://www.w3.org/1999/xlink"><defs /><line stroke="rgb(10%,10%,16%)" x1="252.5501" x2="240.1894" y1="146.275" y2="184.3173" /><line stroke="rgb(10%,10%,16%)" x1="240.1894" x2="216.678" y1="184.3173" y2="216.678" /><line stroke="rgb(10%,10%,16%)" x1="216.678" x2="184.3173" y1="216.678" y2="240.1894" /><line stroke="rgb(10%,10%,16%)" x1="184.3173" x2="146.275" y1="240.1894" y2="252.5501" /><line stroke="rgb(10%,10%,16%)" x1="146.275" x2="106.275" y1="252.5501" y2="252.5501" /><line stroke="rgb(10%,10%,16%)" x1="106.275" x2="68.2328" y1="252.5501" y2="240.1894" /><line stroke="rgb(10%,10%,16%)" x1="68.2328" x2="35.8721" y1="240.1894" y2="216.678" /><line stroke="rgb(10%,10%,16%)" x1="35.8721" x2="12.3607" y1="216.678" y2="184.3173" /><line stroke="rgb(10%,10%,16%)" x1="12.3607" x2="0.0" y1="184.3173" y2="146.275" /><line stroke="rgb(10%,10%,16%)" x1="0.0" x2="0.0" y1="146.275" y2="106.275" /><line stroke="rgb(10%,10%,16%)" x1="0.0" x2="12.3607" y1="106.275" y2="68.2328" /><line stroke="rgb(10%,10%,16%)" x1="12.3607" x2="35.8721" y1="68.2328" y2="35.8721" /><line stroke="rgb(10%,10%,16%)" x1="35.8721" x2="68.2328" y1="35.8721" y2="12.3607" /><line stroke="rgb(10%,10%,16%)" x1="68.2328" x2="106.275" y1="12.3607" y2="0.0" /><line stroke="rgb(10%,10%,16%)" x1="106.275" x2="146.275" y1="0.0" y2="0.0" /><line stroke="rgb(10%,10%,16%)" x1="146.275" x2="184.3173" y1="0.0" y2="12.3607" /><line stroke="rgb(10%,10%,16%)" x1="184.3173" x2="216.678" y1="12.3607" y2="35.8721" /><line stroke="rgb(10%,10%,16%)" x1="216.678" x2="240.1894" y1="35.8721" y2="68.2328" /><line stroke="rgb(10%,10%,16%)" x1="240.1894" x2="252.5501" y1="68.2328" y2="106.275" /><line stroke="rgb(10%,10%,16%)" x1="252.5501" x2="252.5501" y1="106.275" y2="146.275" /></svg>