<?xml version="1.0" encoding="utf-8" ?>
<svg baseProfile="tiny" height="100%" version="1.2" width="100%" xmlns="http://www.w3.org/2000/svg" xmlns:ev="http://www.w3.org/2001/xml-events" xmlns:xlink="http://www.w3.org/1999/xlink"><defs /><line stroke="rgb(10%,10%,16%)" x1="119.8704" x2="146.3161" y1="253.0" y2="1.386" /><line stroke="rgb(10%,10%,16%)" x1="146.3161" x2="93.7145" y1="1.386" y2="248.8573" /><line stroke="rgb(10%,10%,16%)" x1="93.7145" x2="171.8958" y1="248.8573" y2="8.24" /><line stroke="rgb(10%,10%,16%)" x1="171.8958" x2="68.9914" y1="8.24" y2="239.367" /><line stroke="rgb(10%,10%,16%)" x1="68.9914" x2="195.4914" y1="239.367" y2="20.2626" /><line stroke="rgb(10%,10%,16%)" x1="195.4914" x2="46.7817" y1="20.2626" y2="224.9439" /><line stroke="rgb(10%,10%,16%)" x1="46.7817" x2="216.0718" y1="224.9439" y2="36.9282" /><line stroke="rgb(10%,10%,16%)" x1="216.0718" x2="28.0561" y1="36.9282" y2="206.2183" /><line stroke="rgb(10%,10%,16%)" x1="28.0561" x2="232.7374" y1="206.2183" y2="57.5086" /><line stroke="rgb(10%,10%,16%)" x1="232.7374" x2="13.633" y1="57.5086" y2="184.0086" /><line stroke="rgb(10%,10%,16%)" x1="13.633" x2="244.76" y1="184.0086" y2="81.1042" /><line stroke="rgb(10%,10%,16%)" x1="244.76" x2="4.1427" y1="81.1042" y2="159.2855" /><line stroke="rgb(10%,10%,16%)" x1="4.1427" x2="251.614" y1="159.2855" y2="106.6839" /><line stroke="rgb(10%,10%,16%)" x1="251.614" x2="0.0" y1="106.6839" y2="133.1296" /><line stroke="rgb(10%,10%,16%)" x1="0.0" x2="253.0" y1="133.1296" y2="133.1296" /><line stroke="rgb(10%,10%,16%)" x1="253.0" x2="1.386" y1="133.1296" y2="106.6839" /><line stroke="rgb(10%,10%,16%)" x1="1.386" x2="248.8573" y1="106.6839" y2="159.2855" /><line stroke="rgb(10%,10%,16%)" x1="248.8573" x2="8.24" y1="159.2855" y2="81.1042" /><line stroke="rgb(10%,10%,16%)" x1="8.24" x2="239.367" y1="81.1042" y2="184.0086" /><line stroke="rgb(10%,10%,16%)" x1="239.367" x2="20.2626" y1="184.0086" y2="57.5086" /><line stroke="rgb(10%,10%,16%)" x1="20.2626" x2="224.9439" y1="57.5086" y2="206.2183" /><line stroke="rgb(10%,10%,16%)" x1="224.9439" x2="36.9282" y1="206.2183" y2="36.9282" /><line stroke="rgb(10%,10%,16%)" x1="36.9282" x2="206.2183" y1="36.9282" y2="224.9439" /><line stroke="rgb(10%,10%,16%)" x1="206.2183" x2="57.5086" y1="224.9439" y2="20.2626" /><line stroke="rgb(10%,10%,16%)" x1="57.5086" x2="184.0086" y1="20.2626" y2="239.367" /><line stroke="rgb(10%,10%,16%)" x1="184.0086" x2="81.1042" y1="239.367" y2="8.24" /><line stroke="rgb(10%,10%,16%)" x1="81.1042" x2="159.2855" y1="8.24" y2="248.8573" /><line stroke="rgb(10%,10%,16%)" x1="159.2855" x2="106.6839" y1="248.8573" y2="1.386" /><line stroke="rgb(10%,10%,16%)" x1="106.6839" x2="133.1296" y1="1.386" y2="253.0" /><line stroke="rgb(10%,10%,16%)" x1="133.1296" x2="133.1296" y1="253.0" y2="0.0" /><line stroke="rgb(10%,10%,16%)" x1="133.1296" x2="106.6839" y1="0.0" y2="251.614" /><line stroke="rgb(10%,10%,16%)" x1="106.6839" x2="159.2855" y1="251.614" y2="4.1427" /><line stroke="rgb(10%,10%,16%)" x1="159.2855" x2="81.1042" y1="4.1427" y2="244.76" /><line stroke="rgb(10%,10%,16%)" x1="81.1042" x2="184.0086" y1="244.76" y2="13.633" /><line stroke="rgb(10%,10%,16%)" x1="184.0086" x2="57.5086" y1="13.633" y2="232.7374" /><line stroke="rgb(10%,10%,16%)" x1="57.5086" x2="206.2183" y1="232.7374" y2="28.0561" /><line stroke="rgb(10%,10%,16%)" x1="206.2183" x2="36.9282" y1="28.0561" y2="216.0718" /><line stroke="rgb(10%,10%,16%)" x1="36.9282" x2="224.9439" y1="216.0718" y2="46.7817" /><line stroke="rgb(10%,10%,16%)" x1="224.9439" x2="20.2626" y1="46.7817" y2="195.4914" /><line stroke="rgb(10%,10%,16%)" x1="20.2626" x2="239.367" y1="195.4914" y2="68.9914" /><line stroke="rgb(10%,10%,16%)" x1="239.367" x2="8.24" y1="68.9914" y2="171.8958" /><line stroke="rgb(10%,10%,16%)" x1="8.24" x2="248.8573" y1="171.8958" y2="93.7145" /><line stroke="rgb(10%,10%,16%)" x1="248.8573" x2="1.386" y1="93.7145" y2="146.3161" /><line stroke="rgb(10%,10%,16%)" x1="1.386" x2="253.0" y1="146.3161" y2="119.8704" /><line stroke="rgb(10%,10%,16%)" x1="253.0" x2="0.0" y1="119.8704" y2="119.8704" /><line stroke="rgb(10%,10%,16%)" x1="0.0" x2="251.614" y1="119.8704" y2="146.3161" /><line stroke="rgb(10%,10%,16%)" x1="251.614" x2="4.1427" y1="146.3161" y2="93.7145" /><line stroke="rgb(10%,10%,16%)" x1="4.1427" x2="244.76" y1="93.7145" y2="171.8958" /><line stroke="rgb(10%,10%,16%)" x1="244.76" x2="13.633" y1="171.8958" y2="68.9914" /><line stroke="rgb(10%,10%,16%)" x1="13.633" x2="232.7374" y1="68.9914" y2="195.4914" /><line stroke="rgb(10%,10%,16%)" x1="232.7374" x2="28.0561" y1="195.4914" y2="46.7817" /><line stroke="rgb(10%,10%,16%)" x1="28.0561" x2="216.0718" y1="46.7817" y2="216.0718" /><line stroke="rgb(10%,10%,16%)" x1="216.0718" x2="46.7817" y1="216.0718" y2="28.0561" /><line stroke="rgb(10%,10%,16%)" x1="46.7817" x2="195.4914" y1="28.0561" y2="232.7374" /><line stroke="rgb(10%,10%,16%)" x1="195.4914" x2="68.9914" y1="232.7374" y2="13.633" /><line stroke="rgb(10%,10%,16%)" x1="68.9914" x2="171.8958" y1="13.633" y2="244.76" /><line stroke="rgb(10%,10%,16%)" x1="171.8958" x2="93.7145" y1="244.76" y2="4.1427" /><line stroke="rgb(10%,10%,16%)" x1="93.7145" x2="146.3161" y1="4.1427" y2="251.614" /><line stroke="rgb(10%,10%,16%)" x1="146.3161" x2="119.8704" y1="251.614" y2="0.0" /><line stroke="rgb(10%,10%,16%)" x1="119.8704" x2="119.8704" y1="0.0" y2="253.0" /></svg>