<?xml version="1.0" encoding="utf-8" ?>
<svg baseProfile="tiny" height="100%" version="1.2" width="100%" xmlns="http://www.w3.org/2000/svg" xmlns:ev="http://www.w3.org/2001/xml-events" xmlns:xlink="http://www.w3.org/1999/xlink"><defs /><line stroke="rgb(10%,10%,16%)" x1="189.5184" x2="231.3298" y1="400.0" y2="2.1912" /><line stroke="rgb(10%,10%,16%)" x1="231.3298" x2="148.1652" y1="2.1912" y2="393.4503" /><line stroke="rgb(10%,10%,16%)" x1="148.1652" x2="271.772" y1="393.4503" y2="13.0277" /><line stroke="rgb(10%,10%,16%)" x1="271.772" x2="109.0773" y1="13.0277" y2="378.4459" /><line stroke="rgb(10%,10%,16%)" x1="109.0773" x2="309.0773" y1="378.4459" y2="32.0357" /><line stroke="rgb(10%,10%,16%)" x1="309.0773" x2="73.9632" y1="32.0357" y2="355.6425" /><line stroke="rgb(10%,10%,16%)" x1="73.9632" x2="341.6154" y1="355.6425" y2="58.3846" /><line stroke="rgb(10%,10%,16%)" x1="341.6154" x2="44.3575" y1="58.3846" y2="326.0368" /><line stroke="rgb(10%,10%,16%)" x1="44.3575" x2="367.9643" y1="326.0368" y2="90.9227" /><line stroke="rgb(10%,10%,16%)" x1="367.9643" x2="21.5541" y1="90.9227" y2="290.9227" /><line stroke="rgb(10%,10%,16%)" x1="21.5541" x2="386.9723" y1="290.9227" y2="128.228" /><line stroke="rgb(10%,10%,16%)" x1="386.9723" x2="6.5497" y1="128.228" y2="251.8348" /><line stroke="rgb(10%,10%,16%)" x1="6.5497" x2="397.8088" y1="251.8348" y2="168.6702" /><line stroke="rgb(10%,10%,16%)" x1="397.8088" x2="0.0" y1="168.6702" y2="210.4816" /><line stroke="rgb(10%,10%,16%)" x1="0.0" x2="400.0" y1="210.4816" y2="210.4816" /><line stroke="rgb(10%,10%,16%)" x1="400.0" x2="2.1912" y1="210.4816" y2="168.6702" /><line stroke="rgb(10%,10%,16%)" x1="2.1912" x2="393.4503" y1="168.6702" y2="251.8348" /><line stroke="rgb(10%,10%,16%)" x1="393.4503" x2="13.0277" y1="251.8348" y2="128.228" /><line stroke="rgb(10%,10%,16%)" x1="13.0277" x2="378.4459" y1="128.228" y2="290.9227" /><line stroke="rgb(10%,10%,16%)" x1="378.4459" x2="32.0357" y1="290.9227" y2="90.9227" /><line stroke="rgb(10%,10%,16%)" x1="32.0357" x2="355.6425" y1="90.9227" y2="326.0368" /><line stroke="rgb(10%,10%,16%)" x1="355.6425" x2="58.3846" y1="326.0368" y2="58.3846" /><line stroke="rgb(10%,10%,16%)" x1="58.3846" x2="326.0368" y1="58.3846" y2="355.6425" /><line stroke="rgb(10%,10%,16%)" x1="326.0368" x2="90.9227" y1="355.6425" y2="32.0357" /><line stroke="rgb(10%,10%,16%)" x1="90.9227" x2="290.9227" y1="32.0357" y2="378.4459" /><line stroke="rgb(10%,10%,16%)" x1="290.9227" x2="128.228" y1="378.4459" y2="13.0277" /><line stroke="rgb(10%,10%,16%)" x1="128.228" x2="251.8348" y1="13.0277" y2="393.4503" /><line stroke="rgb(10%,10%,16%)" x1="251.8348" x2="168.6702" y1="393.4503" y2="2.1912" /><line stroke="rgb(10%,10%,16%)" x1="168.6702" x2="210.4816" y1="2.1912" y2="400.0" /><line stroke="rgb(10%,10%,16%)" x1="210.4816" x2="210.4816" y1="400.0" y2="0.0" /><line stroke="rgb(10%,10%,16%)" x1="210.4816" x2="168.6702" y1="0.0" y2="397.8088" /><line stroke="rgb(10%,10%,16%)" x1="168.6702" x2="251.8348" y1="397.8088" y2="6.5497" /><line stroke="rgb(10%,10%,16%)" x1="251.8348" x2="128.228" y1="6.5497" y2="386.9723" /><line stroke="rgb(10%,10%,16%)" x1="128.228" x2="290.9227" y1="386.9723" y2="21.5541" /><line stroke="rgb(10%,10%,16%)" x1="290.9227" x2="90.9227" y1="21.5541" y2="367.9643" /><line stroke="rgb(10%,10%,16%)" x1="90.9227" x2="326.0368" y1="367.9643" y2="44.3575" /><line stroke="rgb(10%,10%,16%)" x1="326.0368" x2="58.3846" y1="44.3575" y2="341.6154" /><line stroke="rgb(10%,10%,16%)" x1="58.3846" x2="355.6425" y1="341.6154" y2="73.9632" /><line stroke="rgb(10%,10%,16%)" x1="355.6425" x2="32.0357" y1="73.9632" y2="309.0773" /><line stroke="rgb(10%,10%,16%)" x1="32.0357" x2="378.4459" y1="309.0773" y2="109.0773" /><line stroke="rgb(10%,10%,16%)" x1="378.4459" x2="13.0277" y1="109.0773" y2="271.772" /><line stroke="rgb(10%,10%,16%)" x1="13.0277" x2="393.4503" y1="271.772" y2="148.1652" /><line stroke="rgb(10%,10%,16%)" x1="393.4503" x2="2.1912" y1="148.1652" y2="231.3298" /><line stroke="rgb(10%,10%,16%)" x1="2.1912" x2="400.0" y1="231.3298" y2="189.5184" /><line stroke="rgb(10%,10%,16%)" x1="400.0" x2="0.0" y1="189.5184" y2="189.5184" /><line stroke="rgb(10%,10%,16%)" x1="0.0" x2="397.8088" y1="189.5184" y2="231.3298" /><line stroke="rgb(10%,10%,16%)" x1="397.8088" x2="6.5497" y1="231.3298" y2="148.1652" /><line stroke="rgb(10%,10%,16%)" x1="6.5497" x2="386.9723" y1="148.1652" y2="271.772" /><line stroke="rgb(10%,10%,16%)" x1="386.9723" x2="21.5541" y1="271.772" y2="109.0773" /><line stroke="rgb(10%,10%,16%)" x1="21.5541" x2="367.9643" y1="109.0773" y2="309.0773" /><line stroke="rgb(10%,10%,16%)" x1="367.9643" x2="44.3575" y1="309.0773" y2="73.9632" /><line stroke="rgb(10%,10%,16%)" x1="44.3575" x2="341.6154" y1="73.9632" y2="341.6154" /><line stroke="rgb(10%,10%,16%)" x1="341.6154" x2="73.9632" y1="341.6154" y2="44.3575" /><line stroke="rgb(10%,10%,16%)" x1="73.9632" x2="309.0773" y1="44.3575" y2="367.9643" /><line stroke="rgb(10%,10%,16%)" x1="309.0773" x2="109.0773" y1="367.9643" y2="21.5541" /><line stroke="rgb(10%,10%,16%)" x1="109.0773" x2="271.772" y1="21.5541" y2="386.9723" /><line stroke="rgb(10%,10%,16%)" x1="271.772" x2="148.1652" y1="386.9723" y2="6.5497" /><line stroke="rgb(10%,10%,16%)" x1="148.1652" x2="231.3298" y1="6.5497" y2="397.8088" /><line stroke="rgb(10%,10%,16%)" x1="231.3298" x2="189.5184" y1="397.8088" y2="0.0" /><line stroke="rgb(10%,10%,16%)" x1="189.5184" x2="189.5184" y1="0.0" y2="400.0" /></svg>