<?xml version="1.0" encoding="utf-8" ?>
<svg baseProfile="tiny" height="262px" version="1.2" width="262px" xmlns="http://www.w3.org/2000/svg" xmlns:ev="http://www.w3.org/2001/xml-events" xmlns:xlink="http://www.w3.org/1999/xlink"><defs /><line stroke="rgb(10%,10%,16%)" x1="130.6218" x2="113.1218" y1="130.6218" y2="160.9327" /><line stroke="rgb(10%,10%,16%)" x1="113.1218" x2="82.8109" y1="160.9327" y2="178.4327" /><line stroke="rgb(10%,10%,16%)" x1="82.8109" x2="47.8109" y1="178.4327" y2="178.4327" /><line stroke="rgb(10%,10%,16%)" x1="47.8109" x2="17.5" y1="178.4327" y2="160.9327" /><line stroke="rgb(10%,10%,16%)" x1="17.5" x2="0.0" y1="160.9327" y2="130.6218" /><line stroke="rgb(10%,10%,16%)" x1="0.0" x2="0.0" y1="130.6218" y2="95.6218" /><line stroke="rgb(10%,10%,16%)" x1="0.0" x2="17.5" y1="95.6218" y2="65.3109" /><line stroke="rgb(10%,10%,16%)" x1="17.5" x2="47.8109" y1="65.3109" y2="47.8109" /><line stroke="rgb(10%,10%,16%)" x1="47.8109" x2="82.8109" y1="47.8109" y2="47.8109" /><line stroke="rgb(10%,10%,16%)" x1="82.8109" x2="113.1218" y1="47.8109" y2="65.3109" /><line stroke="rgb(10%,10%,16%)" x1="113.1218" x2="130.6218" y1="65.3109" y2="95.6218" /><line stroke="rgb(10%,10%,16%)" x1="130.6218" x2="130.6218" y1="95.6218" y2="130.6218" /><line stroke="rgb(10%,10%,16%)" x1="130.6218" x2="100.3109" y1="130.6218" y2="148.1218" /><line stroke="rgb(10%,10%,16%)" x1="100.3109" x2="65.3109" y1="148.1218" y2="148.1218" /><line stroke="rgb(10%,10%,16%)" x1="65.3109" x2="35.0" y1="148.1218" y2="130.6218" /><line stroke="rgb(10%,10%,16%)" x1="35.0" x2="17.5" y1="130.6218" y2="100.3109" /><line stroke="rgb(10%,10%,16%)" x1="17.5" x2="17.5" y1="100.3109" y2="65.3109" /><line stroke="rgb(10%,10%,16%)" x1="17.5" x2="35.0" y1="65.3109" y2="35.0" /><line stroke="rgb(10%,10%,16%)" x1="35.0" x2="65.3109" y1="35.0" y2="17.5" /><line stroke="rgb(10%,10%,16%)" x1="65.3109" x2="100.3109" y1="17.5" y2="17.5" /><line stroke="rgb(10%,10%,16%)" x1="100.3109" x2="130.6218" y1="17.5" y2="35.0" /><line stroke="rgb(10%,10%,16%)" x1="130.6218" x2="148.1218" y1="35.0" y2="65.3109" /><line stroke="rgb(10%,10%,16%)" x1="148.1218" x2="148.1218" y1="65.3109" y2="100.3109" /><line stroke="rgb(10%,10%,16%)" x1="148.1218" x2="130.6218" y1="100.3109" y2="130.6218" /><line stroke="rgb(10%,10%,16%)" x1="130.6218" x2="95.6218" y1="130.6218" y2="130.6218" /><line stroke="rgb(10%,10%,16%)" x1="95.6218" x2="65.3109" y1="130.6218" y2="113.1218" /><line stroke="rgb(10%,10%,16%)" x1="65.3109" x2="47.8109" y1="113.1218" y2="82.8109" /><line stroke="rgb(10%,10%,16%)" x1="47.8109" x2="47.8109" y1="82.8109" y2="47.8109" /><line stroke="rgb(10%,10%,16%)" x1="47.8109" x2="65.3109" y1="47.8109" y2="17.5" /><line stroke="rgb(10%,10%,16%)" x1="65.3109" x2="95.6218" y1="17.5" y2="0.0" /><line stroke="rgb(10%,10%,16%)" x1="95.6218" x2="130.6218" y1="0.0" y2="0.0" /><line stroke="rgb(10%,10%,16%)" x1="130.6218" x2="160.9327" y1="0.0" y2="17.5" /><line stroke="rgb(10%,10%,16%)" x1="160.9327" x2="178.4327" y1="17.5" y2="47.8109" /><line stroke="rgb(10%,10%,16%)" x1="178.4327" x2="178.4327" y1="47.8109" y2="82.8109" /><line stroke="rgb(10%,10%,16%)" x1="178.4327" x2="160.9327" y1="82.8109" y2="113.1218" /><line stroke="rgb(10%,10%,16%)" x1="160.9327" x2="130.6218" y1="113.1218" y2="130.6218" /><line stroke="rgb(10%,10%,16%)" x1="130.6218" x2="100.3109" y1="130.6218" y2="113.1218" /><line stroke="rgb(10%,10%,16%)" x1="100.3109" x2="82.8109" y1="113.1218" y2="82.8109" /><line stroke="rgb(10%,10%,16%)" x1="82.8109" x2="82.8109" y1="82.8109" y2="47.8109" /><line stroke="rgb(10%,10%,16%)" x1="82.8109" x2="100.3109" y1="47.8109" y2="17.5" /><line stroke="rgb(10%,10%,16%)" x1="100.3109" x2="130.6218" y1="17.5" y2="0.0" /><line stroke="rgb(10%,10%,16%)" x1="130.6218" x2="165.6218" y1="0.0" y2="0.0" /><line stroke="rgb(10%,10%,16%)" x1="165.6218" x2="195.9327" y1="0.0" y2="17.5" /><line stroke="rgb(10%,10%,16%)" x1="195.9327" x2="213.4327" y1="17.5" y2="47.8109" /><line stroke="rgb(10%,10%,16%)" x1="213.4327" x2="213.4327" y1="47.8109" y2="82.8109" /><line stroke="rgb(10%,10%,16%)" x1="213.4327" x2="195.9327" y1="82.8109" y2="113.1218" /><line stroke="rgb(10%,10%,16%)" x1="195.9327" x2="165.6218" y1="113.1218" y2="130.6218" /><line stroke="rgb(10%,10%,16%)" x1="165.6218" x2="130.6218" y1="130.6218" y2="130.6218" /><line stroke="rgb(10%,10%,16%)" x1="130.6218" x2="113.1218" y1="130.6218" y2="100.3109" /><line stroke="rgb(10%,10%,16%)" x1="113.1218" x2="113.1218" y1="100.3109" y2="65.3109" /><line stroke="rgb(10%,10%,16%)" x1="113.1218" x2="130.6218" y1="65.3109" y2="35.0" /><line stroke="rgb(10%,10%,16%)" x1="130.6218" x2="160.9327" y1="35.0" y2="17.5" /><line stroke="rgb(10%,10%,16%)" x1="160.9327" x2="195.9327" y1="17.5" y2="17.5" /><line stroke="rgb(10%,10%,16%)" x1="195.9327" x2="226.2436" y1="17.5" y2="35.0" /><line stroke="rgb(10%,10%,16%)" x1="226.2436" x2="243.7436" y1="35.0" y2="65.3109" /><line stroke="rgb(10%,10%,16%)" x1="243.7436" x2="243.7436" y1="65.3109" y2="100.3109" /><line stroke="rgb(10%,10%,16%)" x1="243.7436" x2="226.2436" y1="100.3109" y2="130.6218" /><line stroke="rgb(10%,10%,16%)" x1="226.2436" x2="195.9327" y1="130.6218" y2="148.1218" /><line stroke="rgb(10%,10%,16%)" x1="195.9327" x2="160.9327" y1="148.1218" y2="148.1218" /><line stroke="rgb(10%,10%,16%)" x1="160.9327" x2="130.6218" y1="148.1218" y2="130.6218" /><line stroke="rgb(10%,10%,16%)" x1="130.6218" x2="130.6218" y1="130.6218" y2="95.6218" /><line stroke="rgb(10%,10%,16%)" x1="130.6218" x2="148.1218" y1="95.6218" y2="65.3109" /><line stroke="rgb(10%,10%,16%)" x1="148.1218" x2="178.4327" y1="65.3109" y2="47.8109" /><line stroke="rgb(10%,10%,16%)" x1="178.4327" x2="213.4327" y1="47.8109" y2="47.8109" /><line stroke="rgb(10%,10%,16%)" x1="213.4327" x2="243.7436" y1="47.8109" y2="65.3109" /><line stroke="rgb(10%,10%,16%)" x1="243.7436" x2="261.2436" y1="65.3109" y2="95.6218" /><line stroke="rgb(10%,10%,16%)" x1="261.2436" x2="261.2436" y1="95.6218" y2="130.6218" /><line stroke="rgb(10%,10%,16%)" x1="261.2436" x2="243.7436" y1="130.6218" y2="160.9327" /><line stroke="rgb(10%,10%,16%)" x1="243.7436" x2="213.4327" y1="160.9327" y2="178.4327" /><line stroke="rgb(10%,10%,16%)" x1="213.4327" x2="178.4327" y1="178.4327" y2="178.4327" /><line stroke="rgb(10%,10%,16%)" x1="178.4327" x2="148.1218" y1="178.4327" y2="160.9327" /><line stroke="rgb(10%,10%,16%)" x1="148.1218" x2="130.6218" y1="160.9327" y2="130.6218" /><line stroke="rgb(10%,10%,16%)" x1="130.6218" x2="148.1218" y1="130.6218" y2="100.3109" /><line stroke="rgb(10%,10%,16%)" x1="148.1218" x2="178.4327" y1="100.3109" y2="82.8109" /><line stroke="rgb(10%,10%,16%)" x1="178.4327" x2="213.4327" y1="82.8109" y2="82.8109" /><line stroke="rgb(10%,10%,16%)" x1="213.4327" x2="243.7436" y1="82.8109" y2="100.3109" /><line stroke="rgb(10%,10%,16%)" x1="243.7436" x2="261.2436" y1="100.3109" y2="130.6218" /><line stroke="rgb(10%,10%,16%)" x1="261.2436" x2="261.2436" y1="130.6218" y2="165.6218" /><line stroke="rgb(10%,10%,16%)" x1="261.2436" x2="243.7436" y1="165.6218" y2="195.9327" /><line stroke="rgb(10%,10%,16%)" x1="243.7436" x2="213.4327" y1="195.9327" y2="213.4327" /><line stroke="rgb(10%,10%,16%)" x1="213.4327" x2="178.4327" y1="213.4327" y2="213.4327" /><line stroke="rgb(10%,10%,16%)" x1="178.4327" x2="148.1218" y1="213.4327" y2="195.9327" /><line stroke="rgb(10%,10%,16%)" x1="148.1218" x2="130.6218" y1="195.9327" y2="165.6218" /><line stroke="rgb(10%,10%,16%)" x1="130.6218" x2="130.6218" y1="165.6218" y2="130.6218" /><line stroke="rgb(10%,10%,16%)" x1="130.6218" x2="160.9327" y1="130.6218" y2="113.1218" /><line stroke="rgb(10%,10%,16%)" x1="160.9327" x2="195.9327" y1="113.1218" y2="113.1218" /><line stroke="rgb(10%,10%,16%)" x1="195.9327" x2="226.2436" y1="113.1218" y2="130.6218" /><line stroke="rgb(10%,10%,16%)" x1="226.2436" x2="243.7436" y1="130.6218" y2="160.9327" /><line stroke="rgb(10%,10%,16%)" x1="243.7436" x2="243.7436" y1="160.9327" y2="195.9327" /><line stroke="rgb(10%,10%,16%)" x1="243.7436" x2="226.2436" y1="195.9327" y2="226.2436" /><line stroke="rgb(10%,10%,16%)" x1="226.2436" x2="195.9327" y1="226.2436" y2="243.7436" /><line stroke="rgb(10%,10%,16%)" x1="195.9327" x2="160.9327" y1="243.7436" y2="243.7436" /><line stroke="rgb(10%,10%,16%)" x1="160.9327" x2="130.6218" y1="243.7436" y2="226.2436" /><line stroke="rgb(10%,10%,16%)" x1="130.6218" x2="113.1218" y1="226.2436" y2="195.9327" /><line stroke="rgb(10%,10%,16%)" x1="113.1218" x2="113.1218" y1="195.9327" y2="160.9327" /><line stroke="rgb(10%,10%,16%)" x1="113.1218" x2="130.6218" y1="160.9327" y2="130.6218" /><line stroke="rgb(10%,10%,16%)" x1="130.6218" x2="165.6218" y1="130.6218" y2="130.6218" /><line stroke="rgb(10%,10%,16%)" x1="165.6218" x2="195.9327" y1="130.6218" y2="148.1218" /><line stroke="rgb(10%,10%,16%)" x1="195.9327" x2="213.4327" y1="148.1218" y2="178.4327" /><line stroke="rgb(10%,10%,16%)" x1="213.4327" x2="213.4327" y1="178.4327" y2="213.4327" /><line stroke="rgb(10%,10%,16%)" x1="213.4327" x2="195.9327" y1="213.4327" y2="243.7436" /><line stroke="rgb(10%,10%,16%)" x1="195.9327" x2="165.6218" y1="243.7436" y2="261.2436" /><line stroke="rgb(10%,10%,16%)" x1="165.6218" x2="130.6218" y1="261.2436" y2="261.2436" /><line stroke="rgb(10%,10%,16%)" x1="130.6218" x2="100.3109" y1="261.2436" y2="243.7436" /><line stroke="rgb(10%,10%,16%)" x1="100.3109" x2="82.8109" y1="243.7436" y2="213.4327" /><line stroke="rgb(10%,10%,16%)" x1="82.8109" x2="82.8109" y1="213.4327" y2="178.4327" /><line stroke="rgb(10%,10%,16%)" x1="82.8109" x2="100.3109" y1="178.4327" y2="148.1218" /><line stroke="rgb(10%,10%,16%)" x1="100.3109" x2="130.6218" y1="148.1218" y2="130.6218" /><line stroke="rgb(10%,10%,16%)" x1="130.6218" x2="160.9327" y1="130.6218" y2="148.1218" /><line stroke="rgb(10%,10%,16%)" x1="160.9327" x2="178.4327" y1="148.1218" y2="178.4327" /><line stroke="rgb(10%,10%,16%)" x1="178.4327" x2="178.4327" y1="178.4327" y2="213.4327" /><line stroke="rgb(10%,10%,16%)" x1="178.4327" x2="160.9327" y1="213.4327" y2="243.7436" /><line stroke="rgb(10%,10%,16%)" x1="160.9327" x2="130.6218" y1="243.7436" y2="261.2436" /><line stroke="rgb(10%,10%,16%)" x1="130.6218" x2="95.6218" y1="261.2436" y2="261.2436" /><line stroke="rgb(10%,10%,16%)" x1="95.6218" x2="65.3109" y1="261.2436" y2="243.7436" /><line stroke="rgb(10%,10%,16%)" x1="65.3109" x2="47.8109" y1="243.7436" y2="213.4327" /><line stroke="rgb(10%,10%,16%)" x1="47.8109" x2="47.8109" y1="213.4327" y2="178.4327" /><line stroke="rgb(10%,10%,16%)" x1="47.8109" x2="65.3109" y1="178.4327" y2="148.1218" /><line stroke="rgb(10%,10%,16%)" x1="65.3109" x2="95.6218" y1="148.1218" y2="130.6218" /><line stroke="rgb(10%,10%,16%)" x1="95.6218" x2="130.6218" y1="130.6218" y2="130.6218" /><line stroke="rgb(10%,10%,16%)" x1="130.6218" x2="148.1218" y1="130.6218" y2="160.9327" /><line stroke="rgb(10%,10%,16%)" x1="148.1218" x2="148.1218" y1="160.9327" y2="195.9327" /><line stroke="rgb(10%,10%,16%)" x1="148.1218" x2="130.6218" y1="195.9327" y2="226.2436" /><line stroke="rgb(10%,10%,16%)" x1="130.6218" x2="100.3109" y1="226.2436" y2="243.7436" /><line stroke="rgb(10%,10%,16%)" x1="100.3109" x2="65.3109" y1="243.7436" y2="243.7436" /><line stroke="rgb(10%,10%,16%)" x1="65.3109" x2="35.0" y1="243.7436" y2="226.2436" /><line stroke="rgb(10%,10%,16%)" x1="35.0" x2="17.5" y1="226.2436" y2="195.9327" /><line stroke="rgb(10%,10%,16%)" x1="17.5" x2="17.5" y1="195.9327" y2="160.9327" /><line stroke="rgb(10%,10%,16%)" x1="17.5" x2="35.0" y1="160.9327" y2="130.6218" /><line stroke="rgb(10%,10%,16%)" x1="35.0" x2="65.3109" y1="130.6218" y2="113.1218" /><line stroke="rgb(10%,10%,16%)" x1="65.3109" x2="100.3109" y1="113.1218" y2="113.1218" /><line stroke="rgb(10%,10%,16%)" x1="100.3109" x2="130.6218" y1="113.1218" y2="130.6218" /><line stroke="rgb(10%,10%,16%)" x1="130.6218" x2="130.6218" y1="130.6218" y2="165.6218" /><line stroke="rgb(10%,10%,16%)" x1="130.6218" x2="113.1218" y1="165.6218" y2="195.9327" /><line stroke="rgb(10%,10%,16%)" x1="113.1218" x2="82.8109" y1="195.9327" y2="213.4327" /><line stroke="rgb(10%,10%,16%)" x1="82.8109" x2="47.8109" y1="213.4327" y2="213.4327" /><line stroke="rgb(10%,10%,16%)" x1="47.8109" x2="17.5" y1="213.4327" y2="195.9327" /><line stroke="rgb(10%,10%,16%)" x1="17.5" x2="0.0" y1="195.9327" y2="165.6218" /><line stroke="rgb(10%,10%,16%)" x1="0.0" x2="0.0" y1="165.6218" y2="130.6218" /><line stroke="rgb(10%,10%,16%)" x1="0.0" x2="17.5" y1="130.6218" y2="100.3109" /><line stroke="rgb(10%,10%,16%)" x1="17.5" x2="47.8109" y1="100.3109" y2="82.8109" /><line stroke="rgb(10%,10%,16%)" x1="47.8109" x2="82.8109" y1="82.8109" y2="82.8109" /><line stroke="rgb(10%,10%,16%)" x1="82.8109" x2="113.1218" y1="82.8109" y2="100.3109" /><line stroke="rgb(10%,10%,16%)" x1="113.1218" x2="130.6218" y1="100.3109" y2="130.6218" /></svg>
