<?xml version="1.0" encoding="utf-8" ?>
<svg baseProfile="tiny" height="100%" version="1.2" width="100%" xmlns="http://www.w3.org/2000/svg" xmlns:ev="http://www.w3.org/2001/xml-events" xmlns:xlink="http://www.w3.org/1999/xlink"><defs /><line stroke="rgb(10%,10%,16%)" x1="0.0" x2="0.0" y1="100.0" y2="100.0" /><line stroke="rgb(10%,10%,16%)" x1="20.0" x2="20.0" y1="90.4762" y2="109.5238" /><line stroke="rgb(10%,10%,16%)" x1="40.0" x2="40.0" y1="80.9524" y2="119.0476" /><line stroke="rgb(10%,10%,16%)" x1="60.0" x2="60.0" y1="71.4286" y2="128.5714" /><line stroke="rgb(10%,10%,16%)" x1="80.0" x2="80.0" y1="61.9048" y2="138.0952" /><line stroke="rgb(10%,10%,16%)" x1="100.0" x2="100.0" y1="52.381" y2="147.619" /><line stroke="rgb(10%,10%,16%)" x1="120.0" x2="120.0" y1="42.8571" y2="157.1429" /><line stroke="rgb(10%,10%,16%)" x1="140.0" x2="140.0" y1="33.3333" y2="166.6667" /><line stroke="rgb(10%,10%,16%)" x1="160.0" x2="160.0" y1="23.8095" y2="176.1905" /><line stroke="rgb(10%,10%,16%)" x1="180.0" x2="180.0" y1="14.2857" y2="185.7143" /><line stroke="rgb(10%,10%,16%)" x1="200.0" x2="200.0" y1="4.7619" y2="195.2381" /><line stroke="rgb(10%,10%,16%)" x1="220.0" x2="220.0" y1="4.7619" y2="195.2381" /><line stroke="rgb(10%,10%,16%)" x1="240.0" x2="240.0" y1="14.2857" y2="185.7143" /><line stroke="rgb(10%,10%,16%)" x1="260.0" x2="260.0" y1="23.8095" y2="176.1905" /><line stroke="rgb(10%,10%,16%)" x1="280.0" x2="280.0" y1="33.3333" y2="166.6667" /><line stroke="rgb(10%,10%,16%)" x1="300.0" x2="300.0" y1="42.8571" y2="157.1429" /><line stroke="rgb(10%,10%,16%)" x1="320.0" x2="320.0" y1="52.381" y2="147.619" /><line stroke="rgb(10%,10%,16%)" x1="340.0" x2="340.0" y1="61.9048" y2="138.0952" /><line stroke="rgb(10%,10%,16%)" x1="360.0" x2="360.0" y1="71.4286" y2="128.5714" /><line stroke="rgb(10%,10%,16%)" x1="380.0" x2="380.0" y1="80.9524" y2="119.0476" /><line stroke="rgb(10%,10%,16%)" x1="400.0" x2="400.0" y1="90.4762" y2="109.5238" /></svg>