<?xml version="1.0" encoding="utf-8" ?>
<svg baseProfile="tiny" height="100%" version="1.2" width="100%" xmlns="http://www.w3.org/2000/svg" xmlns:ev="http://www.w3.org/2001/xml-events" xmlns:xlink="http://www.w3.org/1999/xlink"><defs /><line stroke="rgb(10%,10%,16%)" x1="200.0" x2="200.0" y1="0.0" y2="200.0" /><line stroke="rgb(10%,10%,16%)" x1="200.0" x2="0.0" y1="200.0" y2="200.0" /><line stroke="rgb(10%,10%,16%)" x1="0.0" x2="0.0" y1="200.0" y2="0.0" /><line stroke="rgb(10%,10%,16%)" x1="0.0" x2="200.0" y1="0.0" y2="0.0" /><line stroke="rgb(10%,10%,16%)" x1="200.0" x2="200.0" y1="0.0" y2="50.0" /><line stroke="rgb(10%,10%,16%)" x1="200.0" x2="151.1401" y1="50.0" y2="200.3752" /><line stroke="rgb(10%,10%,16%)" x1="151.1401" x2="0.7649" y1="200.3752" y2="151.5154" /><line stroke="rgb(10%,10%,16%)" x1="0.7649" x2="49.6248" y1="151.5154" y2="1.1401" /><line stroke="rgb(10%,10%,16%)" x1="49.6248" x2="200.0" y1="1.1401" y2="50.0" /><line stroke="rgb(10%,10%,16%)" x1="200.0" x2="187.785" y1="50.0" y2="87.5938" /><line stroke="rgb(10%,10%,16%)" x1="187.785" x2="114.3119" y1="87.5938" y2="188.7209" /><line stroke="rgb(10%,10%,16%)" x1="114.3119" x2="13.1847" y1="188.7209" y2="115.2478" /><line stroke="rgb(10%,10%,16%)" x1="13.1847" x2="86.6579" y1="115.2478" y2="14.1207" /><line stroke="rgb(10%,10%,16%)" x1="86.6579" x2="187.785" y1="14.1207" y2="87.5938" /><line stroke="rgb(10%,10%,16%)" x1="187.785" x2="169.4167" y1="87.5938" y2="112.8756" /><line stroke="rgb(10%,10%,16%)" x1="169.4167" x2="89.4687" y1="112.8756" y2="170.9612" /><line stroke="rgb(10%,10%,16%)" x1="89.4687" x2="31.3831" y1="170.9612" y2="91.0132" /><line stroke="rgb(10%,10%,16%)" x1="31.3831" x2="111.3311" y1="91.0132" y2="32.9276" /><line stroke="rgb(10%,10%,16%)" x1="111.3311" x2="169.4167" y1="32.9276" y2="112.8756" /><line stroke="rgb(10%,10%,16%)" x1="169.4167" x2="149.4297" y1="112.8756" y2="127.397" /><line stroke="rgb(10%,10%,16%)" x1="149.4297" x2="75.1284" y1="127.397" y2="151.539" /><line stroke="rgb(10%,10%,16%)" x1="75.1284" x2="50.9865" y1="151.539" y2="77.2377" /><line stroke="rgb(10%,10%,16%)" x1="50.9865" x2="125.2878" y1="77.2377" y2="53.0957" /><line stroke="rgb(10%,10%,16%)" x1="125.2878" x2="149.4297" y1="53.0957" y2="127.397" /><line stroke="rgb(10%,10%,16%)" x1="149.4297" x2="130.8544" y1="127.397" y2="133.4325" /><line stroke="rgb(10%,10%,16%)" x1="130.8544" x2="69.0912" y1="133.4325" y2="133.4325" /><line stroke="rgb(10%,10%,16%)" x1="69.0912" x2="69.0912" y1="133.4325" y2="71.6693" /><line stroke="rgb(10%,10%,16%)" x1="69.0912" x2="130.8544" y1="71.6693" y2="71.6693" /><line stroke="rgb(10%,10%,16%)" x1="130.8544" x2="130.8544" y1="71.6693" y2="133.4325" /><line stroke="rgb(10%,10%,16%)" x1="130.8544" x2="115.4136" y1="133.4325" y2="133.4325" /><line stroke="rgb(10%,10%,16%)" x1="115.4136" x2="68.9753" y1="133.4325" y2="118.3438" /><line stroke="rgb(10%,10%,16%)" x1="68.9753" x2="84.064" y1="118.3438" y2="71.9055" /><line stroke="rgb(10%,10%,16%)" x1="84.064" x2="130.5023" y1="71.9055" y2="86.9942" /><line stroke="rgb(10%,10%,16%)" x1="130.5023" x2="115.4136" y1="86.9942" y2="133.4325" /><line stroke="rgb(10%,10%,16%)" x1="115.4136" x2="103.804" y1="133.4325" y2="129.6603" /><line stroke="rgb(10%,10%,16%)" x1="103.804" x2="72.5743" y1="129.6603" y2="106.9706" /><line stroke="rgb(10%,10%,16%)" x1="72.5743" x2="95.264" y1="106.9706" y2="75.7409" /><line stroke="rgb(10%,10%,16%)" x1="95.264" x2="126.4937" y1="75.7409" y2="98.4306" /><line stroke="rgb(10%,10%,16%)" x1="126.4937" x2="103.804" y1="98.4306" y2="129.6603" /><line stroke="rgb(10%,10%,16%)" x1="103.804" x2="95.9966" y1="129.6603" y2="123.9879" /><line stroke="rgb(10%,10%,16%)" x1="95.9966" x2="78.0588" y1="123.9879" y2="99.2986" /><line stroke="rgb(10%,10%,16%)" x1="78.0588" x2="102.7481" y1="99.2986" y2="81.3609" /><line stroke="rgb(10%,10%,16%)" x1="102.7481" x2="120.6858" y1="81.3609" y2="106.0501" /><line stroke="rgb(10%,10%,16%)" x1="120.6858" x2="95.9966" y1="106.0501" y2="123.9879" /><line stroke="rgb(10%,10%,16%)" x1="95.9966" x2="91.5122" y1="123.9879" y2="117.8156" /><line stroke="rgb(10%,10%,16%)" x1="91.5122" x2="84.0567" y1="117.8156" y2="94.8701" /><line stroke="rgb(10%,10%,16%)" x1="84.0567" x2="107.0022" y1="94.8701" y2="87.4147" /><line stroke="rgb(10%,10%,16%)" x1="107.0022" x2="114.4576" y1="87.4147" y2="110.3601" /><line stroke="rgb(10%,10%,16%)" x1="114.4576" x2="91.5122" y1="110.3601" y2="117.8156" /><line stroke="rgb(10%,10%,16%)" x1="91.5122" x2="89.6483" y1="117.8156" y2="112.0792" /><line stroke="rgb(10%,10%,16%)" x1="89.6483" x2="89.6483" y1="112.0792" y2="93.0057" /><line stroke="rgb(10%,10%,16%)" x1="89.6483" x2="108.7218" y1="93.0057" y2="93.0057" /><line stroke="rgb(10%,10%,16%)" x1="108.7218" x2="108.7218" y1="93.0057" y2="112.0792" /><line stroke="rgb(10%,10%,16%)" x1="108.7218" x2="89.6483" y1="112.0792" y2="112.0792" /><line stroke="rgb(10%,10%,16%)" x1="89.6483" x2="89.6483" y1="112.0792" y2="107.3108" /><line stroke="rgb(10%,10%,16%)" x1="89.6483" x2="94.3079" y1="107.3108" y2="92.9699" /><line stroke="rgb(10%,10%,16%)" x1="94.3079" x2="108.6488" y1="92.9699" y2="97.6296" /><line stroke="rgb(10%,10%,16%)" x1="108.6488" x2="103.9892" y1="97.6296" y2="111.9705" /><line stroke="rgb(10%,10%,16%)" x1="103.9892" x2="89.6483" y1="111.9705" y2="107.3108" /><line stroke="rgb(10%,10%,16%)" x1="89.6483" x2="90.8132" y1="107.3108" y2="103.7256" /><line stroke="rgb(10%,10%,16%)" x1="90.8132" x2="97.8202" y1="103.7256" y2="94.0814" /><line stroke="rgb(10%,10%,16%)" x1="97.8202" x2="107.4644" y1="94.0814" y2="101.0883" /><line stroke="rgb(10%,10%,16%)" x1="107.4644" x2="100.4575" y1="101.0883" y2="110.7326" /><line stroke="rgb(10%,10%,16%)" x1="100.4575" x2="90.8132" y1="110.7326" y2="103.7256" /><line stroke="rgb(10%,10%,16%)" x1="90.8132" x2="92.565" y1="103.7256" y2="101.3146" /><line stroke="rgb(10%,10%,16%)" x1="92.565" x2="100.1894" y1="101.3146" y2="95.7751" /><line stroke="rgb(10%,10%,16%)" x1="100.1894" x2="105.7289" y1="95.7751" y2="103.3995" /><line stroke="rgb(10%,10%,16%)" x1="105.7289" x2="98.1044" y1="103.3995" y2="108.939" /><line stroke="rgb(10%,10%,16%)" x1="98.1044" x2="92.565" y1="108.939" y2="101.3146" /><line stroke="rgb(10%,10%,16%)" x1="92.565" x2="94.4711" y1="101.3146" y2="99.9297" /><line stroke="rgb(10%,10%,16%)" x1="94.4711" x2="101.557" y1="99.9297" y2="97.6273" /><line stroke="rgb(10%,10%,16%)" x1="101.557" x2="103.8593" y1="97.6273" y2="104.7133" /><line stroke="rgb(10%,10%,16%)" x1="103.8593" x2="96.7734" y1="104.7133" y2="107.0156" /><line stroke="rgb(10%,10%,16%)" x1="96.7734" x2="94.4711" y1="107.0156" y2="99.9297" /><line stroke="rgb(10%,10%,16%)" x1="94.4711" x2="96.2425" y1="99.9297" y2="99.3541" /></svg>