<?xml version="1.0" encoding="utf-8" ?>
<svg baseProfile="tiny" height="100%" version="1.2" width="100%" xmlns="http://www.w3.org/2000/svg" xmlns:ev="http://www.w3.org/2001/xml-events" xmlns:xlink="http://www.w3.org/1999/xlink"><defs /><line stroke="rgb(10%,10%,16%)" x1="10" x2="100.0" y1="167.4316" y2="11.547" /><line stroke="rgb(10%,10%,16%)" x1="100.0" x2="190" y1="11.547" y2="167.4316" /><line stroke="rgb(10%,10%,16%)" x1="10" x2="190" y1="167.4316" y2="167.4316" /><line stroke="rgb(10%,10%,16%)" x1="20" x2="100.0" y1="161.6581" y2="23.094" /><line stroke="rgb(10%,10%,16%)" x1="100.0" x2="180" y1="23.094" y2="161.6581" /><line stroke="rgb(10%,10%,16%)" x1="20" x2="180" y1="161.6581" y2="161.6581" /><line stroke="rgb(10%,10%,16%)" x1="30" x2="100.0" y1="155.8846" y2="34.641" /><line stroke="rgb(10%,10%,16%)" x1="100.0" x2="170" y1="34.641" y2="155.8846" /><line stroke="rgb(10%,10%,16%)" x1="30" x2="170" y1="155.8846" y2="155.8846" /><line stroke="rgb(10%,10%,16%)" x1="40" x2="100.0" y1="150.1111" y2="46.188" /><line stroke="rgb(10%,10%,16%)" x1="100.0" x2="160" y1="46.188" y2="150.1111" /><line stroke="rgb(10%,10%,16%)" x1="40" x2="160" y1="150.1111" y2="150.1111" /><line stroke="rgb(10%,10%,16%)" x1="50" x2="100.0" y1="144.3376" y2="57.735" /><line stroke="rgb(10%,10%,16%)" x1="100.0" x2="150" y1="57.735" y2="144.3376" /><line stroke="rgb(10%,10%,16%)" x1="50" x2="150" y1="144.3376" y2="144.3376" /><line stroke="rgb(10%,10%,16%)" x1="60" x2="100.0" y1="138.5641" y2="69.282" /><line stroke="rgb(10%,10%,16%)" x1="100.0" x2="140" y1="69.282" y2="138.5641" /><line stroke="rgb(10%,10%,16%)" x1="60" x2="140" y1="138.5641" y2="138.5641" /><line stroke="rgb(10%,10%,16%)" x1="70" x2="100.0" y1="132.7906" y2="80.829" /><line stroke="rgb(10%,10%,16%)" x1="100.0" x2="130" y1="80.829" y2="132.7906" /><line stroke="rgb(10%,10%,16%)" x1="70" x2="130" y1="132.7906" y2="132.7906" /><line stroke="rgb(10%,10%,16%)" x1="80" x2="100.0" y1="127.0171" y2="92.376" /><line stroke="rgb(10%,10%,16%)" x1="100.0" x2="120" y1="92.376" y2="127.0171" /><line stroke="rgb(10%,10%,16%)" x1="80" x2="120" y1="127.0171" y2="127.0171" /><line stroke="rgb(10%,10%,16%)" x1="90" x2="100.0" y1="121.2436" y2="103.923" /><line stroke="rgb(10%,10%,16%)" x1="100.0" x2="110" y1="103.923" y2="121.2436" /><line stroke="rgb(10%,10%,16%)" x1="90" x2="110" y1="121.2436" y2="121.2436" /></svg>