<?xml version="1.0" encoding="utf-8" ?>
<svg baseProfile="tiny" height="300px" version="1.2" width="100%" xmlns="http://www.w3.org/2000/svg" xmlns:ev="http://www.w3.org/2001/xml-events" xmlns:xlink="http://www.w3.org/1999/xlink"><defs /><line stroke="rgb(10%,10%,16%)" x1="146.6604" x2="146.6604" y1="246.6604" y2="146.6604" /><line stroke="rgb(10%,10%,16%)" x1="146.6604" x2="99.9914" y1="146.6604" y2="99.9914" /><line stroke="rgb(10%,10%,16%)" x1="99.9914" x2="55.9914" y1="99.9914" y2="99.9914" /><line stroke="rgb(10%,10%,16%)" x1="55.9914" x2="35.4853" y1="99.9914" y2="120.4975" /><line stroke="rgb(10%,10%,16%)" x1="35.4853" x2="35.4853" y1="120.4975" y2="139.4975" /><line stroke="rgb(10%,10%,16%)" x1="35.4853" x2="43.9706" y1="139.4975" y2="147.9828" /><line stroke="rgb(10%,10%,16%)" x1="43.9706" x2="51.9706" y1="147.9828" y2="147.9828" /><line stroke="rgb(10%,10%,16%)" x1="43.9706" x2="43.9706" y1="147.9828" y2="155.9828" /><line stroke="rgb(10%,10%,16%)" x1="35.4853" x2="27.0" y1="139.4975" y2="147.9828" /><line stroke="rgb(10%,10%,16%)" x1="27.0" x2="27.0" y1="147.9828" y2="155.9828" /><line stroke="rgb(10%,10%,16%)" x1="27.0" x2="19.0" y1="147.9828" y2="147.9828" /><line stroke="rgb(10%,10%,16%)" x1="35.4853" x2="16.4853" y1="120.4975" y2="120.4975" /><line stroke="rgb(10%,10%,16%)" x1="16.4853" x2="8.0" y1="120.4975" y2="128.9828" /><line stroke="rgb(10%,10%,16%)" x1="8.0" x2="8.0" y1="128.9828" y2="136.9828" /><line stroke="rgb(10%,10%,16%)" x1="8.0" x2="0.0" y1="128.9828" y2="128.9828" /><line stroke="rgb(10%,10%,16%)" x1="16.4853" x2="8.0" y1="120.4975" y2="112.0122" /><line stroke="rgb(10%,10%,16%)" x1="8.0" x2="0.0" y1="112.0122" y2="112.0122" /><line stroke="rgb(10%,10%,16%)" x1="8.0" x2="8.0" y1="112.0122" y2="104.0122" /><line stroke="rgb(10%,10%,16%)" x1="55.9914" x2="35.4853" y1="99.9914" y2="79.4853" /><line stroke="rgb(10%,10%,16%)" x1="35.4853" x2="16.4853" y1="79.4853" y2="79.4853" /><line stroke="rgb(10%,10%,16%)" x1="16.4853" x2="8.0" y1="79.4853" y2="87.9706" /><line stroke="rgb(10%,10%,16%)" x1="8.0" x2="8.0" y1="87.9706" y2="95.9706" /><line stroke="rgb(10%,10%,16%)" x1="8.0" x2="0.0" y1="87.9706" y2="87.9706" /><line stroke="rgb(10%,10%,16%)" x1="16.4853" x2="8.0" y1="79.4853" y2="71.0" /><line stroke="rgb(10%,10%,16%)" x1="8.0" x2="0.0" y1="71.0" y2="71.0" /><line stroke="rgb(10%,10%,16%)" x1="8.0" x2="8.0" y1="71.0" y2="63.0" /><line stroke="rgb(10%,10%,16%)" x1="35.4853" x2="35.4853" y1="79.4853" y2="60.4853" /><line stroke="rgb(10%,10%,16%)" x1="35.4853" x2="27.0" y1="60.4853" y2="52.0" /><line stroke="rgb(10%,10%,16%)" x1="27.0" x2="19.0" y1="52.0" y2="52.0" /><line stroke="rgb(10%,10%,16%)" x1="27.0" x2="27.0" y1="52.0" y2="44.0" /><line stroke="rgb(10%,10%,16%)" x1="35.4853" x2="43.9706" y1="60.4853" y2="52.0" /><line stroke="rgb(10%,10%,16%)" x1="43.9706" x2="43.9706" y1="52.0" y2="44.0" /><line stroke="rgb(10%,10%,16%)" x1="43.9706" x2="51.9706" y1="52.0" y2="52.0" /><line stroke="rgb(10%,10%,16%)" x1="99.9914" x2="99.9914" y1="99.9914" y2="55.9914" /><line stroke="rgb(10%,10%,16%)" x1="99.9914" x2="79.4853" y1="55.9914" y2="35.4853" /><line stroke="rgb(10%,10%,16%)" x1="79.4853" x2="60.4853" y1="35.4853" y2="35.4853" /><line stroke="rgb(10%,10%,16%)" x1="60.4853" x2="52.0" y1="35.4853" y2="43.9706" /><line stroke="rgb(10%,10%,16%)" x1="52.0" x2="52.0" y1="43.9706" y2="51.9706" /><line stroke="rgb(10%,10%,16%)" x1="52.0" x2="44.0" y1="43.9706" y2="43.9706" /><line stroke="rgb(10%,10%,16%)" x1="60.4853" x2="52.0" y1="35.4853" y2="27.0" /><line stroke="rgb(10%,10%,16%)" x1="52.0" x2="44.0" y1="27.0" y2="27.0" /><line stroke="rgb(10%,10%,16%)" x1="52.0" x2="52.0" y1="27.0" y2="19.0" /><line stroke="rgb(10%,10%,16%)" x1="79.4853" x2="79.4853" y1="35.4853" y2="16.4853" /><line stroke="rgb(10%,10%,16%)" x1="79.4853" x2="71.0" y1="16.4853" y2="8.0" /><line stroke="rgb(10%,10%,16%)" x1="71.0" x2="63.0" y1="8.0" y2="8.0" /><line stroke="rgb(10%,10%,16%)" x1="71.0" x2="71.0" y1="8.0" y2="0.0" /><line stroke="rgb(10%,10%,16%)" x1="79.4853" x2="87.9706" y1="16.4853" y2="8.0" /><line stroke="rgb(10%,10%,16%)" x1="87.9706" x2="87.9706" y1="8.0" y2="0.0" /><line stroke="rgb(10%,10%,16%)" x1="87.9706" x2="95.9706" y1="8.0" y2="8.0" /><line stroke="rgb(10%,10%,16%)" x1="99.9914" x2="120.4975" y1="55.9914" y2="35.4853" /><line stroke="rgb(10%,10%,16%)" x1="120.4975" x2="120.4975" y1="35.4853" y2="16.4853" /><line stroke="rgb(10%,10%,16%)" x1="120.4975" x2="112.0122" y1="16.4853" y2="8.0" /><line stroke="rgb(10%,10%,16%)" x1="112.0122" x2="104.0122" y1="8.0" y2="8.0" /><line stroke="rgb(10%,10%,16%)" x1="112.0122" x2="112.0122" y1="8.0" y2="0.0" /><line stroke="rgb(10%,10%,16%)" x1="120.4975" x2="128.9828" y1="16.4853" y2="8.0" /><line stroke="rgb(10%,10%,16%)" x1="128.9828" x2="128.9828" y1="8.0" y2="0.0" /><line stroke="rgb(10%,10%,16%)" x1="128.9828" x2="136.9828" y1="8.0" y2="8.0" /><line stroke="rgb(10%,10%,16%)" x1="120.4975" x2="139.4975" y1="35.4853" y2="35.4853" /><line stroke="rgb(10%,10%,16%)" x1="139.4975" x2="147.9828" y1="35.4853" y2="27.0" /><line stroke="rgb(10%,10%,16%)" x1="147.9828" x2="147.9828" y1="27.0" y2="19.0" /><line stroke="rgb(10%,10%,16%)" x1="147.9828" x2="155.9828" y1="27.0" y2="27.0" /><line stroke="rgb(10%,10%,16%)" x1="139.4975" x2="147.9828" y1="35.4853" y2="43.9706" /><line stroke="rgb(10%,10%,16%)" x1="147.9828" x2="155.9828" y1="43.9706" y2="43.9706" /><line stroke="rgb(10%,10%,16%)" x1="147.9828" x2="147.9828" y1="43.9706" y2="51.9706" /><line stroke="rgb(10%,10%,16%)" x1="146.6604" x2="193.3295" y1="146.6604" y2="99.9914" /><line stroke="rgb(10%,10%,16%)" x1="193.3295" x2="193.3295" y1="99.9914" y2="55.9914" /><line stroke="rgb(10%,10%,16%)" x1="193.3295" x2="172.8234" y1="55.9914" y2="35.4853" /><line stroke="rgb(10%,10%,16%)" x1="172.8234" x2="153.8234" y1="35.4853" y2="35.4853" /><line stroke="rgb(10%,10%,16%)" x1="153.8234" x2="145.3381" y1="35.4853" y2="43.9706" /><line stroke="rgb(10%,10%,16%)" x1="145.3381" x2="145.3381" y1="43.9706" y2="51.9706" /><line stroke="rgb(10%,10%,16%)" x1="145.3381" x2="137.3381" y1="43.9706" y2="43.9706" /><line stroke="rgb(10%,10%,16%)" x1="153.8234" x2="145.3381" y1="35.4853" y2="27.0" /><line stroke="rgb(10%,10%,16%)" x1="145.3381" x2="137.3381" y1="27.0" y2="27.0" /><line stroke="rgb(10%,10%,16%)" x1="145.3381" x2="145.3381" y1="27.0" y2="19.0" /><line stroke="rgb(10%,10%,16%)" x1="172.8234" x2="172.8234" y1="35.4853" y2="16.4853" /><line stroke="rgb(10%,10%,16%)" x1="172.8234" x2="164.3381" y1="16.4853" y2="8.0" /><line stroke="rgb(10%,10%,16%)" x1="164.3381" x2="156.3381" y1="8.0" y2="8.0" /><line stroke="rgb(10%,10%,16%)" x1="164.3381" x2="164.3381" y1="8.0" y2="0.0" /><line stroke="rgb(10%,10%,16%)" x1="172.8234" x2="181.3087" y1="16.4853" y2="8.0" /><line stroke="rgb(10%,10%,16%)" x1="181.3087" x2="181.3087" y1="8.0" y2="0.0" /><line stroke="rgb(10%,10%,16%)" x1="181.3087" x2="189.3087" y1="8.0" y2="8.0" /><line stroke="rgb(10%,10%,16%)" x1="193.3295" x2="213.8356" y1="55.9914" y2="35.4853" /><line stroke="rgb(10%,10%,16%)" x1="213.8356" x2="213.8356" y1="35.4853" y2="16.4853" /><line stroke="rgb(10%,10%,16%)" x1="213.8356" x2="205.3503" y1="16.4853" y2="8.0" /><line stroke="rgb(10%,10%,16%)" x1="205.3503" x2="197.3503" y1="8.0" y2="8.0" /><line stroke="rgb(10%,10%,16%)" x1="205.3503" x2="205.3503" y1="8.0" y2="0.0" /><line stroke="rgb(10%,10%,16%)" x1="213.8356" x2="222.3209" y1="16.4853" y2="8.0" /><line stroke="rgb(10%,10%,16%)" x1="222.3209" x2="222.3209" y1="8.0" y2="0.0" /><line stroke="rgb(10%,10%,16%)" x1="222.3209" x2="230.3209" y1="8.0" y2="8.0" /><line stroke="rgb(10%,10%,16%)" x1="213.8356" x2="232.8356" y1="35.4853" y2="35.4853" /><line stroke="rgb(10%,10%,16%)" x1="232.8356" x2="241.3209" y1="35.4853" y2="27.0" /><line stroke="rgb(10%,10%,16%)" x1="241.3209" x2="241.3209" y1="27.0" y2="19.0" /><line stroke="rgb(10%,10%,16%)" x1="241.3209" x2="249.3209" y1="27.0" y2="27.0" /><line stroke="rgb(10%,10%,16%)" x1="232.8356" x2="241.3209" y1="35.4853" y2="43.9706" /><line stroke="rgb(10%,10%,16%)" x1="241.3209" x2="249.3209" y1="43.9706" y2="43.9706" /><line stroke="rgb(10%,10%,16%)" x1="241.3209" x2="241.3209" y1="43.9706" y2="51.9706" /><line stroke="rgb(10%,10%,16%)" x1="193.3295" x2="237.3295" y1="99.9914" y2="99.9914" /><line stroke="rgb(10%,10%,16%)" x1="237.3295" x2="257.8356" y1="99.9914" y2="79.4853" /><line stroke="rgb(10%,10%,16%)" x1="257.8356" x2="257.8356" y1="79.4853" y2="60.4853" /><line stroke="rgb(10%,10%,16%)" x1="257.8356" x2="249.3503" y1="60.4853" y2="52.0" /><line stroke="rgb(10%,10%,16%)" x1="249.3503" x2="241.3503" y1="52.0" y2="52.0" /><line stroke="rgb(10%,10%,16%)" x1="249.3503" x2="249.3503" y1="52.0" y2="44.0" /><line stroke="rgb(10%,10%,16%)" x1="257.8356" x2="266.3209" y1="60.4853" y2="52.0" /><line stroke="rgb(10%,10%,16%)" x1="266.3209" x2="266.3209" y1="52.0" y2="44.0" /><line stroke="rgb(10%,10%,16%)" x1="266.3209" x2="274.3209" y1="52.0" y2="52.0" /><line stroke="rgb(10%,10%,16%)" x1="257.8356" x2="276.8356" y1="79.4853" y2="79.4853" /><line stroke="rgb(10%,10%,16%)" x1="276.8356" x2="285.3209" y1="79.4853" y2="71.0" /><line stroke="rgb(10%,10%,16%)" x1="285.3209" x2="285.3209" y1="71.0" y2="63.0" /><line stroke="rgb(10%,10%,16%)" x1="285.3209" x2="293.3209" y1="71.0" y2="71.0" /><line stroke="rgb(10%,10%,16%)" x1="276.8356" x2="285.3209" y1="79.4853" y2="87.9706" /><line stroke="rgb(10%,10%,16%)" x1="285.3209" x2="293.3209" y1="87.9706" y2="87.9706" /><line stroke="rgb(10%,10%,16%)" x1="285.3209" x2="285.3209" y1="87.9706" y2="95.9706" /><line stroke="rgb(10%,10%,16%)" x1="237.3295" x2="257.8356" y1="99.9914" y2="120.4975" /><line stroke="rgb(10%,10%,16%)" x1="257.8356" x2="276.8356" y1="120.4975" y2="120.4975" /><line stroke="rgb(10%,10%,16%)" x1="276.8356" x2="285.3209" y1="120.4975" y2="112.0122" /><line stroke="rgb(10%,10%,16%)" x1="285.3209" x2="285.3209" y1="112.0122" y2="104.0122" /><line stroke="rgb(10%,10%,16%)" x1="285.3209" x2="293.3209" y1="112.0122" y2="112.0122" /><line stroke="rgb(10%,10%,16%)" x1="276.8356" x2="285.3209" y1="120.4975" y2="128.9828" /><line stroke="rgb(10%,10%,16%)" x1="285.3209" x2="293.3209" y1="128.9828" y2="128.9828" /><line stroke="rgb(10%,10%,16%)" x1="285.3209" x2="285.3209" y1="128.9828" y2="136.9828" /><line stroke="rgb(10%,10%,16%)" x1="257.8356" x2="257.8356" y1="120.4975" y2="139.4975" /><line stroke="rgb(10%,10%,16%)" x1="257.8356" x2="266.3209" y1="139.4975" y2="147.9828" /><line stroke="rgb(10%,10%,16%)" x1="266.3209" x2="274.3209" y1="147.9828" y2="147.9828" /><line stroke="rgb(10%,10%,16%)" x1="266.3209" x2="266.3209" y1="147.9828" y2="155.9828" /><line stroke="rgb(10%,10%,16%)" x1="257.8356" x2="249.3503" y1="139.4975" y2="147.9828" /><line stroke="rgb(10%,10%,16%)" x1="249.3503" x2="249.3503" y1="147.9828" y2="155.9828" /><line stroke="rgb(10%,10%,16%)" x1="249.3503" x2="241.3503" y1="147.9828" y2="147.9828" /></svg>