<?xml version="1.0" encoding="utf-8" ?>
<svg baseProfile="tiny" height="578px" version="1.2" width="205px" xmlns="http://www.w3.org/2000/svg" xmlns:ev="http://www.w3.org/2001/xml-events" xmlns:xlink="http://www.w3.org/1999/xlink"><defs /><line stroke="rgb(100%,10%,16%)" x1="0.0" x2="199.1047" y1="19.9198" y2="497.7198" /><circle cx="165.491" cy="525.3566" r="3" /><circle cx="100.8729" cy="294.3074" r="3" /><circle cx="65.4495" cy="163.821" r="3" /><circle cx="83.2622" cy="299.5209" r="3" /><circle cx="64.067" cy="112.4409" r="3" /><circle cx="80.6684" cy="212.0135" r="3" /><circle cx="121.2393" cy="258.3644" r="3" /><circle cx="6.087" cy="120.962" r="3" /><circle cx="17.5475" cy="41.3173" r="3" /><circle cx="141.5787" cy="409.8848" r="3" /><circle cx="84.9073" cy="134.8719" r="3" /><circle cx="102.3534" cy="293.4452" r="3" /><circle cx="152.8041" cy="531.9784" r="3" /><circle cx="188.4637" cy="364.3699" r="3" /><circle cx="128.6019" cy="267.5908" r="3" /><circle cx="62.8048" cy="174.014" r="3" /><circle cx="39.9693" cy="63.8765" r="3" /><circle cx="192.4722" cy="444.1691" r="3" /><circle cx="135.6587" cy="307.7503" r="3" /><circle cx="58.5162" cy="171.0238" r="3" /><circle cx="146.1549" cy="436.466" r="3" /><circle cx="107.7597" cy="290.4147" r="3" /><circle cx="30.6857" cy="36.8376" r="3" /><circle cx="61.8099" cy="165.8075" r="3" /><circle cx="175.4784" cy="459.6051" r="3" /><circle cx="157.3858" cy="367.2243" r="3" /><circle cx="11.8914" cy="7.067" r="3" /><circle cx="83.7002" cy="262.2065" r="3" /><circle cx="32.4346" cy="106.0099" r="3" /><circle cx="157.5311" cy="439.3532" r="3" /><circle cx="171.4777" cy="403.4933" r="3" /><circle cx="90.4297" cy="255.0777" r="3" /><circle cx="102.3784" cy="303.4492" r="3" /><circle cx="52.0483" cy="229.8304" r="3" /><circle cx="19.8276" cy="85.8251" r="3" /><circle cx="181.3965" cy="433.9351" r="3" /><circle cx="128.8066" cy="346.9274" r="3" /><circle cx="190.0834" cy="401.5674" r="3" /><circle cx="9.6008" cy="42.3434" r="3" /><circle cx="130.0222" cy="214.8673" r="3" /><circle cx="53.2822" cy="18.5301" r="3" /><circle cx="69.4933" cy="152.539" r="3" /><circle cx="6.9987" cy="92.0375" r="3" /><circle cx="158.1068" cy="432.4954" r="3" /><circle cx="184.9035" cy="425.0801" r="3" /><circle cx="198.2407" cy="507.7118" r="3" /><circle cx="102.7673" cy="324.4234" r="3" /><circle cx="169.5369" cy="366.123" r="3" /><circle cx="191.0869" cy="491.8773" r="3" /><circle cx="11.7661" cy="6.9094" r="3" /><circle cx="32.8098" cy="103.375" r="3" /><circle cx="91.3522" cy="258.113" r="3" /><circle cx="50.4713" cy="136.5033" r="3" /><circle cx="181.4494" cy="401.2799" r="3" /><circle cx="189.3442" cy="543.5041" r="3" /><circle cx="93.5187" cy="297.0073" r="3" /><circle cx="197.3464" cy="511.8697" r="3" /><circle cx="198.9583" cy="506.6182" r="3" /><circle cx="35.5483" cy="145.5505" r="3" /><circle cx="0.5629" cy="39.6034" r="3" /><circle cx="171.9121" cy="432.4448" r="3" /><circle cx="0.7175" cy="40.6511" r="3" /><circle cx="113.6103" cy="298.9725" r="3" /><circle cx="170.4239" cy="376.5537" r="3" /><circle cx="119.755" cy="324.448" r="3" /><circle cx="30.9605" cy="163.714" r="3" /><circle cx="78.1965" cy="226.9126" r="3" /><circle cx="199.1047" cy="572.447" r="3" /><circle cx="7.0919" cy="45.7646" r="3" /><circle cx="84.698" cy="241.7472" r="3" /><circle cx="63.0746" cy="198.9754" r="3" /><circle cx="122.6001" cy="241.8143" r="3" /><circle cx="178.4061" cy="437.0915" r="3" /><circle cx="59.2724" cy="129.6817" r="3" /><circle cx="117.3386" cy="246.979" r="3" /><circle cx="133.106" cy="381.7642" r="3" /><circle cx="115.7492" cy="305.9528" r="3" /><circle cx="68.661" cy="101.4829" r="3" /><circle cx="0.0" cy="14.0905" r="3" /><circle cx="182.9815" cy="438.2487" r="3" /><circle cx="102.5033" cy="304.0956" r="3" /><circle cx="89.2048" cy="261.2741" r="3" /><circle cx="44.1978" cy="87.4895" r="3" /><circle cx="153.2507" cy="349.4071" r="3" /><circle cx="156.0777" cy="450.6424" r="3" /><circle cx="70.9177" cy="116.9944" r="3" /><circle cx="170.2655" cy="409.8939" r="3" /><circle cx="45.0059" cy="114.0499" r="3" /><circle cx="11.2277" cy="24.1569" r="3" /><circle cx="38.3007" cy="30.7508" r="3" /><circle cx="174.2696" cy="492.9443" r="3" /><circle cx="20.7145" cy="113.0251" r="3" /><circle cx="80.5918" cy="211.1485" r="3" /><circle cx="12.9038" cy="162.7555" r="3" /><circle cx="186.3857" cy="480.5923" r="3" /><circle cx="66.8247" cy="157.0522" r="3" /><circle cx="164.4234" cy="422.4496" r="3" /><circle cx="15.355" cy="0.0" r="3" /><circle cx="162.2921" cy="423.0531" r="3" /><circle cx="85.1867" cy="202.4974" r="3" /></svg>
